<svg width="36" height="24" viewBox="0 0 36 24" fill="none" xmlns="http://www.w3.org/2000/svg">
<mask id="mask0" mask-type="alpha" maskUnits="userSpaceOnUse" x="0" y="0" width="36" height="24">
<rect width="36" height="24" rx="2" fill="#C4CAD4"/>
</mask>
<g mask="url(#mask0)">
<path d="M-0.107422 0H36V25.2752H-0.107422V0Z" fill="#006C35"/>
<path fill-rule="evenodd" clip-rule="evenodd" d="M22.4501 17.3765C22.4497 17.3766 22.449 17.3776 22.4486 17.3778C22.1579 17.4439 22.167 17.711 22.3536 17.8287C19.2841 17.8287 14.5739 17.7825 13.5637 17.7825C12.9985 17.7825 11.2106 17.7227 11.1761 17.7227C11.5596 18.2197 12.1151 18.321 12.8419 18.3312L22.3198 18.3162C22.192 18.5173 22.3314 18.8413 22.4316 18.9002C22.4338 18.9014 22.4372 18.9033 22.4393 18.9043C22.4432 18.9061 22.4473 18.9075 22.4516 18.9083C22.4528 18.9086 22.455 18.9082 22.4561 18.9083C22.5752 18.9332 22.6275 18.8568 22.6676 18.801C22.8607 18.8161 23.9473 18.83 24.0468 18.7997C24.0471 18.7995 24.048 18.7984 24.0483 18.7983C24.1156 18.8861 24.1823 18.9689 24.3104 18.9545C24.5344 18.9119 24.7109 18.8904 24.7164 18.4874C24.7164 18.4874 24.6936 17.8007 24.1846 17.8437C24.0643 17.8598 23.7265 17.8899 23.7265 17.8899C23.3356 17.8486 23.0488 17.8444 22.6094 17.8301C22.6499 17.7845 22.7215 17.5997 22.6338 17.5327C22.611 17.5159 22.5769 17.5065 22.5296 17.5096H22.5282C22.5275 17.5096 22.5257 17.5097 22.5251 17.5096C22.5248 17.5095 22.5239 17.5084 22.5236 17.5083C22.5224 17.5079 22.5202 17.5076 22.519 17.5069C22.5162 17.5049 22.5136 17.5027 22.5114 17.5002C22.5108 17.4996 22.5088 17.4981 22.5083 17.4974C22.4861 17.4688 22.474 17.3985 22.4592 17.3807L22.4578 17.3793C22.4576 17.3792 22.4564 17.3781 22.4562 17.378C22.4552 17.3775 22.4542 17.377 22.4532 17.3766H22.4501L22.4501 17.3765ZM22.6585 18.3584C22.659 18.3582 22.6595 18.3586 22.66 18.3584C23.1078 18.3777 23.5285 18.3621 23.9763 18.3814C24.0474 18.4349 24.0119 18.5574 23.9656 18.5797C23.9632 18.5808 23.9606 18.5817 23.958 18.5824C23.9564 18.5828 23.9539 18.5824 23.9519 18.5824C23.9498 18.5824 23.9478 18.5828 23.9457 18.5824L23.5703 18.573C23.5702 18.5665 23.5692 18.5601 23.5673 18.5539C23.5328 18.4633 23.2828 18.4694 23.224 18.5403C23.2229 18.5417 23.222 18.543 23.2209 18.5444C23.2197 18.5461 23.2187 18.5479 23.2179 18.5499C23.2167 18.5521 23.2157 18.5543 23.2148 18.5566C23.2139 18.5593 23.2136 18.5633 23.2133 18.5661C23.2129 18.5697 23.2114 18.5735 23.2118 18.577C23.0156 18.5979 22.8382 18.5712 22.6417 18.5648C22.5845 18.5012 22.5907 18.386 22.6586 18.3584H22.6585Z" fill="white"/>
<path d="M24.0509 10.8954C24.1128 10.9273 24.2757 10.7336 24.2699 10.4903C24.2879 10.3656 24.2239 9.90466 24.0614 9.82652C24.0424 9.8202 24.0223 9.81759 24.0024 9.8202C23.9176 9.83212 23.8372 9.90794 23.8741 10.0321C23.8508 10.105 23.9893 10.3602 24.0252 10.4956C24.0575 10.5921 23.9836 10.8647 24.0508 10.8933L24.0509 10.8954ZM11.2273 6.98209C11.4262 7.07375 11.7991 7.03525 11.7834 6.72479C11.7834 6.69791 11.7771 6.60507 11.7743 6.58C11.754 6.53434 11.7165 6.51702 11.6806 6.52296L11.681 6.52305C11.6447 6.52937 11.6105 6.55826 11.5979 6.60486C11.5899 6.6359 11.6115 6.68725 11.5828 6.70275C11.5663 6.7207 11.5031 6.70907 11.5057 6.62246C11.5057 6.59563 11.4849 6.56661 11.4724 6.54933C11.46 6.5404 11.4514 6.53741 11.4286 6.53741C11.4011 6.53817 11.4016 6.5463 11.3864 6.56812C11.3795 6.58906 11.371 6.61353 11.371 6.63974C11.3676 6.67015 11.3551 6.68068 11.3317 6.6851C11.3058 6.6851 11.3115 6.68746 11.2909 6.67318C11.279 6.65823 11.2639 6.65524 11.2639 6.63224C11.2639 6.61134 11.2577 6.57137 11.2503 6.55612C11.2392 6.5412 11.2221 6.53518 11.2019 6.52924C11.0933 6.52966 11.0854 6.65014 11.0916 6.69585C11.0837 6.70478 11.0794 6.91793 11.2276 6.97796L11.2273 6.98209ZM9.6333 6.97017C9.66379 7.04363 9.60309 7.28021 9.66656 7.30207C9.72489 7.32591 9.80525 7.13816 9.83578 6.96431C9.85259 6.86907 9.83979 6.54318 9.61071 6.47591C9.59876 6.47355 9.5868 6.46959 9.5744 6.46959C9.48678 6.46723 9.3901 6.51972 9.42781 6.62154C9.4059 6.67706 9.59932 6.86456 9.6333 6.96814V6.97017ZM16.6564 7.05766C16.7706 6.75899 16.7711 6.63169 16.7788 6.50498C16.7611 6.40859 16.7177 6.362 16.6685 6.36588C16.6193 6.3722 16.5649 6.42528 16.5205 6.53248C16.4823 6.61429 16.4358 7.03984 16.4434 7.03984C16.4129 7.16672 16.5802 7.22014 16.6564 7.05779V7.05766ZM15.2375 6.97438C15.2939 7.05256 15.3495 7.04452 15.4626 6.98929C15.5276 6.943 15.5495 6.91313 15.5714 6.83553C15.5984 6.70537 15.4297 6.89704 15.4082 6.75196C15.3705 6.61732 15.4781 6.5621 15.5804 6.43172C15.5827 6.37051 15.5838 6.32038 15.5427 6.31887C15.5239 6.31836 15.4959 6.3278 15.4565 6.3508C15.3682 6.40784 15.193 6.58485 15.1876 6.78797C15.1822 6.9026 15.16 6.90201 15.2374 6.97518L15.2375 6.97438ZM9.4386 9.03073C10.0191 9.08473 9.69841 8.08118 9.90856 7.89899C9.94828 7.80913 10.0219 7.80732 10.0279 7.91992V8.77237C10.0225 9.04939 10.2111 9.13187 10.3573 9.18912C10.5095 9.1772 10.6104 9.18019 10.6701 9.32497L10.7426 10.8003C10.7426 10.8003 11.0945 10.8979 11.1113 9.97122C11.1281 9.42696 10.9993 8.97023 11.0751 8.86437C11.0777 8.76049 11.2156 8.7551 11.3108 8.80582C11.4625 8.90945 11.5298 9.03688 11.7656 8.98557C12.1243 8.89003 12.3405 8.72136 12.3458 8.45479C12.325 8.20132 12.2945 7.94781 12.1811 7.69443C12.1968 7.64847 12.1124 7.52875 12.1282 7.48245C12.1927 7.58039 12.2902 7.57201 12.3125 7.48245C12.2515 7.28783 12.1564 7.10113 12.0028 7.02042C11.8759 6.91208 11.6901 6.93474 11.6221 7.16074C11.5905 7.42078 11.7195 7.7291 11.9152 7.98101C11.9567 8.0792 12.0149 8.24311 11.9892 8.39046C11.885 8.44801 11.7818 8.42383 11.6945 8.3349C11.6945 8.3349 11.409 8.12807 11.409 8.08206C11.4847 7.61249 11.4251 7.55878 11.3834 7.42841C11.3541 7.2487 11.266 7.19166 11.1945 7.06874C11.1231 6.99561 11.0262 6.99561 10.98 7.06874C10.8538 7.28038 10.913 7.73546 11.0042 7.93875C11.0701 8.12592 11.1711 8.2429 11.1235 8.2429C11.0843 8.34855 11.0027 8.32407 10.9437 8.20195C10.8596 7.94941 10.8425 7.57323 10.8425 7.40359C10.8175 7.19343 10.7891 6.74412 10.646 6.63013C10.6079 6.57966 10.5628 6.56235 10.5191 6.56715C10.463 6.57347 10.41 6.61766 10.3847 6.67672C10.3753 6.88541 10.3741 7.09414 10.3983 7.28649C10.4964 7.62382 10.5275 7.9206 10.5751 8.26607C10.5882 8.7289 10.2989 8.46608 10.3122 8.23624C10.379 7.93829 10.3605 7.46906 10.3016 7.35014C10.2546 7.23134 10.2001 7.20177 10.0856 7.22149C9.99461 7.21517 9.75988 7.46388 9.69424 7.87363C9.69424 7.87363 9.63956 8.08409 9.61565 8.27138C9.58355 8.48301 9.43856 8.63298 9.33762 8.24147C9.25036 7.95758 9.19668 7.25746 9.05053 7.42129C9.00864 7.96778 8.95897 8.9295 9.43884 9.0282L9.4386 9.03073ZM13.1784 8.10334C13.1786 8.10346 13.1796 8.10325 13.1799 8.10334C13.1802 8.10346 13.1811 8.1049 13.1814 8.1049C13.1817 8.10502 13.1825 8.1049 13.1829 8.1049L13.1844 8.1065C13.2223 8.13034 13.6875 8.13034 13.739 8.10806C13.7394 8.1078 13.7402 8.1065 13.7405 8.1065C13.7408 8.10624 13.7418 8.10658 13.742 8.1065C13.7421 8.10641 13.7419 8.1049 13.742 8.1049C13.9018 8.04786 14.6607 7.2086 14.6607 7.2086C14.6213 7.17603 14.5851 7.15185 14.5458 7.11929C14.5037 7.08378 14.508 7.04949 14.5458 7.01398C14.7338 6.90824 14.6742 6.67525 14.576 6.56939C14.4947 6.53417 14.4181 6.52225 14.3494 6.52549C14.2863 6.52751 14.2244 6.544 14.1681 6.57381C14.0363 6.69593 14.0053 6.89177 14.1092 7.01393C14.2102 7.05994 14.3106 7.15842 14.2436 7.21277C13.9576 7.50802 13.2144 8.00148 13.1769 8.0915C13.1765 8.09239 13.176 8.0932 13.1754 8.0939C13.1752 8.09458 13.1754 8.09626 13.1754 8.09706V8.09862C13.1758 8.09946 13.1763 8.10022 13.1769 8.10178L13.1784 8.10338V8.10334ZM14.3043 6.78776C14.3074 6.78709 14.3102 6.78621 14.3134 6.78621C14.3598 6.77989 14.4158 6.82294 14.4434 6.88111C14.4727 6.94321 14.4578 7.00265 14.4101 7.01427C14.3623 7.02619 14.3004 6.9844 14.2711 6.92231C14.2418 6.86026 14.2566 6.79901 14.3044 6.78768L14.3043 6.78776ZM15.3538 8.59591C15.5859 8.68875 15.7332 8.26131 15.8282 7.79321C15.8932 7.66157 15.9429 7.64695 15.9763 7.7141C15.9678 8.33671 16.0224 8.4756 16.1878 8.66453C16.5568 8.94003 16.862 8.69941 16.886 8.67645L17.173 8.39851C17.237 8.33343 17.3215 8.32955 17.4118 8.38659C17.4995 8.46359 17.4883 8.59705 17.6762 8.6893C17.8344 8.75051 18.1721 8.70421 18.2504 8.57228C18.3558 8.39733 18.3814 8.33734 18.4302 8.27104C18.5054 8.17402 18.6342 8.21733 18.6342 8.25019C18.6223 8.30419 18.5466 8.35735 18.598 8.45496C18.6874 8.51975 18.7082 8.47589 18.7612 8.46389C18.9484 8.37732 19.089 7.98429 19.089 7.98429C19.0973 7.8377 19.0111 7.84907 18.9561 7.87889C18.8842 7.92152 18.8798 7.93593 18.808 7.97831C18.7164 7.99322 18.5392 8.04992 18.4514 7.91828C18.3618 7.76035 18.3612 7.54008 18.2927 7.38021C18.2927 7.36829 18.173 7.12944 18.2836 7.11424C18.3395 7.12616 18.4596 7.15421 18.4785 7.0572C18.5371 6.96258 18.3522 6.69408 18.2262 6.5586C18.1169 6.44246 17.9659 6.42843 17.8198 6.54668C17.7174 6.63771 17.7326 6.73983 17.7125 6.83625C17.6866 6.94704 17.6914 7.08433 17.8077 7.23105C17.9098 7.42567 18.0955 7.67623 18.0343 8.02932C18.0343 8.02932 17.9264 8.19715 17.7366 8.17562C17.6576 8.15772 17.5287 8.12579 17.4601 7.63613C17.4083 7.26546 17.473 6.7461 17.3105 6.50295C17.2743 6.41133 17.2423 6.32207 17.1897 6.32893C17.1581 6.33129 17.1194 6.37157 17.0658 6.46656C17.0273 6.56505 16.8615 6.71434 16.9811 7.02219C17.079 7.21715 17.1192 7.53452 17.0748 7.88778C17.007 7.98804 16.9915 8.023 16.9026 8.12301C16.7777 8.25318 16.6423 8.21973 16.5385 8.17133C16.4414 8.1081 16.3652 8.07554 16.3209 7.8746C16.3289 7.55411 16.3479 7.02965 16.2877 6.91835C16.1984 6.74606 16.0514 6.80786 15.9885 6.8598C15.6864 7.12696 15.5372 7.57833 15.446 7.93736C15.3622 8.19858 15.273 8.12335 15.2103 8.0177C15.0577 7.87915 15.047 6.79728 14.8627 6.97518C14.5677 7.79119 15.032 8.68509 15.3538 8.59818V8.59591ZM14.138 8.01441C13.9622 8.10637 13.8941 8.37964 14.0036 8.53934C14.1059 8.67965 14.2676 8.62864 14.2891 8.62864C14.4615 8.64953 14.5642 8.31573 14.5642 8.31573C14.5642 8.31573 14.5693 8.22167 14.3647 8.39902C14.2786 8.41692 14.2669 8.38406 14.2453 8.33781C14.2274 8.25094 14.2314 8.16286 14.2723 8.07629C14.2914 8.02431 14.2724 7.9912 14.2316 7.98699C14.2074 7.98467 14.1749 7.99331 14.1379 8.01386L14.138 8.01441ZM25.5048 12.1807C25.4671 12.1389 25.3821 12.1628 25.325 12.1598C25.298 12.1598 25.2082 12.1449 25.251 12.0705C25.2864 12.0231 25.2995 11.9947 25.3235 11.9359C25.3503 11.8786 25.3267 11.8401 25.2298 11.8087C25.1805 11.7998 25.1464 11.7968 25.1105 11.7968C25.0746 11.7984 25.0368 11.8031 24.9821 11.8087C24.9228 11.8206 24.9022 11.846 24.8914 11.9153C24.8957 12.0207 24.9623 12.0153 25.0304 12.0571C25.0699 12.1057 25.0956 12.1496 25.0273 12.2294L24.852 12.3756C24.8215 12.4258 24.8024 12.5034 24.8958 12.5276C25.0681 12.5744 25.4669 12.3237 25.4669 12.3183C25.5315 12.2715 25.5101 12.1825 25.5047 12.1825L25.5048 12.1807ZM26.7424 7.77594C26.7294 7.6828 26.6868 7.46897 26.7031 7.44104C26.7293 7.37562 26.8627 7.44736 26.9101 7.37238C26.9797 7.30346 26.5656 6.79054 26.4206 6.57116C26.3916 6.51622 26.3737 6.47081 26.348 6.47321C26.3281 6.47477 26.3037 6.50637 26.2664 6.58274C26.1768 6.72512 26.1455 6.97943 26.1818 7.20421C26.3977 8.61739 26.5581 9.98583 26.5913 11.2384C26.5729 11.3572 26.5674 11.4205 26.5097 11.5703C26.3823 11.7281 26.2418 11.9265 26.1093 12.022C25.9769 12.1176 25.6952 12.2087 25.6031 12.2794C25.3109 12.443 25.309 12.6308 25.5457 12.6376C25.9529 12.592 26.4347 12.5597 26.7666 12.0747C26.8554 11.9389 26.9599 11.5705 26.9645 11.3451C26.9956 10.0234 26.9472 8.73113 26.7424 7.77594H26.7424ZM9.11608 10.3675L10.6271 9.66568C10.5444 9.5463 10.622 9.43884 10.3113 9.4302C9.83382 9.43909 9.13453 10.0358 9.11608 10.3674V10.3675ZM9.38524 11.8821C9.25963 12.1289 9.20735 11.96 9.1964 11.822C9.17734 11.5605 9.20322 11.3197 9.23267 11.129C9.24831 11.0311 9.24775 10.9971 9.23584 10.9973C9.22388 10.9978 9.19973 11.0326 9.16783 11.0714C8.88379 11.5093 8.85851 12.163 9.01522 12.3581C9.09855 12.4503 9.23584 12.4906 9.33706 12.462C9.51555 12.387 9.59394 12.0373 9.55158 11.9093C9.49204 11.8188 9.44482 11.8048 9.38536 11.8824L9.38524 11.8821ZM12.9471 11.2239C13.154 10.5573 12.9428 10.0545 13.0121 9.99278C13.0127 9.99228 13.0145 9.99198 13.0153 9.99118C13.0159 9.99076 13.0176 9.99043 13.0184 9.98963C13.0191 9.98929 13.0207 9.98803 13.0216 9.98803C13.0246 9.9871 13.0276 9.98658 13.0307 9.98647C13.286 10.2524 13.6442 10.0202 13.7227 9.92791C13.7564 9.882 13.8406 9.85209 13.8995 9.91001C14.0986 10.0485 14.4476 9.98314 14.5205 9.73898C14.5626 9.50013 14.5982 9.2542 14.6066 8.99913C14.4769 9.03823 14.3723 9.06746 14.3301 9.11018C14.3202 9.1221 14.3128 9.13111 14.3105 9.14543L14.2772 9.35737C14.2762 9.36369 14.2741 9.36929 14.2713 9.37531C14.2654 9.38424 14.2568 9.39322 14.2471 9.39625C14.2013 9.42009 14.1213 9.40817 14.1172 9.3422C14.0556 9.07083 13.8016 9.0354 13.6473 9.45623C13.5435 9.53775 13.3542 9.55354 13.3345 9.43239C13.3595 9.14998 13.2418 9.1122 13.0066 9.24523L12.78 7.59303C12.8782 7.59067 12.9682 7.659 13.058 7.55032C12.9613 7.25776 12.7553 6.66303 12.6395 6.60717C12.6386 6.60679 12.6374 6.60641 12.6363 6.60561C12.6311 6.59934 12.6256 6.59335 12.6199 6.58767C12.6175 6.58611 12.615 6.58451 12.6125 6.58135C12.6104 6.57979 12.6071 6.57899 12.6051 6.57503C12.6003 6.57267 12.5952 6.56871 12.59 6.56871C12.5798 6.56635 12.569 6.56635 12.5583 6.56635H12.5584C12.5296 6.56871 12.4977 6.5843 12.4601 6.59323C12.3368 6.63144 12.2212 6.73443 12.2577 6.93537L12.6445 9.30555C12.667 9.40581 12.5799 9.53838 12.4677 9.52494C12.277 9.40017 12.23 9.14678 11.9042 9.15799C11.6685 9.16035 11.3998 9.40872 11.3663 9.64778C11.3269 9.83764 11.313 10.0436 11.3663 10.2093C11.5314 10.4018 11.7302 10.3815 11.9042 10.3379C12.0472 10.2809 12.1648 10.1445 12.2154 10.177C12.2156 10.1772 12.2168 10.1769 12.2169 10.177C12.2171 10.1773 12.2168 10.1786 12.2169 10.1786C12.2481 10.2314 12.2141 10.6775 11.543 11.0222C11.1306 11.2014 10.8024 11.244 10.6258 10.9184C10.5164 10.7148 10.6338 9.93971 10.3644 10.1185C9.56782 12.1055 12.2307 12.3829 12.5282 10.2003C12.5475 10.1388 12.6061 10.077 12.6475 10.0922C12.6654 10.1012 12.6823 10.1236 12.6883 10.1681C12.6266 12.1442 10.6283 12.2796 10.2889 11.658C10.2048 11.5114 10.1794 11.1853 10.1711 10.9898C10.1557 10.8716 10.125 10.8032 10.0895 10.7764C10.0089 10.7178 9.90009 10.8714 9.87642 11.1375C9.84272 11.3519 9.85227 11.4104 9.85227 11.6172C9.95883 13.178 12.5304 12.5073 12.9483 11.218L12.9471 11.2239ZM11.9538 9.87336C11.9536 9.87361 11.9539 9.87492 11.9538 9.87492C11.9534 9.87563 11.9527 9.87728 11.9522 9.87728C11.9323 9.90116 11.8618 9.89223 11.8117 9.89223C11.7511 9.88983 11.7212 9.88031 11.6848 9.8322C11.6675 9.77904 11.7204 9.72681 11.7438 9.68742C11.744 9.687 11.7451 9.68658 11.7453 9.68582C11.7484 9.68346 11.7518 9.67689 11.7558 9.6739C11.774 9.65595 11.8053 9.64285 11.8389 9.63868C11.8454 9.63788 11.8517 9.63708 11.8586 9.63708C11.9053 9.63758 11.9547 9.65802 11.9809 9.72335C12.0002 9.77415 11.99 9.83115 11.9538 9.87264L11.9538 9.87336ZM22.9786 12.4304L22.5314 12.4769L22.9786 12.4304ZM20.4567 8.38292C20.6556 8.47455 21.0301 8.43427 21.0143 8.12411C21.0143 8.09723 21.0066 8.00439 21.0038 7.97932C20.9836 7.93336 20.946 7.91634 20.9101 7.92228C20.8742 7.9286 20.8396 7.95838 20.827 8.00586C20.819 8.03691 20.8423 8.08674 20.8134 8.10233C20.7968 8.12023 20.7322 8.10865 20.7347 8.02317C20.7347 7.99634 20.7143 7.96588 20.7015 7.94853C20.689 7.93964 20.6805 7.93661 20.6577 7.93661C20.6301 7.93745 20.6307 7.94554 20.6154 7.96736C20.6089 7.98829 20.6003 8.01298 20.6003 8.03897C20.597 8.06938 20.5858 8.07992 20.5626 8.08438C20.5367 8.08438 20.5413 8.08678 20.5203 8.07246C20.5083 8.05755 20.4932 8.05456 20.4932 8.0316C20.4932 8.01062 20.487 7.97094 20.4796 7.95544C20.4688 7.94048 20.4515 7.93749 20.4313 7.93155C20.3227 7.93197 20.3162 8.05127 20.3225 8.09668C20.3146 8.10553 20.3089 8.32083 20.4569 8.38023L20.4567 8.38292ZM23.6633 9.1828C23.6666 9.00162 23.6849 8.76087 23.695 8.61103C23.6993 8.55433 23.7129 8.49224 23.769 8.47792C23.8249 8.46296 23.922 8.53226 23.9231 8.4716C23.9129 8.35634 23.8891 8.18649 23.8218 8.10608C23.7874 8.05654 23.7309 8.02991 23.6723 8.02696C23.5746 8.02065 23.4707 8.08367 23.4441 8.21265C23.4445 8.28877 23.4796 8.3306 23.4727 8.39952C23.4625 8.43895 23.4205 8.46494 23.3201 8.41747C23.3361 8.40251 23.2551 8.29299 23.2551 8.29299C23.1769 8.24703 23.0724 8.29535 23.0043 8.33831C22.9669 8.40403 22.9392 8.51713 22.9819 8.63205C23.0942 8.83299 23.4796 9.1756 23.6634 9.17892L23.6633 9.1828ZM22.4241 11.6827C22.5626 11.6835 22.7228 11.376 22.7912 11.0716C22.8287 10.6522 22.7662 10.3969 22.755 10.1504C22.7436 9.90386 22.4666 7.90387 22.4105 7.71734C22.3428 7.36471 22.68 7.67071 22.6432 7.46598C22.5266 7.20742 22.2356 6.83044 22.1446 6.6062C22.1103 6.54596 22.1061 6.4904 22.0781 6.4952C22.0613 6.49836 22.0364 6.52204 21.9904 6.58148C21.8766 6.94131 21.8367 7.23526 21.8801 7.45874C22.1722 8.93418 22.4716 10.2784 22.4241 11.6829V11.6827ZM21.3846 11.3816C21.0648 11.7047 20.6037 12.1029 20.1018 12.2867C20.0478 12.3452 20.236 12.5954 20.4795 12.5952C20.8867 12.5495 21.2446 12.3283 21.5765 11.7457C21.6653 11.6098 21.8212 11.319 21.8259 11.0935C21.8569 9.77188 21.7574 8.74427 21.5524 7.78904C21.5393 7.6959 21.5481 7.58633 21.5643 7.55798C21.5905 7.52748 21.6801 7.5587 21.7275 7.48334C21.7971 7.41467 21.5417 6.84442 21.3966 6.62499C21.3676 6.57002 21.3498 6.52621 21.3241 6.52857C21.3042 6.53017 21.2797 6.56024 21.2424 6.63696C21.1527 6.77934 21.0918 7.02666 21.0988 7.25839C21.2931 8.55981 21.3527 9.69867 21.4796 11.0001C21.4899 11.126 21.4708 11.3088 21.3845 11.3817L21.3846 11.3816ZM22.2207 10.8483C22.2255 10.8304 22.2247 10.8304 22.2207 10.8483V10.8483ZM20.591 7.17923C20.662 7.37149 20.5369 7.55482 20.6107 7.58136C20.6786 7.61119 20.7732 7.38253 20.8086 7.1719C20.8496 7.00147 20.7239 6.65191 20.5457 6.57979C20.532 6.57663 20.5176 6.57663 20.5034 6.57347C20.4015 6.57031 20.2888 6.63287 20.3326 6.75617C20.3071 6.82361 20.5516 7.05261 20.591 7.17725V7.17923ZM24.1819 9.17505C24.1764 9.17422 24.1708 9.17477 24.1655 9.17665L23.2211 9.83313C23.1297 9.91195 23.1755 10.1882 23.2211 10.1563C23.2872 10.1802 24.215 9.57246 24.1972 9.50122C24.2377 9.50358 24.2571 9.18823 24.1822 9.17517L24.1819 9.17505ZM23.5332 7.3998C23.8134 7.73345 24.0874 8.07272 24.3552 8.41742C24.4135 9.14345 24.429 9.80891 24.4882 10.5361C24.4799 10.8471 24.3809 11.2602 24.2873 11.2994C24.2873 11.2994 24.1441 11.3788 24.0485 11.2905C23.979 11.2636 23.701 10.8415 23.701 10.8415C23.5587 10.7152 23.4638 10.7514 23.3625 10.8415C23.0833 11.1025 22.957 11.5913 22.7673 11.9279C22.7183 12.0031 22.5805 12.0667 22.4273 11.9216C22.1121 11.5045 22.2015 10.9452 22.2211 10.8477L22.2171 10.8657C21.8705 11.2437 22.024 11.87 22.1023 12.0047C22.2166 12.2259 22.309 12.3676 22.5314 12.477C22.734 12.6212 22.8917 12.5313 22.9787 12.4304C23.1825 12.2258 23.1852 11.7033 23.2809 11.5999C23.348 11.4097 23.5162 11.4425 23.5982 11.5267C23.6776 11.6372 23.7715 11.7094 23.8883 11.7694C24.0784 11.9315 24.3053 11.9611 24.529 11.8134C24.6817 11.7304 24.7809 11.6223 24.8704 11.4098C24.9665 11.1614 24.919 9.85912 24.8974 9.13465L25.3235 9.73266C25.3853 10.3682 25.4134 10.9949 25.3931 11.5954C25.3785 11.7148 25.8237 11.2389 25.8207 11.0135V10.471C26.0367 10.8046 26.2456 11.1438 26.4432 11.4872C26.5656 11.4248 26.5237 10.7537 26.4464 10.6611C26.2395 10.3252 25.9746 9.96229 25.7694 9.68148C25.7289 9.32662 25.6736 8.9089 25.6485 8.78071C25.6095 8.58104 25.5702 8.2809 25.511 8.04381C25.4948 7.95127 25.4457 7.65555 25.4612 7.62715C25.4854 7.56118 25.5765 7.62951 25.6214 7.55251C25.6886 7.4814 25.3885 6.72913 25.236 6.51433C25.1813 6.4179 25.0822 6.45139 24.9595 6.60806C24.8458 6.71105 24.887 6.94607 24.9308 7.16955C25.0437 7.73912 25.1443 8.31927 25.224 8.89786L24.7193 8.1814L24.6968 8.06854C24.6968 8.05662 24.6726 7.60264 24.6515 7.49395C24.6475 7.44985 24.637 7.43725 24.6848 7.44298C24.7354 7.4841 24.7422 7.48624 24.7739 7.49998C24.8251 7.50891 24.8697 7.42533 24.8389 7.34803L24.3644 6.49996C24.3454 6.48206 24.3241 6.46268 24.2994 6.4591C24.275 6.4559 24.248 6.46795 24.2178 6.51007C24.1602 6.55906 24.0981 6.6477 24.1 6.76144C24.1139 6.96204 24.1509 7.16752 24.165 7.36825L24.1801 7.44858C24.1634 7.4276 24.1458 7.40756 24.1271 7.38855C23.7229 6.97758 24.3125 7.32141 24.0501 7.00395C23.8278 6.76784 23.7628 6.69269 23.5726 6.55068C23.4772 6.49099 23.4196 6.37696 23.3883 6.56863C23.3763 6.73907 23.3629 6.93663 23.3749 7.08045C23.3742 7.16011 23.4597 7.31058 23.5335 7.39917L23.5332 7.3998ZM25.877 7.72943C25.9093 7.8259 25.8278 8.13653 25.8949 8.16518C25.9568 8.19707 26.0439 7.95051 26.0762 7.7221C26.0941 7.59733 25.9984 7.15838 25.8359 7.08024C25.8231 7.07788 25.8101 7.07392 25.7967 7.07392C25.7037 7.07156 25.6024 7.139 25.6425 7.27275C25.6192 7.34559 25.8408 7.59349 25.8767 7.72893L25.877 7.72943ZM18.8321 12.2275C18.8321 12.2364 18.9099 12.2995 19.0013 12.2454C19.1942 12.1741 19.3144 12.1048 19.5845 12.0481C19.6555 12.0465 19.6513 11.863 19.5392 11.8567C19.3929 11.8657 19.2579 11.8717 19.1115 11.9824C19.0215 12.0004 19.0061 11.9496 18.9861 11.9021C18.9634 11.7842 19.0376 11.7009 19.0224 11.6125C19.0264 11.6157 18.977 11.5735 18.9136 11.5702C18.8906 11.5693 18.8676 11.5733 18.8471 11.5851C18.8431 11.5851 18.6437 11.7152 18.5797 11.8057C18.5406 11.8356 18.5451 11.8594 18.5572 11.9096C18.5877 11.9774 18.6414 11.9562 18.7023 11.9245C18.7832 11.9126 18.8223 11.9651 18.8156 12.0591C18.7783 12.1761 18.8321 12.22 18.8321 12.2275ZM19.7441 10.3642L19.7456 10.3626C19.7457 10.3625 19.7469 10.361 19.7471 10.361C19.7472 10.3609 19.7483 10.3602 19.7486 10.3594V10.3563C19.7488 10.3513 19.7483 10.3462 19.7471 10.3414L19.6594 10.2915L17.9324 10.2826C17.911 10.2737 17.8952 10.2647 17.8856 10.2617C17.8845 10.2606 17.8834 10.2596 17.8824 10.2585L17.8809 10.257L17.8794 10.2554L17.8779 10.253L17.8764 10.2514V10.2498L17.8749 10.2482V10.2419V10.234L17.8764 10.2324L17.8779 10.2301C17.8859 10.2182 17.9067 10.2091 17.9323 10.1993C18.3447 10.145 19.0773 10.0289 19.126 9.34696C19.118 8.99214 18.969 8.75923 18.5186 8.69474C18.1877 8.71858 17.9517 9.02929 17.9897 9.37034C17.9741 9.46196 18.0219 9.6426 17.9247 9.66256C17.29 9.71876 16.5972 10.1032 16.5739 10.379H16.5724L16.5709 10.3806L16.5677 10.3822H16.5645C16.563 10.3827 16.5614 10.3829 16.56 10.3838H16.551C16.549 10.3833 16.5469 10.3829 16.545 10.3822C16.5037 10.3703 16.4506 10.3052 16.4589 10.2126C16.4348 9.73645 16.2746 9.19759 16.0237 8.78261C15.9342 8.69604 15.8948 8.66112 15.8697 8.65695C15.8688 8.65686 15.8674 8.65695 15.8664 8.65695H15.8571C15.8555 8.65743 15.8541 8.65824 15.8528 8.65932C15.8515 8.66041 15.8505 8.66175 15.8497 8.66327C15.8481 8.66407 15.8466 8.66483 15.8452 8.66563C15.8259 8.68054 15.8029 8.71222 15.7515 8.74743C15.665 8.84264 15.6495 8.90894 15.6548 9.09981C15.6596 9.11772 15.8191 9.54819 15.954 9.84985C16.045 10.163 16.1291 10.5216 16.0673 10.8602C15.8543 11.3079 15.4261 11.7095 15.0127 11.9276C14.8021 11.9927 14.6203 11.9706 14.5715 11.926L14.5701 11.9244C14.4492 11.8456 14.4464 11.7062 14.4538 11.6817V11.6802L14.4553 11.6786C14.8042 11.4433 15.2025 11.2536 15.5145 10.6185C15.6066 10.3758 15.6348 10.2303 15.5432 9.85525C15.5075 9.71556 15.4634 9.6006 15.3649 9.50139L15.3664 9.49983C15.4258 9.47296 15.5798 9.58223 15.6036 9.51475C15.5672 9.33563 15.4419 9.09531 15.2999 8.9723C15.1757 8.86303 15.0404 8.85047 14.9267 8.95136C14.7986 9.02032 14.7713 9.26815 14.833 9.48505C14.9015 9.64833 15.0866 9.67672 15.2183 10.0055V10.0071C15.221 10.0251 15.2635 10.2528 15.1973 10.3434C15.1434 10.5058 14.4519 11.0336 14.4025 11.0657C14.4019 11.0663 14.3985 11.0681 14.3979 11.0689L14.3964 11.0705C14.3959 11.0709 14.3954 11.0712 14.3949 11.072C14.3944 11.0725 14.3939 11.0728 14.3934 11.0736H14.3902C14.3897 11.0731 14.3892 11.0728 14.3887 11.072V11.0705C14.388 11.0695 14.3875 11.0684 14.3872 11.0673C14.3851 11.0524 14.3888 11.0207 14.3872 10.9664C14.3826 10.8676 14.4249 10.6436 14.4219 10.6052V10.6036L14.4204 10.602V10.6005H14.4189C14.1902 10.7432 14.1147 11.1815 14.0729 11.3111C13.4939 11.6983 12.8359 11.9863 12.4577 12.3785C12.2605 12.6765 13.8165 12.0363 13.9974 11.9589C13.999 11.9597 14.0006 11.962 14.0019 11.9652C14.0363 12.0016 14.0392 12.1294 14.1424 12.2443C14.3041 12.4562 14.648 12.5869 14.9825 12.5058C15.5436 12.3097 15.8668 11.9396 16.1959 11.5291C16.2429 11.4628 16.3167 11.4109 16.3847 11.4619C16.6109 11.9519 17.2628 12.3004 18.1057 12.3363C18.3008 12.1068 18.2075 11.994 18.1282 11.9459C18.1041 11.928 17.709 11.7811 17.6477 11.633C17.6091 11.4951 17.7029 11.3727 17.891 11.2806C18.4322 11.2174 18.9642 11.1469 19.4791 10.9869C19.4842 10.8194 19.5862 10.5692 19.6544 10.4605C19.7017 10.385 19.7321 10.3775 19.7435 10.3667L19.7441 10.3642ZM18.3197 9.31478C18.3209 9.30846 18.3228 9.30585 18.3256 9.29982C18.3266 9.29826 18.3275 9.29746 18.3288 9.2935L18.3303 9.29195C18.3325 9.28879 18.3351 9.28563 18.3376 9.28302C18.3484 9.27408 18.3641 9.2681 18.3815 9.26507C18.4191 9.26191 18.4684 9.274 18.5159 9.30033C18.5847 9.33887 18.6271 9.39705 18.6217 9.43943C18.6215 9.44023 18.6219 9.44179 18.6217 9.44575C18.6214 9.44655 18.619 9.4481 18.6185 9.45206L18.617 9.45838C18.6167 9.45906 18.6158 9.46074 18.6155 9.46074C18.615 9.46154 18.6145 9.46234 18.614 9.4639C18.6114 9.46706 18.6083 9.47283 18.6049 9.47582C18.5719 9.50573 18.4955 9.49971 18.4236 9.46091C18.3554 9.42266 18.3133 9.36419 18.3179 9.32211C18.318 9.32127 18.3191 9.31971 18.3193 9.31579L18.3197 9.31478ZM17.6292 10.9887C17.4439 11.0502 17.2659 11.0982 17.2651 11.3571C17.2893 11.4855 17.2841 11.5526 17.2636 11.5837C17.2618 11.5861 17.2599 11.59 17.2577 11.5926L17.2561 11.5942L17.2547 11.5958C17.2542 11.5963 17.2536 11.5966 17.2531 11.5974L17.2516 11.5989C17.2506 11.5994 17.2495 11.5998 17.2484 11.6005C17.2456 11.6029 17.2425 11.6029 17.2394 11.6069C17.2368 11.6077 17.2331 11.6077 17.2303 11.6084C17.1862 11.6147 17.1223 11.5741 17.0746 11.5499C16.9604 11.4705 16.6397 11.2782 16.5941 10.8656C16.5876 10.7725 16.6596 10.6921 16.7755 10.6844C16.7812 10.684 16.7859 10.6844 16.7919 10.6844H16.7951C16.9875 10.7349 17.2711 10.7402 17.5174 10.7647C17.7179 10.7766 17.817 10.9289 17.6292 10.9928V10.9887ZM13.5769 10.4185C13.5723 10.4928 13.7889 10.5832 13.802 10.7547C13.833 10.8255 13.7556 11.0524 13.8202 11.0735C13.8793 11.0973 13.9614 10.9168 13.9924 10.7489C14.0095 10.6569 13.9181 10.3355 13.7627 10.2781C13.7386 10.2718 13.7136 10.2692 13.6888 10.2718C13.6137 10.2781 13.5467 10.3157 13.5769 10.418L13.5769 10.4185ZM17.0575 9.37131C17.2564 9.46298 17.7304 9.40922 17.6151 9.11279C17.6151 9.08591 17.6074 8.99307 17.6046 8.968C17.5844 8.92234 17.5468 8.90502 17.5109 8.91096C17.475 8.91728 17.4404 8.94618 17.4278 8.99277C17.4198 9.02382 17.4431 9.07517 17.4144 9.09097C17.398 9.10891 17.3332 9.09728 17.3358 9.01185C17.3358 8.98502 17.3151 8.95456 17.3026 8.93725C17.2901 8.92832 17.2833 8.92529 17.2603 8.92529C17.2327 8.92613 17.2321 8.93422 17.2165 8.95604C17.2099 8.97698 17.2014 9.0017 17.2014 9.02765C17.198 9.05807 17.1869 9.0686 17.1637 9.07302C17.1378 9.07302 17.1435 9.07618 17.1228 9.0611C17.1109 9.04614 17.0941 9.04315 17.0941 9.02015C17.0941 8.99922 17.0893 8.95958 17.0822 8.94433C17.0714 8.92942 17.0522 8.92642 17.0324 8.92048C16.9237 8.92091 16.9173 9.04021 16.9236 9.08557C16.9156 9.0945 16.9099 9.30976 17.058 9.36916L17.0575 9.37131ZM18.7416 7.25198C19.0749 7.68571 19.3958 8.12149 19.7056 8.57236C19.7539 8.90713 19.79 9.23457 19.8129 9.56079C19.8631 10.2759 19.8783 11.1661 19.8325 11.9192C19.971 11.9255 20.1928 11.7028 20.2707 11.3782C20.3214 10.9292 20.2528 10.0129 20.2482 9.74791C20.2451 9.63805 20.238 9.5067 20.23 9.3692C20.6068 9.96469 20.9582 10.5775 21.2832 11.2057C21.4083 11.1484 21.3806 10.4665 21.3073 10.3708C21.0327 9.79871 20.6532 9.23398 20.5322 9.01674C20.4885 8.93881 20.3398 8.71942 20.1635 8.46701C20.1311 8.10683 20.0959 7.80176 20.0729 7.70959C20.0162 7.32882 20.2346 7.75226 20.2043 7.53106C20.1334 7.15084 19.9166 6.89245 19.6604 6.54415C19.5778 6.431 19.5798 6.40771 19.4519 6.57099C19.3756 6.73848 19.3767 6.87758 19.399 7.00821C19.3567 6.9486 19.3119 6.8911 19.2645 6.83591L18.846 6.49238C18.7881 6.45261 18.6778 6.39086 18.5936 6.39865C18.5431 6.40497 18.5029 6.4318 18.4879 6.50397C18.4677 6.67386 18.4782 6.76611 18.5075 6.90753C18.53 7.00189 18.6719 7.15952 18.7417 7.25123L18.7416 7.25198ZM19.4475 7.22814C19.4554 7.26487 19.4645 7.30161 19.4702 7.33918C19.4893 7.42006 19.5057 7.5004 19.5231 7.58039C19.4498 7.48249 19.3891 7.40368 19.363 7.37562C19.197 7.18454 19.3667 7.25051 19.4476 7.22818L19.4475 7.22814Z" fill="white"/>
</g>
</svg>
