<svg width="36" height="24" viewBox="0 0 36 24" fill="none" xmlns="http://www.w3.org/2000/svg">
<path d="M2 0.5H34C34.8284 0.5 35.5 1.17157 35.5 2V21.9995C35.5 22.8279 34.8284 23.4995 34 23.4995H2C1.17157 23.4995 0.5 22.8279 0.5 21.9995V2C0.5 1.17157 1.17157 0.5 2 0.5Z" fill="white" stroke="#EDF0F5"/>
<path d="M8.01731 11.9999L0 3.979V20.0222L8.01731 11.9999Z" fill="black"/>
<path d="M11.3338 11.9996L0 0.658203V3.97878L8.01731 11.9997L0 20.022V23.3364L11.3338 11.9996Z" fill="#FFB81C"/>
<path d="M35.8476 14.3475C35.8517 14.3166 35.9042 14.2858 36 14.2549V11.9997V9.65194H35.8476H15.6517L5.99977 0H0V0.658336L11.3338 11.9997L0 23.3365V23.9995H5.99977L15.6517 14.3475H35.8476Z" fill="#007749"/>
<path d="M35.3802 16.6953H16.6244L9.32031 23.9994H36.0002V16.6953H35.3802Z" fill="#001489"/>
<path d="M35.3802 7.30406H36.0002V0H9.32031L16.6244 7.30406H35.3802Z" fill="#E03C31"/>
</svg>
