<svg width="105" height="43" viewBox="0 0 105 43" fill="none" xmlns="http://www.w3.org/2000/svg">
<path d="M54.6766 17.1797L50.2891 26.5454H50.424H51.9554L52.8022 24.6454H57.342L58.1744 26.5454H59.7624H59.8898L55.5369 17.1797H54.6766ZM53.3262 23.4349L55.089 19.4521L56.824 23.4349H53.3262Z" fill="#002A3A"/>
<path d="M64.9861 17.1797H61.1875V26.5454H64.9861C66.4549 26.5454 67.6372 26.1162 68.5254 25.2507C69.4136 24.3921 69.8547 23.2597 69.8547 21.8444C69.8547 20.445 69.4136 19.3118 68.5254 18.46C67.6372 17.6082 66.4549 17.1797 64.9861 17.1797ZM67.3432 24.2791C66.749 24.8844 65.9513 25.187 64.9582 25.187H62.7754V18.5305H64.9582C65.9513 18.5305 66.749 18.8332 67.3432 19.4384C67.938 20.043 68.2381 20.853 68.2381 21.8588C68.2381 22.8653 67.938 23.6738 67.3432 24.2791Z" fill="#002A3A"/>
<path d="M91.0868 17.1792H90.2408L87.0016 24.315L83.7631 17.1792H82.9028L81.7695 26.545H83.3085L83.9516 20.5499L86.6034 26.545H87.4147L90.1073 20.5636L90.7587 26.545H92.2275L91.0868 17.1792Z" fill="#002A3A"/>
<path d="M80.5756 21.3416H80.4746H80.4075H77.4699L76.2242 22.5938H78.999C78.95 23.2765 78.677 23.8681 78.1801 24.3672C77.5581 24.9724 76.8026 25.2751 75.9136 25.2751C74.9831 25.2751 74.2065 24.9512 73.5913 24.311C72.9684 23.6709 72.6608 22.8548 72.6608 21.8551C72.6608 20.863 72.9753 20.0469 73.6048 19.4067C74.2344 18.7658 75.0118 18.4426 75.9279 18.4426C76.9843 18.4426 77.9426 18.9561 78.579 19.7791H78.5797C78.6039 19.8094 78.6205 19.8307 78.628 19.8405L79.6836 18.7779L79.6662 18.7574L79.667 18.7597C79.2335 18.2174 78.6966 17.7911 78.0474 17.4778C77.3688 17.1616 76.6555 17 75.8993 17C74.5428 17 73.3952 17.4574 72.4648 18.3789C71.5276 19.3013 71.0586 20.4617 71.0586 21.8551C71.0586 23.256 71.5208 24.4165 72.4369 25.3388C73.353 26.2603 74.5006 26.7177 75.8857 26.7177C77.2497 26.7177 78.3905 26.2535 79.2998 25.3175C80.188 24.4241 80.6283 23.3189 80.6283 21.9893C80.6283 21.7496 80.6216 21.5668 80.6005 21.4402C80.5922 21.3788 80.5756 21.3416 80.5756 21.3416Z" fill="#002A3A"/>
<path d="M37.1482 21.5008L42.7474 20.3744L37.06 19.8404L42.5129 18.1339L36.8036 18.2006L42.0484 15.9259L36.3761 16.5979L41.3555 13.7877L35.7842 15.0468L40.4447 11.7254L35.0347 13.5685L39.3242 9.77534L34.1344 12.1729L38.0062 7.95119L33.0962 10.8842L36.5095 6.27874L31.9267 9.7086L34.844 4.76936L30.6464 8.66342L33.0306 3.44428L29.2613 7.7593L31.0913 2.31793L27.7888 7.00462L29.0449 1.40017L26.2498 6.40997L26.9134 0.704647L24.6529 5.97989L24.7222 0.235889L23.0219 5.72124L22.4949 0L21.3744 5.63479L20.254 0L19.7255 5.72125L18.0252 0.235896L18.093 5.9799L15.8333 0.704647L16.4998 6.40997L13.7033 1.40017L14.9579 7.00462L11.6569 2.31793L13.4853 7.7593L9.71682 3.44428L12.1017 8.66342L7.9042 4.76936L10.8192 9.7086L6.23935 6.27874L9.64971 10.8842L4.74115 7.95119L8.61144 12.1729L3.42318 9.77534L7.71419 13.5685L2.30274 11.7254L6.96246 15.0468L1.39113 13.7877L6.37133 16.5979L0.700476 15.9259L5.94304 18.2006L0.234495 18.1339L5.68518 19.8404L0 20.3744L5.59921 21.5008L0 22.6286L5.68518 23.158L0.234495 24.8699L5.94303 24.7994L0.700476 27.0726L6.37133 26.4051L1.39113 29.2168L6.96246 27.9547L2.30274 31.2746L7.71419 29.4345L3.42318 33.2269L8.61145 30.8278L4.74116 35.0511L9.64972 32.1188L6.23936 36.7258L10.8192 33.2929L7.9042 38.2329L12.1017 34.3366L9.71683 39.5588L13.4853 35.243L11.6569 40.6881L14.9579 35.9969L13.7033 41.6006L16.4998 36.5938L15.8333 42.2969L18.093 37.0231L18.0252 42.7664L19.7255 37.2803L20.254 43L21.3744 37.369L22.4949 43L23.0219 37.2803L24.7222 42.7664L24.6529 37.0231L26.9133 42.2969L26.2498 36.5938L29.0449 41.6006L27.7887 35.9969L31.0913 40.6881L29.2613 35.243L33.0306 39.5588L30.6464 34.3366L34.8439 38.2329L31.9267 33.2929L36.5095 36.7258L33.0962 32.1188L38.0062 35.0511L34.1344 30.8278L39.3242 33.2269L35.0347 29.4345L40.4447 31.2746L35.7842 27.9547L41.3555 29.2168L36.3761 26.4051L42.0484 27.0726L36.8036 24.7994L42.5129 24.8699L37.06 23.158L42.7474 22.6286L37.1482 21.5008ZM21.3737 32.7718C15.1962 32.7718 10.17 27.7165 10.17 21.5015C10.17 15.2873 15.1962 10.232 21.3737 10.232C27.5512 10.232 32.5767 15.2873 32.5767 21.5015C32.5767 27.7165 27.5512 32.7718 21.3737 32.7718Z" fill="#1B1D22"/>
</svg>
