<svg width="119" height="24" viewBox="0 0 119 24" fill="none" xmlns="http://www.w3.org/2000/svg">
<path d="M0 0H23.8228V24H0V0Z" fill="#1B1D22"/>
<path d="M65.5501 4.96253C65.9326 4.87039 66.3183 4.74825 66.7152 4.75307C66.9349 4.76325 66.9679 5.0236 66.9876 5.1945C67.0408 5.99769 67.0685 6.80238 67.0706 7.60735C67.1057 8.37343 67.1009 9.14057 67.1158 9.90771C67.5457 9.57503 67.967 9.21557 68.4762 9.01146C69.2907 8.65093 70.268 8.64664 71.0623 9.06503C71.9162 9.49521 72.5126 10.3256 72.8127 11.2224C73.0936 12.0731 73.1612 12.9843 73.1138 13.8752C73.0377 14.9161 72.7568 15.9693 72.1439 16.8243C71.7811 17.3199 71.3044 17.7543 70.7218 17.9649C69.7887 18.3088 68.6991 18.1856 67.8617 17.6482C67.5962 17.4811 67.3728 17.2577 67.1296 17.0616C67.0317 17.3697 66.9578 17.6852 66.8626 17.9949C66.4151 17.9997 65.9634 18.0313 65.5203 17.9579C65.699 17.2374 65.7033 16.4911 65.723 15.7529C65.756 13.1627 65.7203 10.572 65.7097 7.98182C65.6527 6.97575 65.7363 5.95843 65.5501 4.96253ZM75.9394 5.1136C76.2253 5.02349 76.5338 5.03926 76.8092 5.15807C77.0588 5.3194 77.2503 5.55713 77.3556 5.83628C77.5397 6.43575 77.0561 7.1086 76.4501 7.17718C75.9819 7.22968 75.4675 6.95378 75.3222 6.48664C75.1296 5.95843 75.426 5.32253 75.9394 5.1136ZM33.714 6.19843C34.3944 5.73985 35.1877 5.39485 36.0171 5.38414C36.8614 5.3686 37.7366 5.42914 38.5133 5.79128C38.8315 5.93807 39.1523 6.09235 39.4167 6.32807C39.2236 6.66396 38.9687 6.957 38.7277 7.25753C38.4186 7.07271 38.1132 6.87396 37.7701 6.75664C36.9337 6.45932 35.983 6.39557 35.1488 6.73414C34.4508 7.00146 33.8805 7.54735 33.5224 8.20146C33.275 8.66218 33.0681 9.15128 32.9649 9.66718C32.8728 10.1707 32.8436 10.6834 32.8356 11.1945C32.8085 11.8738 32.7771 12.5552 32.818 13.234C32.9367 14.1774 33.2617 15.1272 33.9007 15.8445C34.4604 16.4927 35.2871 16.8731 36.1288 16.9582C36.572 16.9829 37.0247 16.9888 37.4578 16.8758C37.9845 16.7595 38.4511 16.4809 38.9379 16.2613C39.222 16.5452 39.4688 16.8645 39.7008 17.1924C39.3377 17.3982 38.9624 17.5816 38.5772 17.7415C37.5387 18.1652 36.3868 18.1743 35.2877 18.0677C34.4971 17.9022 33.7634 17.4999 33.1537 16.9716C32.4504 16.3556 31.9354 15.5381 31.6252 14.6563C31.4162 14.0622 31.314 13.4354 31.2587 12.8091C31.2369 12.3436 31.1853 11.8765 31.2374 11.4104C31.2534 10.5281 31.3954 9.63825 31.745 8.82396C32.1658 7.80236 32.7973 6.83325 33.714 6.19843Z" fill="#1B1D22"/>
<path d="M7.07812 5.98092C7.18293 5.95735 7.28721 5.93056 7.39521 5.92735C7.90701 5.91664 8.41828 5.94878 8.92955 5.96485C9.01042 5.95199 9.03861 6.02753 9.06841 6.08646C9.84781 7.69467 10.616 9.30931 11.4029 10.9143C11.5721 11.2475 11.7237 11.5904 11.9152 11.9118C12.0764 11.6482 12.2073 11.367 12.3494 11.0927C13.233 9.37896 14.0689 7.64003 14.9387 5.91931C15.5143 5.93699 16.0958 5.87967 16.6667 5.97449C16.563 6.30288 16.3762 6.59485 16.2283 6.90396C15.0866 9.10681 13.914 11.2931 12.7617 13.49C12.72 13.5752 12.7004 13.6695 12.7048 13.7643C12.7069 15.3345 12.7048 16.9052 12.7058 18.4754C12.1499 18.4759 11.5939 18.4791 11.0379 18.4732C11.0438 16.9406 11.0363 15.4079 11.0417 13.8752C11.0395 13.7107 11.0603 13.5345 10.9698 13.3882C9.90793 11.3825 8.8423 9.37896 7.78624 7.37056C7.55269 6.9061 7.2888 6.45663 7.07812 5.98092Z" fill="#FFFEFE"/>
<path d="M99.1951 6.66898C99.6516 6.52112 100.12 6.41184 100.592 6.32666C100.523 7.20148 100.459 8.07684 100.429 8.95434C101.17 8.97202 101.912 8.97202 102.653 9.00255C102.524 9.33791 102.388 9.67015 102.244 9.99898C101.62 10.0011 100.996 9.9963 100.371 10.0011C100.369 10.8106 100.378 11.6195 100.378 12.429C100.371 13.0718 100.416 13.7136 100.406 14.357C100.423 15.0856 100.385 15.8179 100.467 16.5438C100.488 16.8459 100.758 17.0586 101.029 17.1358C101.481 17.2402 101.954 17.2033 102.402 17.0929C102.522 17.3558 102.577 17.6443 102.562 17.9334C102.156 18.1467 101.69 18.1879 101.241 18.2281C100.608 18.2538 99.9022 18.1526 99.4473 17.6634C99.0728 17.3131 99.102 16.7559 99.0589 16.2851C99.0132 15.2506 99.0313 14.214 99.026 13.1784C99.0238 12.1193 99.0292 11.0608 99.0233 10.0017C98.628 9.9963 98.2333 10.0001 97.839 9.99952C97.8241 9.65345 97.8263 9.30684 97.8369 8.96077C98.2247 8.95755 98.6126 8.96612 99.0004 8.95487C99.0595 8.19255 99.0728 7.42487 99.1951 6.66898ZM44.1268 8.76898C44.4365 8.72934 44.7493 8.74434 45.0605 8.74702C45.4292 8.75934 45.8075 8.73898 46.1629 8.85684C46.9785 9.13916 47.6962 9.70916 48.1324 10.4613C48.5038 11.1101 48.765 11.8381 48.7948 12.5918C48.8411 13.6043 48.8746 14.6463 48.5596 15.6229C48.2665 16.539 47.6249 17.3554 46.7667 17.7931C45.9134 18.2372 44.8919 18.3202 43.9688 18.0701C43.1389 17.8504 42.4185 17.2997 41.9424 16.5867C41.413 15.8222 41.2343 14.8756 41.2018 13.9601C41.1805 13.0745 41.1635 12.1633 41.4561 11.3147C41.7322 10.4779 42.2658 9.71291 43.0139 9.24095C43.3575 9.0288 43.7289 8.84666 44.1268 8.76898ZM51.2517 9.05023C51.6646 8.91665 52.0855 8.80982 52.512 8.73041C52.6865 9.13248 52.7931 9.56104 52.8275 9.99845C53.1185 9.8463 53.3457 9.60255 53.617 9.41987C54.2363 8.97362 54.9886 8.6897 55.7573 8.72291C55.9308 8.7347 56.0989 8.79041 56.2542 8.86916C56.5186 9.00255 56.7884 9.1397 57.0038 9.34916C57.231 9.56505 57.3736 9.85005 57.53 10.1179C57.8769 9.96202 58.1456 9.68398 58.4568 9.47184C58.9968 9.0963 59.6123 8.79845 60.2731 8.73362C60.878 8.66398 61.5111 8.86809 61.9538 9.29237C62.1538 9.48577 62.3666 9.68237 62.4773 9.94487C62.5847 10.2009 62.6177 10.4806 62.6427 10.7554C62.7481 12.2034 62.6757 13.6574 62.7321 15.107C62.7321 16.0708 62.739 17.034 62.7396 17.9977C62.2607 18.0047 61.7824 18.0079 61.3042 17.9945C61.3058 16.5497 61.3047 15.1054 61.3047 13.6606C61.3004 12.7317 61.3223 11.8011 61.2467 10.8743C61.2271 10.7266 61.1778 10.5845 61.1018 10.4566C61.0258 10.3288 60.9247 10.2179 60.8046 10.1308C60.5253 9.94541 60.1736 9.96577 59.8549 9.98398C59.2894 10.0376 58.8164 10.3943 58.3898 10.742C58.1876 10.914 57.9774 11.0763 57.7806 11.2542C57.7194 11.3029 57.7386 11.3913 57.7317 11.4599C57.7322 13.6386 57.7354 15.8179 57.7301 17.9972C57.2539 18.0052 56.7772 18.0074 56.3016 17.9951C56.3021 16.3001 56.3026 14.6056 56.3011 12.9106C56.2973 12.4992 56.3096 12.0867 56.2761 11.6763C56.2505 11.2579 56.2931 10.809 56.0984 10.4243C55.8079 10.0102 55.2322 9.92345 54.7704 10.0381C54.0506 10.2122 53.4297 10.659 52.8855 11.1486C52.7972 11.2054 52.8057 11.3158 52.8052 11.4074C52.8094 13.6027 52.8036 15.7986 52.8078 17.994C52.3902 18.0068 51.972 18.0079 51.5549 17.9929C51.5155 15.7456 51.5432 13.4961 51.4825 11.2483C51.4698 10.7383 51.4703 10.2267 51.4033 9.71987C51.3628 9.49434 51.2894 9.2763 51.2517 9.05023ZM75.6065 8.97095C76.0651 8.90345 76.5215 8.82362 76.9764 8.7347C77.0344 10.0001 77.0142 11.2686 77.0253 12.5351C77.0275 14.3554 77.0259 16.1758 77.0259 17.9956C76.5513 18.0063 76.0768 18.0063 75.6022 17.9961C75.5873 15.3904 75.6001 12.7842 75.5958 10.1784C75.5985 9.77612 75.5873 9.37327 75.6065 8.97095ZM89.6768 9.72737C90.6296 9.19862 91.674 8.74059 92.7827 8.74862C93.1721 8.7513 93.5664 8.73416 93.9537 8.79416C94.9209 8.97845 95.7477 9.85434 95.7732 10.8647C95.8248 12.3674 95.7626 13.8717 95.778 15.3749C95.7892 15.8217 95.7727 16.2765 95.8817 16.7131C95.9466 17.0077 96.219 17.1706 96.4286 17.3565C96.2228 17.6399 96.0541 17.9592 95.7865 18.1895C95.6306 18.3208 95.438 18.1783 95.3066 18.0818C94.9597 17.8231 94.7241 17.447 94.5325 17.064C94.225 17.2327 93.9893 17.5017 93.6898 17.6833C93.1679 18.0165 92.5523 18.2147 91.932 18.2056C91.3755 18.2184 90.8052 18.1252 90.304 17.8751C89.49 17.4422 89.0378 16.4983 89.0612 15.5902C89.0543 14.7176 89.4938 13.8679 90.1896 13.3531C91.0228 12.7268 92.0815 12.5206 93.0977 12.4456C93.5621 12.4043 94.0292 12.4022 94.4953 12.3818C94.5139 11.9238 94.4793 11.4652 94.4144 11.012C94.3596 10.6268 94.1771 10.2326 93.826 10.0392C93.4052 9.81577 92.9077 9.81041 92.4475 9.87737C91.5793 9.98398 90.7642 10.3574 90.0577 10.8668C89.8694 10.5963 89.6693 10.3322 89.5092 10.044C89.431 9.89987 89.5576 9.7863 89.6768 9.72737ZM107.222 8.76791C107.776 8.69039 108.339 8.70614 108.887 8.81452C109.705 9.01194 110.424 9.50011 110.913 10.1892C111.305 10.7409 111.56 11.387 111.682 12.0529C111.776 12.6911 111.812 13.3367 111.789 13.9815C111.765 15.0293 111.444 16.0831 110.81 16.9209C110.296 17.5917 109.501 17.994 108.684 18.1429C107.693 18.3176 106.616 18.1408 105.787 17.5472C105.059 17.0254 104.595 16.209 104.344 15.3599C104.207 14.9318 104.183 14.4802 104.151 14.0356C104.138 13.2867 104.123 12.5286 104.274 11.7909C104.48 10.9547 104.889 10.1506 105.525 9.56291C105.994 9.12559 106.588 8.84753 107.222 8.76791ZM114.222 9.07487C114.648 8.9538 115.073 8.82202 115.506 8.72345C115.734 9.1638 115.779 9.66523 115.803 10.1527C116.023 9.9872 116.207 9.78041 116.402 9.58648C117.023 8.9672 117.92 8.59273 118.798 8.7513V8.8622C118.606 9.28755 118.486 9.7413 118.305 10.1709C118.279 10.2502 118.171 10.2245 118.111 10.2395C117.727 10.2486 117.321 10.239 116.976 10.4334C116.637 10.6334 116.338 10.8958 116.095 11.207C115.86 11.5065 115.905 11.9104 115.888 12.2672C115.866 12.7852 115.854 13.3033 115.86 13.8213C115.858 15.2131 115.861 16.6043 115.859 17.9956C115.383 18.0063 114.907 18.0063 114.431 17.9956C114.424 16.4436 114.431 14.8911 114.428 13.3392C114.42 12.2849 114.436 11.229 114.382 10.1758C114.371 9.80237 114.252 9.44505 114.222 9.07487ZM79.8158 9.09255C80.2377 8.95862 80.6649 8.8022 81.1113 8.79362C81.2717 9.20793 81.3765 9.64194 81.423 10.0842C81.7997 9.84952 82.1173 9.53077 82.5041 9.31005C83.2479 8.86541 84.1762 8.56112 85.0243 8.87987C85.5217 9.05666 86.0053 9.34112 86.3064 9.78952C86.5528 10.1142 86.6097 10.5336 86.6352 10.9295C86.7102 12.3384 86.6863 13.7501 86.7039 15.1601C86.7028 16.1051 86.7219 17.0495 86.7246 17.994C86.2484 18.0079 85.7718 18.0063 85.2956 17.9951C85.2951 16.4431 85.2647 14.8911 85.2615 13.3386C85.2408 12.4751 85.286 11.6067 85.1823 10.7474C85.0535 10.3354 84.6577 9.99095 84.2183 9.9797C83.8937 9.9663 83.5575 9.95398 83.2479 10.0692C82.5669 10.3247 81.9534 10.7334 81.3986 11.2017C81.3826 13.4661 81.3975 15.7317 81.3911 17.9967C80.974 18.0052 80.5569 18.0074 80.1403 17.994C80.1387 16.7099 80.1068 15.4263 80.1004 14.1422C80.0887 12.8206 80.0988 11.4984 80.0302 10.1784C80.0158 9.80612 79.8945 9.45309 79.8158 9.09255Z" fill="#1B1D22"/>
<path d="M44.3406 9.90039C44.9195 9.76271 45.5606 9.80878 46.0803 10.1157C46.4509 10.3276 46.7419 10.6565 46.9082 11.0516C47.1822 11.687 47.229 12.3893 47.2593 13.0724C47.2705 13.7286 47.2854 14.3891 47.1949 15.0411C47.1236 15.5602 46.9204 16.0708 46.5671 16.4608C46.1304 16.9199 45.4632 17.0865 44.8492 17.0463C44.2055 17.0013 43.5346 16.7018 43.2074 16.1168C42.9079 15.5592 42.7898 14.9243 42.7148 14.3013C42.6696 13.7859 42.6249 13.2674 42.6733 12.7504C42.7158 12.0561 42.7701 11.3195 43.1463 10.7141C43.4107 10.2899 43.8624 10.014 44.3406 9.90039ZM107.331 9.88967C107.798 9.82646 108.288 9.81467 108.74 9.96896C109.168 10.1634 109.538 10.494 109.788 10.8941C110.079 11.4277 110.144 12.0475 110.192 12.6443C110.224 13.2149 110.219 13.787 110.191 14.3575C110.154 14.8375 110.132 15.3315 109.95 15.7831C109.796 16.164 109.551 16.5261 109.191 16.7345C108.658 17.0463 108.002 17.1138 107.405 16.9793C106.984 16.8867 106.58 16.6745 106.301 16.3381C106.01 16.0006 105.87 15.5624 105.788 15.1306C105.671 14.4866 105.672 13.8304 105.654 13.1784C105.669 12.4884 105.635 11.7727 105.903 11.1213C106.12 10.4982 106.661 9.9636 107.331 9.88967ZM68.8657 10.0509C69.2573 10.0182 69.6595 10.0081 70.0457 10.0943C70.5214 10.1972 70.9214 10.5374 71.1646 10.9536C71.463 11.4615 71.5721 12.0583 71.5987 12.6411C71.654 13.1425 71.5923 13.6456 71.562 14.1465C71.4902 14.7979 71.3731 15.4654 71.0395 16.0381C70.8049 16.4425 70.4171 16.757 69.9633 16.8727C69.0258 17.1138 67.9916 16.7945 67.2994 16.1265C67.2106 16.0359 67.0802 15.9513 67.1047 15.805C67.1047 14.4293 67.1058 13.0541 67.1047 11.6784C67.1063 11.507 67.093 11.335 67.1148 11.1647C67.5819 10.6466 68.1517 10.1516 68.8657 10.0509ZM92.0559 13.5127C92.4837 13.3922 92.93 13.3665 93.3706 13.3247C93.7233 13.2936 94.0723 13.3745 94.4256 13.3633C94.4165 14.0993 94.4298 14.8375 94.3702 15.5715C94.3495 15.9861 94.0569 16.3145 93.7557 16.5663C93.3961 16.8561 92.9795 17.109 92.514 17.1658C92.1251 17.2006 91.7192 17.1856 91.3547 17.0318C91.0392 16.9006 90.8328 16.5995 90.7062 16.2925C90.578 15.9845 90.62 15.6427 90.6275 15.3181C90.644 15.025 90.6424 14.7111 90.7982 14.4518C91.0706 13.9841 91.5431 13.6595 92.0559 13.5127Z" fill="white"/>
</svg>
