<svg width="142" height="27" viewBox="0 0 142 27" fill="none" xmlns="http://www.w3.org/2000/svg">
<path d="M13.5185 22.3634C13.1493 21.9676 12.8937 21.7131 12.6665 21.4021C12.5529 21.2608 12.4961 21.0911 12.4961 20.9215C12.4961 15.9738 12.4961 11.0262 12.4961 6.07856C12.4961 5.90892 12.6097 5.71102 12.6949 5.56966C12.9221 5.25866 13.1777 4.97594 13.4617 4.6084C13.8593 5.06075 14.1433 5.34348 14.3989 5.65447C14.4841 5.76756 14.5409 5.96547 14.5409 6.10683C14.5409 11.0262 14.5409 15.9738 14.5409 20.8932C14.5409 21.0911 14.4273 21.289 14.3137 21.4587C14.0865 21.7414 13.8309 21.9958 13.5185 22.3634Z" fill="black"/>
<path d="M12.4392 26.9998C8.2644 22.8156 4.1464 18.6878 0 14.5601C0.8804 14.5601 1.7892 14.5601 2.6696 14.5601C2.7832 14.5601 2.9252 14.6731 3.0104 14.758C6.0776 17.8114 9.1448 20.893 12.2404 23.9464C12.354 24.0595 12.4392 24.2009 12.4392 24.314C12.4676 25.1904 12.4392 26.0386 12.4392 26.9998Z" fill="black"/>
<path d="M26.9242 12.4399C26.129 12.4399 25.2202 12.4399 24.3398 12.4399C24.2262 12.4399 24.0842 12.2986 23.9706 12.1855C20.9318 9.13208 17.8646 6.10695 14.8258 3.05355C14.7122 2.94046 14.5986 2.7991 14.5986 2.68601C14.5702 1.80957 14.5986 0.933128 14.5986 0.0849609C18.7166 4.21271 22.8346 8.34046 26.9242 12.4399Z" fill="black"/>
<path d="M27.0098 14.5604C22.8634 18.6881 18.7454 22.7876 14.5706 26.9436C14.5706 26.5478 14.6274 26.152 14.5706 25.7845C14.4002 24.6253 14.8546 23.8054 15.7066 22.9855C18.4898 20.3279 21.1878 17.5855 23.9142 14.8431C24.1414 14.6169 24.397 14.5038 24.7094 14.5321C25.4762 14.5604 26.243 14.5604 27.0098 14.5604Z" fill="black"/>
<path d="M0 12.4398C4.1464 8.28377 8.2644 4.18429 12.4392 0C12.4392 0.565445 12.3824 1.10262 12.4392 1.61152C12.5528 2.48796 12.212 3.08168 11.5872 3.70366C8.7188 6.47435 5.9072 9.30157 3.0956 12.1288C2.8684 12.355 2.6412 12.4398 2.3004 12.4398C1.562 12.4115 0.7952 12.4398 0 12.4398Z" fill="black"/>
<path d="M34.0508 11.733C34.0508 11.5634 34.0508 11.422 34.0508 11.2524C34.0508 8.62309 34.0508 6.02204 34.0508 3.39273C34.0508 2.9121 34.1928 2.79901 34.6472 2.82728C35.6128 2.88382 36.5784 2.82728 37.5156 2.9121C39.8728 3.16655 41.52 4.97597 41.5484 7.26602C41.5768 9.55608 40.0148 11.422 37.6576 11.7048C36.4648 11.8461 35.3004 11.733 34.0508 11.733ZM35.1868 7.32257C35.1868 8.3121 35.1868 9.3299 35.1868 10.3194C35.1868 10.5456 35.1868 10.7435 35.4992 10.7435C36.0956 10.7152 36.7204 10.7718 37.3168 10.7152C38.9072 10.5739 40.1568 9.35817 40.3272 7.83147C40.526 6.05032 39.674 4.55189 38.0268 4.1278C37.2032 3.90163 36.2944 3.95817 35.414 3.9299C35.3288 3.9299 35.1868 4.18435 35.1868 4.29744C35.1584 5.31524 35.1868 6.33304 35.1868 7.32257Z" fill="black"/>
<path d="M50.7784 11.2806C50.75 11.4785 50.7216 11.6198 50.6932 11.7612C50.6364 11.7895 50.608 11.8177 50.5512 11.8177C49.6992 11.8743 49.6992 11.8743 49.6992 10.9978C49.6992 8.45333 49.6992 5.88055 49.6992 3.33605C49.6992 2.94024 49.8128 2.82715 50.2104 2.82715C50.608 2.82715 50.7784 2.91197 50.75 3.36432C50.7216 4.24076 50.75 5.1172 50.75 6.05019C52.7096 5.03238 54.4136 5.14547 55.6348 7.06799C56.4016 8.28369 56.1176 9.98003 55.1236 10.9696C54.0444 12.0722 52.6528 12.157 50.7784 11.2806ZM50.75 8.65123C50.75 8.96223 50.7216 9.27322 50.75 9.55594C50.7784 9.78212 50.8636 10.0366 51.0056 10.2062C51.5736 10.8565 52.6812 11.0826 53.4764 10.7999C54.6124 10.3758 55.1804 9.07532 54.7828 7.88788C54.3852 6.72872 53.1924 6.16327 51.9712 6.53081C51.0624 6.81354 50.7216 7.26589 50.7216 8.19888C50.75 8.34024 50.75 8.50987 50.75 8.65123Z" fill="black"/>
<path d="M94.484 16.2281C94.2852 16.4825 94.0864 16.737 93.8876 16.9914C91.5872 15.8888 90.0536 16.0584 88.8892 17.5003C87.8668 18.7726 87.8952 20.7516 88.946 21.9956C90.1104 23.4092 91.7008 23.5506 93.8876 22.4479C94.0864 22.7024 94.2852 22.9568 94.484 23.2113C93.5752 24.3422 90.5932 25.0207 88.4916 23.1548C86.5604 21.4301 86.4752 18.3202 88.3212 16.4825C89.9968 14.8144 93.0924 14.6731 94.484 16.2281Z" fill="black"/>
<path d="M62.0825 6.05043C62.1109 5.85253 62.1393 5.71116 62.1677 5.5698C62.1961 5.54153 62.2245 5.51326 62.2529 5.51326C63.2185 5.40017 63.2185 5.40017 63.2185 6.36143C63.2185 7.97294 63.2185 9.58446 63.2185 11.1677C63.2185 11.818 63.2185 11.818 62.5937 11.818C62.4801 11.818 62.3665 11.7897 62.1961 11.7897C62.1677 11.6201 62.1109 11.4787 62.0825 11.2525C61.1737 11.9028 60.2081 12.0441 59.1573 11.7614C58.4757 11.5918 57.9361 11.196 57.5101 10.6305C56.6297 9.4431 56.6581 7.74677 57.5669 6.61588C58.1065 5.93734 58.8165 5.54153 59.6969 5.42844C60.5773 5.31535 61.3441 5.54153 62.0825 6.05043ZM62.1393 8.67975C62.1393 8.48184 62.1109 8.28394 62.1393 8.08603C62.2245 7.29441 61.9973 7.01169 61.1169 6.5876C60.5489 6.33315 59.9241 6.30488 59.3561 6.53106C58.1633 7.01169 57.6521 8.4253 58.2201 9.64101C58.7597 10.8002 60.1229 11.2243 61.3157 10.6023C61.8553 10.3195 62.2529 9.92373 62.1393 9.24519C62.1109 9.07556 62.1393 8.87766 62.1393 8.67975Z" fill="black"/>
<path d="M138.05 11.3092C136.033 12.2422 134.528 12.016 133.506 10.7155C132.569 9.52804 132.597 7.74689 133.563 6.58773C134.585 5.31548 136.147 5.11757 138.05 6.05055C138.078 5.88092 138.135 5.73956 138.163 5.5982C138.22 5.56993 138.249 5.54165 138.305 5.54165C139.186 5.42856 139.186 5.42856 139.186 6.33328C139.186 7.97307 139.186 9.64113 139.186 11.2809C139.186 11.4506 139.186 11.6202 139.186 11.7615C138.419 11.9595 138.163 11.8464 138.05 11.3092ZM138.107 8.67987C138.107 8.39715 138.135 8.08616 138.107 7.83171C138.05 7.57726 137.965 7.26626 137.794 7.06836C137.198 6.44637 136.09 6.22019 135.295 6.55945C134.102 7.04008 133.591 8.48197 134.187 9.69768C134.727 10.8568 136.119 11.2526 137.283 10.6307C137.823 10.3479 138.22 9.95213 138.107 9.27359C138.107 9.07569 138.107 8.87778 138.107 8.67987Z" fill="black"/>
<path d="M108.803 11.8181C108.774 11.5919 108.746 11.4505 108.718 11.2526C107.809 11.9312 106.815 12.0443 105.792 11.7898C105.082 11.6202 104.543 11.1961 104.117 10.6024C103.265 9.41493 103.322 7.66205 104.23 6.53116C105.281 5.25891 106.73 5.08928 108.718 6.02226C108.746 5.85263 108.774 5.71127 108.831 5.51336C109.058 5.51336 109.314 5.48509 109.541 5.51336C109.655 5.54163 109.825 5.71127 109.825 5.79608C109.854 7.69032 109.854 9.58457 109.825 11.4788C109.825 11.5919 109.655 11.7615 109.513 11.7898C109.286 11.8463 109.058 11.8181 108.803 11.8181ZM108.746 8.65158C108.746 8.36886 108.774 8.05786 108.746 7.80341C108.689 7.54896 108.604 7.26624 108.462 7.09661C107.894 6.44635 106.786 6.24844 105.963 6.55944C104.77 7.04006 104.23 8.51022 104.827 9.72593C105.395 10.8851 106.843 11.2809 108.036 10.6024C108.519 10.3196 108.86 9.95211 108.774 9.33012C108.718 9.07567 108.746 8.87776 108.746 8.65158Z" fill="black"/>
<path d="M54.7535 23.6358C53.7595 24.3143 52.7371 24.4839 51.6863 24.1447C51.0332 23.9467 50.4935 23.5509 50.096 22.9855C49.244 21.7698 49.3292 20.0169 50.2379 18.9143C51.2887 17.6703 52.7655 17.5007 54.6115 18.3488C54.7535 18.1792 54.8955 17.9248 55.0375 17.8965C55.7475 17.7551 55.8043 17.8399 55.8043 18.5467C55.8043 20.2431 55.8043 21.9394 55.8043 23.6358C55.8043 23.8337 55.9463 24.1729 55.5203 24.1729C55.2363 24.1729 54.7251 24.4274 54.7535 23.6358ZM54.7819 21.0347C54.7819 20.8368 54.7535 20.6106 54.7819 20.4127C54.8671 19.819 54.5547 19.4515 54.0719 19.1687C53.1063 18.575 51.8568 18.7164 51.1468 19.5363C50.4368 20.3562 50.4083 21.685 51.0899 22.5614C51.7715 23.3813 52.9928 23.5792 53.9867 23.0138C54.4979 22.731 54.8387 22.3635 54.7535 21.7132C54.7535 21.4871 54.7819 21.2609 54.7819 21.0347Z" fill="black"/>
<path d="M96.1316 21.3171C96.1316 22.4763 97.2108 23.4375 98.3752 23.2962C98.8296 23.2396 99.3124 23.07 99.71 22.8155C100.051 22.6176 100.221 22.6176 100.42 22.9286C100.505 23.0417 100.619 23.1548 100.732 23.2962C100.647 23.381 100.562 23.4941 100.477 23.5506C99 24.7663 96.6712 24.5119 95.592 23.0417C94.4844 21.5433 94.8536 19.3098 96.4156 18.3202C97.4664 17.6417 98.574 17.5852 99.6532 18.2071C100.732 18.8009 101.13 19.8469 101.215 21.0061C101.244 21.3454 101.016 21.3171 100.789 21.3171C99.3976 21.3171 98.0344 21.3171 96.6428 21.3171C96.4724 21.3171 96.302 21.3171 96.1316 21.3171ZM99.9656 20.3558C99.9088 19.4511 99.1704 18.8009 98.148 18.8009C97.1256 18.8009 96.2736 19.4794 96.2168 20.3558C97.4664 20.3558 98.716 20.3558 99.9656 20.3558Z" fill="black"/>
<path d="M118.799 21.3455C118.856 22.8156 120.361 23.6921 121.809 23.1549C121.923 23.0983 122.065 23.0418 122.178 22.9852C122.888 22.5894 122.888 22.5894 123.399 23.3245C122.661 24.0879 121.724 24.3706 120.673 24.314C119.338 24.2575 118.259 23.4376 117.805 22.1653C117.379 20.9214 117.748 19.4795 118.685 18.6313C119.622 17.7832 121.014 17.5852 122.122 18.1224C123.172 18.603 123.968 19.9601 123.882 21.091C123.854 21.402 123.627 21.3455 123.456 21.3455C122.065 21.3455 120.702 21.3455 119.31 21.3455C119.168 21.3172 118.969 21.3455 118.799 21.3455ZM118.884 20.3277C120.134 20.3277 121.411 20.3277 122.661 20.3277C122.661 19.4795 121.781 18.7444 120.844 18.7727C119.821 18.801 118.969 19.4229 118.884 20.3277Z" fill="black"/>
<path d="M78.7803 17.953C79.8027 17.8116 79.8027 17.8116 79.8027 18.7446C79.8027 20.3278 79.8027 21.8828 79.8027 23.4661C79.8027 24.2294 79.8027 24.2294 79.0643 24.1729C78.9791 24.1729 78.8939 24.1446 78.7803 24.1446C78.7519 23.975 78.7235 23.8336 78.6951 23.6357C77.7295 24.3142 76.6787 24.4839 75.5995 24.1446C74.9747 23.9467 74.4351 23.5509 74.0659 22.9854C73.2423 21.8263 73.2707 20.1582 74.1511 19.0273C74.6907 18.3205 75.4291 17.9247 76.3095 17.8116C77.1615 17.6985 77.9567 17.9247 78.6951 18.4619C78.7235 18.264 78.7519 18.1226 78.7803 17.953ZM78.7235 21.0346C78.7235 20.7519 78.7519 20.4409 78.7235 20.1865C78.6951 19.9603 78.6099 19.7058 78.4679 19.5362C77.8431 18.8011 76.6503 18.575 75.7983 18.999C74.9179 19.3949 74.4351 20.3561 74.5771 21.4305C74.6907 22.3917 75.4007 23.1268 76.3663 23.2964C77.0479 23.4095 77.6727 23.2116 78.2407 22.8158C78.7803 22.4483 78.7235 21.9111 78.6951 21.4022C78.7235 21.2608 78.7235 21.1477 78.7235 21.0346Z" fill="black"/>
<path d="M90.1441 10.1781C90.3713 10.4042 90.5701 10.6304 90.7689 10.8566C89.8885 11.8744 88.0993 12.1854 86.7929 11.5634C85.5149 10.9697 84.7765 9.49953 85.0605 8.08592C85.4013 6.16341 87.1337 5.06079 89.0081 5.48487C90.3145 5.79587 91.3369 7.23775 91.2801 8.59482C91.2517 8.90582 91.0813 8.87754 90.8825 8.87754C89.4909 8.87754 88.0709 8.87754 86.6793 8.87754C86.1113 8.87754 86.0545 8.93409 86.2533 9.47126C86.7361 10.8283 88.3549 11.309 89.6613 10.4891C89.8317 10.4042 89.9737 10.3194 90.1441 10.1781ZM86.2533 7.94456C87.5313 7.94456 88.7809 7.94456 90.0305 7.94456C89.8885 6.95503 89.1217 6.36131 88.0993 6.38959C87.1621 6.38959 86.3669 7.06812 86.2533 7.94456Z" fill="black"/>
<path d="M16.7003 7.85986C17.3819 8.5384 17.9783 9.13211 18.5747 9.7541C18.6599 9.83892 18.6883 10.0368 18.6883 10.1782C18.6883 12.3834 18.6883 14.5887 18.6883 16.7939C18.6883 16.9353 18.6599 17.0766 18.5747 17.1614C17.9783 17.7834 17.3535 18.3771 16.6719 19.0557C16.7003 15.3237 16.7003 11.6766 16.7003 7.85986Z" fill="black"/>
<path d="M10.365 7.88818C10.365 11.6767 10.365 15.3238 10.365 19.0274C10.2514 18.9709 10.1662 18.9144 10.1094 18.8578C10.0242 18.773 9.93901 18.6882 9.85381 18.6034C9.37101 18.0945 8.68941 17.6704 8.43381 17.0484C8.17821 16.4264 8.34861 15.6631 8.34861 14.928C8.34861 13.373 8.34861 11.8463 8.34861 10.2913C8.34861 10.0651 8.49061 9.75415 8.63261 9.58452C9.14381 9.04735 9.71181 8.51017 10.365 7.88818Z" fill="black"/>
<path d="M121.639 11.9024C119.736 11.9024 118.316 10.5171 118.344 8.65113C118.344 6.81344 119.764 5.4281 121.639 5.39982C123.513 5.37155 124.933 6.81344 124.933 8.6794C124.905 10.5171 123.513 11.9024 121.639 11.9024ZM121.639 10.9129C122.888 10.9129 123.825 9.95166 123.825 8.6794C123.825 7.37888 122.917 6.4459 121.667 6.4459C120.389 6.4459 119.452 7.40715 119.452 8.70768C119.452 9.95166 120.361 10.9129 121.639 10.9129Z" fill="black"/>
<path d="M35.1868 24.1163C35.1016 24.1446 35.0732 24.1729 35.0448 24.1729C34.0508 24.286 34.0508 24.286 34.0508 23.2964C34.0508 20.7802 34.0508 18.2357 34.0508 15.7195C34.0508 15.3519 34.136 15.2106 34.5336 15.2389C35.8968 15.2671 37.26 15.2671 38.6516 15.2389C39.1344 15.2389 39.106 15.4933 39.106 15.8043C39.106 16.1153 39.106 16.3415 38.6516 16.3415C37.6576 16.3132 36.6352 16.3415 35.6412 16.3132C35.3004 16.3132 35.1868 16.398 35.1868 16.7373C35.2152 17.3875 35.2152 18.0378 35.1868 18.6881C35.1868 18.9708 35.3004 19.0556 35.556 19.0556C36.3228 19.0556 37.0896 19.0839 37.828 19.0556C38.2824 19.0273 38.2256 19.3101 38.2256 19.5928C38.1972 19.8472 38.3392 20.1865 37.8564 20.1865C37.118 20.1582 36.408 20.1865 35.6696 20.1865C35.272 20.1582 35.1868 20.3279 35.1868 20.6954C35.2152 21.6849 35.1868 22.7027 35.1868 23.6923C35.1868 23.8336 35.1868 23.975 35.1868 24.1163Z" fill="black"/>
<path d="M127.23 5.51321C127.259 5.73939 127.259 5.90902 127.287 6.1352C127.458 6.02211 127.571 5.93729 127.685 5.85248C129.076 4.86295 131.121 5.48494 131.576 7.09646C131.661 7.37918 131.689 7.69017 131.689 8.00117C131.689 9.13206 131.661 10.2347 131.718 11.3656C131.718 11.8462 131.49 11.8179 131.15 11.8179C130.78 11.8179 130.638 11.7614 130.638 11.3373C130.667 10.2347 130.667 9.13206 130.638 8.02944C130.61 7.153 130.127 6.55928 129.36 6.41792C128.423 6.27656 127.656 6.67237 127.344 7.49227C127.287 7.6619 127.259 7.88808 127.259 8.05771C127.259 9.16033 127.23 10.2629 127.259 11.3656C127.259 11.7897 127.032 11.7614 126.748 11.7614C126.435 11.7614 126.18 11.7896 126.18 11.3373C126.208 9.4996 126.18 7.6619 126.18 5.85248C126.18 5.54148 126.293 5.42839 126.606 5.45667C126.804 5.51321 127.003 5.51321 127.23 5.51321Z" fill="black"/>
<path d="M46.9432 11.7894C46.9148 11.5915 46.9148 11.4501 46.8864 11.224C46.7444 11.337 46.6308 11.3936 46.5456 11.4501C45.2392 12.4114 43.2512 11.8742 42.7116 10.4323C42.598 10.1213 42.5412 9.78207 42.5128 9.47107C42.4844 8.28364 42.5128 7.09621 42.4844 5.93704C42.4844 5.45642 42.7684 5.54123 43.0524 5.51296C43.3648 5.48469 43.592 5.51296 43.592 5.93704C43.5636 7.03966 43.5636 8.14228 43.592 9.2449C43.592 10.1213 44.0464 10.7151 44.7848 10.8564C45.6652 11.0543 46.4604 10.6868 46.8012 9.92343C46.8864 9.72552 46.9148 9.52762 46.9148 9.30144C46.9148 8.17055 46.9432 7.06793 46.9148 5.93704C46.8864 5.45642 47.142 5.48469 47.4828 5.48469C47.8236 5.48469 48.0224 5.51296 48.0224 5.96532C47.994 7.7182 47.994 9.47108 48.0224 11.224C48.0224 11.6763 47.9088 11.8742 47.4544 11.7894C47.2556 11.7894 47.1136 11.7894 46.9432 11.7894Z" fill="black"/>
<path d="M58.6455 24.1727C58.2763 24.1727 57.9639 24.1727 57.5663 24.1727C57.5663 23.9748 57.5663 23.8052 57.5663 23.6356C57.5663 21.911 57.5663 20.1863 57.5663 18.4617C57.5663 18.2073 57.4527 17.868 57.9355 17.8963C58.2763 17.9246 58.7307 17.7267 58.6739 18.3769C58.6739 18.4052 58.7023 18.4335 58.7591 18.49C59.2987 18.0094 59.8951 17.7832 60.6051 17.7832C61.9967 17.7832 63.0191 18.6596 63.0759 20.045C63.1327 21.3172 63.0759 22.5895 63.1043 23.8617C63.1043 24.0879 63.0191 24.1727 62.7919 24.1727C62.0251 24.2293 62.0251 24.2293 62.0251 23.4659C62.0251 22.4764 62.0251 21.4586 62.0251 20.4691C62.0251 19.3947 61.4003 18.7445 60.3779 18.7727C59.3555 18.7727 58.6739 19.4795 58.6739 20.4973C58.6739 21.5434 58.6739 22.5895 58.6739 23.6356C58.6455 23.8052 58.6455 23.9748 58.6455 24.1727Z" fill="black"/>
<path d="M75.0302 5.54145C75.0586 5.73935 75.087 5.90899 75.087 6.02207C75.5982 5.82417 76.081 5.56972 76.6206 5.4849C78.2394 5.23045 79.4038 6.16344 79.489 7.77495C79.5458 9.01893 79.5174 10.2629 79.5174 11.5069C79.5174 11.9875 79.1766 11.8179 78.921 11.8462C78.6654 11.8744 78.4382 11.8744 78.4382 11.5069C78.4666 10.3477 78.4382 9.21684 78.4382 8.05768C78.4382 7.23778 77.9554 6.64406 77.2454 6.5027C76.365 6.33307 75.5982 6.64406 75.229 7.37914C75.1154 7.60532 75.0586 7.85977 75.0586 8.11422C75.0302 9.16029 75.0302 10.2346 75.0586 11.2807C75.0586 11.7048 74.9734 11.8462 74.519 11.8744C74.0362 11.8744 74.0078 11.6483 74.0078 11.2807C74.0362 9.58438 74.0078 7.85977 74.0078 6.16344C74.0078 5.54145 74.0078 5.54145 74.6326 5.56972C74.7746 5.51317 74.8882 5.51317 75.0302 5.54145Z" fill="black"/>
<path d="M96.8447 5.54127C97.2139 5.54127 97.4979 5.54127 97.8387 5.54127C97.867 5.73917 97.8954 5.88053 97.9238 5.99362C98.4634 5.79572 98.9746 5.54126 99.5142 5.45645C101.048 5.202 102.269 6.2198 102.326 7.7465C102.354 8.99048 102.326 10.2345 102.354 11.4784C102.354 11.9591 102.013 11.8177 101.786 11.8177C101.531 11.8177 101.275 11.9025 101.275 11.4784C101.303 10.3475 101.275 9.21666 101.275 8.08577C101.275 7.2376 100.821 6.64388 100.082 6.47425C99.2018 6.30462 98.4066 6.64388 98.0658 7.40723C97.9806 7.63341 97.9238 7.85959 97.9238 8.11404C97.9238 9.21666 97.8954 10.291 97.9238 11.3936C97.9238 11.7894 97.7819 11.8742 97.4127 11.8742C97.1003 11.846 96.8163 11.9308 96.8447 11.4502C96.8731 9.61247 96.8447 7.77477 96.8447 5.96535C96.8163 5.79572 96.8447 5.68263 96.8447 5.54127Z" fill="black"/>
<path d="M103.52 18.377C104.173 18.1791 104.741 17.8964 105.338 17.8398C106.871 17.7267 107.894 18.6597 107.95 20.1864C108.007 21.4021 107.95 22.6461 107.979 23.8618C107.979 24.3707 107.61 24.1728 107.354 24.2011C107.098 24.2293 106.9 24.2011 106.9 23.8335C106.928 22.7309 106.9 21.6283 106.9 20.5257C106.9 19.4513 106.275 18.8011 105.281 18.8011C104.258 18.8011 103.548 19.5079 103.548 20.5539C103.548 21.6283 103.52 22.7026 103.548 23.777C103.548 24.2293 103.321 24.2011 103.009 24.2293C102.668 24.2293 102.469 24.2011 102.469 23.777C102.498 21.9958 102.469 20.2147 102.469 18.4335C102.469 18.1791 102.441 17.8964 102.838 17.9246C103.179 17.9246 103.605 17.7833 103.52 18.377C103.548 18.4053 103.577 18.4335 103.52 18.377Z" fill="black"/>
<path d="M43.9928 18.462C44.0496 18.4338 44.1348 18.4055 44.22 18.3489C45.1004 17.6987 46.066 17.6139 47.0316 18.038C47.9688 18.4338 48.338 19.2537 48.3664 20.2432C48.3948 21.4589 48.3664 22.6746 48.3948 23.8903C48.3948 24.1165 48.3096 24.2013 48.0824 24.2296C47.344 24.2861 47.344 24.2861 47.344 23.551C47.344 22.5332 47.344 21.5154 47.344 20.4976C47.344 19.4516 46.7192 18.8013 45.7252 18.8013C44.7028 18.8013 43.9644 19.5081 43.9644 20.5259C43.9644 21.6003 43.936 22.6746 43.9644 23.7489C43.9644 24.173 43.7656 24.2013 43.4248 24.2013C43.1124 24.2013 42.8852 24.2013 42.8852 23.7489C42.9136 21.9678 42.8852 20.2149 42.8852 18.4338C42.8852 18.1793 42.8 17.8683 43.2544 17.8966C43.5952 17.9249 44.0212 17.7835 43.936 18.3772C43.9076 18.4055 43.9644 18.4338 43.9928 18.462Z" fill="black"/>
<path d="M69.8633 18.8292C69.6645 19.0554 69.4657 19.2816 69.2385 19.5077C68.5853 18.9706 67.8469 18.603 66.9949 18.8575C66.5405 18.9988 66.0861 19.3098 65.7737 19.6491C65.0637 20.4973 65.1773 21.8543 65.9441 22.646C66.7677 23.4941 67.8753 23.4941 69.2101 22.5894C69.4373 22.7873 69.6645 23.0135 69.8633 23.2114C69.1817 24.1444 67.6481 24.5119 66.3985 24.1161C65.1205 23.7203 64.2401 22.5046 64.2117 21.1192C64.1833 19.6774 64.9785 18.4334 66.2849 17.9528C67.5629 17.5569 69.0965 17.8962 69.8633 18.8292Z" fill="black"/>
<path d="M108.656 17.9246C108.827 17.9246 108.969 17.8963 109.082 17.8963C109.934 17.8963 109.849 17.9528 109.849 17.1329C109.849 16.4261 109.906 16.3696 110.9 16.0586C110.9 16.5392 110.928 16.9633 110.9 17.4157C110.871 17.8115 111.042 17.9246 111.411 17.8963C111.865 17.868 112.32 17.8963 112.831 17.8963C112.774 18.1225 112.746 18.2921 112.717 18.49C112.661 18.7445 112.547 18.8858 112.263 18.8575C111.951 18.8293 111.667 18.8575 111.354 18.8575C111.042 18.8293 110.928 18.9706 110.928 19.2816C110.957 20.2429 110.928 21.2324 110.928 22.1937C110.928 22.957 111.241 23.2397 111.979 23.2397C112.064 23.2397 112.121 23.2397 112.206 23.2397C112.661 23.2397 112.945 23.6921 112.717 24.0879C112.689 24.1445 112.575 24.201 112.49 24.201C112.064 24.201 111.61 24.2293 111.184 24.1445C110.36 24.0031 109.906 23.4094 109.906 22.4764C109.877 21.4303 109.906 20.356 109.906 19.3099C109.906 19.0272 109.849 18.8858 109.537 18.8858C108.713 18.8293 108.713 18.8293 108.656 17.9246Z" fill="black"/>
<path d="M110.617 5.51299C110.901 5.51299 111.157 5.51299 111.412 5.51299C111.696 5.54126 111.81 5.42817 111.782 5.14545C111.782 5.11718 111.782 5.08891 111.782 5.06063C111.611 4.24074 112.037 3.8732 112.861 3.67529C112.861 4.09938 112.861 4.49519 112.861 4.91927C112.861 5.51299 112.861 5.51299 113.457 5.51299C113.826 5.51299 114.196 5.51299 114.565 5.51299C114.593 5.51299 114.65 5.54126 114.678 5.56953C114.735 6.33289 114.622 6.47425 113.883 6.47425C112.861 6.47425 112.861 6.47425 112.861 7.52032C112.861 8.31194 112.861 9.10357 112.861 9.86692C112.861 10.5737 113.173 10.8564 113.883 10.8564C113.968 10.8564 114.025 10.8564 114.11 10.8564C114.622 10.8564 114.82 11.1109 114.65 11.6198C114.622 11.7046 114.451 11.7894 114.338 11.7894C114.054 11.8177 113.77 11.8177 113.486 11.7894C112.378 11.7046 111.838 11.1109 111.81 9.98001C111.782 8.93393 111.81 7.88786 111.81 6.84179C111.81 6.55906 111.725 6.44597 111.412 6.44597C110.702 6.44597 110.646 6.36116 110.617 5.51299Z" fill="black"/>
<path d="M84.3495 5.51299C84.2927 5.79571 84.2927 5.99362 84.2075 6.19152C84.1507 6.30461 83.9803 6.44597 83.8383 6.47425C83.4975 6.50252 83.1567 6.50252 82.8443 6.47425C82.5887 6.47425 82.4467 6.55906 82.4751 6.84179C82.4751 7.85959 82.4751 8.87739 82.4751 9.89519C82.4751 10.5737 82.7875 10.8564 83.4975 10.8847C83.5827 10.8847 83.6395 10.8847 83.7247 10.8847C84.2075 10.8847 84.4631 11.2523 84.2359 11.7046C84.2075 11.7894 84.0371 11.846 83.9519 11.846C83.6679 11.8742 83.3839 11.8742 83.0715 11.846C81.9923 11.7612 81.4243 11.1674 81.3959 10.0648C81.3675 9.01875 81.3959 7.97267 81.3959 6.9266C81.3959 6.64388 81.3391 6.47425 80.9983 6.47425C80.2883 6.47425 80.2315 6.38943 80.2031 5.51299C80.4587 5.51299 80.7427 5.51299 80.9983 5.51299C81.2823 5.54126 81.3959 5.42817 81.3675 5.14545C81.3675 5.08891 81.3675 5.06063 81.3675 5.00409C81.3675 4.04283 81.3675 4.04283 82.4183 3.67529C82.4183 4.15592 82.4467 4.58 82.4183 5.03236C82.3899 5.42817 82.5319 5.54126 82.9011 5.51299C83.3839 5.48472 83.8383 5.51299 84.3495 5.51299Z" fill="black"/>
<path d="M71.0557 11.7896C71.0557 11.5917 71.0273 11.4503 71.0273 11.2807C71.0273 8.62308 71.0273 5.99376 71.0273 3.33617C71.0273 2.85554 71.2261 2.799 71.6237 2.82727C72.0213 2.82727 72.1917 2.88382 72.1917 3.33617C72.1633 5.96549 72.1917 8.56654 72.1917 11.1959C72.1917 11.8178 72.1917 11.8178 71.5385 11.8178C71.3965 11.8178 71.2545 11.7896 71.0557 11.7896Z" fill="black"/>
<path d="M141.999 11.7612C140.892 11.9025 140.892 11.9025 140.892 10.8565C140.892 8.39678 140.892 5.9371 140.892 3.44914C140.892 2.68579 140.835 2.79888 141.545 2.79888C141.687 2.79888 141.801 2.79888 141.971 2.82715C141.999 5.82401 141.999 8.79259 141.999 11.7612Z" fill="black"/>
<path d="M82.5302 24.1446C81.5646 24.3142 81.5078 24.286 81.5078 23.353C81.5078 20.8367 81.5078 18.2922 81.5078 15.776C81.5078 15.6064 81.5646 15.3237 81.6498 15.3237C81.9338 15.2671 82.2178 15.2954 82.5018 15.3237C82.5302 15.3237 82.587 15.465 82.587 15.5498C82.587 18.4053 82.587 21.2326 82.587 24.0881C82.5586 24.0881 82.5586 24.0881 82.5302 24.1446Z" fill="black"/>
<path d="M115.133 18.4333C115.559 18.2354 115.928 18.0093 116.354 17.8962C117.178 17.67 117.291 17.7831 117.263 18.603C117.263 18.6878 117.263 18.7726 117.235 18.914C117.007 18.914 116.78 18.914 116.553 18.914C115.587 18.9422 115.048 19.5077 115.048 20.4689C115.048 21.5716 115.02 22.6742 115.048 23.7768C115.076 24.2857 114.764 24.1726 114.452 24.2009C114.111 24.2292 113.94 24.1443 113.94 23.7485C113.969 21.9674 113.94 20.1862 113.94 18.4051C113.94 18.1789 113.884 17.8679 114.281 17.9244C114.594 17.9527 115.076 17.6983 115.02 18.3768C115.105 18.3768 115.133 18.4333 115.133 18.4333Z" fill="black"/>
<path d="M93.5504 5.54131C93.5788 5.73922 93.6072 5.90885 93.6356 6.10676C93.7492 6.05021 93.8344 5.99367 93.9196 5.93712C94.3456 5.56958 94.8568 5.45649 95.3964 5.42822C95.7088 5.42822 95.8508 5.51304 95.8224 5.85231C95.794 6.05021 95.8224 6.27639 95.8224 6.4743C95.4248 6.50257 95.0556 6.50257 94.7432 6.58738C93.9764 6.75702 93.6072 7.26592 93.6072 8.001C93.6072 9.07534 93.5788 10.1497 93.6072 11.224C93.6072 11.6764 93.522 11.8178 93.0392 11.8178C92.4996 11.8178 92.5564 11.535 92.5564 11.1958C92.5564 9.49943 92.5564 7.80309 92.5564 6.10676C92.5564 5.48477 92.5564 5.45649 93.2096 5.48477C93.2948 5.51304 93.38 5.51304 93.5504 5.54131Z" fill="black"/>
<path d="M41.1512 21.0629C41.1512 21.9677 41.1228 22.8724 41.1512 23.7771C41.1796 24.2012 40.924 24.2012 40.64 24.1729C40.3844 24.1446 40.0436 24.286 40.072 23.8053C40.1004 21.9677 40.1004 20.13 40.072 18.264C40.072 17.7551 40.3844 17.8964 40.6684 17.8964C40.9524 17.8682 41.208 17.8682 41.1796 18.2923C41.1228 19.2252 41.1512 20.1582 41.1512 21.0629Z" fill="black"/>
<path d="M72.1641 24.1163C72.1073 24.1446 72.0789 24.1446 72.0789 24.1446C71.1133 24.286 71.1133 24.286 71.1133 23.3247C71.1133 21.6566 71.1417 19.9886 71.1133 18.3488C71.1133 17.8964 71.3121 17.8682 71.6529 17.8682C71.9937 17.8682 72.2209 17.8682 72.1925 18.3488C72.1641 20.1582 72.1925 21.9394 72.1925 23.7488C72.1641 23.8619 72.1641 24.0032 72.1641 24.1163Z" fill="black"/>
<path d="M115.984 8.62295C115.984 7.71824 116.012 6.81353 115.984 5.90882C115.984 5.48473 116.211 5.513 116.495 5.513C116.779 5.513 117.034 5.45646 117.034 5.90882C117.006 7.74651 117.006 9.58421 117.034 11.4502C117.034 11.9308 116.75 11.846 116.466 11.846C116.126 11.8743 115.955 11.7894 115.984 11.4219C116.012 10.4606 115.984 9.52766 115.984 8.62295Z" fill="black"/>
<path d="M64.9523 8.67963C64.9523 7.77492 64.9807 6.89848 64.9523 5.99376C64.9239 5.56968 65.0943 5.48486 65.4635 5.48486C65.8611 5.48486 66.0315 5.56968 66.0315 6.02204C66.0031 7.80319 66.0031 9.55607 66.0315 11.3372C66.0315 11.7613 65.8895 11.8461 65.4919 11.8461C65.1511 11.8461 64.9239 11.8178 64.9523 11.3655C64.9523 10.4608 64.9523 9.55607 64.9523 8.67963Z" fill="black"/>
<path d="M71.6262 16.5109C71.0298 16.5109 70.8878 16.3978 70.8594 15.9454C70.8594 15.4931 71.1718 15.1538 71.6262 15.1538C72.0522 15.1538 72.4214 15.4931 72.393 15.9172C72.3646 16.3412 72.3362 16.5674 71.6262 16.5109Z" fill="black"/>
<path d="M40.5832 16.5109C39.9868 16.5109 39.8164 16.3695 39.8164 15.9454C39.8164 15.5213 40.1572 15.1538 40.5832 15.1538C41.0092 15.1538 41.35 15.4931 41.35 15.9454C41.3784 16.3695 41.208 16.5109 40.5832 16.5109Z" fill="black"/>
<path d="M116.495 4.09979C115.899 4.09979 115.728 3.95843 115.757 3.53435C115.757 3.11026 116.098 2.79927 116.524 2.771C116.978 2.771 117.319 3.08199 117.319 3.53435C117.262 3.95843 117.205 4.12806 116.495 4.09979Z" fill="black"/>
<path d="M65.4621 4.09979C64.8657 4.09979 64.6953 3.95843 64.6953 3.53435C64.6953 3.08199 65.0361 2.771 65.4905 2.771C65.9449 2.771 66.2573 3.11026 66.2289 3.56262C66.2289 3.9867 66.0869 4.09979 65.4621 4.09979Z" fill="black"/>
</svg>
