<svg width="129" height="24" viewBox="0 0 129 24" fill="none" xmlns="http://www.w3.org/2000/svg">
<path d="M0.419922 2C0.419922 0.89543 1.31535 0 2.41992 0H30.7974V22C30.7974 23.1046 29.902 24 28.7974 24H2.41992C1.31535 24 0.419922 23.1046 0.419922 22V2Z" fill="black"/>
<path d="M6.84454 7H8.86971L13.4263 12H11.4012L6.84454 7Z" fill="white"/>
<path d="M13.4276 12H11.4024L6.49532 17H8.3647L13.4276 12Z" fill="white"/>
<path d="M11.9078 7H13.933L18.4896 12H16.4645L11.9078 7Z" fill="white"/>
<path d="M18.4904 12H16.4653L11.5581 17H13.4275L18.4904 12Z" fill="white"/>
<path d="M23.2029 17L21.1777 17L16.6211 12L18.6463 12L23.2029 17Z" fill="white"/>
<path d="M16.6213 12L18.6465 12L23.5536 7L21.6842 7L16.6213 12Z" fill="white"/>
<rect x="35.8599" y="2" width="2.02516" height="11" fill="black"/>
<rect x="44.9739" y="2" width="2" height="9.11324" transform="rotate(90 44.9739 2)" fill="black"/>
<rect width="2.02516" height="11" transform="matrix(1 8.63365e-08 8.85227e-08 -1 115.854 13)" fill="black"/>
<rect width="2" height="9.11324" transform="matrix(4.42614e-08 -1 -1 -4.31683e-08 124.968 13)" fill="black"/>
<rect x="43.9611" y="7" width="2" height="8.10066" transform="rotate(90 43.9611 7)" fill="black"/>
<rect x="49.024" y="13" width="2.02517" height="11" transform="rotate(-180 49.024 13)" fill="black"/>
<rect x="53.0737" y="13" width="2.02517" height="11" transform="rotate(-180 53.0737 13)" fill="black"/>
<rect x="61.1749" y="13" width="2.02517" height="11" transform="rotate(-180 61.1749 13)" fill="black"/>
<path d="M61.1749 13L59.1497 13L51.049 2L53.0742 2L61.1749 13Z" fill="black"/>
<rect x="77.3762" y="13" width="2.02517" height="11" transform="rotate(-180 77.3762 13)" fill="black"/>
<rect x="100.665" y="13" width="2.02517" height="11" transform="rotate(-180 100.665 13)" fill="black"/>
<rect x="85.4764" y="13" width="2.02517" height="11" transform="rotate(-180 85.4764 13)" fill="black"/>
<path d="M85.4764 13L83.4513 13L75.3506 2L77.3758 2L85.4764 13Z" fill="black"/>
<path d="M96.109 4.50008C93.915 2.83342 88.5146 2.00001 88.5146 8.00009C88.5146 14.0208 94.5901 12.0001 96.109 11.0001" stroke="black" stroke-width="2"/>
<path d="M73.3256 13L71.3005 13L66.7438 2.5L68.769 2.5L73.3256 13Z" fill="black"/>
<path d="M64.2122 13L62.1871 13L66.7437 2.5L68.7689 2.5L64.2122 13Z" fill="black"/>
<rect x="64.212" y="9" width="7.08807" height="2" fill="black"/>
<path d="M113.83 13L111.804 13L107.248 2.5L109.273 2.5L113.83 13Z" fill="black"/>
<path d="M104.716 13L102.691 13L107.248 2.5L109.273 2.5L104.716 13Z" fill="black"/>
<rect x="104.716" y="9" width="7.08807" height="2" fill="black"/>
<path d="M36.4409 17.016H38.1839C38.9912 17.016 39.6165 17.233 40.0599 17.667C40.5032 18.101 40.7249 18.7123 40.7249 19.501C40.7249 20.2943 40.5032 20.9103 40.0599 21.349C39.6165 21.783 38.9912 22 38.1839 22H36.4409V17.016ZM38.1419 21.398C39.3692 21.398 39.9829 20.7657 39.9829 19.501C39.9829 18.2457 39.3692 17.618 38.1419 17.618H37.1619V21.398H38.1419ZM47.2512 20.768H44.7312L44.1992 22H43.4642L45.6832 17.016H46.2922L48.5182 22H47.7832L47.2512 20.768ZM47.0062 20.194L45.9912 17.821L44.9762 20.194H47.0062ZM52.1389 17.618H50.4519V17.016H54.5539V17.618H52.8669V22H52.1389V17.618ZM60.2826 20.768H57.7626L57.2306 22H56.4956L58.7146 17.016H59.3236L61.5496 22H60.8146L60.2826 20.768ZM60.0376 20.194L59.0226 17.821L58.0076 20.194H60.0376ZM68.8213 17.016H72.0553V17.604H69.5353V19.172H71.9153V19.76H69.5353V21.412H72.0553V22H68.8213V17.016ZM79.3214 22H78.4674L77.0114 19.998L75.5554 22H74.7014L76.5984 19.452L74.7854 17.016H75.6324L77.0184 18.92L78.3974 17.016H79.2514L77.4244 19.459L79.3214 22ZM84.3036 22.056C83.8229 22.056 83.4029 21.9533 83.0436 21.748C82.6889 21.538 82.4159 21.2417 82.2246 20.859C82.0332 20.4763 81.9376 20.0237 81.9376 19.501C81.9376 18.983 82.0332 18.5327 82.2246 18.15C82.4159 17.7673 82.6889 17.4733 83.0436 17.268C83.4029 17.0627 83.8229 16.96 84.3036 16.96C84.6442 16.96 84.9592 17.0137 85.2486 17.121C85.5426 17.2237 85.7899 17.3753 85.9906 17.576L85.7386 18.108C85.5052 17.9167 85.2742 17.779 85.0456 17.695C84.8216 17.6063 84.5766 17.562 84.3106 17.562C83.7926 17.562 83.3912 17.73 83.1066 18.066C82.8266 18.402 82.6866 18.8803 82.6866 19.501C82.6866 20.1263 82.8266 20.6093 83.1066 20.95C83.3912 21.286 83.7926 21.454 84.3106 21.454C84.5766 21.454 84.8216 21.412 85.0456 21.328C85.2742 21.2393 85.5052 21.0993 85.7386 20.908L85.9906 21.44C85.7899 21.6407 85.5426 21.7947 85.2486 21.902C84.9592 22.0047 84.6442 22.056 84.3036 22.056ZM93.5057 17.016V22H92.7847V19.767H89.9917V22H89.2777V17.016H89.9917V19.172H92.7847V17.016H93.5057ZM100.32 20.768H97.8005L97.2685 22H96.5335L98.7525 17.016H99.3615L101.587 22H100.852L100.32 20.768ZM100.075 20.194L99.0605 17.821L98.0455 20.194H100.075ZM108.701 17.016V22H108.148L105.292 18.234V22H104.613V17.016H105.159L108.022 20.789V17.016H108.701ZM116.282 19.354V21.706C116.072 21.8133 115.806 21.8997 115.484 21.965C115.167 22.0257 114.842 22.056 114.511 22.056C114.007 22.056 113.571 21.9557 113.202 21.755C112.833 21.5497 112.551 21.2557 112.355 20.873C112.164 20.4903 112.068 20.033 112.068 19.501C112.068 18.9783 112.164 18.5257 112.355 18.143C112.551 17.7603 112.829 17.4687 113.188 17.268C113.552 17.0627 113.979 16.96 114.469 16.96C114.819 16.96 115.141 17.0137 115.435 17.121C115.734 17.2237 115.988 17.373 116.198 17.569L115.939 18.108C115.701 17.912 115.468 17.772 115.239 17.688C115.01 17.604 114.756 17.562 114.476 17.562C113.935 17.562 113.522 17.7277 113.237 18.059C112.957 18.3903 112.817 18.871 112.817 19.501C112.817 20.1497 112.962 20.642 113.251 20.978C113.54 21.3093 113.967 21.475 114.532 21.475C114.91 21.475 115.274 21.419 115.624 21.307V19.907H114.462V19.354H116.282ZM119.77 17.016H123.004V17.604H120.484V19.172H122.864V19.76H120.484V21.412H123.004V22H119.77V17.016Z" fill="black"/>
</svg>
