<svg width="619" height="407" viewBox="0 0 619 407" fill="none" xmlns="http://www.w3.org/2000/svg">
<g filter="url(#filter0_d)">
<rect x="30" y="235.445" width="264" height="135.089" rx="20" fill="#C4C4C4"/>
</g>
<path d="M30 236C30 222.745 40.7452 212 54 212L270 212C283.255 212 294 222.745 294 236V351C294 364.255 283.255 375 270 375H54C40.7452 375 30 364.255 30 351L30 236Z" fill="white"/>
<path d="M81.5 257V340.5" stroke="#EDF0F5"/>
<path d="M127 257V340.5" stroke="#EDF0F5"/>
<path d="M217 257V340.5" stroke="#EDF0F5"/>
<path d="M262 257V340.5" stroke="#EDF0F5"/>
<path d="M172 259.5V339" stroke="#3C2EDB" stroke-linecap="round" stroke-dasharray="3 3"/>
<path d="M81.5 323.5L111.5 314.5L141.5 317L172 298.5L201.5 300L232 295L261.5 303" stroke="#3C2EDB" stroke-width="2"/>
<circle cx="172" cy="299" r="2.5" fill="#3C2EDB" stroke="white"/>
<path d="M80.566 348.728V353H80.11V349.826L78.724 353H78.376L76.978 349.85L76.984 353H76.528V348.728H76.936L78.556 352.412L80.158 348.728H80.566ZM82.8078 353.042C82.5238 353.042 82.2738 352.978 82.0578 352.85C81.8418 352.722 81.6738 352.54 81.5538 352.304C81.4378 352.068 81.3798 351.792 81.3798 351.476C81.3798 351.16 81.4378 350.884 81.5538 350.648C81.6738 350.412 81.8418 350.23 82.0578 350.102C82.2738 349.974 82.5238 349.91 82.8078 349.91C83.0918 349.91 83.3418 349.974 83.5578 350.102C83.7738 350.23 83.9398 350.412 84.0558 350.648C84.1758 350.884 84.2358 351.16 84.2358 351.476C84.2358 351.792 84.1758 352.068 84.0558 352.304C83.9398 352.54 83.7738 352.722 83.5578 352.85C83.3418 352.978 83.0918 353.042 82.8078 353.042ZM82.8078 352.64C83.1078 352.64 83.3378 352.542 83.4978 352.346C83.6578 352.146 83.7378 351.856 83.7378 351.476C83.7378 351.108 83.6558 350.824 83.4918 350.624C83.3278 350.42 83.0998 350.318 82.8078 350.318C82.5118 350.318 82.2818 350.42 82.1178 350.624C81.9538 350.824 81.8718 351.108 81.8718 351.476C81.8718 351.856 81.9518 352.146 82.1118 352.346C82.2758 352.542 82.5078 352.64 82.8078 352.64ZM86.4994 349.91C87.2234 349.91 87.5854 350.308 87.5854 351.104V353H87.0994V351.128C87.0994 350.848 87.0434 350.644 86.9314 350.516C86.8194 350.384 86.6434 350.318 86.4034 350.318C86.1234 350.318 85.8994 350.404 85.7314 350.576C85.5634 350.748 85.4794 350.98 85.4794 351.272V353H84.9934V350.828C84.9934 350.516 84.9774 350.234 84.9454 349.982H85.4074L85.4554 350.522C85.5474 350.326 85.6854 350.176 85.8694 350.072C86.0534 349.964 86.2634 349.91 86.4994 349.91Z" fill="#C4CAD4"/>
<path d="M55.246 325.586V326H52.498V325.628L53.992 323.972C54.192 323.748 54.338 323.546 54.43 323.366C54.522 323.186 54.568 323.006 54.568 322.826C54.568 322.59 54.5 322.41 54.364 322.286C54.228 322.158 54.034 322.094 53.782 322.094C53.374 322.094 52.97 322.258 52.57 322.586L52.384 322.208C52.552 322.048 52.764 321.92 53.02 321.824C53.276 321.728 53.534 321.68 53.794 321.68C54.186 321.68 54.496 321.782 54.724 321.986C54.952 322.186 55.066 322.458 55.066 322.802C55.066 323.046 55.01 323.282 54.898 323.51C54.79 323.734 54.608 323.986 54.352 324.266L53.134 325.586H55.246ZM57.5777 323.318C57.8457 323.318 58.0797 323.376 58.2797 323.492C58.4837 323.604 58.6397 323.762 58.7477 323.966C58.8557 324.17 58.9097 324.406 58.9097 324.674C58.9097 324.942 58.8497 325.18 58.7297 325.388C58.6137 325.596 58.4457 325.758 58.2257 325.874C58.0097 325.986 57.7557 326.042 57.4637 326.042C57.2037 326.042 56.9477 325.996 56.6957 325.904C56.4437 325.808 56.2317 325.678 56.0597 325.514L56.2457 325.136C56.6417 325.464 57.0477 325.628 57.4637 325.628C57.7637 325.628 57.9977 325.544 58.1657 325.376C58.3377 325.204 58.4237 324.972 58.4237 324.68C58.4237 324.396 58.3397 324.168 58.1717 323.996C58.0037 323.82 57.7797 323.732 57.4997 323.732C57.0917 323.732 56.7657 323.898 56.5217 324.23H56.1797V321.728H58.7417V322.136H56.6717V323.66C56.9077 323.432 57.2097 323.318 57.5777 323.318ZM60.9953 326.048C60.5073 326.048 60.1353 325.864 59.8793 325.496C59.6273 325.124 59.5013 324.58 59.5013 323.864C59.5013 323.148 59.6273 322.606 59.8793 322.238C60.1353 321.866 60.5073 321.68 60.9953 321.68C61.4833 321.68 61.8533 321.866 62.1053 322.238C62.3613 322.606 62.4893 323.146 62.4893 323.858C62.4893 324.574 62.3613 325.118 62.1053 325.49C61.8533 325.862 61.4833 326.048 60.9953 326.048ZM60.9953 325.634C61.3353 325.634 61.5853 325.49 61.7453 325.202C61.9093 324.914 61.9913 324.466 61.9913 323.858C61.9913 323.254 61.9113 322.81 61.7513 322.526C61.5913 322.242 61.3393 322.1 60.9953 322.1C60.6553 322.1 60.4033 322.242 60.2393 322.526C60.0793 322.81 59.9993 323.254 59.9993 323.858C59.9993 324.462 60.0793 324.91 60.2393 325.202C60.4033 325.49 60.6553 325.634 60.9953 325.634Z" fill="#C4CAD4"/>
<path d="M53.98 292.318C54.248 292.318 54.482 292.376 54.682 292.492C54.886 292.604 55.042 292.762 55.15 292.966C55.258 293.17 55.312 293.406 55.312 293.674C55.312 293.942 55.252 294.18 55.132 294.388C55.016 294.596 54.848 294.758 54.628 294.874C54.412 294.986 54.158 295.042 53.866 295.042C53.606 295.042 53.35 294.996 53.098 294.904C52.846 294.808 52.634 294.678 52.462 294.514L52.648 294.136C53.044 294.464 53.45 294.628 53.866 294.628C54.166 294.628 54.4 294.544 54.568 294.376C54.74 294.204 54.826 293.972 54.826 293.68C54.826 293.396 54.742 293.168 54.574 292.996C54.406 292.82 54.182 292.732 53.902 292.732C53.494 292.732 53.168 292.898 52.924 293.23H52.582V290.728H55.144V291.136H53.074V292.66C53.31 292.432 53.612 292.318 53.98 292.318ZM57.3977 295.048C56.9097 295.048 56.5377 294.864 56.2817 294.496C56.0297 294.124 55.9037 293.58 55.9037 292.864C55.9037 292.148 56.0297 291.606 56.2817 291.238C56.5377 290.866 56.9097 290.68 57.3977 290.68C57.8857 290.68 58.2557 290.866 58.5077 291.238C58.7637 291.606 58.8917 292.146 58.8917 292.858C58.8917 293.574 58.7637 294.118 58.5077 294.49C58.2557 294.862 57.8857 295.048 57.3977 295.048ZM57.3977 294.634C57.7377 294.634 57.9877 294.49 58.1477 294.202C58.3117 293.914 58.3937 293.466 58.3937 292.858C58.3937 292.254 58.3137 291.81 58.1537 291.526C57.9937 291.242 57.7417 291.1 57.3977 291.1C57.0577 291.1 56.8057 291.242 56.6417 291.526C56.4817 291.81 56.4017 292.254 56.4017 292.858C56.4017 293.462 56.4817 293.91 56.6417 294.202C56.8057 294.49 57.0577 294.634 57.3977 294.634ZM60.9953 295.048C60.5073 295.048 60.1353 294.864 59.8793 294.496C59.6273 294.124 59.5013 293.58 59.5013 292.864C59.5013 292.148 59.6273 291.606 59.8793 291.238C60.1353 290.866 60.5073 290.68 60.9953 290.68C61.4833 290.68 61.8533 290.866 62.1053 291.238C62.3613 291.606 62.4893 292.146 62.4893 292.858C62.4893 293.574 62.3613 294.118 62.1053 294.49C61.8533 294.862 61.4833 295.048 60.9953 295.048ZM60.9953 294.634C61.3353 294.634 61.5853 294.49 61.7453 294.202C61.9093 293.914 61.9913 293.466 61.9913 292.858C61.9913 292.254 61.9113 291.81 61.7513 291.526C61.5913 291.242 61.3393 291.1 60.9953 291.1C60.6553 291.1 60.4033 291.242 60.2393 291.526C60.0793 291.81 59.9993 292.254 59.9993 292.858C59.9993 293.462 60.0793 293.91 60.2393 294.202C60.4033 294.49 60.6553 294.634 60.9953 294.634Z" fill="#C4CAD4"/>
<path d="M55.15 263.586V264H52.768V263.586H53.71V260.34L52.834 260.898V260.424L53.926 259.728H54.208V263.586H55.15ZM57.3977 264.048C56.9097 264.048 56.5377 263.864 56.2817 263.496C56.0297 263.124 55.9037 262.58 55.9037 261.864C55.9037 261.148 56.0297 260.606 56.2817 260.238C56.5377 259.866 56.9097 259.68 57.3977 259.68C57.8857 259.68 58.2557 259.866 58.5077 260.238C58.7637 260.606 58.8917 261.146 58.8917 261.858C58.8917 262.574 58.7637 263.118 58.5077 263.49C58.2557 263.862 57.8857 264.048 57.3977 264.048ZM57.3977 263.634C57.7377 263.634 57.9877 263.49 58.1477 263.202C58.3117 262.914 58.3937 262.466 58.3937 261.858C58.3937 261.254 58.3137 260.81 58.1537 260.526C57.9937 260.242 57.7417 260.1 57.3977 260.1C57.0577 260.1 56.8057 260.242 56.6417 260.526C56.4817 260.81 56.4017 261.254 56.4017 261.858C56.4017 262.462 56.4817 262.91 56.6417 263.202C56.8057 263.49 57.0577 263.634 57.3977 263.634ZM60.9953 264.048C60.5073 264.048 60.1353 263.864 59.8793 263.496C59.6273 263.124 59.5013 262.58 59.5013 261.864C59.5013 261.148 59.6273 260.606 59.8793 260.238C60.1353 259.866 60.5073 259.68 60.9953 259.68C61.4833 259.68 61.8533 259.866 62.1053 260.238C62.3613 260.606 62.4893 261.146 62.4893 261.858C62.4893 262.574 62.3613 263.118 62.1053 263.49C61.8533 263.862 61.4833 264.048 60.9953 264.048ZM60.9953 263.634C61.3353 263.634 61.5853 263.49 61.7453 263.202C61.9093 262.914 61.9913 262.466 61.9913 261.858C61.9913 261.254 61.9113 260.81 61.7513 260.526C61.5913 260.242 61.3393 260.1 60.9953 260.1C60.6553 260.1 60.4033 260.242 60.2393 260.526C60.0793 260.81 59.9993 261.254 59.9993 261.858C59.9993 262.462 60.0793 262.91 60.2393 263.202C60.4033 263.49 60.6553 263.634 60.9953 263.634ZM64.593 264.048C64.105 264.048 63.733 263.864 63.477 263.496C63.225 263.124 63.099 262.58 63.099 261.864C63.099 261.148 63.225 260.606 63.477 260.238C63.733 259.866 64.105 259.68 64.593 259.68C65.081 259.68 65.451 259.866 65.703 260.238C65.959 260.606 66.087 261.146 66.087 261.858C66.087 262.574 65.959 263.118 65.703 263.49C65.451 263.862 65.081 264.048 64.593 264.048ZM64.593 263.634C64.933 263.634 65.183 263.49 65.343 263.202C65.507 262.914 65.589 262.466 65.589 261.858C65.589 261.254 65.509 260.81 65.349 260.526C65.189 260.242 64.937 260.1 64.593 260.1C64.253 260.1 64.001 260.242 63.837 260.526C63.677 260.81 63.597 261.254 63.597 261.858C63.597 262.462 63.677 262.91 63.837 263.202C64.001 263.49 64.253 263.634 64.593 263.634Z" fill="#C4CAD4"/>
<path d="M54.44 229.94H52.12V228.88H58.07V229.94H55.74V236H54.44V229.94ZM60.8004 230.83C60.9937 230.83 61.1604 230.857 61.3004 230.91L61.2904 232.05C61.0771 231.963 60.8571 231.92 60.6304 231.92C60.2037 231.92 59.8771 232.043 59.6504 232.29C59.4304 232.537 59.3204 232.863 59.3204 233.27V236H58.0804V232.38C58.0804 231.847 58.0537 231.37 58.0004 230.95H59.1704L59.2704 231.84C59.3971 231.513 59.5971 231.263 59.8704 231.09C60.1437 230.917 60.4537 230.83 60.8004 230.83ZM66.7287 230.95V236H65.4988V235.19C65.3454 235.47 65.1254 235.69 64.8388 235.85C64.5521 236.003 64.2254 236.08 63.8587 236.08C63.4188 236.08 63.0288 235.973 62.6887 235.76C62.3488 235.547 62.0854 235.243 61.8988 234.85C61.7121 234.457 61.6188 234 61.6188 233.48C61.6188 232.96 61.7121 232.5 61.8988 232.1C62.0921 231.693 62.3588 231.38 62.6988 231.16C63.0388 230.933 63.4254 230.82 63.8587 230.82C64.2254 230.82 64.5521 230.9 64.8388 231.06C65.1254 231.213 65.3454 231.43 65.4988 231.71V230.95H66.7287ZM64.1988 235.1C64.6121 235.1 64.9321 234.957 65.1588 234.67C65.3854 234.383 65.4988 233.98 65.4988 233.46C65.4988 232.927 65.3854 232.517 65.1588 232.23C64.9321 231.943 64.6088 231.8 64.1888 231.8C63.7754 231.8 63.4521 231.95 63.2188 232.25C62.9921 232.543 62.8788 232.953 62.8788 233.48C62.8788 234 62.9921 234.4 63.2188 234.68C63.4521 234.96 63.7788 235.1 64.1988 235.1ZM70.9802 230.82C72.1868 230.82 72.7902 231.513 72.7902 232.9V236H71.5402V232.96C71.5402 232.56 71.4635 232.27 71.3102 232.09C71.1568 231.903 70.9202 231.81 70.6002 231.81C70.2202 231.81 69.9135 231.933 69.6802 232.18C69.4468 232.42 69.3302 232.74 69.3302 233.14V236H68.0902V232.38C68.0902 231.847 68.0635 231.37 68.0102 230.95H69.1802L69.2702 231.78C69.4435 231.473 69.6768 231.237 69.9702 231.07C70.2702 230.903 70.6068 230.82 70.9802 230.82ZM75.9655 236.08C75.0522 236.08 74.3255 235.867 73.7855 235.44L74.1355 234.56C74.6755 234.96 75.2922 235.16 75.9855 235.16C76.2855 235.16 76.5155 235.11 76.6755 235.01C76.8422 234.91 76.9255 234.77 76.9255 234.59C76.9255 234.437 76.8689 234.317 76.7555 234.23C76.6422 234.137 76.4489 234.057 76.1755 233.99L75.3355 233.8C74.4155 233.6 73.9555 233.13 73.9555 232.39C73.9555 232.083 74.0422 231.813 74.2155 231.58C74.3889 231.34 74.6322 231.153 74.9455 231.02C75.2589 230.887 75.6222 230.82 76.0355 230.82C76.3955 230.82 76.7422 230.877 77.0755 230.99C77.4089 231.097 77.7022 231.253 77.9555 231.46L77.5855 232.31C77.0789 231.937 76.5589 231.75 76.0255 231.75C75.7389 231.75 75.5155 231.803 75.3555 231.91C75.1955 232.017 75.1155 232.163 75.1155 232.35C75.1155 232.497 75.1622 232.613 75.2555 232.7C75.3555 232.787 75.5222 232.86 75.7555 232.92L76.6155 233.11C77.1155 233.223 77.4789 233.4 77.7055 233.64C77.9389 233.873 78.0555 234.18 78.0555 234.56C78.0555 235.027 77.8689 235.397 77.4955 235.67C77.1222 235.943 76.6122 236.08 75.9655 236.08ZM83.9553 230.95V236H82.7253V235.19C82.572 235.47 82.352 235.69 82.0653 235.85C81.7786 236.003 81.452 236.08 81.0853 236.08C80.6453 236.08 80.2553 235.973 79.9153 235.76C79.5753 235.547 79.312 235.243 79.1253 234.85C78.9386 234.457 78.8453 234 78.8453 233.48C78.8453 232.96 78.9386 232.5 79.1253 232.1C79.3186 231.693 79.5853 231.38 79.9253 231.16C80.2653 230.933 80.652 230.82 81.0853 230.82C81.452 230.82 81.7786 230.9 82.0653 231.06C82.352 231.213 82.572 231.43 82.7253 231.71V230.95H83.9553ZM81.4253 235.1C81.8386 235.1 82.1586 234.957 82.3853 234.67C82.612 234.383 82.7253 233.98 82.7253 233.46C82.7253 232.927 82.612 232.517 82.3853 232.23C82.1586 231.943 81.8353 231.8 81.4153 231.8C81.002 231.8 80.6786 231.95 80.4453 232.25C80.2186 232.543 80.1053 232.953 80.1053 233.48C80.1053 234 80.2186 234.4 80.4453 234.68C80.6786 234.96 81.0053 235.1 81.4253 235.1ZM87.6067 236.08C87.0801 236.08 86.6234 235.973 86.2367 235.76C85.8501 235.547 85.5534 235.247 85.3467 234.86C85.1401 234.467 85.0367 234.007 85.0367 233.48C85.0367 232.953 85.1434 232.49 85.3567 232.09C85.5767 231.69 85.8834 231.38 86.2767 231.16C86.6767 230.933 87.1367 230.82 87.6567 230.82C88.0167 230.82 88.3634 230.877 88.6967 230.99C89.0367 231.103 89.3067 231.26 89.5067 231.46L89.1567 232.34C88.9434 232.167 88.7167 232.037 88.4767 231.95C88.2367 231.857 88.0001 231.81 87.7667 231.81C87.3134 231.81 86.9601 231.953 86.7067 232.24C86.4534 232.52 86.3267 232.927 86.3267 233.46C86.3267 233.993 86.4501 234.4 86.6967 234.68C86.9501 234.96 87.3067 235.1 87.7667 235.1C88.0001 235.1 88.2367 235.053 88.4767 234.96C88.7167 234.867 88.9434 234.733 89.1567 234.56L89.5067 235.44C89.2934 235.64 89.0167 235.797 88.6767 235.91C88.3367 236.023 87.9801 236.08 87.6067 236.08ZM91.9653 231.89V234.15C91.9653 234.743 92.242 235.04 92.7953 235.04C92.9486 235.04 93.1153 235.013 93.2953 234.96V235.95C93.0753 236.03 92.8086 236.07 92.4953 236.07C91.922 236.07 91.482 235.91 91.1753 235.59C90.8686 235.27 90.7153 234.81 90.7153 234.21V231.89H89.7453V230.95H90.7153V229.72L91.9653 229.3V230.95H93.3053V231.89H91.9653ZM94.1644 230.95H95.4044V236H94.1644V230.95ZM95.4744 228.66V229.89H94.0844V228.66H95.4744ZM99.0618 236.08C98.5485 236.08 98.0951 235.973 97.7018 235.76C97.3151 235.547 97.0151 235.243 96.8018 234.85C96.5951 234.45 96.4918 233.983 96.4918 233.45C96.4918 232.917 96.5951 232.453 96.8018 232.06C97.0151 231.66 97.3151 231.353 97.7018 231.14C98.0951 230.927 98.5485 230.82 99.0618 230.82C99.5685 230.82 100.015 230.927 100.402 231.14C100.788 231.353 101.085 231.66 101.292 232.06C101.505 232.453 101.612 232.917 101.612 233.45C101.612 233.983 101.505 234.45 101.292 234.85C101.085 235.243 100.788 235.547 100.402 235.76C100.015 235.973 99.5685 236.08 99.0618 236.08ZM99.0518 235.1C99.4785 235.1 99.8018 234.963 100.022 234.69C100.248 234.41 100.362 233.997 100.362 233.45C100.362 232.91 100.248 232.5 100.022 232.22C99.7951 231.933 99.4751 231.79 99.0618 231.79C98.6418 231.79 98.3185 231.933 98.0918 232.22C97.8651 232.5 97.7518 232.91 97.7518 233.45C97.7518 233.997 97.8618 234.41 98.0818 234.69C98.3085 234.963 98.6318 235.1 99.0518 235.1ZM105.58 230.82C106.786 230.82 107.39 231.513 107.39 232.9V236H106.14V232.96C106.14 232.56 106.063 232.27 105.91 232.09C105.756 231.903 105.52 231.81 105.2 231.81C104.82 231.81 104.513 231.933 104.28 232.18C104.046 232.42 103.93 232.74 103.93 233.14V236H102.69V232.38C102.69 231.847 102.663 231.37 102.61 230.95H103.78L103.87 231.78C104.043 231.473 104.276 231.237 104.57 231.07C104.87 230.903 105.206 230.82 105.58 230.82ZM110.565 236.08C109.652 236.08 108.925 235.867 108.385 235.44L108.735 234.56C109.275 234.96 109.892 235.16 110.585 235.16C110.885 235.16 111.115 235.11 111.275 235.01C111.442 234.91 111.525 234.77 111.525 234.59C111.525 234.437 111.468 234.317 111.355 234.23C111.242 234.137 111.048 234.057 110.775 233.99L109.935 233.8C109.015 233.6 108.555 233.13 108.555 232.39C108.555 232.083 108.642 231.813 108.815 231.58C108.988 231.34 109.232 231.153 109.545 231.02C109.858 230.887 110.222 230.82 110.635 230.82C110.995 230.82 111.342 230.877 111.675 230.99C112.008 231.097 112.302 231.253 112.555 231.46L112.185 232.31C111.678 231.937 111.158 231.75 110.625 231.75C110.338 231.75 110.115 231.803 109.955 231.91C109.795 232.017 109.715 232.163 109.715 232.35C109.715 232.497 109.762 232.613 109.855 232.7C109.955 232.787 110.122 232.86 110.355 232.92L111.215 233.11C111.715 233.223 112.078 233.4 112.305 233.64C112.538 233.873 112.655 234.18 112.655 234.56C112.655 235.027 112.468 235.397 112.095 235.67C111.722 235.943 111.212 236.08 110.565 236.08Z" fill="#565D67"/>
<path d="M123.56 349.148H122.072V348.728H125.546V349.148H124.058V353H123.56V349.148ZM128.17 349.982V353H127.696V352.478C127.6 352.662 127.466 352.802 127.294 352.898C127.122 352.994 126.928 353.042 126.712 353.042C126.356 353.042 126.086 352.942 125.902 352.742C125.718 352.542 125.626 352.246 125.626 351.854V349.982H126.112V351.842C126.112 352.114 126.168 352.314 126.28 352.442C126.392 352.57 126.562 352.634 126.79 352.634C127.058 352.634 127.274 352.548 127.438 352.376C127.602 352.2 127.684 351.97 127.684 351.686V349.982H128.17ZM131.633 351.476H129.419C129.423 351.86 129.511 352.15 129.683 352.346C129.859 352.542 130.113 352.64 130.445 352.64C130.797 352.64 131.121 352.522 131.417 352.286L131.579 352.64C131.447 352.764 131.277 352.862 131.069 352.934C130.865 353.006 130.655 353.042 130.439 353.042C129.967 353.042 129.597 352.904 129.329 352.628C129.061 352.348 128.927 351.966 128.927 351.482C128.927 351.174 128.987 350.902 129.107 350.666C129.227 350.426 129.395 350.24 129.611 350.108C129.827 349.976 130.073 349.91 130.349 349.91C130.749 349.91 131.063 350.042 131.291 350.306C131.519 350.566 131.633 350.926 131.633 351.386V351.476ZM130.355 350.288C130.103 350.288 129.897 350.364 129.737 350.516C129.581 350.668 129.481 350.882 129.437 351.158H131.195C131.171 350.874 131.087 350.658 130.943 350.51C130.803 350.362 130.607 350.288 130.355 350.288Z" fill="#C4CAD4"/>
<path d="M171.468 348.728L169.974 353H169.554L168.336 349.502L167.112 353H166.698L165.198 348.728H165.702L166.914 352.298L168.156 348.728L168.534 348.734L169.758 352.31L170.982 348.728H171.468ZM174.328 351.476H172.114C172.118 351.86 172.206 352.15 172.378 352.346C172.554 352.542 172.808 352.64 173.14 352.64C173.492 352.64 173.816 352.522 174.112 352.286L174.274 352.64C174.142 352.764 173.972 352.862 173.764 352.934C173.56 353.006 173.35 353.042 173.134 353.042C172.662 353.042 172.292 352.904 172.024 352.628C171.756 352.348 171.622 351.966 171.622 351.482C171.622 351.174 171.682 350.902 171.802 350.666C171.922 350.426 172.09 350.24 172.306 350.108C172.522 349.976 172.768 349.91 173.044 349.91C173.444 349.91 173.758 350.042 173.986 350.306C174.214 350.566 174.328 350.926 174.328 351.386V351.476ZM173.05 350.288C172.798 350.288 172.592 350.364 172.432 350.516C172.276 350.668 172.176 350.882 172.132 351.158H173.89C173.866 350.874 173.782 350.658 173.638 350.51C173.498 350.362 173.302 350.288 173.05 350.288ZM177.724 348.584V353H177.244V352.454C177.156 352.642 177.022 352.788 176.842 352.892C176.666 352.992 176.46 353.042 176.224 353.042C175.96 353.042 175.726 352.976 175.522 352.844C175.322 352.712 175.166 352.528 175.054 352.292C174.942 352.052 174.886 351.776 174.886 351.464C174.886 351.152 174.94 350.88 175.048 350.648C175.16 350.412 175.318 350.23 175.522 350.102C175.726 349.974 175.96 349.91 176.224 349.91C176.46 349.91 176.666 349.962 176.842 350.066C177.018 350.166 177.15 350.308 177.238 350.492V348.584H177.724ZM176.32 352.64C176.616 352.64 176.844 352.54 177.004 352.34C177.164 352.136 177.244 351.848 177.244 351.476C177.244 351.108 177.164 350.824 177.004 350.624C176.844 350.42 176.616 350.318 176.32 350.318C176.024 350.318 175.792 350.418 175.624 350.618C175.46 350.818 175.378 351.1 175.378 351.464C175.378 351.836 175.46 352.126 175.624 352.334C175.792 352.538 176.024 352.64 176.32 352.64Z" fill="#C4CAD4"/>
<path d="M213.56 349.148H212.072V348.728H215.546V349.148H214.058V353H213.56V349.148ZM217.589 349.91C218.313 349.91 218.675 350.308 218.675 351.104V353H218.189V351.128C218.189 350.848 218.133 350.644 218.021 350.516C217.909 350.384 217.733 350.318 217.493 350.318C217.213 350.318 216.989 350.404 216.821 350.576C216.653 350.748 216.569 350.98 216.569 351.272V353H216.083V348.584H216.569V350.474C216.665 350.29 216.801 350.15 216.977 350.054C217.157 349.958 217.361 349.91 217.589 349.91ZM222.119 349.982V353H221.645V352.478C221.549 352.662 221.415 352.802 221.243 352.898C221.071 352.994 220.877 353.042 220.661 353.042C220.305 353.042 220.035 352.942 219.851 352.742C219.667 352.542 219.575 352.246 219.575 351.854V349.982H220.061V351.842C220.061 352.114 220.117 352.314 220.229 352.442C220.341 352.57 220.511 352.634 220.739 352.634C221.007 352.634 221.223 352.548 221.387 352.376C221.551 352.2 221.633 351.97 221.633 351.686V349.982H222.119Z" fill="#C4CAD4"/>
<path d="M256.528 348.728H259.168V349.142H257.014V350.624H259.048V351.038H257.014V353H256.528V348.728ZM261.194 349.91C261.294 349.91 261.386 349.922 261.47 349.946L261.458 350.39C261.366 350.358 261.26 350.342 261.14 350.342C260.848 350.342 260.63 350.434 260.486 350.618C260.346 350.798 260.276 351.018 260.276 351.278V353H259.79V350.828C259.79 350.516 259.774 350.234 259.742 349.982H260.204L260.252 350.54C260.328 350.336 260.45 350.18 260.618 350.072C260.786 349.964 260.978 349.91 261.194 349.91ZM261.964 349.982H262.45V353H261.964V349.982ZM262.51 348.704V349.256H261.916V348.704H262.51ZM266.052 348.584V353H265.572V352.454C265.484 352.642 265.35 352.788 265.17 352.892C264.994 352.992 264.788 353.042 264.552 353.042C264.288 353.042 264.054 352.976 263.85 352.844C263.65 352.712 263.494 352.528 263.382 352.292C263.27 352.052 263.214 351.776 263.214 351.464C263.214 351.152 263.268 350.88 263.376 350.648C263.488 350.412 263.646 350.23 263.85 350.102C264.054 349.974 264.288 349.91 264.552 349.91C264.788 349.91 264.994 349.962 265.17 350.066C265.346 350.166 265.478 350.308 265.566 350.492V348.584H266.052ZM264.648 352.64C264.944 352.64 265.172 352.54 265.332 352.34C265.492 352.136 265.572 351.848 265.572 351.476C265.572 351.108 265.492 350.824 265.332 350.624C265.172 350.42 264.944 350.318 264.648 350.318C264.352 350.318 264.12 350.418 263.952 350.618C263.788 350.818 263.706 351.1 263.706 351.464C263.706 351.836 263.788 352.126 263.952 352.334C264.12 352.538 264.352 352.64 264.648 352.64Z" fill="#C4CAD4"/>
<g filter="url(#filter1_d)">
<rect x="194" y="79" width="232" height="230" rx="20" fill="#C4C4C4"/>
</g>
<path d="M194 64C194 50.7452 204.745 40 218 40L402 40C415.255 40 426 50.7452 426 64V289C426 302.255 415.255 313 402 313H218C204.745 313 194 302.255 194 289V64Z" fill="white"/>
<path d="M358.196 144.376H361.592V145.18H358.196V144.376ZM368.765 147.172V148H364.001V147.172H365.885V140.68L364.133 141.796V140.848L366.317 139.456H366.881V147.172H368.765ZM373.26 148.096C372.284 148.096 371.54 147.728 371.028 146.992C370.524 146.248 370.272 145.16 370.272 143.728C370.272 142.296 370.524 141.212 371.028 140.476C371.54 139.732 372.284 139.36 373.26 139.36C374.236 139.36 374.976 139.732 375.48 140.476C375.992 141.212 376.248 142.292 376.248 143.716C376.248 145.148 375.992 146.236 375.48 146.98C374.976 147.724 374.236 148.096 373.26 148.096ZM373.26 147.268C373.94 147.268 374.44 146.98 374.76 146.404C375.088 145.828 375.252 144.932 375.252 143.716C375.252 142.508 375.092 141.62 374.772 141.052C374.452 140.484 373.948 140.2 373.26 140.2C372.58 140.2 372.076 140.484 371.748 141.052C371.428 141.62 371.268 142.508 371.268 143.716C371.268 144.924 371.428 145.82 371.748 146.404C372.076 146.98 372.58 147.268 373.26 147.268ZM383.155 147.172V148H378.391V147.172H380.275V140.68L378.523 141.796V140.848L380.707 139.456H381.271V147.172H383.155ZM393.828 145.804H389.364L388.416 148H387.396L391.152 139.456H392.016L395.772 148H394.764L393.828 145.804ZM393.48 144.988L391.596 140.596L389.712 144.988H393.48ZM397.048 139.456H402.448V140.272H398.02V143.248H402.208V144.076H398.02V147.184H402.448V148H397.048V139.456ZM404.103 139.456H406.971C408.339 139.456 409.395 139.828 410.139 140.572C410.891 141.308 411.267 142.356 411.267 143.716C411.267 145.084 410.891 146.14 410.139 146.884C409.395 147.628 408.339 148 406.971 148H404.103V139.456ZM406.911 147.16C408.015 147.16 408.843 146.872 409.395 146.296C409.955 145.72 410.235 144.86 410.235 143.716C410.235 141.436 409.127 140.296 406.911 140.296H405.087V147.16H406.911Z" fill="#C4C4C4"/>
<path d="M271.848 147H270.54L269.472 144.156C269.36 143.852 269.196 143.644 268.98 143.532C268.764 143.412 268.468 143.352 268.092 143.352H266.22V147H264.996V138.456H268.512C269.448 138.456 270.164 138.664 270.66 139.08C271.164 139.496 271.416 140.092 271.416 140.868C271.416 141.428 271.268 141.904 270.972 142.296C270.676 142.688 270.256 142.964 269.712 143.124C270.208 143.212 270.568 143.564 270.792 144.18L271.848 147ZM268.368 142.356C268.992 142.356 269.456 142.236 269.76 141.996C270.064 141.748 270.216 141.38 270.216 140.892C270.216 140.404 270.064 140.044 269.76 139.812C269.464 139.572 269 139.452 268.368 139.452H266.22V142.356H268.368ZM278.415 144H274.095C274.135 145.416 274.779 146.124 276.027 146.124C276.723 146.124 277.359 145.896 277.935 145.44L278.307 146.304C278.035 146.544 277.687 146.736 277.263 146.88C276.847 147.016 276.427 147.084 276.003 147.084C275.035 147.084 274.275 146.808 273.723 146.256C273.171 145.696 272.895 144.932 272.895 143.964C272.895 143.348 273.015 142.8 273.255 142.32C273.503 141.84 273.847 141.468 274.287 141.204C274.727 140.94 275.227 140.808 275.787 140.808C276.603 140.808 277.243 141.072 277.707 141.6C278.179 142.128 278.415 142.86 278.415 143.796V144ZM275.811 141.708C275.355 141.708 274.983 141.844 274.695 142.116C274.407 142.388 274.223 142.776 274.143 143.28H277.347C277.299 142.768 277.143 142.38 276.879 142.116C276.615 141.844 276.259 141.708 275.811 141.708ZM281.918 147.084C280.862 147.084 280.03 146.828 279.422 146.316L279.782 145.44C280.414 145.92 281.138 146.16 281.954 146.16C282.37 146.16 282.686 146.092 282.902 145.956C283.118 145.812 283.226 145.612 283.226 145.356C283.226 145.14 283.15 144.972 282.998 144.852C282.854 144.724 282.606 144.616 282.254 144.528L281.246 144.288C280.718 144.176 280.314 143.98 280.034 143.7C279.762 143.412 279.626 143.056 279.626 142.632C279.626 142.088 279.842 141.648 280.274 141.312C280.714 140.976 281.294 140.808 282.014 140.808C282.446 140.808 282.854 140.876 283.238 141.012C283.63 141.148 283.962 141.34 284.234 141.588L283.862 142.44C283.278 141.976 282.662 141.744 282.014 141.744C281.622 141.744 281.318 141.82 281.102 141.972C280.886 142.116 280.778 142.32 280.778 142.584C280.778 142.792 280.846 142.96 280.982 143.088C281.118 143.216 281.334 143.316 281.63 143.388L282.662 143.64C283.238 143.768 283.662 143.972 283.934 144.252C284.214 144.524 284.354 144.88 284.354 145.32C284.354 145.864 284.134 146.296 283.694 146.616C283.262 146.928 282.67 147.084 281.918 147.084ZM287.296 141.888V144.924C287.296 145.34 287.384 145.636 287.56 145.812C287.744 145.98 287.996 146.064 288.316 146.064C288.524 146.064 288.736 146.032 288.952 145.968V146.952C288.688 147.04 288.388 147.084 288.052 147.084C287.428 147.084 286.944 146.908 286.6 146.556C286.256 146.204 286.084 145.692 286.084 145.02V141.888H284.908V140.952H286.084V139.44L287.296 139.02V140.952H288.964V141.888H287.296ZM295.615 140.952V147H294.415V145.968C294.239 146.328 293.975 146.604 293.623 146.796C293.279 146.988 292.875 147.084 292.411 147.084C291.875 147.084 291.403 146.956 290.995 146.7C290.595 146.444 290.283 146.084 290.059 145.62C289.835 145.148 289.723 144.6 289.723 143.976C289.723 143.352 289.835 142.8 290.059 142.32C290.291 141.84 290.611 141.468 291.019 141.204C291.427 140.94 291.891 140.808 292.411 140.808C292.875 140.808 293.279 140.908 293.623 141.108C293.967 141.3 294.231 141.576 294.415 141.936V140.952H295.615ZM292.699 146.124C293.243 146.124 293.663 145.936 293.959 145.56C294.263 145.176 294.415 144.64 294.415 143.952C294.415 143.256 294.263 142.72 293.959 142.344C293.663 141.968 293.239 141.78 292.687 141.78C292.143 141.78 291.715 141.976 291.403 142.368C291.099 142.752 290.947 143.288 290.947 143.976C290.947 144.656 291.099 145.184 291.403 145.56C291.715 145.936 292.147 146.124 292.699 146.124ZM302.652 140.952V147H301.476V145.992C301.284 146.344 301.02 146.616 300.684 146.808C300.348 146.992 299.968 147.084 299.544 147.084C298.088 147.084 297.36 146.276 297.36 144.66V140.952H298.56V144.648C298.56 145.144 298.66 145.512 298.86 145.752C299.068 145.984 299.38 146.1 299.796 146.1C300.292 146.1 300.688 145.94 300.984 145.62C301.288 145.3 301.44 144.876 301.44 144.348V140.952H302.652ZM307.439 140.808C307.623 140.808 307.815 140.836 308.015 140.892L307.991 141.996C307.775 141.916 307.539 141.876 307.283 141.876C306.731 141.876 306.315 142.044 306.035 142.38C305.763 142.708 305.627 143.124 305.627 143.628V147H304.427V142.656C304.427 142.024 304.395 141.456 304.331 140.952H305.459L305.567 142.044C305.727 141.644 305.975 141.34 306.311 141.132C306.647 140.916 307.023 140.808 307.439 140.808ZM314.354 140.952V147H313.154V145.968C312.978 146.328 312.714 146.604 312.362 146.796C312.018 146.988 311.614 147.084 311.15 147.084C310.614 147.084 310.142 146.956 309.734 146.7C309.334 146.444 309.022 146.084 308.798 145.62C308.574 145.148 308.462 144.6 308.462 143.976C308.462 143.352 308.574 142.8 308.798 142.32C309.03 141.84 309.35 141.468 309.758 141.204C310.166 140.94 310.63 140.808 311.15 140.808C311.614 140.808 312.018 140.908 312.362 141.108C312.706 141.3 312.97 141.576 313.154 141.936V140.952H314.354ZM311.438 146.124C311.982 146.124 312.402 145.936 312.698 145.56C313.002 145.176 313.154 144.64 313.154 143.952C313.154 143.256 313.002 142.72 312.698 142.344C312.402 141.968 311.978 141.78 311.426 141.78C310.882 141.78 310.454 141.976 310.142 142.368C309.838 142.752 309.686 143.288 309.686 143.976C309.686 144.656 309.838 145.184 310.142 145.56C310.454 145.936 310.886 146.124 311.438 146.124ZM319.35 140.808C320.798 140.808 321.522 141.616 321.522 143.232V147H320.31V143.304C320.31 142.776 320.206 142.392 319.998 142.152C319.798 141.912 319.474 141.792 319.026 141.792C318.514 141.792 318.102 141.952 317.79 142.272C317.486 142.592 317.334 143.02 317.334 143.556V147H316.134V142.656C316.134 142.024 316.102 141.456 316.038 140.952H317.166L317.274 141.996C317.466 141.612 317.742 141.32 318.102 141.12C318.47 140.912 318.886 140.808 319.35 140.808ZM324.819 141.888V144.924C324.819 145.34 324.907 145.636 325.083 145.812C325.267 145.98 325.519 146.064 325.839 146.064C326.047 146.064 326.259 146.032 326.475 145.968V146.952C326.211 147.04 325.911 147.084 325.575 147.084C324.951 147.084 324.467 146.908 324.123 146.556C323.779 146.204 323.607 145.692 323.607 145.02V141.888H322.431V140.952H323.607V139.44L324.819 139.02V140.952H326.487V141.888H324.819Z" fill="black"/>
<g filter="url(#filter2_d)">
<rect x="209" y="119" width="46" height="46" rx="14" fill="white"/>
</g>
<path d="M227 144.5H237" stroke="#C4CAD4" stroke-miterlimit="10" stroke-linecap="square"/>
<path d="M232 152V144.5" stroke="#C4CAD4" stroke-miterlimit="10" stroke-linecap="square"/>
<path d="M222.5 148V152" stroke="#C4CAD4" stroke-miterlimit="10" stroke-linecap="square"/>
<path d="M221.5 142L222.5 148H228V152" stroke="#C4CAD4" stroke-miterlimit="10" stroke-linecap="square"/>
<path d="M241.5 148V152" stroke="#C4CAD4" stroke-miterlimit="10" stroke-linecap="square"/>
<path d="M242.5 142L241.5 148H236V152" stroke="#C4CAD4" stroke-miterlimit="10" stroke-linecap="square"/>
<path d="M242 137C240.836 135.448 239.326 134.188 237.59 133.32C235.854 132.452 233.941 132 232 132C230.059 132 228.146 132.452 226.41 133.32C224.674 134.188 223.164 135.448 222 137H242Z" stroke="#C4CAD4" stroke-miterlimit="10"/>
<path d="M232 137V141" stroke="#C4CAD4" stroke-miterlimit="10"/>
<path d="M365.392 204.376H368.788V205.18H365.392V204.376ZM376.152 207.172V208H370.656V207.256L373.644 203.944C374.044 203.496 374.336 203.092 374.52 202.732C374.704 202.372 374.796 202.012 374.796 201.652C374.796 201.18 374.66 200.82 374.388 200.572C374.116 200.316 373.728 200.188 373.224 200.188C372.408 200.188 371.6 200.516 370.8 201.172L370.428 200.416C370.764 200.096 371.188 199.84 371.7 199.648C372.212 199.456 372.728 199.36 373.248 199.36C374.032 199.36 374.652 199.564 375.108 199.972C375.564 200.372 375.792 200.916 375.792 201.604C375.792 202.092 375.68 202.564 375.456 203.02C375.24 203.468 374.876 203.972 374.364 204.532L371.928 207.172H376.152ZM383.275 199.456V200.188L379.267 208H378.211L382.195 200.284H377.635V199.456H383.275ZM393.828 205.804H389.364L388.416 208H387.396L391.152 199.456H392.016L395.772 208H394.764L393.828 205.804ZM393.48 204.988L391.596 200.596L389.712 204.988H393.48ZM397.048 199.456H402.448V200.272H398.02V203.248H402.208V204.076H398.02V207.184H402.448V208H397.048V199.456ZM404.103 199.456H406.971C408.339 199.456 409.395 199.828 410.139 200.572C410.891 201.308 411.267 202.356 411.267 203.716C411.267 205.084 410.891 206.14 410.139 206.884C409.395 207.628 408.339 208 406.971 208H404.103V199.456ZM406.911 207.16C408.015 207.16 408.843 206.872 409.395 206.296C409.955 205.72 410.235 204.86 410.235 203.716C410.235 201.436 409.127 200.296 406.911 200.296H405.087V207.16H406.911Z" fill="#C4C4C4"/>
<path d="M271.92 202.464V206.496C271.56 206.68 271.104 206.828 270.552 206.94C270.008 207.044 269.452 207.096 268.884 207.096C268.02 207.096 267.272 206.924 266.64 206.58C266.008 206.228 265.524 205.724 265.188 205.068C264.86 204.412 264.696 203.628 264.696 202.716C264.696 201.82 264.86 201.044 265.188 200.388C265.524 199.732 266 199.232 266.616 198.888C267.24 198.536 267.972 198.36 268.812 198.36C269.412 198.36 269.964 198.452 270.468 198.636C270.98 198.812 271.416 199.068 271.776 199.404L271.332 200.328C270.924 199.992 270.524 199.752 270.132 199.608C269.74 199.464 269.304 199.392 268.824 199.392C267.896 199.392 267.188 199.676 266.7 200.244C266.22 200.812 265.98 201.636 265.98 202.716C265.98 203.828 266.228 204.672 266.724 205.248C267.22 205.816 267.952 206.1 268.92 206.1C269.568 206.1 270.192 206.004 270.792 205.812V203.412H268.8V202.464H271.92ZM279.244 200.952V207H278.044V205.968C277.868 206.328 277.604 206.604 277.252 206.796C276.908 206.988 276.504 207.084 276.04 207.084C275.504 207.084 275.032 206.956 274.624 206.7C274.224 206.444 273.912 206.084 273.688 205.62C273.464 205.148 273.352 204.6 273.352 203.976C273.352 203.352 273.464 202.8 273.688 202.32C273.92 201.84 274.24 201.468 274.648 201.204C275.056 200.94 275.52 200.808 276.04 200.808C276.504 200.808 276.908 200.908 277.252 201.108C277.596 201.3 277.86 201.576 278.044 201.936V200.952H279.244ZM276.328 206.124C276.872 206.124 277.292 205.936 277.588 205.56C277.892 205.176 278.044 204.64 278.044 203.952C278.044 203.256 277.892 202.72 277.588 202.344C277.292 201.968 276.868 201.78 276.316 201.78C275.772 201.78 275.344 201.976 275.032 202.368C274.728 202.752 274.576 203.288 274.576 203.976C274.576 204.656 274.728 205.184 275.032 205.56C275.344 205.936 275.776 206.124 276.328 206.124ZM283.137 207.084C282.081 207.084 281.249 206.828 280.641 206.316L281.001 205.44C281.633 205.92 282.357 206.16 283.173 206.16C283.589 206.16 283.905 206.092 284.121 205.956C284.337 205.812 284.445 205.612 284.445 205.356C284.445 205.14 284.369 204.972 284.217 204.852C284.073 204.724 283.825 204.616 283.473 204.528L282.465 204.288C281.937 204.176 281.533 203.98 281.253 203.7C280.981 203.412 280.845 203.056 280.845 202.632C280.845 202.088 281.061 201.648 281.493 201.312C281.933 200.976 282.513 200.808 283.233 200.808C283.665 200.808 284.073 200.876 284.457 201.012C284.849 201.148 285.181 201.34 285.453 201.588L285.081 202.44C284.497 201.976 283.881 201.744 283.233 201.744C282.841 201.744 282.537 201.82 282.321 201.972C282.105 202.116 281.997 202.32 281.997 202.584C281.997 202.792 282.065 202.96 282.201 203.088C282.337 203.216 282.553 203.316 282.849 203.388L283.881 203.64C284.457 203.768 284.881 203.972 285.153 204.252C285.433 204.524 285.573 204.88 285.573 205.32C285.573 205.864 285.353 206.296 284.913 206.616C284.481 206.928 283.889 207.084 283.137 207.084ZM292.312 207.084C291.257 207.084 290.425 206.828 289.817 206.316L290.177 205.44C290.809 205.92 291.533 206.16 292.349 206.16C292.765 206.16 293.081 206.092 293.297 205.956C293.513 205.812 293.621 205.612 293.621 205.356C293.621 205.14 293.545 204.972 293.393 204.852C293.249 204.724 293.001 204.616 292.649 204.528L291.641 204.288C291.113 204.176 290.709 203.98 290.429 203.7C290.157 203.412 290.021 203.056 290.021 202.632C290.021 202.088 290.237 201.648 290.669 201.312C291.109 200.976 291.689 200.808 292.409 200.808C292.841 200.808 293.249 200.876 293.633 201.012C294.025 201.148 294.357 201.34 294.629 201.588L294.257 202.44C293.673 201.976 293.057 201.744 292.409 201.744C292.017 201.744 291.713 201.82 291.497 201.972C291.281 202.116 291.173 202.32 291.173 202.584C291.173 202.792 291.241 202.96 291.377 203.088C291.513 203.216 291.729 203.316 292.025 203.388L293.057 203.64C293.633 203.768 294.057 203.972 294.329 204.252C294.609 204.524 294.749 204.88 294.749 205.32C294.749 205.864 294.529 206.296 294.089 206.616C293.657 206.928 293.065 207.084 292.312 207.084ZM297.69 201.888V204.924C297.69 205.34 297.778 205.636 297.954 205.812C298.138 205.98 298.39 206.064 298.71 206.064C298.918 206.064 299.13 206.032 299.346 205.968V206.952C299.082 207.04 298.782 207.084 298.446 207.084C297.822 207.084 297.338 206.908 296.994 206.556C296.65 206.204 296.478 205.692 296.478 205.02V201.888H295.302V200.952H296.478V199.44L297.69 199.02V200.952H299.358V201.888H297.69ZM306.01 200.952V207H304.81V205.968C304.634 206.328 304.37 206.604 304.018 206.796C303.674 206.988 303.27 207.084 302.806 207.084C302.27 207.084 301.798 206.956 301.39 206.7C300.99 206.444 300.678 206.084 300.454 205.62C300.23 205.148 300.118 204.6 300.118 203.976C300.118 203.352 300.23 202.8 300.454 202.32C300.686 201.84 301.006 201.468 301.414 201.204C301.822 200.94 302.286 200.808 302.806 200.808C303.27 200.808 303.674 200.908 304.018 201.108C304.362 201.3 304.626 201.576 304.81 201.936V200.952H306.01ZM303.094 206.124C303.638 206.124 304.058 205.936 304.354 205.56C304.658 205.176 304.81 204.64 304.81 203.952C304.81 203.256 304.658 202.72 304.354 202.344C304.058 201.968 303.634 201.78 303.082 201.78C302.538 201.78 302.11 201.976 301.798 202.368C301.494 202.752 301.342 203.288 301.342 203.976C301.342 204.656 301.494 205.184 301.798 205.56C302.11 205.936 302.542 206.124 303.094 206.124ZM309.362 201.888V204.924C309.362 205.34 309.45 205.636 309.626 205.812C309.81 205.98 310.062 206.064 310.382 206.064C310.59 206.064 310.802 206.032 311.018 205.968V206.952C310.754 207.04 310.454 207.084 310.118 207.084C309.494 207.084 309.01 206.908 308.666 206.556C308.322 206.204 308.15 205.692 308.15 205.02V201.888H306.974V200.952H308.15V199.44L309.362 199.02V200.952H311.03V201.888H309.362ZM312.15 200.952H313.35V207H312.15V200.952ZM313.446 198.312V199.584H312.042V198.312H313.446ZM317.73 207.084C317.138 207.084 316.618 206.956 316.17 206.7C315.722 206.444 315.374 206.08 315.126 205.608C314.886 205.136 314.766 204.584 314.766 203.952C314.766 203.32 314.886 202.768 315.126 202.296C315.374 201.816 315.722 201.448 316.17 201.192C316.618 200.936 317.138 200.808 317.73 200.808C318.314 200.808 318.83 200.936 319.278 201.192C319.726 201.448 320.07 201.816 320.31 202.296C320.558 202.768 320.682 203.32 320.682 203.952C320.682 204.584 320.558 205.136 320.31 205.608C320.07 206.08 319.726 206.444 319.278 206.7C318.83 206.956 318.314 207.084 317.73 207.084ZM317.718 206.124C318.278 206.124 318.706 205.94 319.002 205.572C319.298 205.204 319.446 204.664 319.446 203.952C319.446 203.256 319.294 202.72 318.99 202.344C318.694 201.968 318.274 201.78 317.73 201.78C317.178 201.78 316.75 201.968 316.446 202.344C316.142 202.72 315.99 203.256 315.99 203.952C315.99 204.664 316.138 205.204 316.434 205.572C316.738 205.94 317.166 206.124 317.718 206.124ZM325.315 200.808C326.763 200.808 327.487 201.616 327.487 203.232V207H326.275V203.304C326.275 202.776 326.171 202.392 325.963 202.152C325.763 201.912 325.439 201.792 324.991 201.792C324.479 201.792 324.067 201.952 323.755 202.272C323.451 202.592 323.299 203.02 323.299 203.556V207H322.099V202.656C322.099 202.024 322.067 201.456 322.003 200.952H323.131L323.239 201.996C323.431 201.612 323.707 201.32 324.067 201.12C324.435 200.912 324.851 200.808 325.315 200.808Z" fill="black"/>
<g filter="url(#filter3_d)">
<rect x="209" y="179" width="46" height="46" rx="14" fill="white"/>
</g>
<path d="M243 212.5H225V199.5L231.5 193H241C241.53 193 242.039 193.211 242.414 193.586C242.789 193.961 243 194.47 243 195V212.5Z" stroke="#C4CAD4" stroke-miterlimit="10" stroke-linecap="square"/>
<path d="M221 191.5C223.167 191.5 224.906 192.61 226.25 194.25" stroke="#C4CAD4" stroke-miterlimit="10"/>
<path d="M238.75 196H233.25C232.56 196 232 196.56 232 197.25C232 197.94 232.56 198.5 233.25 198.5H238.75C239.44 198.5 240 197.94 240 197.25C240 196.56 239.44 196 238.75 196Z" stroke="#C4CAD4" stroke-miterlimit="10" stroke-linecap="square"/>
<path d="M224.5 196L228 192.5" stroke="#C4CAD4" stroke-miterlimit="10" stroke-linecap="square"/>
<path d="M358.196 264.376H361.592V265.18H358.196V264.376ZM368.765 267.172V268H364.001V267.172H365.885V260.68L364.133 261.796V260.848L366.317 259.456H366.881V267.172H368.765ZM373.26 268.096C372.284 268.096 371.54 267.728 371.028 266.992C370.524 266.248 370.272 265.16 370.272 263.728C370.272 262.296 370.524 261.212 371.028 260.476C371.54 259.732 372.284 259.36 373.26 259.36C374.236 259.36 374.976 259.732 375.48 260.476C375.992 261.212 376.248 262.292 376.248 263.716C376.248 265.148 375.992 266.236 375.48 266.98C374.976 267.724 374.236 268.096 373.26 268.096ZM373.26 267.268C373.94 267.268 374.44 266.98 374.76 266.404C375.088 265.828 375.252 264.932 375.252 263.716C375.252 262.508 375.092 261.62 374.772 261.052C374.452 260.484 373.948 260.2 373.26 260.2C372.58 260.2 372.076 260.484 371.748 261.052C371.428 261.62 371.268 262.508 371.268 263.716C371.268 264.924 371.428 265.82 371.748 266.404C372.076 266.98 372.58 267.268 373.26 267.268ZM383.155 267.172V268H378.391V267.172H380.275V260.68L378.523 261.796V260.848L380.707 259.456H381.271V267.172H383.155ZM393.828 265.804H389.364L388.416 268H387.396L391.152 259.456H392.016L395.772 268H394.764L393.828 265.804ZM393.48 264.988L391.596 260.596L389.712 264.988H393.48ZM397.048 259.456H402.448V260.272H398.02V263.248H402.208V264.076H398.02V267.184H402.448V268H397.048V259.456ZM404.103 259.456H406.971C408.339 259.456 409.395 259.828 410.139 260.572C410.891 261.308 411.267 262.356 411.267 263.716C411.267 265.084 410.891 266.14 410.139 266.884C409.395 267.628 408.339 268 406.971 268H404.103V259.456ZM406.911 267.16C408.015 267.16 408.843 266.872 409.395 266.296C409.955 265.72 410.235 264.86 410.235 263.716C410.235 261.436 409.127 260.296 406.911 260.296H405.087V267.16H406.911Z" fill="#C4C4C4"/>
<path d="M264.996 258.456H268.548C269.444 258.456 270.14 258.676 270.636 259.116C271.14 259.548 271.392 260.14 271.392 260.892C271.392 261.644 271.136 262.24 270.624 262.68C270.12 263.112 269.428 263.328 268.548 263.328H266.232V267H264.996V258.456ZM268.404 262.344C268.996 262.344 269.44 262.22 269.736 261.972C270.04 261.724 270.192 261.364 270.192 260.892C270.192 260.428 270.04 260.072 269.736 259.824C269.44 259.576 268.996 259.452 268.404 259.452H266.232V262.344H268.404ZM276.002 260.808C277.45 260.808 278.174 261.616 278.174 263.232V267H276.962V263.304C276.962 262.776 276.858 262.392 276.65 262.152C276.45 261.912 276.126 261.792 275.678 261.792C275.166 261.792 274.754 261.952 274.442 262.272C274.138 262.592 273.986 263.02 273.986 263.556V267H272.786V258.168H273.986V261.888C274.186 261.536 274.462 261.268 274.814 261.084C275.166 260.9 275.562 260.808 276.002 260.808ZM285.432 260.952V267H284.232V265.968C284.056 266.328 283.792 266.604 283.44 266.796C283.096 266.988 282.692 267.084 282.228 267.084C281.692 267.084 281.22 266.956 280.812 266.7C280.412 266.444 280.1 266.084 279.876 265.62C279.652 265.148 279.54 264.6 279.54 263.976C279.54 263.352 279.652 262.8 279.876 262.32C280.108 261.84 280.428 261.468 280.836 261.204C281.244 260.94 281.708 260.808 282.228 260.808C282.692 260.808 283.096 260.908 283.44 261.108C283.784 261.3 284.048 261.576 284.232 261.936V260.952H285.432ZM282.516 266.124C283.06 266.124 283.48 265.936 283.776 265.56C284.08 265.176 284.232 264.64 284.232 263.952C284.232 263.256 284.08 262.72 283.776 262.344C283.48 261.968 283.056 261.78 282.504 261.78C281.96 261.78 281.532 261.976 281.22 262.368C280.916 262.752 280.764 263.288 280.764 263.976C280.764 264.656 280.916 265.184 281.22 265.56C281.532 265.936 281.964 266.124 282.516 266.124ZM290.224 260.808C290.408 260.808 290.6 260.836 290.8 260.892L290.776 261.996C290.56 261.916 290.324 261.876 290.068 261.876C289.516 261.876 289.1 262.044 288.82 262.38C288.548 262.708 288.412 263.124 288.412 263.628V267H287.212V262.656C287.212 262.024 287.18 261.456 287.116 260.952H288.244L288.352 262.044C288.512 261.644 288.76 261.34 289.096 261.132C289.432 260.916 289.808 260.808 290.224 260.808ZM298.624 260.808C299.968 260.808 300.64 261.616 300.64 263.232V267H299.428V263.292C299.428 262.772 299.336 262.392 299.152 262.152C298.976 261.912 298.688 261.792 298.288 261.792C297.824 261.792 297.456 261.952 297.184 262.272C296.92 262.592 296.788 263.028 296.788 263.58V267H295.576V263.292C295.576 262.772 295.484 262.392 295.3 262.152C295.124 261.912 294.836 261.792 294.436 261.792C293.972 261.792 293.604 261.952 293.332 262.272C293.06 262.592 292.924 263.028 292.924 263.58V267H291.724V262.656C291.724 262.024 291.692 261.456 291.628 260.952H292.756L292.864 261.96C293.04 261.592 293.292 261.308 293.62 261.108C293.948 260.908 294.332 260.808 294.772 260.808C295.708 260.808 296.32 261.196 296.608 261.972C296.792 261.612 297.06 261.328 297.412 261.12C297.772 260.912 298.176 260.808 298.624 260.808ZM307.908 260.952V267H306.708V265.968C306.532 266.328 306.268 266.604 305.916 266.796C305.572 266.988 305.168 267.084 304.704 267.084C304.168 267.084 303.696 266.956 303.288 266.7C302.888 266.444 302.576 266.084 302.352 265.62C302.128 265.148 302.016 264.6 302.016 263.976C302.016 263.352 302.128 262.8 302.352 262.32C302.584 261.84 302.904 261.468 303.312 261.204C303.72 260.94 304.184 260.808 304.704 260.808C305.168 260.808 305.572 260.908 305.916 261.108C306.26 261.3 306.524 261.576 306.708 261.936V260.952H307.908ZM304.992 266.124C305.536 266.124 305.956 265.936 306.252 265.56C306.556 265.176 306.708 264.64 306.708 263.952C306.708 263.256 306.556 262.72 306.252 262.344C305.956 261.968 305.532 261.78 304.98 261.78C304.436 261.78 304.008 261.976 303.696 262.368C303.392 262.752 303.24 263.288 303.24 263.976C303.24 264.656 303.392 265.184 303.696 265.56C304.008 265.936 304.44 266.124 304.992 266.124ZM312.317 267.084C311.709 267.084 311.177 266.956 310.721 266.7C310.273 266.444 309.929 266.084 309.689 265.62C309.449 265.148 309.329 264.6 309.329 263.976C309.329 263.352 309.453 262.8 309.701 262.32C309.957 261.84 310.313 261.468 310.769 261.204C311.225 260.94 311.757 260.808 312.365 260.808C312.789 260.808 313.197 260.88 313.589 261.024C313.981 261.16 314.297 261.348 314.537 261.588L314.165 262.464C313.597 262.016 313.025 261.792 312.449 261.792C311.865 261.792 311.409 261.984 311.081 262.368C310.753 262.744 310.589 263.276 310.589 263.964C310.589 264.652 310.753 265.184 311.081 265.56C311.409 265.928 311.865 266.112 312.449 266.112C313.041 266.112 313.613 265.888 314.165 265.44L314.537 266.316C314.281 266.556 313.953 266.744 313.553 266.88C313.161 267.016 312.749 267.084 312.317 267.084ZM321.173 260.952L318.353 267.492C318.041 268.204 317.649 268.724 317.177 269.052C316.713 269.388 316.137 269.612 315.449 269.724L315.185 268.788C315.753 268.66 316.181 268.492 316.469 268.284C316.765 268.084 317.001 267.78 317.177 267.372L317.393 266.868L314.849 260.952H316.133L318.029 265.632L319.961 260.952H321.173Z" fill="black"/>
<g filter="url(#filter4_d)">
<rect x="209" y="239" width="46" height="46" rx="14" fill="white"/>
</g>
<path d="M231.66 260.5L236.749 251.687C236.997 251.257 237.407 250.943 237.887 250.814C238.367 250.685 238.879 250.753 239.31 251.001V251.001C239.74 251.25 240.055 251.659 240.183 252.14C240.312 252.62 240.245 253.132 239.996 253.562L235.991 260.5" stroke="#C4CAD4" stroke-miterlimit="10"/>
<path d="M242.5 260.5H221.5C221.5 262.342 221.986 264.151 222.907 265.746C223.829 267.34 225.154 268.664 226.75 269.584L226 272.5H238L237.25 269.584C238.846 268.664 240.171 267.34 241.093 265.746C242.014 264.151 242.5 262.342 242.5 260.5V260.5Z" stroke="#C4CAD4" stroke-miterlimit="10" stroke-linecap="square"/>
<path d="M365.392 84.376H368.788V85.18H365.392V84.376ZM373.62 82.636C374.156 82.636 374.624 82.752 375.024 82.984C375.432 83.208 375.744 83.524 375.96 83.932C376.176 84.34 376.284 84.812 376.284 85.348C376.284 85.884 376.164 86.36 375.924 86.776C375.692 87.192 375.356 87.516 374.916 87.748C374.484 87.972 373.976 88.084 373.392 88.084C372.872 88.084 372.36 87.992 371.856 87.808C371.352 87.616 370.928 87.356 370.584 87.028L370.956 86.272C371.748 86.928 372.56 87.256 373.392 87.256C373.992 87.256 374.46 87.088 374.796 86.752C375.14 86.408 375.312 85.944 375.312 85.36C375.312 84.792 375.144 84.336 374.808 83.992C374.472 83.64 374.024 83.464 373.464 83.464C372.648 83.464 371.996 83.796 371.508 84.46H370.824V79.456H375.948V80.272H371.808V83.32C372.28 82.864 372.884 82.636 373.62 82.636ZM381.631 83.608C382.135 83.752 382.519 84 382.783 84.352C383.047 84.704 383.179 85.148 383.179 85.684C383.179 86.428 382.927 87.016 382.423 87.448C381.919 87.872 381.235 88.084 380.371 88.084C379.819 88.084 379.287 87.992 378.775 87.808C378.271 87.624 377.843 87.364 377.491 87.028L377.875 86.272C378.667 86.928 379.491 87.256 380.347 87.256C380.955 87.256 381.415 87.12 381.727 86.848C382.047 86.576 382.207 86.176 382.207 85.648C382.207 84.6 381.551 84.076 380.239 84.076H379.255V83.248H380.047C380.679 83.248 381.163 83.108 381.499 82.828C381.835 82.548 382.003 82.148 382.003 81.628C382.003 81.164 381.863 80.808 381.583 80.56C381.311 80.312 380.923 80.188 380.419 80.188C379.603 80.188 378.795 80.516 377.995 81.172L377.623 80.416C377.967 80.088 378.387 79.832 378.883 79.648C379.387 79.456 379.911 79.36 380.455 79.36C381.223 79.36 381.835 79.556 382.291 79.948C382.755 80.34 382.987 80.868 382.987 81.532C382.987 82.02 382.867 82.448 382.627 82.816C382.387 83.184 382.055 83.448 381.631 83.608ZM393.828 85.804H389.364L388.416 88H387.396L391.152 79.456H392.016L395.772 88H394.764L393.828 85.804ZM393.48 84.988L391.596 80.596L389.712 84.988H393.48ZM397.048 79.456H402.448V80.272H398.02V83.248H402.208V84.076H398.02V87.184H402.448V88H397.048V79.456ZM404.103 79.456H406.971C408.339 79.456 409.395 79.828 410.139 80.572C410.891 81.308 411.267 82.356 411.267 83.716C411.267 85.084 410.891 86.14 410.139 86.884C409.395 87.628 408.339 88 406.971 88H404.103V79.456ZM406.911 87.16C408.015 87.16 408.843 86.872 409.395 86.296C409.955 85.72 410.235 84.86 410.235 83.716C410.235 81.436 409.127 80.296 406.911 80.296H405.087V87.16H406.911Z" fill="#C4C4C4"/>
<path d="M268.036 79.488H265.144V78.456H272.176V79.488H269.284V87H268.036V79.488ZM277.807 80.952V87H276.607V85.968C276.431 86.328 276.167 86.604 275.815 86.796C275.471 86.988 275.067 87.084 274.603 87.084C274.067 87.084 273.595 86.956 273.187 86.7C272.787 86.444 272.475 86.084 272.251 85.62C272.027 85.148 271.915 84.6 271.915 83.976C271.915 83.352 272.027 82.8 272.251 82.32C272.483 81.84 272.803 81.468 273.211 81.204C273.619 80.94 274.083 80.808 274.603 80.808C275.067 80.808 275.471 80.908 275.815 81.108C276.159 81.3 276.423 81.576 276.607 81.936V80.952H277.807ZM274.891 86.124C275.435 86.124 275.855 85.936 276.151 85.56C276.455 85.176 276.607 84.64 276.607 83.952C276.607 83.256 276.455 82.72 276.151 82.344C275.855 81.968 275.431 81.78 274.879 81.78C274.335 81.78 273.907 81.976 273.595 82.368C273.291 82.752 273.139 83.288 273.139 83.976C273.139 84.656 273.291 85.184 273.595 85.56C273.907 85.936 274.339 86.124 274.891 86.124ZM285.167 87H283.727L281.939 84.768L280.175 87H278.723L281.243 83.892L278.867 80.952H280.319L281.939 83.016L283.571 80.952H285.035L282.659 83.892L285.167 87ZM286.079 80.952H287.279V87H286.079V80.952ZM287.375 78.312V79.584H285.971V78.312H287.375Z" fill="black"/>
<g filter="url(#filter5_d)">
<rect x="210" y="59" width="46" height="46" rx="14" fill="white"/>
</g>
<path d="M230 72.5V71H236V72.5" stroke="#C4CAD4" stroke-miterlimit="10" stroke-linecap="square"/>
<path d="M242 82L241.122 75.8585C241.052 75.366 240.63 75 240.132 75H225.867C225.37 75 224.948 75.366 224.878 75.8585L224 82" stroke="#C8CED7" stroke-miterlimit="10"/>
<path d="M227.5 90V93H223V90" stroke="#C4CAD4" stroke-miterlimit="10" stroke-linecap="square"/>
<path d="M243 90V93H238.5V90" stroke="#C4CAD4" stroke-miterlimit="10" stroke-linecap="square"/>
<path d="M244 90H222V84.8285C222 84.298 222.21 83.7895 222.586 83.4145L224 82H242L243.414 83.414C243.789 83.789 244 84.298 244 84.828V90Z" stroke="#C8CED7" stroke-miterlimit="10" stroke-linecap="square"/>
<path d="M226 87.5C226.828 87.5 227.5 86.8284 227.5 86C227.5 85.1716 226.828 84.5 226 84.5C225.172 84.5 224.5 85.1716 224.5 86C224.5 86.8284 225.172 87.5 226 87.5Z" stroke="#C4CAD4" stroke-miterlimit="10" stroke-linecap="square"/>
<path d="M240 87.5C240.828 87.5 241.5 86.8284 241.5 86C241.5 85.1716 240.828 84.5 240 84.5C239.172 84.5 238.5 85.1716 238.5 86C238.5 86.8284 239.172 87.5 240 87.5Z" stroke="#C4CAD4" stroke-miterlimit="10" stroke-linecap="square"/>
<path d="M231.5 86H234.5" stroke="#C4CAD4" stroke-miterlimit="10" stroke-linecap="square"/>
<rect x="136" y="79" width="97" height="97" rx="24" fill="#32353E"/>
<path d="M197.75 104.5V113.5" stroke="white" stroke-miterlimit="10" stroke-linecap="square"/>
<path d="M204.5 124V118.75L197.75 113.5L191 118.75V124" stroke="white" stroke-miterlimit="10" stroke-linecap="square"/>
<path d="M193.328 143.163V130.429H202.144V143.163" stroke="white" stroke-miterlimit="10" stroke-linecap="square"/>
<path d="M165.5 143.5V124H185V143.5" stroke="white" stroke-miterlimit="10" stroke-linecap="square"/>
<path d="M172.25 130H178.25" stroke="white" stroke-miterlimit="10" stroke-linecap="square"/>
<path d="M196.25 134.5H199.25" stroke="white" stroke-miterlimit="10" stroke-linecap="square"/>
<path d="M204.5 143.5H165.5C163.843 143.5 162.5 144.843 162.5 146.5C162.5 148.157 163.843 149.5 165.5 149.5H204.5C206.157 149.5 207.5 148.157 207.5 146.5C207.5 144.843 206.157 143.5 204.5 143.5Z" stroke="white" stroke-miterlimit="10" stroke-linecap="square"/>
<ellipse cx="166.387" cy="146.591" rx="1.46939" ry="1.46939" fill="white"/>
<ellipse cx="203.614" cy="146.591" rx="1.46939" ry="1.46939" fill="white"/>
<g filter="url(#filter6_d)">
<rect x="357" y="231" width="232" height="56" rx="20" fill="#C4C4C4"/>
</g>
<path d="M357 243C357 229.745 367.745 219 381 219H565C578.255 219 589 229.745 589 243V266C589 279.255 578.255 290 565 290H381C367.745 290 357 279.255 357 266V243Z" fill="white"/>
<path d="M521.196 256.376H524.592V257.18H521.196V256.376ZM531.957 259.172V260H526.461V259.256L529.449 255.944C529.849 255.496 530.141 255.092 530.325 254.732C530.509 254.372 530.601 254.012 530.601 253.652C530.601 253.18 530.465 252.82 530.193 252.572C529.921 252.316 529.533 252.188 529.029 252.188C528.213 252.188 527.405 252.516 526.605 253.172L526.233 252.416C526.569 252.096 526.993 251.84 527.505 251.648C528.017 251.456 528.533 251.36 529.053 251.36C529.837 251.36 530.457 251.564 530.913 251.972C531.369 252.372 531.597 252.916 531.597 253.604C531.597 254.092 531.485 254.564 531.261 255.02C531.045 255.468 530.681 255.972 530.169 256.532L527.733 259.172H531.957ZM538.96 259.172V260H534.196V259.172H536.08V252.68L534.328 253.796V252.848L536.512 251.456H537.076V259.172H538.96ZM546.275 251.456V252.188L542.267 260H541.211L545.195 252.284H540.635V251.456H546.275ZM556.828 257.804H552.364L551.416 260H550.396L554.152 251.456H555.016L558.772 260H557.764L556.828 257.804ZM556.48 256.988L554.596 252.596L552.712 256.988H556.48ZM560.048 251.456H565.448V252.272H561.02V255.248H565.208V256.076H561.02V259.184H565.448V260H560.048V251.456ZM567.103 251.456H569.971C571.339 251.456 572.395 251.828 573.139 252.572C573.891 253.308 574.267 254.356 574.267 255.716C574.267 257.084 573.891 258.14 573.139 258.884C572.395 259.628 571.339 260 569.971 260H567.103V251.456ZM569.911 259.16C571.015 259.16 571.843 258.872 572.395 258.296C572.955 257.72 573.235 256.86 573.235 255.716C573.235 253.436 572.127 252.296 569.911 252.296H568.087V259.16H569.911Z" fill="#C4C4C4"/>
<path d="M431.752 259.096C430.928 259.096 430.208 258.92 429.592 258.568C428.984 258.208 428.516 257.7 428.188 257.044C427.86 256.388 427.696 255.612 427.696 254.716C427.696 253.828 427.86 253.056 428.188 252.4C428.516 251.744 428.984 251.24 429.592 250.888C430.208 250.536 430.928 250.36 431.752 250.36C432.336 250.36 432.876 250.452 433.372 250.636C433.876 250.812 434.3 251.072 434.644 251.416L434.212 252.328C433.812 252 433.416 251.764 433.024 251.62C432.64 251.468 432.22 251.392 431.764 251.392C430.876 251.392 430.188 251.68 429.7 252.256C429.22 252.832 428.98 253.652 428.98 254.716C428.98 255.788 429.22 256.616 429.7 257.2C430.188 257.776 430.876 258.064 431.764 258.064C432.22 258.064 432.64 257.992 433.024 257.848C433.416 257.696 433.812 257.456 434.212 257.128L434.644 258.04C434.3 258.384 433.876 258.648 433.372 258.832C432.876 259.008 432.336 259.096 431.752 259.096ZM439.103 252.808C439.287 252.808 439.479 252.836 439.679 252.892L439.655 253.996C439.439 253.916 439.203 253.876 438.947 253.876C438.395 253.876 437.979 254.044 437.699 254.38C437.427 254.708 437.291 255.124 437.291 255.628V259H436.091V254.656C436.091 254.024 436.059 253.456 435.995 252.952H437.123L437.231 254.044C437.391 253.644 437.639 253.34 437.975 253.132C438.311 252.916 438.687 252.808 439.103 252.808ZM445.646 256H441.326C441.366 257.416 442.01 258.124 443.258 258.124C443.954 258.124 444.59 257.896 445.166 257.44L445.538 258.304C445.266 258.544 444.918 258.736 444.494 258.88C444.078 259.016 443.658 259.084 443.234 259.084C442.266 259.084 441.506 258.808 440.954 258.256C440.402 257.696 440.126 256.932 440.126 255.964C440.126 255.348 440.246 254.8 440.486 254.32C440.734 253.84 441.078 253.468 441.518 253.204C441.958 252.94 442.458 252.808 443.018 252.808C443.834 252.808 444.474 253.072 444.938 253.6C445.41 254.128 445.646 254.86 445.646 255.796V256ZM443.042 253.708C442.586 253.708 442.214 253.844 441.926 254.116C441.638 254.388 441.454 254.776 441.374 255.28H444.578C444.53 254.768 444.374 254.38 444.11 254.116C443.846 253.844 443.49 253.708 443.042 253.708ZM452.568 250.168V259H451.368V257.968C451.192 258.328 450.928 258.604 450.576 258.796C450.232 258.988 449.828 259.084 449.364 259.084C448.844 259.084 448.38 258.952 447.972 258.688C447.564 258.424 447.244 258.056 447.012 257.584C446.788 257.104 446.676 256.552 446.676 255.928C446.676 255.304 446.788 254.756 447.012 254.284C447.236 253.812 447.548 253.448 447.948 253.192C448.356 252.936 448.828 252.808 449.364 252.808C449.82 252.808 450.22 252.904 450.564 253.096C450.916 253.288 451.18 253.56 451.356 253.912V250.168H452.568ZM449.64 258.124C450.192 258.124 450.616 257.936 450.912 257.56C451.216 257.176 451.368 256.64 451.368 255.952C451.368 255.264 451.216 254.732 450.912 254.356C450.616 253.972 450.196 253.78 449.652 253.78C449.1 253.78 448.668 253.968 448.356 254.344C448.052 254.72 447.9 255.248 447.9 255.928C447.9 256.616 448.052 257.156 448.356 257.548C448.668 257.932 449.096 258.124 449.64 258.124ZM454.349 252.952H455.549V259H454.349V252.952ZM455.645 250.312V251.584H454.241V250.312H455.645ZM458.898 253.888V256.924C458.898 257.34 458.986 257.636 459.162 257.812C459.346 257.98 459.598 258.064 459.918 258.064C460.126 258.064 460.338 258.032 460.554 257.968V258.952C460.29 259.04 459.99 259.084 459.654 259.084C459.03 259.084 458.546 258.908 458.201 258.556C457.858 258.204 457.686 257.692 457.686 257.02V253.888H456.51V252.952H457.686V251.44L458.898 251.02V252.952H460.566V253.888H458.898ZM464.884 252.952H466.084V259H464.884V252.952ZM466.18 250.312V251.584H464.776V250.312H466.18ZM471.077 252.808C472.525 252.808 473.249 253.616 473.249 255.232V259H472.037V255.304C472.037 254.776 471.933 254.392 471.725 254.152C471.525 253.912 471.201 253.792 470.753 253.792C470.241 253.792 469.829 253.952 469.517 254.272C469.213 254.592 469.061 255.02 469.061 255.556V259H467.861V254.656C467.861 254.024 467.829 253.456 467.765 252.952H468.893L469.001 253.996C469.193 253.612 469.469 253.32 469.829 253.12C470.197 252.912 470.613 252.808 471.077 252.808ZM476.546 253.888V256.924C476.546 257.34 476.634 257.636 476.81 257.812C476.994 257.98 477.246 258.064 477.566 258.064C477.774 258.064 477.986 258.032 478.202 257.968V258.952C477.938 259.04 477.638 259.084 477.302 259.084C476.678 259.084 476.194 258.908 475.85 258.556C475.506 258.204 475.334 257.692 475.334 257.02V253.888H474.158V252.952H475.334V251.44L476.546 251.02V252.952H478.214V253.888H476.546ZM484.493 256H480.173C480.213 257.416 480.857 258.124 482.105 258.124C482.801 258.124 483.437 257.896 484.013 257.44L484.385 258.304C484.113 258.544 483.765 258.736 483.341 258.88C482.925 259.016 482.505 259.084 482.081 259.084C481.113 259.084 480.353 258.808 479.801 258.256C479.249 257.696 478.973 256.932 478.973 255.964C478.973 255.348 479.093 254.8 479.333 254.32C479.581 253.84 479.925 253.468 480.365 253.204C480.805 252.94 481.305 252.808 481.865 252.808C482.681 252.808 483.321 253.072 483.785 253.6C484.257 254.128 484.493 254.86 484.493 255.796V256ZM481.889 253.708C481.433 253.708 481.061 253.844 480.773 254.116C480.485 254.388 480.301 254.776 480.221 255.28H483.425C483.377 254.768 483.221 254.38 482.957 254.116C482.693 253.844 482.337 253.708 481.889 253.708ZM488.896 252.808C489.08 252.808 489.272 252.836 489.472 252.892L489.448 253.996C489.232 253.916 488.996 253.876 488.74 253.876C488.188 253.876 487.772 254.044 487.492 254.38C487.22 254.708 487.084 255.124 487.084 255.628V259H485.884V254.656C485.884 254.024 485.852 253.456 485.788 252.952H486.916L487.024 254.044C487.184 253.644 487.432 253.34 487.768 253.132C488.104 252.916 488.48 252.808 488.896 252.808ZM495.439 256H491.119C491.159 257.416 491.803 258.124 493.051 258.124C493.747 258.124 494.383 257.896 494.959 257.44L495.331 258.304C495.059 258.544 494.711 258.736 494.287 258.88C493.871 259.016 493.451 259.084 493.027 259.084C492.059 259.084 491.299 258.808 490.747 258.256C490.195 257.696 489.919 256.932 489.919 255.964C489.919 255.348 490.039 254.8 490.279 254.32C490.527 253.84 490.871 253.468 491.311 253.204C491.751 252.94 492.251 252.808 492.811 252.808C493.627 252.808 494.267 253.072 494.731 253.6C495.203 254.128 495.439 254.86 495.439 255.796V256ZM492.835 253.708C492.379 253.708 492.007 253.844 491.719 254.116C491.431 254.388 491.247 254.776 491.167 255.28H494.371C494.323 254.768 494.167 254.38 493.903 254.116C493.639 253.844 493.283 253.708 492.835 253.708ZM498.941 259.084C497.885 259.084 497.053 258.828 496.445 258.316L496.805 257.44C497.437 257.92 498.161 258.16 498.977 258.16C499.393 258.16 499.709 258.092 499.925 257.956C500.141 257.812 500.249 257.612 500.249 257.356C500.249 257.14 500.173 256.972 500.021 256.852C499.877 256.724 499.629 256.616 499.277 256.528L498.269 256.288C497.741 256.176 497.337 255.98 497.057 255.7C496.785 255.412 496.649 255.056 496.649 254.632C496.649 254.088 496.865 253.648 497.297 253.312C497.737 252.976 498.317 252.808 499.037 252.808C499.469 252.808 499.877 252.876 500.261 253.012C500.653 253.148 500.985 253.34 501.257 253.588L500.885 254.44C500.301 253.976 499.685 253.744 499.037 253.744C498.645 253.744 498.341 253.82 498.125 253.972C497.909 254.116 497.801 254.32 497.801 254.584C497.801 254.792 497.869 254.96 498.005 255.088C498.141 255.216 498.357 255.316 498.653 255.388L499.685 255.64C500.261 255.768 500.685 255.972 500.957 256.252C501.237 256.524 501.377 256.88 501.377 257.32C501.377 257.864 501.157 258.296 500.717 258.616C500.285 258.928 499.693 259.084 498.941 259.084ZM504.319 253.888V256.924C504.319 257.34 504.407 257.636 504.583 257.812C504.767 257.98 505.019 258.064 505.339 258.064C505.547 258.064 505.759 258.032 505.975 257.968V258.952C505.711 259.04 505.411 259.084 505.075 259.084C504.451 259.084 503.967 258.908 503.623 258.556C503.279 258.204 503.107 257.692 503.107 257.02V253.888H501.931V252.952H503.107V251.44L504.319 251.02V252.952H505.987V253.888H504.319Z" fill="black"/>
<g filter="url(#filter7_d)">
<rect x="372" y="231" width="46" height="46" rx="14" fill="white"/>
</g>
<path d="M395.25 265.5C401.463 265.5 406.5 260.463 406.5 254.25C406.5 248.037 401.463 243 395.25 243C389.037 243 384 248.037 384 254.25C384 260.463 389.037 265.5 395.25 265.5Z" stroke="#C4CAD4" stroke-miterlimit="10" stroke-linecap="square"/>
<path d="M391.5 252.375C392.536 252.375 393.375 251.536 393.375 250.5C393.375 249.464 392.536 248.625 391.5 248.625C390.464 248.625 389.625 249.464 389.625 250.5C389.625 251.536 390.464 252.375 391.5 252.375Z" stroke="#C4CAD4" stroke-miterlimit="10" stroke-linecap="square"/>
<path d="M399 259.875C400.036 259.875 400.875 259.036 400.875 258C400.875 256.964 400.036 256.125 399 256.125C397.964 256.125 397.125 256.964 397.125 258C397.125 259.036 397.964 259.875 399 259.875Z" stroke="#C4CAD4" stroke-miterlimit="10" stroke-linecap="square"/>
<path d="M390.375 259.125L400.125 249.375" stroke="#C4CAD4" stroke-miterlimit="10" stroke-linecap="square"/>
<g filter="url(#filter8_d)">
<rect x="303" y="38" width="232" height="56" rx="20" fill="#C4C4C4"/>
</g>
<path d="M303 52C303 38.7452 313.745 28 327 28L511 28C524.255 28 535 38.7452 535 52V75C535 88.2548 524.255 99 511 99L327 99C313.745 99 303 88.2548 303 75V52Z" fill="white"/>
<path d="M469.762 68.172V69H464.266V68.256L467.254 64.944C467.654 64.496 467.946 64.092 468.13 63.732C468.314 63.372 468.406 63.012 468.406 62.652C468.406 62.18 468.27 61.82 467.998 61.572C467.726 61.316 467.338 61.188 466.834 61.188C466.018 61.188 465.21 61.516 464.41 62.172L464.038 61.416C464.374 61.096 464.798 60.84 465.31 60.648C465.822 60.456 466.338 60.36 466.858 60.36C467.642 60.36 468.262 60.564 468.718 60.972C469.174 61.372 469.402 61.916 469.402 62.604C469.402 63.092 469.29 63.564 469.066 64.02C468.85 64.468 468.486 64.972 467.974 65.532L465.538 68.172H469.762ZM475.241 64.608C475.745 64.752 476.129 65 476.393 65.352C476.657 65.704 476.789 66.148 476.789 66.684C476.789 67.428 476.537 68.016 476.033 68.448C475.529 68.872 474.845 69.084 473.981 69.084C473.429 69.084 472.897 68.992 472.385 68.808C471.881 68.624 471.453 68.364 471.101 68.028L471.485 67.272C472.277 67.928 473.101 68.256 473.957 68.256C474.565 68.256 475.025 68.12 475.337 67.848C475.657 67.576 475.817 67.176 475.817 66.648C475.817 65.6 475.161 65.076 473.849 65.076H472.865V64.248H473.657C474.289 64.248 474.773 64.108 475.109 63.828C475.445 63.548 475.613 63.148 475.613 62.628C475.613 62.164 475.473 61.808 475.193 61.56C474.921 61.312 474.533 61.188 474.029 61.188C473.213 61.188 472.405 61.516 471.605 62.172L471.233 61.416C471.577 61.088 471.997 60.832 472.493 60.648C472.997 60.456 473.521 60.36 474.065 60.36C474.833 60.36 475.445 60.556 475.901 60.948C476.365 61.34 476.597 61.868 476.597 62.532C476.597 63.02 476.477 63.448 476.237 63.816C475.997 64.184 475.665 64.448 475.241 64.608ZM480.996 60.36C482.028 60.36 482.824 60.72 483.384 61.44C483.944 62.16 484.224 63.184 484.224 64.512C484.224 65.96 483.932 67.088 483.348 67.896C482.772 68.696 481.964 69.096 480.924 69.096C480.436 69.096 479.956 69.004 479.484 68.82C479.02 68.636 478.608 68.376 478.248 68.04L478.632 67.284C479.04 67.628 479.428 67.88 479.796 68.04C480.164 68.192 480.536 68.268 480.912 68.268C481.648 68.268 482.216 67.94 482.616 67.284C483.024 66.628 483.228 65.708 483.228 64.524V64.368C483.044 64.816 482.744 65.172 482.328 65.436C481.912 65.692 481.436 65.82 480.9 65.82C480.38 65.82 479.92 65.708 479.52 65.484C479.12 65.252 478.808 64.932 478.584 64.524C478.36 64.108 478.248 63.636 478.248 63.108C478.248 62.58 478.364 62.108 478.596 61.692C478.836 61.276 479.164 60.952 479.58 60.72C479.996 60.48 480.468 60.36 480.996 60.36ZM481.056 64.992C481.616 64.992 482.072 64.816 482.424 64.464C482.776 64.112 482.952 63.656 482.952 63.096C482.952 62.528 482.776 62.068 482.424 61.716C482.072 61.364 481.612 61.188 481.044 61.188C480.5 61.188 480.06 61.364 479.724 61.716C479.388 62.06 479.22 62.52 479.22 63.096C479.22 63.664 479.388 64.124 479.724 64.476C480.06 64.82 480.504 64.992 481.056 64.992ZM488.191 60.36C489.223 60.36 490.019 60.72 490.579 61.44C491.139 62.16 491.419 63.184 491.419 64.512C491.419 65.96 491.127 67.088 490.543 67.896C489.967 68.696 489.159 69.096 488.119 69.096C487.631 69.096 487.151 69.004 486.679 68.82C486.215 68.636 485.803 68.376 485.443 68.04L485.827 67.284C486.235 67.628 486.623 67.88 486.991 68.04C487.359 68.192 487.731 68.268 488.107 68.268C488.843 68.268 489.411 67.94 489.811 67.284C490.219 66.628 490.423 65.708 490.423 64.524V64.368C490.239 64.816 489.939 65.172 489.523 65.436C489.107 65.692 488.631 65.82 488.095 65.82C487.575 65.82 487.115 65.708 486.715 65.484C486.315 65.252 486.003 64.932 485.779 64.524C485.555 64.108 485.443 63.636 485.443 63.108C485.443 62.58 485.559 62.108 485.791 61.692C486.031 61.276 486.359 60.952 486.775 60.72C487.191 60.48 487.663 60.36 488.191 60.36ZM488.251 64.992C488.811 64.992 489.267 64.816 489.619 64.464C489.971 64.112 490.147 63.656 490.147 63.096C490.147 62.528 489.971 62.068 489.619 61.716C489.267 61.364 488.807 61.188 488.239 61.188C487.695 61.188 487.255 61.364 486.919 61.716C486.583 62.06 486.415 62.52 486.415 63.096C486.415 63.664 486.583 64.124 486.919 64.476C487.255 64.82 487.699 64.992 488.251 64.992ZM501.828 66.804H497.364L496.416 69H495.396L499.152 60.456H500.016L503.772 69H502.764L501.828 66.804ZM501.48 65.988L499.596 61.596L497.712 65.988H501.48ZM505.048 60.456H510.448V61.272H506.02V64.248H510.208V65.076H506.02V68.184H510.448V69H505.048V60.456ZM512.103 60.456H514.971C516.339 60.456 517.395 60.828 518.139 61.572C518.891 62.308 519.267 63.356 519.267 64.716C519.267 66.084 518.891 67.14 518.139 67.884C517.395 68.628 516.339 69 514.971 69H512.103V60.456ZM514.911 68.16C516.015 68.16 516.843 67.872 517.395 67.296C517.955 66.72 518.235 65.86 518.235 64.716C518.235 62.436 517.127 61.296 514.911 61.296H513.087V68.16H514.911Z" fill="#C4C4C4"/>
<g filter="url(#filter9_d)">
<rect x="317" y="40" width="46" height="46" rx="14" fill="white"/>
</g>
<path d="M340 58V68" stroke="#C4CAD4"/>
<path d="M345 63L335 63" stroke="#C4CAD4"/>
<circle cx="340" cy="63" r="11.5" stroke="#C4CAD4"/>
<path d="M379.612 65.888H375.292L374.38 68H373.12L376.924 59.456H377.968L381.784 68H380.524L379.612 65.888ZM379.192 64.904L377.452 60.836L375.712 64.904H379.192ZM388.315 59.168V68H387.115V66.968C386.939 67.328 386.675 67.604 386.323 67.796C385.979 67.988 385.575 68.084 385.111 68.084C384.591 68.084 384.127 67.952 383.719 67.688C383.311 67.424 382.991 67.056 382.759 66.584C382.535 66.104 382.423 65.552 382.423 64.928C382.423 64.304 382.535 63.756 382.759 63.284C382.983 62.812 383.295 62.448 383.695 62.192C384.103 61.936 384.575 61.808 385.111 61.808C385.567 61.808 385.967 61.904 386.311 62.096C386.663 62.288 386.927 62.56 387.103 62.912V59.168H388.315ZM385.387 67.124C385.939 67.124 386.363 66.936 386.659 66.56C386.963 66.176 387.115 65.64 387.115 64.952C387.115 64.264 386.963 63.732 386.659 63.356C386.363 62.972 385.943 62.78 385.399 62.78C384.847 62.78 384.415 62.968 384.103 63.344C383.799 63.72 383.647 64.248 383.647 64.928C383.647 65.616 383.799 66.156 384.103 66.548C384.415 66.932 384.843 67.124 385.387 67.124ZM395.627 59.168V68H394.427V66.968C394.251 67.328 393.987 67.604 393.635 67.796C393.291 67.988 392.887 68.084 392.423 68.084C391.903 68.084 391.439 67.952 391.031 67.688C390.623 67.424 390.303 67.056 390.071 66.584C389.847 66.104 389.735 65.552 389.735 64.928C389.735 64.304 389.847 63.756 390.071 63.284C390.295 62.812 390.607 62.448 391.007 62.192C391.415 61.936 391.887 61.808 392.423 61.808C392.879 61.808 393.279 61.904 393.623 62.096C393.975 62.288 394.239 62.56 394.415 62.912V59.168H395.627ZM392.699 67.124C393.251 67.124 393.675 66.936 393.971 66.56C394.275 66.176 394.427 65.64 394.427 64.952C394.427 64.264 394.275 63.732 393.971 63.356C393.675 62.972 393.255 62.78 392.711 62.78C392.159 62.78 391.727 62.968 391.415 63.344C391.111 63.72 390.959 64.248 390.959 64.928C390.959 65.616 391.111 66.156 391.415 66.548C391.727 66.932 392.155 67.124 392.699 67.124ZM402.568 65H398.248C398.288 66.416 398.932 67.124 400.18 67.124C400.876 67.124 401.512 66.896 402.088 66.44L402.46 67.304C402.188 67.544 401.84 67.736 401.416 67.88C401 68.016 400.58 68.084 400.156 68.084C399.188 68.084 398.428 67.808 397.876 67.256C397.324 66.696 397.048 65.932 397.048 64.964C397.048 64.348 397.168 63.8 397.408 63.32C397.656 62.84 398 62.468 398.44 62.204C398.88 61.94 399.38 61.808 399.94 61.808C400.756 61.808 401.396 62.072 401.86 62.6C402.332 63.128 402.568 63.86 402.568 64.796V65ZM399.964 62.708C399.508 62.708 399.136 62.844 398.848 63.116C398.56 63.388 398.376 63.776 398.296 64.28H401.5C401.452 63.768 401.296 63.38 401.032 63.116C400.768 62.844 400.412 62.708 399.964 62.708ZM409.49 59.168V68H408.29V66.968C408.114 67.328 407.85 67.604 407.498 67.796C407.154 67.988 406.75 68.084 406.286 68.084C405.766 68.084 405.302 67.952 404.894 67.688C404.486 67.424 404.166 67.056 403.934 66.584C403.71 66.104 403.598 65.552 403.598 64.928C403.598 64.304 403.71 63.756 403.934 63.284C404.158 62.812 404.47 62.448 404.87 62.192C405.278 61.936 405.75 61.808 406.286 61.808C406.742 61.808 407.142 61.904 407.486 62.096C407.838 62.288 408.102 62.56 408.278 62.912V59.168H409.49ZM406.562 67.124C407.114 67.124 407.538 66.936 407.834 66.56C408.138 66.176 408.29 65.64 408.29 64.952C408.29 64.264 408.138 63.732 407.834 63.356C407.538 62.972 407.118 62.78 406.574 62.78C406.022 62.78 405.59 62.968 405.278 63.344C404.974 63.72 404.822 64.248 404.822 64.928C404.822 65.616 404.974 66.156 405.278 66.548C405.59 66.932 406.018 67.124 406.562 67.124ZM417.026 60.14C416.362 60.14 416.03 60.52 416.03 61.28V61.952H417.446V62.888H416.03V68H414.818V62.888H413.654V61.952H414.818V61.184C414.818 60.512 414.986 60 415.322 59.648C415.666 59.296 416.146 59.12 416.762 59.12C417.082 59.12 417.374 59.16 417.638 59.24V60.236C417.422 60.172 417.218 60.14 417.026 60.14ZM423.933 61.952V68H422.757V66.992C422.565 67.344 422.301 67.616 421.965 67.808C421.629 67.992 421.249 68.084 420.825 68.084C419.369 68.084 418.641 67.276 418.641 65.66V61.952H419.841V65.648C419.841 66.144 419.941 66.512 420.141 66.752C420.349 66.984 420.661 67.1 421.077 67.1C421.573 67.1 421.969 66.94 422.265 66.62C422.569 66.3 422.721 65.876 422.721 65.348V61.952H423.933ZM428.924 61.808C430.372 61.808 431.096 62.616 431.096 64.232V68H429.884V64.304C429.884 63.776 429.78 63.392 429.572 63.152C429.372 62.912 429.048 62.792 428.6 62.792C428.088 62.792 427.676 62.952 427.364 63.272C427.06 63.592 426.908 64.02 426.908 64.556V68H425.708V63.656C425.708 63.024 425.676 62.456 425.612 61.952H426.74L426.848 62.996C427.04 62.612 427.316 62.32 427.676 62.12C428.044 61.912 428.46 61.808 428.924 61.808ZM438.354 59.168V68H437.154V66.968C436.978 67.328 436.714 67.604 436.362 67.796C436.018 67.988 435.614 68.084 435.15 68.084C434.63 68.084 434.166 67.952 433.758 67.688C433.35 67.424 433.03 67.056 432.798 66.584C432.574 66.104 432.462 65.552 432.462 64.928C432.462 64.304 432.574 63.756 432.798 63.284C433.022 62.812 433.334 62.448 433.734 62.192C434.142 61.936 434.614 61.808 435.15 61.808C435.606 61.808 436.006 61.904 436.35 62.096C436.702 62.288 436.966 62.56 437.142 62.912V59.168H438.354ZM435.426 67.124C435.978 67.124 436.402 66.936 436.698 66.56C437.002 66.176 437.154 65.64 437.154 64.952C437.154 64.264 437.002 63.732 436.698 63.356C436.402 62.972 435.982 62.78 435.438 62.78C434.886 62.78 434.454 62.968 434.142 63.344C433.838 63.72 433.686 64.248 433.686 64.928C433.686 65.616 433.838 66.156 434.142 66.548C434.454 66.932 434.882 67.124 435.426 67.124ZM442.246 68.084C441.19 68.084 440.358 67.828 439.75 67.316L440.11 66.44C440.742 66.92 441.466 67.16 442.282 67.16C442.698 67.16 443.014 67.092 443.23 66.956C443.446 66.812 443.554 66.612 443.554 66.356C443.554 66.14 443.478 65.972 443.326 65.852C443.182 65.724 442.934 65.616 442.582 65.528L441.574 65.288C441.046 65.176 440.642 64.98 440.362 64.7C440.09 64.412 439.954 64.056 439.954 63.632C439.954 63.088 440.17 62.648 440.602 62.312C441.042 61.976 441.622 61.808 442.342 61.808C442.774 61.808 443.182 61.876 443.566 62.012C443.958 62.148 444.29 62.34 444.562 62.588L444.19 63.44C443.606 62.976 442.99 62.744 442.342 62.744C441.95 62.744 441.646 62.82 441.43 62.972C441.214 63.116 441.106 63.32 441.106 63.584C441.106 63.792 441.174 63.96 441.31 64.088C441.446 64.216 441.662 64.316 441.958 64.388L442.99 64.64C443.566 64.768 443.99 64.972 444.262 65.252C444.542 65.524 444.682 65.88 444.682 66.32C444.682 66.864 444.462 67.296 444.022 67.616C443.59 67.928 442.998 68.084 442.246 68.084Z" fill="black"/>
<defs>
<filter id="filter0_d" x="0" y="211.445" width="324" height="195.089" filterUnits="userSpaceOnUse" color-interpolation-filters="sRGB">
<feFlood flood-opacity="0" result="BackgroundImageFix"/>
<feColorMatrix in="SourceAlpha" type="matrix" values="0 0 0 0 0 0 0 0 0 0 0 0 0 0 0 0 0 0 127 0"/>
<feOffset dy="6"/>
<feGaussianBlur stdDeviation="15"/>
<feColorMatrix type="matrix" values="0 0 0 0 0 0 0 0 0 0.0846354 0 0 0 0 0.270833 0 0 0 0.06 0"/>
<feBlend mode="normal" in2="BackgroundImageFix" result="effect1_dropShadow"/>
<feBlend mode="normal" in="SourceGraphic" in2="effect1_dropShadow" result="shape"/>
</filter>
<filter id="filter1_d" x="164" y="55" width="292" height="290" filterUnits="userSpaceOnUse" color-interpolation-filters="sRGB">
<feFlood flood-opacity="0" result="BackgroundImageFix"/>
<feColorMatrix in="SourceAlpha" type="matrix" values="0 0 0 0 0 0 0 0 0 0 0 0 0 0 0 0 0 0 127 0"/>
<feOffset dy="6"/>
<feGaussianBlur stdDeviation="15"/>
<feColorMatrix type="matrix" values="0 0 0 0 0 0 0 0 0 0.0846354 0 0 0 0 0.270833 0 0 0 0.06 0"/>
<feBlend mode="normal" in2="BackgroundImageFix" result="effect1_dropShadow"/>
<feBlend mode="normal" in="SourceGraphic" in2="effect1_dropShadow" result="shape"/>
</filter>
<filter id="filter2_d" x="159" y="79" width="146" height="146" filterUnits="userSpaceOnUse" color-interpolation-filters="sRGB">
<feFlood flood-opacity="0" result="BackgroundImageFix"/>
<feColorMatrix in="SourceAlpha" type="matrix" values="0 0 0 0 0 0 0 0 0 0 0 0 0 0 0 0 0 0 127 0"/>
<feOffset dy="10"/>
<feGaussianBlur stdDeviation="25"/>
<feColorMatrix type="matrix" values="0 0 0 0 0.932201 0 0 0 0 0.941456 0 0 0 0 0.955339 0 0 0 1 0"/>
<feBlend mode="normal" in2="BackgroundImageFix" result="effect1_dropShadow"/>
<feBlend mode="normal" in="SourceGraphic" in2="effect1_dropShadow" result="shape"/>
</filter>
<filter id="filter3_d" x="159" y="139" width="146" height="146" filterUnits="userSpaceOnUse" color-interpolation-filters="sRGB">
<feFlood flood-opacity="0" result="BackgroundImageFix"/>
<feColorMatrix in="SourceAlpha" type="matrix" values="0 0 0 0 0 0 0 0 0 0 0 0 0 0 0 0 0 0 127 0"/>
<feOffset dy="10"/>
<feGaussianBlur stdDeviation="25"/>
<feColorMatrix type="matrix" values="0 0 0 0 0.932201 0 0 0 0 0.941456 0 0 0 0 0.955339 0 0 0 1 0"/>
<feBlend mode="normal" in2="BackgroundImageFix" result="effect1_dropShadow"/>
<feBlend mode="normal" in="SourceGraphic" in2="effect1_dropShadow" result="shape"/>
</filter>
<filter id="filter4_d" x="159" y="199" width="146" height="146" filterUnits="userSpaceOnUse" color-interpolation-filters="sRGB">
<feFlood flood-opacity="0" result="BackgroundImageFix"/>
<feColorMatrix in="SourceAlpha" type="matrix" values="0 0 0 0 0 0 0 0 0 0 0 0 0 0 0 0 0 0 127 0"/>
<feOffset dy="10"/>
<feGaussianBlur stdDeviation="25"/>
<feColorMatrix type="matrix" values="0 0 0 0 0.932201 0 0 0 0 0.941456 0 0 0 0 0.955339 0 0 0 1 0"/>
<feBlend mode="normal" in2="BackgroundImageFix" result="effect1_dropShadow"/>
<feBlend mode="normal" in="SourceGraphic" in2="effect1_dropShadow" result="shape"/>
</filter>
<filter id="filter5_d" x="160" y="19" width="146" height="146" filterUnits="userSpaceOnUse" color-interpolation-filters="sRGB">
<feFlood flood-opacity="0" result="BackgroundImageFix"/>
<feColorMatrix in="SourceAlpha" type="matrix" values="0 0 0 0 0 0 0 0 0 0 0 0 0 0 0 0 0 0 127 0"/>
<feOffset dy="10"/>
<feGaussianBlur stdDeviation="25"/>
<feColorMatrix type="matrix" values="0 0 0 0 0.932201 0 0 0 0 0.941456 0 0 0 0 0.955339 0 0 0 1 0"/>
<feBlend mode="normal" in2="BackgroundImageFix" result="effect1_dropShadow"/>
<feBlend mode="normal" in="SourceGraphic" in2="effect1_dropShadow" result="shape"/>
</filter>
<filter id="filter6_d" x="327" y="207" width="292" height="116" filterUnits="userSpaceOnUse" color-interpolation-filters="sRGB">
<feFlood flood-opacity="0" result="BackgroundImageFix"/>
<feColorMatrix in="SourceAlpha" type="matrix" values="0 0 0 0 0 0 0 0 0 0 0 0 0 0 0 0 0 0 127 0"/>
<feOffset dy="6"/>
<feGaussianBlur stdDeviation="15"/>
<feColorMatrix type="matrix" values="0 0 0 0 0 0 0 0 0 0.0846354 0 0 0 0 0.270833 0 0 0 0.06 0"/>
<feBlend mode="normal" in2="BackgroundImageFix" result="effect1_dropShadow"/>
<feBlend mode="normal" in="SourceGraphic" in2="effect1_dropShadow" result="shape"/>
</filter>
<filter id="filter7_d" x="322" y="191" width="146" height="146" filterUnits="userSpaceOnUse" color-interpolation-filters="sRGB">
<feFlood flood-opacity="0" result="BackgroundImageFix"/>
<feColorMatrix in="SourceAlpha" type="matrix" values="0 0 0 0 0 0 0 0 0 0 0 0 0 0 0 0 0 0 127 0"/>
<feOffset dy="10"/>
<feGaussianBlur stdDeviation="25"/>
<feColorMatrix type="matrix" values="0 0 0 0 0.932201 0 0 0 0 0.941456 0 0 0 0 0.955339 0 0 0 1 0"/>
<feBlend mode="normal" in2="BackgroundImageFix" result="effect1_dropShadow"/>
<feBlend mode="normal" in="SourceGraphic" in2="effect1_dropShadow" result="shape"/>
</filter>
<filter id="filter8_d" x="273" y="14" width="292" height="116" filterUnits="userSpaceOnUse" color-interpolation-filters="sRGB">
<feFlood flood-opacity="0" result="BackgroundImageFix"/>
<feColorMatrix in="SourceAlpha" type="matrix" values="0 0 0 0 0 0 0 0 0 0 0 0 0 0 0 0 0 0 127 0"/>
<feOffset dy="6"/>
<feGaussianBlur stdDeviation="15"/>
<feColorMatrix type="matrix" values="0 0 0 0 0 0 0 0 0 0.0846354 0 0 0 0 0.270833 0 0 0 0.06 0"/>
<feBlend mode="normal" in2="BackgroundImageFix" result="effect1_dropShadow"/>
<feBlend mode="normal" in="SourceGraphic" in2="effect1_dropShadow" result="shape"/>
</filter>
<filter id="filter9_d" x="267" y="0" width="146" height="146" filterUnits="userSpaceOnUse" color-interpolation-filters="sRGB">
<feFlood flood-opacity="0" result="BackgroundImageFix"/>
<feColorMatrix in="SourceAlpha" type="matrix" values="0 0 0 0 0 0 0 0 0 0 0 0 0 0 0 0 0 0 127 0"/>
<feOffset dy="10"/>
<feGaussianBlur stdDeviation="25"/>
<feColorMatrix type="matrix" values="0 0 0 0 0.932201 0 0 0 0 0.941456 0 0 0 0 0.955339 0 0 0 1 0"/>
<feBlend mode="normal" in2="BackgroundImageFix" result="effect1_dropShadow"/>
<feBlend mode="normal" in="SourceGraphic" in2="effect1_dropShadow" result="shape"/>
</filter>
</defs>
</svg>
