<svg width="415" height="368" viewBox="0 0 415 368" fill="none" xmlns="http://www.w3.org/2000/svg">
<g filter="url(#filter0_d)">
<rect x="41" y="41" width="304.523" height="286" rx="20" fill="white"/>
</g>
<path d="M282.166 87.74H278.566L277.806 89.5H276.756L279.926 82.38H280.796L283.976 89.5H282.926L282.166 87.74ZM281.816 86.92L280.366 83.53L278.916 86.92H281.816ZM289.418 82.14V89.5H288.418V88.64C288.272 88.94 288.052 89.17 287.758 89.33C287.472 89.49 287.135 89.57 286.748 89.57C286.315 89.57 285.928 89.46 285.588 89.24C285.248 89.02 284.982 88.7133 284.788 88.32C284.602 87.92 284.508 87.46 284.508 86.94C284.508 86.42 284.602 85.9633 284.788 85.57C284.975 85.1767 285.235 84.8733 285.568 84.66C285.908 84.4467 286.302 84.34 286.748 84.34C287.128 84.34 287.462 84.42 287.748 84.58C288.042 84.74 288.262 84.9667 288.408 85.26V82.14H289.418ZM286.978 88.77C287.438 88.77 287.792 88.6133 288.038 88.3C288.292 87.98 288.418 87.5333 288.418 86.96C288.418 86.3867 288.292 85.9433 288.038 85.63C287.792 85.31 287.442 85.15 286.988 85.15C286.528 85.15 286.168 85.3067 285.908 85.62C285.655 85.9333 285.528 86.3733 285.528 86.94C285.528 87.5133 285.655 87.9633 285.908 88.29C286.168 88.61 286.525 88.77 286.978 88.77ZM295.512 82.14V89.5H294.512V88.64C294.365 88.94 294.145 89.17 293.852 89.33C293.565 89.49 293.229 89.57 292.842 89.57C292.409 89.57 292.022 89.46 291.682 89.24C291.342 89.02 291.075 88.7133 290.882 88.32C290.695 87.92 290.602 87.46 290.602 86.94C290.602 86.42 290.695 85.9633 290.882 85.57C291.069 85.1767 291.329 84.8733 291.662 84.66C292.002 84.4467 292.395 84.34 292.842 84.34C293.222 84.34 293.555 84.42 293.842 84.58C294.135 84.74 294.355 84.9667 294.502 85.26V82.14H295.512ZM293.072 88.77C293.532 88.77 293.885 88.6133 294.132 88.3C294.385 87.98 294.512 87.5333 294.512 86.96C294.512 86.3867 294.385 85.9433 294.132 85.63C293.885 85.31 293.535 85.15 293.082 85.15C292.622 85.15 292.262 85.3067 292.002 85.62C291.749 85.9333 291.622 86.3733 291.622 86.94C291.622 87.5133 291.749 87.9633 292.002 88.29C292.262 88.61 292.619 88.77 293.072 88.77Z" fill="#32353E"/>
<rect x="261.156" y="74.5" width="51" height="23" rx="11.5" stroke="#353FFB"/>
<path d="M86.6472 80.184V93H85.2792V83.478L81.1212 93H80.0772L75.8832 83.55L75.9012 93H74.5332V80.184H75.7572L80.6172 91.236L85.4232 80.184H86.6472ZM97.5846 83.946L93.3546 93.828C92.9106 94.86 92.3526 95.616 91.6806 96.096C91.0086 96.576 90.1806 96.906 89.1966 97.086L88.8906 95.952C89.7426 95.76 90.3846 95.502 90.8166 95.178C91.2606 94.866 91.6266 94.38 91.9146 93.72L92.2746 92.91L88.4406 83.946H89.9706L93.0306 91.416L96.1266 83.946H97.5846ZM111.858 83.946V93H110.418V91.362C110.154 91.926 109.752 92.364 109.212 92.676C108.684 92.976 108.066 93.126 107.358 93.126C106.554 93.126 105.846 92.934 105.234 92.55C104.634 92.166 104.166 91.626 103.83 90.93C103.506 90.222 103.344 89.4 103.344 88.464C103.344 87.528 103.512 86.706 103.848 85.998C104.184 85.278 104.652 84.72 105.252 84.324C105.864 83.928 106.566 83.73 107.358 83.73C108.066 83.73 108.684 83.886 109.212 84.198C109.74 84.51 110.142 84.948 110.418 85.512V83.946H111.858ZM107.646 91.92C108.534 91.92 109.218 91.62 109.698 91.02C110.178 90.408 110.418 89.544 110.418 88.428C110.418 87.312 110.178 86.454 109.698 85.854C109.218 85.254 108.534 84.954 107.646 84.954C106.758 84.954 106.062 85.266 105.558 85.89C105.066 86.502 104.82 87.36 104.82 88.464C104.82 89.568 105.066 90.42 105.558 91.02C106.05 91.62 106.746 91.92 107.646 91.92ZM118.475 93.126C117.599 93.126 116.831 92.934 116.171 92.55C115.523 92.166 115.019 91.626 114.659 90.93C114.311 90.222 114.137 89.4 114.137 88.464C114.137 87.528 114.317 86.706 114.677 85.998C115.037 85.278 115.547 84.72 116.207 84.324C116.879 83.928 117.659 83.73 118.547 83.73C119.159 83.73 119.747 83.838 120.311 84.054C120.887 84.258 121.361 84.546 121.733 84.918L121.247 85.998C120.791 85.638 120.347 85.374 119.915 85.206C119.495 85.038 119.063 84.954 118.619 84.954C117.695 84.954 116.969 85.266 116.441 85.89C115.913 86.502 115.649 87.36 115.649 88.464C115.649 89.556 115.907 90.408 116.423 91.02C116.951 91.62 117.683 91.92 118.619 91.92C119.063 91.92 119.495 91.836 119.915 91.668C120.347 91.5 120.791 91.236 121.247 90.876L121.733 91.956C121.349 92.316 120.863 92.604 120.275 92.82C119.699 93.024 119.099 93.126 118.475 93.126ZM127.388 93.126C126.512 93.126 125.744 92.934 125.084 92.55C124.436 92.166 123.932 91.626 123.572 90.93C123.224 90.222 123.05 89.4 123.05 88.464C123.05 87.528 123.23 86.706 123.59 85.998C123.95 85.278 124.46 84.72 125.12 84.324C125.792 83.928 126.572 83.73 127.46 83.73C128.072 83.73 128.66 83.838 129.224 84.054C129.8 84.258 130.274 84.546 130.646 84.918L130.16 85.998C129.704 85.638 129.26 85.374 128.828 85.206C128.408 85.038 127.976 84.954 127.532 84.954C126.608 84.954 125.882 85.266 125.354 85.89C124.826 86.502 124.562 87.36 124.562 88.464C124.562 89.556 124.82 90.408 125.336 91.02C125.864 91.62 126.596 91.92 127.532 91.92C127.976 91.92 128.408 91.836 128.828 91.668C129.26 91.5 129.704 91.236 130.16 90.876L130.646 91.956C130.262 92.316 129.776 92.604 129.188 92.82C128.612 93.024 128.012 93.126 127.388 93.126ZM136.246 93.126C135.394 93.126 134.644 92.934 133.996 92.55C133.348 92.166 132.844 91.62 132.484 90.912C132.136 90.204 131.962 89.376 131.962 88.428C131.962 87.48 132.136 86.652 132.484 85.944C132.844 85.236 133.348 84.69 133.996 84.306C134.644 83.922 135.394 83.73 136.246 83.73C137.098 83.73 137.848 83.922 138.496 84.306C139.144 84.69 139.642 85.236 139.99 85.944C140.35 86.652 140.53 87.48 140.53 88.428C140.53 89.376 140.35 90.204 139.99 90.912C139.642 91.62 139.144 92.166 138.496 92.55C137.848 92.934 137.098 93.126 136.246 93.126ZM136.246 91.92C137.146 91.92 137.836 91.626 138.316 91.038C138.796 90.438 139.036 89.568 139.036 88.428C139.036 87.324 138.79 86.472 138.298 85.872C137.806 85.26 137.122 84.954 136.246 84.954C135.358 84.954 134.668 85.26 134.176 85.872C133.684 86.472 133.438 87.324 133.438 88.428C133.438 89.568 133.678 90.438 134.158 91.038C134.65 91.626 135.346 91.92 136.246 91.92ZM150.38 83.946V93H148.958V91.434C148.67 91.986 148.268 92.406 147.752 92.694C147.236 92.982 146.654 93.126 146.006 93.126C144.938 93.126 144.128 92.826 143.576 92.226C143.024 91.626 142.748 90.738 142.748 89.562V83.946H144.206V89.526C144.206 90.342 144.374 90.942 144.71 91.326C145.046 91.71 145.556 91.902 146.24 91.902C147.044 91.902 147.692 91.644 148.184 91.128C148.676 90.6 148.922 89.91 148.922 89.058V83.946H150.38ZM157.709 83.73C159.881 83.73 160.967 84.924 160.967 87.312V93H159.509V87.384C159.509 86.544 159.341 85.932 159.005 85.548C158.669 85.152 158.141 84.954 157.421 84.954C156.581 84.954 155.909 85.212 155.405 85.728C154.901 86.244 154.649 86.94 154.649 87.816V93H153.191V86.484C153.191 85.548 153.143 84.702 153.047 83.946H154.433L154.577 85.566C154.853 84.978 155.267 84.528 155.819 84.216C156.371 83.892 157.001 83.73 157.709 83.73ZM165.664 85.098V90.048C165.664 90.72 165.802 91.194 166.078 91.47C166.354 91.734 166.744 91.866 167.248 91.866C167.584 91.866 167.908 91.812 168.22 91.704V92.946C167.848 93.066 167.428 93.126 166.96 93.126C166.096 93.126 165.418 92.886 164.926 92.406C164.446 91.914 164.206 91.194 164.206 90.246V85.098H162.442V83.946H164.206V81.624L165.664 81.102V83.946H168.256V85.098H165.664Z" fill="#101010"/>
<rect x="72.9492" y="111" width="239.625" height="1" fill="#EDF0F5"/>
<rect x="56.9766" y="136" width="272.573" height="64" rx="12" fill="#F4F6F9"/>
<path d="M129.291 162.112C128.517 162.112 127.807 162.009 127.163 161.804C126.529 161.599 125.978 161.291 125.511 160.88L126.029 159.816C126.515 160.208 127.019 160.493 127.541 160.67C128.064 160.847 128.652 160.936 129.305 160.936C130.052 160.936 130.631 160.796 131.041 160.516C131.452 160.236 131.657 159.839 131.657 159.326C131.657 158.897 131.466 158.575 131.083 158.36C130.701 158.136 130.094 157.931 129.263 157.744C128.47 157.576 127.821 157.385 127.317 157.17C126.813 156.946 126.417 156.652 126.127 156.288C125.838 155.915 125.693 155.439 125.693 154.86C125.693 154.281 125.847 153.773 126.155 153.334C126.463 152.886 126.897 152.541 127.457 152.298C128.027 152.046 128.68 151.92 129.417 151.92C130.117 151.92 130.771 152.027 131.377 152.242C131.993 152.457 132.507 152.76 132.917 153.152L132.399 154.216C131.942 153.833 131.471 153.553 130.985 153.376C130.5 153.189 129.982 153.096 129.431 153.096C128.713 153.096 128.148 153.25 127.737 153.558C127.327 153.857 127.121 154.267 127.121 154.79C127.121 155.238 127.299 155.579 127.653 155.812C128.017 156.045 128.596 156.255 129.389 156.442C130.22 156.629 130.892 156.825 131.405 157.03C131.919 157.235 132.329 157.515 132.637 157.87C132.945 158.225 133.099 158.682 133.099 159.242C133.099 159.821 132.945 160.325 132.637 160.754C132.329 161.183 131.886 161.519 131.307 161.762C130.738 161.995 130.066 162.112 129.291 162.112ZM141.372 159.536H136.332L135.268 162H133.798L138.236 152.032H139.454L143.906 162H142.436L141.372 159.536ZM140.882 158.388L138.852 153.642L136.822 158.388H140.882ZM151.063 156.862C151.642 157.021 152.09 157.31 152.407 157.73C152.724 158.15 152.883 158.668 152.883 159.284C152.883 160.143 152.584 160.81 151.987 161.286C151.399 161.762 150.573 162 149.509 162H145.197V152.032H149.369C150.396 152.032 151.194 152.261 151.763 152.718C152.342 153.175 152.631 153.815 152.631 154.636C152.631 155.168 152.491 155.63 152.211 156.022C151.94 156.405 151.558 156.685 151.063 156.862ZM146.625 156.358H149.145C150.536 156.358 151.231 155.821 151.231 154.748C151.231 153.712 150.536 153.194 149.145 153.194H146.625V156.358ZM149.369 160.838C150.097 160.838 150.629 160.707 150.965 160.446C151.301 160.175 151.469 159.76 151.469 159.2C151.469 158.631 151.296 158.211 150.951 157.94C150.615 157.66 150.088 157.52 149.369 157.52H146.625V160.838H149.369ZM160.647 156.862C161.226 157.021 161.674 157.31 161.991 157.73C162.308 158.15 162.467 158.668 162.467 159.284C162.467 160.143 162.168 160.81 161.571 161.286C160.983 161.762 160.157 162 159.093 162H154.781V152.032H158.953C159.98 152.032 160.778 152.261 161.347 152.718C161.926 153.175 162.215 153.815 162.215 154.636C162.215 155.168 162.075 155.63 161.795 156.022C161.524 156.405 161.142 156.685 160.647 156.862ZM156.209 156.358H158.729C160.12 156.358 160.815 155.821 160.815 154.748C160.815 153.712 160.12 153.194 158.729 153.194H156.209V156.358ZM158.953 160.838C159.681 160.838 160.213 160.707 160.549 160.446C160.885 160.175 161.053 159.76 161.053 159.2C161.053 158.631 160.88 158.211 160.535 157.94C160.199 157.66 159.672 157.52 158.953 157.52H156.209V160.838H158.953Z" fill="#101010"/>
<path d="M129.571 183.096C128.755 183.096 128.051 182.92 127.459 182.568C126.867 182.216 126.411 181.712 126.091 181.056C125.771 180.4 125.611 179.62 125.611 178.716C125.611 177.812 125.771 177.036 126.091 176.388C126.411 175.74 126.867 175.24 127.459 174.888C128.051 174.536 128.755 174.36 129.571 174.36C130.155 174.36 130.695 174.452 131.191 174.636C131.687 174.812 132.115 175.08 132.475 175.44L132.103 176.196C131.695 175.844 131.291 175.592 130.891 175.44C130.491 175.288 130.055 175.212 129.583 175.212C128.647 175.212 127.919 175.516 127.399 176.124C126.887 176.732 126.631 177.596 126.631 178.716C126.631 179.844 126.887 180.716 127.399 181.332C127.911 181.94 128.639 182.244 129.583 182.244C130.055 182.244 130.491 182.168 130.891 182.016C131.291 181.864 131.695 181.612 132.103 181.26L132.475 182.016C132.115 182.376 131.687 182.648 131.191 182.832C130.695 183.008 130.155 183.096 129.571 183.096ZM136.025 183.084C135.305 183.084 134.761 182.884 134.393 182.484C134.033 182.084 133.853 181.492 133.853 180.708V176.964H134.825V180.684C134.825 181.228 134.937 181.628 135.161 181.884C135.385 182.14 135.725 182.268 136.181 182.268C136.717 182.268 137.149 182.096 137.477 181.752C137.805 181.408 137.969 180.948 137.969 180.372V176.964H138.941V183H137.993V181.692L138.137 181.62C137.977 182.1 137.705 182.464 137.321 182.712C136.945 182.96 136.513 183.084 136.025 183.084ZM140.815 183V178.656C140.815 178.376 140.807 178.096 140.791 177.816C140.783 177.528 140.759 177.244 140.719 176.964H141.643L141.775 178.452L141.643 178.416C141.755 177.888 141.995 177.492 142.363 177.228C142.739 176.956 143.159 176.82 143.623 176.82C143.727 176.82 143.823 176.828 143.911 176.844C144.007 176.852 144.095 176.868 144.175 176.892L144.151 177.78C143.967 177.716 143.755 177.684 143.515 177.684C143.099 177.684 142.763 177.776 142.507 177.96C142.259 178.144 142.075 178.38 141.955 178.668C141.843 178.948 141.787 179.244 141.787 179.556V183H140.815ZM145.163 183V178.656C145.163 178.376 145.155 178.096 145.139 177.816C145.131 177.528 145.107 177.244 145.067 176.964H145.991L146.123 178.452L145.991 178.416C146.103 177.888 146.343 177.492 146.711 177.228C147.087 176.956 147.507 176.82 147.971 176.82C148.075 176.82 148.171 176.828 148.259 176.844C148.355 176.852 148.443 176.868 148.523 176.892L148.499 177.78C148.315 177.716 148.103 177.684 147.863 177.684C147.447 177.684 147.111 177.776 146.855 177.96C146.607 178.144 146.423 178.38 146.303 178.668C146.191 178.948 146.135 179.244 146.135 179.556V183H145.163ZM154.337 182.28C154.073 182.528 153.733 182.724 153.317 182.868C152.909 183.012 152.489 183.084 152.057 183.084C151.433 183.084 150.893 182.96 150.437 182.712C149.989 182.464 149.641 182.108 149.393 181.644C149.153 181.172 149.033 180.612 149.033 179.964C149.033 179.34 149.153 178.792 149.393 178.32C149.633 177.848 149.965 177.48 150.389 177.216C150.821 176.952 151.317 176.82 151.877 176.82C152.413 176.82 152.873 176.94 153.257 177.18C153.641 177.412 153.933 177.748 154.133 178.188C154.341 178.628 154.445 179.156 154.445 179.772V179.952H149.885V179.316H153.893L153.581 179.76C153.597 179.056 153.457 178.516 153.161 178.14C152.873 177.764 152.449 177.576 151.889 177.576C151.305 177.576 150.845 177.784 150.509 178.2C150.181 178.608 150.017 179.176 150.017 179.904C150.017 180.688 150.189 181.28 150.533 181.68C150.885 182.08 151.397 182.28 152.069 182.28C152.421 182.28 152.757 182.224 153.077 182.112C153.405 181.992 153.717 181.812 154.013 181.572L154.337 182.28ZM155.92 183V178.656C155.92 178.376 155.912 178.096 155.896 177.816C155.888 177.528 155.864 177.244 155.824 176.964H156.748L156.856 178.212L156.736 178.308C156.904 177.82 157.184 177.452 157.576 177.204C157.968 176.948 158.42 176.82 158.932 176.82C160.38 176.82 161.104 177.616 161.104 179.208V183H160.132V179.256C160.132 178.696 160.02 178.288 159.796 178.032C159.572 177.768 159.22 177.636 158.74 177.636C158.18 177.636 157.732 177.808 157.396 178.152C157.06 178.496 156.892 178.96 156.892 179.544V183H155.92ZM162.088 177.732V176.964H165.964V177.732H162.088ZM165.94 182.136V182.964C165.804 183.004 165.668 183.032 165.532 183.048C165.404 183.072 165.26 183.084 165.1 183.084C164.54 183.084 164.092 182.924 163.756 182.604C163.428 182.284 163.264 181.804 163.264 181.164V175.416L164.236 175.068V181.032C164.236 181.352 164.28 181.6 164.368 181.776C164.464 181.952 164.592 182.076 164.752 182.148C164.912 182.212 165.092 182.244 165.292 182.244C165.412 182.244 165.52 182.236 165.616 182.22C165.712 182.204 165.82 182.176 165.94 182.136Z" fill="#ACB0B9"/>
<path d="M242.307 181.888H237.987L237.075 184H235.815L239.619 175.456H240.663L244.479 184H243.219L242.307 181.888ZM241.887 180.904L240.147 176.836L238.407 180.904H241.887ZM245.586 175.456H251.13V176.464H246.81V179.152H250.89V180.16H246.81V182.992H251.13V184H245.586V175.456ZM252.676 175.456H255.664C257.048 175.456 258.12 175.828 258.88 176.572C259.64 177.316 260.02 178.364 260.02 179.716C260.02 181.076 259.64 182.132 258.88 182.884C258.12 183.628 257.048 184 255.664 184H252.676V175.456ZM255.592 182.968C257.696 182.968 258.748 181.884 258.748 179.716C258.748 177.564 257.696 176.488 255.592 176.488H253.912V182.968H255.592ZM270.766 182.224H269.506V184H268.282V182.224H264.454V181.3L268.51 175.456H269.506V181.228H270.766V182.224ZM268.282 181.228V177.46L265.666 181.228H268.282ZM273.269 182.56V183.544C273.269 183.92 273.205 184.26 273.077 184.564C272.949 184.876 272.733 185.184 272.429 185.488L271.913 185.068C272.249 184.7 272.441 184.344 272.489 184H271.829V182.56H273.269ZM277.592 184.096C276.6 184.096 275.844 183.724 275.324 182.98C274.804 182.236 274.544 181.152 274.544 179.728C274.544 178.304 274.804 177.22 275.324 176.476C275.844 175.732 276.6 175.36 277.592 175.36C278.584 175.36 279.34 175.732 279.86 176.476C280.38 177.212 280.64 178.292 280.64 179.716C280.64 181.148 280.38 182.236 279.86 182.98C279.34 183.724 278.584 184.096 277.592 184.096ZM277.592 183.1C278.208 183.1 278.66 182.828 278.948 182.284C279.244 181.732 279.392 180.876 279.392 179.716C279.392 178.556 279.248 177.708 278.96 177.172C278.672 176.636 278.216 176.368 277.592 176.368C276.976 176.368 276.52 176.64 276.224 177.184C275.936 177.72 275.792 178.564 275.792 179.716C275.792 180.876 275.936 181.732 276.224 182.284C276.52 182.828 276.976 183.1 277.592 183.1ZM287.632 182.98V184H282.64V182.98H284.512V176.932L282.771 178.012V176.872L285.04 175.456H285.76V182.98H287.632ZM293.243 179.608C293.739 179.752 294.119 180 294.383 180.352C294.647 180.704 294.779 181.148 294.779 181.684C294.779 182.428 294.515 183.016 293.987 183.448C293.467 183.872 292.759 184.084 291.863 184.084C291.295 184.084 290.751 183.996 290.231 183.82C289.719 183.636 289.291 183.38 288.947 183.052L289.391 182.14C290.159 182.764 290.971 183.076 291.827 183.076C292.995 183.076 293.579 182.584 293.579 181.6C293.579 181.12 293.427 180.764 293.123 180.532C292.819 180.292 292.359 180.172 291.743 180.172H290.699V179.164H291.551C292.143 179.164 292.595 179.04 292.907 178.792C293.219 178.544 293.375 178.184 293.375 177.712C293.375 177.28 293.243 176.948 292.979 176.716C292.723 176.484 292.359 176.368 291.887 176.368C291.087 176.368 290.295 176.68 289.511 177.304L289.067 176.392C289.403 176.072 289.827 175.82 290.339 175.636C290.859 175.452 291.395 175.36 291.947 175.36C292.747 175.36 293.383 175.56 293.855 175.96C294.335 176.352 294.575 176.884 294.575 177.556C294.575 178.044 294.459 178.468 294.227 178.828C293.995 179.188 293.667 179.448 293.243 179.608ZM297.738 182.56V184H296.298V182.56H297.738ZM304.953 175.456V176.38L301.005 184H299.673L303.609 176.476H299.169V175.456H304.953ZM312.508 182.224H311.248V184H310.024V182.224H306.196V181.3L310.252 175.456H311.248V181.228H312.508V182.224ZM310.024 181.228V177.46L307.408 181.228H310.024Z" fill="black"/>
<path d="M274.293 159.656L273.693 159.224L274.857 157.736L273.033 157.196L273.273 156.488L275.037 157.124L274.977 155.252H275.721L275.661 157.136L277.449 156.488L277.677 157.196L275.865 157.736L277.029 159.224L276.417 159.656L275.361 158.084L274.293 159.656ZM279.754 159.656L279.154 159.224L280.318 157.736L278.494 157.196L278.734 156.488L280.498 157.124L280.438 155.252H281.182L281.122 157.136L282.91 156.488L283.138 157.196L281.326 157.736L282.49 159.224L281.878 159.656L280.822 158.084L279.754 159.656ZM288.083 164V156.692H288.383L284.831 161.816L284.843 161.324H290.363V162.14H284.147V161.396L288.263 155.456H289.067V164H288.083ZM294.174 163.556V156.032L294.738 156.32L292.422 157.796V156.848L294.606 155.456H295.17V163.556H294.174ZM292.29 164V163.172H297.054V164H292.29ZM301.681 164.084C301.161 164.084 300.649 163.992 300.145 163.808C299.641 163.616 299.217 163.356 298.873 163.028L299.245 162.272C299.637 162.592 300.033 162.836 300.433 163.004C300.841 163.172 301.257 163.256 301.681 163.256C302.281 163.256 302.749 163.088 303.085 162.752C303.429 162.408 303.601 161.944 303.601 161.36C303.601 160.984 303.525 160.656 303.373 160.376C303.221 160.088 303.005 159.864 302.725 159.704C302.453 159.544 302.129 159.464 301.753 159.464C301.345 159.464 300.977 159.548 300.649 159.716C300.329 159.876 300.045 160.124 299.797 160.46H299.113V155.456H304.237V156.272H300.097V159.728L299.785 159.692C300.017 159.356 300.313 159.096 300.673 158.912C301.041 158.728 301.453 158.636 301.909 158.636C302.453 158.636 302.925 158.752 303.325 158.984C303.725 159.208 304.033 159.524 304.249 159.932C304.465 160.34 304.573 160.812 304.573 161.348C304.573 161.884 304.453 162.36 304.213 162.776C303.981 163.184 303.649 163.504 303.217 163.736C302.785 163.968 302.273 164.084 301.681 164.084ZM309.021 164.096C307.989 164.096 307.193 163.74 306.633 163.028C306.073 162.308 305.793 161.28 305.793 159.944C305.793 158.976 305.921 158.152 306.177 157.472C306.441 156.784 306.817 156.26 307.305 155.9C307.801 155.54 308.393 155.36 309.081 155.36C309.577 155.36 310.057 155.452 310.521 155.636C310.985 155.812 311.397 156.072 311.757 156.416L311.385 157.172C310.985 156.828 310.597 156.58 310.221 156.428C309.853 156.268 309.481 156.188 309.105 156.188C308.369 156.188 307.797 156.516 307.389 157.172C306.981 157.82 306.777 158.74 306.777 159.932V160.964L306.633 160.64C306.697 160.232 306.845 159.88 307.077 159.584C307.309 159.28 307.597 159.048 307.941 158.888C308.293 158.72 308.681 158.636 309.105 158.636C309.633 158.636 310.097 158.752 310.497 158.984C310.897 159.208 311.209 159.524 311.433 159.932C311.657 160.34 311.769 160.812 311.769 161.348C311.769 161.876 311.649 162.348 311.409 162.764C311.177 163.18 310.853 163.508 310.437 163.748C310.029 163.98 309.557 164.096 309.021 164.096ZM308.973 163.268C309.517 163.268 309.957 163.096 310.293 162.752C310.629 162.4 310.797 161.936 310.797 161.36C310.797 160.792 310.629 160.336 310.293 159.992C309.957 159.64 309.513 159.464 308.961 159.464C308.593 159.464 308.265 159.548 307.977 159.716C307.689 159.876 307.465 160.1 307.305 160.388C307.145 160.668 307.065 160.992 307.065 161.36C307.065 161.744 307.145 162.08 307.305 162.368C307.465 162.648 307.689 162.868 307.977 163.028C308.265 163.188 308.597 163.268 308.973 163.268Z" fill="#868B93"/>
<path d="M130.411 235.112C129.45 235.112 128.61 234.907 127.891 234.496C127.182 234.076 126.636 233.483 126.253 232.718C125.871 231.953 125.679 231.047 125.679 230.002C125.679 228.966 125.871 228.065 126.253 227.3C126.636 226.535 127.182 225.947 127.891 225.536C128.61 225.125 129.45 224.92 130.411 224.92C131.093 224.92 131.723 225.027 132.301 225.242C132.889 225.447 133.384 225.751 133.785 226.152L133.281 227.216C132.815 226.833 132.353 226.558 131.895 226.39C131.447 226.213 130.957 226.124 130.425 226.124C129.389 226.124 128.587 226.46 128.017 227.132C127.457 227.804 127.177 228.761 127.177 230.002C127.177 231.253 127.457 232.219 128.017 232.9C128.587 233.572 129.389 233.908 130.425 233.908C130.957 233.908 131.447 233.824 131.895 233.656C132.353 233.479 132.815 233.199 133.281 232.816L133.785 233.88C133.384 234.281 132.889 234.589 132.301 234.804C131.723 235.009 131.093 235.112 130.411 235.112ZM135.474 227.944H136.874V235H135.474V227.944ZM136.986 224.864V226.348H135.348V224.864H136.986ZM140.78 229.036V232.578C140.78 233.063 140.883 233.409 141.088 233.614C141.303 233.81 141.597 233.908 141.97 233.908C142.213 233.908 142.46 233.871 142.712 233.796V234.944C142.404 235.047 142.054 235.098 141.662 235.098C140.934 235.098 140.369 234.893 139.968 234.482C139.567 234.071 139.366 233.474 139.366 232.69V229.036H137.994V227.944H139.366V226.18L140.78 225.69V227.944H142.726V229.036H140.78ZM144.032 227.944H145.432V235H144.032V227.944ZM145.544 224.864V226.348H143.906V224.864H145.544ZM157.229 229.862C157.808 230.021 158.256 230.31 158.573 230.73C158.891 231.15 159.049 231.668 159.049 232.284C159.049 233.143 158.751 233.81 158.153 234.286C157.565 234.762 156.739 235 155.675 235H151.363V225.032H155.535C156.562 225.032 157.36 225.261 157.929 225.718C158.508 226.175 158.797 226.815 158.797 227.636C158.797 228.168 158.657 228.63 158.377 229.022C158.107 229.405 157.724 229.685 157.229 229.862ZM152.791 229.358H155.311C156.702 229.358 157.397 228.821 157.397 227.748C157.397 226.712 156.702 226.194 155.311 226.194H152.791V229.358ZM155.535 233.838C156.263 233.838 156.795 233.707 157.131 233.446C157.467 233.175 157.635 232.76 157.635 232.2C157.635 231.631 157.463 231.211 157.117 230.94C156.781 230.66 156.254 230.52 155.535 230.52H152.791V233.838H155.535ZM167.275 227.944V235H165.875V233.796C165.67 234.216 165.362 234.538 164.951 234.762C164.55 234.986 164.078 235.098 163.537 235.098C162.912 235.098 162.361 234.949 161.885 234.65C161.418 234.351 161.054 233.931 160.793 233.39C160.532 232.839 160.401 232.2 160.401 231.472C160.401 230.744 160.532 230.1 160.793 229.54C161.064 228.98 161.437 228.546 161.913 228.238C162.389 227.93 162.93 227.776 163.537 227.776C164.078 227.776 164.55 227.893 164.951 228.126C165.352 228.35 165.66 228.672 165.875 229.092V227.944H167.275ZM163.873 233.978C164.508 233.978 164.998 233.759 165.343 233.32C165.698 232.872 165.875 232.247 165.875 231.444C165.875 230.632 165.698 230.007 165.343 229.568C164.998 229.129 164.503 228.91 163.859 228.91C163.224 228.91 162.725 229.139 162.361 229.596C162.006 230.044 161.829 230.669 161.829 231.472C161.829 232.265 162.006 232.881 162.361 233.32C162.725 233.759 163.229 233.978 163.873 233.978ZM173.104 227.776C174.794 227.776 175.638 228.719 175.638 230.604V235H174.224V230.688C174.224 230.072 174.103 229.624 173.86 229.344C173.627 229.064 173.249 228.924 172.726 228.924C172.129 228.924 171.648 229.111 171.284 229.484C170.93 229.857 170.752 230.357 170.752 230.982V235H169.352V229.932C169.352 229.195 169.315 228.532 169.24 227.944H170.556L170.682 229.162C170.906 228.714 171.228 228.373 171.648 228.14C172.078 227.897 172.563 227.776 173.104 227.776ZM182.425 235L179.051 231.668V235H177.651V224.696H179.051V231.136L182.187 227.958H183.937L180.563 231.346L184.231 235H182.425Z" fill="#101010"/>
<path d="M128.635 256.096C128.195 256.096 127.783 256.06 127.399 255.988C127.015 255.908 126.659 255.788 126.331 255.628C126.003 255.46 125.707 255.256 125.443 255.016L125.815 254.26C126.247 254.62 126.679 254.876 127.111 255.028C127.551 255.18 128.063 255.256 128.647 255.256C129.327 255.256 129.855 255.124 130.231 254.86C130.607 254.588 130.795 254.208 130.795 253.72C130.795 253.424 130.699 253.188 130.507 253.012C130.323 252.828 130.067 252.684 129.739 252.58C129.419 252.468 129.055 252.364 128.647 252.268C128.239 252.18 127.851 252.08 127.483 251.968C127.115 251.848 126.787 251.7 126.499 251.524C126.219 251.348 125.999 251.124 125.839 250.852C125.679 250.58 125.599 250.24 125.599 249.832C125.599 249.344 125.727 248.916 125.983 248.548C126.239 248.172 126.599 247.88 127.063 247.672C127.527 247.464 128.075 247.36 128.707 247.36C129.099 247.36 129.475 247.404 129.835 247.492C130.195 247.572 130.527 247.692 130.831 247.852C131.143 248.012 131.419 248.208 131.659 248.44L131.275 249.196C130.883 248.852 130.479 248.6 130.063 248.44C129.647 248.28 129.195 248.2 128.707 248.2C128.043 248.2 127.523 248.34 127.147 248.62C126.771 248.9 126.583 249.292 126.583 249.796C126.583 250.108 126.667 250.36 126.835 250.552C127.003 250.744 127.239 250.9 127.543 251.02C127.847 251.132 128.195 251.236 128.587 251.332C129.003 251.428 129.403 251.532 129.787 251.644C130.171 251.756 130.511 251.896 130.807 252.064C131.111 252.224 131.351 252.436 131.527 252.7C131.703 252.956 131.791 253.284 131.791 253.684C131.791 254.172 131.663 254.596 131.407 254.956C131.151 255.316 130.787 255.596 130.315 255.796C129.843 255.996 129.283 256.096 128.635 256.096ZM135.596 256.084C135.06 256.084 134.588 255.96 134.18 255.712C133.78 255.456 133.468 255.096 133.244 254.632C133.028 254.16 132.92 253.608 132.92 252.976C132.92 252.344 133.032 251.792 133.256 251.32C133.48 250.848 133.792 250.48 134.192 250.216C134.6 249.952 135.068 249.82 135.596 249.82C136.148 249.82 136.616 249.956 137 250.228C137.384 250.5 137.644 250.888 137.78 251.392L137.636 251.488V249.964H138.596V256H137.636V254.44L137.78 254.512C137.644 255.016 137.384 255.404 137 255.676C136.616 255.948 136.148 256.084 135.596 256.084ZM135.788 255.28C136.38 255.28 136.836 255.08 137.156 254.68C137.476 254.272 137.636 253.696 137.636 252.952C137.636 252.208 137.472 251.636 137.144 251.236C136.824 250.836 136.372 250.636 135.788 250.636C135.196 250.636 134.732 250.844 134.396 251.26C134.068 251.668 133.904 252.24 133.904 252.976C133.904 253.712 134.068 254.28 134.396 254.68C134.732 255.08 135.196 255.28 135.788 255.28ZM142.251 256L139.683 249.976H140.703L142.887 255.292H142.599L144.807 249.976H145.779L143.175 256H142.251ZM146.85 256V249.964H147.822V256H146.85ZM146.754 247.408H147.942V248.512H146.754V247.408ZM149.709 256V251.656C149.709 251.376 149.701 251.096 149.685 250.816C149.677 250.528 149.653 250.244 149.613 249.964H150.537L150.645 251.212L150.525 251.308C150.693 250.82 150.973 250.452 151.365 250.204C151.757 249.948 152.209 249.82 152.721 249.82C154.169 249.82 154.893 250.616 154.893 252.208V256H153.921V252.256C153.921 251.696 153.809 251.288 153.585 251.032C153.361 250.768 153.009 250.636 152.529 250.636C151.969 250.636 151.521 250.808 151.185 251.152C150.849 251.496 150.681 251.96 150.681 252.544V256H149.709ZM159.381 258.676C158.469 258.676 157.677 258.468 157.005 258.052L157.173 257.26C157.549 257.476 157.905 257.632 158.241 257.728C158.577 257.824 158.957 257.872 159.381 257.872C159.957 257.872 160.393 257.716 160.689 257.404C160.993 257.1 161.145 256.644 161.145 256.036V254.404L161.277 254.248C161.181 254.568 161.029 254.848 160.821 255.088C160.621 255.32 160.373 255.5 160.077 255.628C159.781 255.756 159.445 255.82 159.069 255.82C158.533 255.82 158.061 255.696 157.653 255.448C157.253 255.192 156.937 254.84 156.705 254.392C156.481 253.944 156.369 253.42 156.369 252.82C156.369 252.22 156.481 251.696 156.705 251.248C156.937 250.8 157.253 250.452 157.653 250.204C158.061 249.948 158.533 249.82 159.069 249.82C159.629 249.82 160.101 249.96 160.485 250.24C160.877 250.512 161.141 250.896 161.277 251.392L161.133 251.26V249.964H162.105V255.952C162.105 256.856 161.873 257.536 161.409 257.992C160.953 258.448 160.277 258.676 159.381 258.676ZM159.261 255.004C159.845 255.004 160.301 254.812 160.629 254.428C160.965 254.036 161.133 253.5 161.133 252.82C161.133 252.14 160.965 251.608 160.629 251.224C160.301 250.832 159.845 250.636 159.261 250.636C158.669 250.636 158.201 250.832 157.857 251.224C157.521 251.608 157.353 252.14 157.353 252.82C157.353 253.508 157.521 254.044 157.857 254.428C158.201 254.812 158.669 255.004 159.261 255.004Z" fill="#ACB0B9"/>
<path d="M242.307 254.888H237.987L237.075 257H235.815L239.619 248.456H240.663L244.479 257H243.219L242.307 254.888ZM241.887 253.904L240.147 249.836L238.407 253.904H241.887ZM245.586 248.456H251.13V249.464H246.81V252.152H250.89V253.16H246.81V255.992H251.13V257H245.586V248.456ZM252.676 248.456H255.664C257.048 248.456 258.12 248.828 258.88 249.572C259.64 250.316 260.02 251.364 260.02 252.716C260.02 254.076 259.64 255.132 258.88 255.884C258.12 256.628 257.048 257 255.664 257H252.676V248.456ZM255.592 255.968C257.696 255.968 258.748 254.884 258.748 252.716C258.748 250.564 257.696 249.488 255.592 249.488H253.912V255.968H255.592ZM270.766 255.224H269.506V257H268.282V255.224H264.454V254.3L268.51 248.456H269.506V254.228H270.766V255.224ZM268.282 254.228V250.46L265.666 254.228H268.282ZM273.269 255.56V256.544C273.269 256.92 273.205 257.26 273.077 257.564C272.949 257.876 272.733 258.184 272.429 258.488L271.913 258.068C272.249 257.7 272.441 257.344 272.489 257H271.829V255.56H273.269ZM277.592 257.096C276.6 257.096 275.844 256.724 275.324 255.98C274.804 255.236 274.544 254.152 274.544 252.728C274.544 251.304 274.804 250.22 275.324 249.476C275.844 248.732 276.6 248.36 277.592 248.36C278.584 248.36 279.34 248.732 279.86 249.476C280.38 250.212 280.64 251.292 280.64 252.716C280.64 254.148 280.38 255.236 279.86 255.98C279.34 256.724 278.584 257.096 277.592 257.096ZM277.592 256.1C278.208 256.1 278.66 255.828 278.948 255.284C279.244 254.732 279.392 253.876 279.392 252.716C279.392 251.556 279.248 250.708 278.96 250.172C278.672 249.636 278.216 249.368 277.592 249.368C276.976 249.368 276.52 249.64 276.224 250.184C275.936 250.72 275.792 251.564 275.792 252.716C275.792 253.876 275.936 254.732 276.224 255.284C276.52 255.828 276.976 256.1 277.592 256.1ZM287.632 255.98V257H282.64V255.98H284.512V249.932L282.771 251.012V249.872L285.04 248.456H285.76V255.98H287.632ZM293.243 252.608C293.739 252.752 294.119 253 294.383 253.352C294.647 253.704 294.779 254.148 294.779 254.684C294.779 255.428 294.515 256.016 293.987 256.448C293.467 256.872 292.759 257.084 291.863 257.084C291.295 257.084 290.751 256.996 290.231 256.82C289.719 256.636 289.291 256.38 288.947 256.052L289.391 255.14C290.159 255.764 290.971 256.076 291.827 256.076C292.995 256.076 293.579 255.584 293.579 254.6C293.579 254.12 293.427 253.764 293.123 253.532C292.819 253.292 292.359 253.172 291.743 253.172H290.699V252.164H291.551C292.143 252.164 292.595 252.04 292.907 251.792C293.219 251.544 293.375 251.184 293.375 250.712C293.375 250.28 293.243 249.948 292.979 249.716C292.723 249.484 292.359 249.368 291.887 249.368C291.087 249.368 290.295 249.68 289.511 250.304L289.067 249.392C289.403 249.072 289.827 248.82 290.339 248.636C290.859 248.452 291.395 248.36 291.947 248.36C292.747 248.36 293.383 248.56 293.855 248.96C294.335 249.352 294.575 249.884 294.575 250.556C294.575 251.044 294.459 251.468 294.227 251.828C293.995 252.188 293.667 252.448 293.243 252.608ZM297.738 255.56V257H296.298V255.56H297.738ZM304.953 248.456V249.38L301.005 257H299.673L303.609 249.476H299.169V248.456H304.953ZM312.508 255.224H311.248V257H310.024V255.224H306.196V254.3L310.252 248.456H311.248V254.228H312.508V255.224ZM310.024 254.228V250.46L307.408 254.228H310.024Z" fill="black"/>
<path d="M274.293 232.656L273.693 232.224L274.857 230.736L273.033 230.196L273.273 229.488L275.037 230.124L274.977 228.252H275.721L275.661 230.136L277.449 229.488L277.677 230.196L275.865 230.736L277.029 232.224L276.417 232.656L275.361 231.084L274.293 232.656ZM279.754 232.656L279.154 232.224L280.318 230.736L278.494 230.196L278.734 229.488L280.498 230.124L280.438 228.252H281.182L281.122 230.136L282.91 229.488L283.138 230.196L281.326 230.736L282.49 232.224L281.878 232.656L280.822 231.084L279.754 232.656ZM288.083 237V229.692H288.383L284.831 234.816L284.843 234.324H290.363V235.14H284.147V234.396L288.263 228.456H289.067V237H288.083ZM294.174 236.556V229.032L294.738 229.32L292.422 230.796V229.848L294.606 228.456H295.17V236.556H294.174ZM292.29 237V236.172H297.054V237H292.29ZM301.681 237.084C301.161 237.084 300.649 236.992 300.145 236.808C299.641 236.616 299.217 236.356 298.873 236.028L299.245 235.272C299.637 235.592 300.033 235.836 300.433 236.004C300.841 236.172 301.257 236.256 301.681 236.256C302.281 236.256 302.749 236.088 303.085 235.752C303.429 235.408 303.601 234.944 303.601 234.36C303.601 233.984 303.525 233.656 303.373 233.376C303.221 233.088 303.005 232.864 302.725 232.704C302.453 232.544 302.129 232.464 301.753 232.464C301.345 232.464 300.977 232.548 300.649 232.716C300.329 232.876 300.045 233.124 299.797 233.46H299.113V228.456H304.237V229.272H300.097V232.728L299.785 232.692C300.017 232.356 300.313 232.096 300.673 231.912C301.041 231.728 301.453 231.636 301.909 231.636C302.453 231.636 302.925 231.752 303.325 231.984C303.725 232.208 304.033 232.524 304.249 232.932C304.465 233.34 304.573 233.812 304.573 234.348C304.573 234.884 304.453 235.36 304.213 235.776C303.981 236.184 303.649 236.504 303.217 236.736C302.785 236.968 302.273 237.084 301.681 237.084ZM309.021 237.096C307.989 237.096 307.193 236.74 306.633 236.028C306.073 235.308 305.793 234.28 305.793 232.944C305.793 231.976 305.921 231.152 306.177 230.472C306.441 229.784 306.817 229.26 307.305 228.9C307.801 228.54 308.393 228.36 309.081 228.36C309.577 228.36 310.057 228.452 310.521 228.636C310.985 228.812 311.397 229.072 311.757 229.416L311.385 230.172C310.985 229.828 310.597 229.58 310.221 229.428C309.853 229.268 309.481 229.188 309.105 229.188C308.369 229.188 307.797 229.516 307.389 230.172C306.981 230.82 306.777 231.74 306.777 232.932V233.964L306.633 233.64C306.697 233.232 306.845 232.88 307.077 232.584C307.309 232.28 307.597 232.048 307.941 231.888C308.293 231.72 308.681 231.636 309.105 231.636C309.633 231.636 310.097 231.752 310.497 231.984C310.897 232.208 311.209 232.524 311.433 232.932C311.657 233.34 311.769 233.812 311.769 234.348C311.769 234.876 311.649 235.348 311.409 235.764C311.177 236.18 310.853 236.508 310.437 236.748C310.029 236.98 309.557 237.096 309.021 237.096ZM308.973 236.268C309.517 236.268 309.957 236.096 310.293 235.752C310.629 235.4 310.797 234.936 310.797 234.36C310.797 233.792 310.629 233.336 310.293 232.992C309.957 232.64 309.513 232.464 308.961 232.464C308.593 232.464 308.265 232.548 307.977 232.716C307.689 232.876 307.465 233.1 307.305 233.388C307.145 233.668 307.065 233.992 307.065 234.36C307.065 234.744 307.145 235.08 307.305 235.368C307.465 235.648 307.689 235.868 307.977 236.028C308.265 236.188 308.597 236.268 308.973 236.268Z" fill="#868B93"/>
<g filter="url(#filter1_d)">
<rect x="73" y="147" width="39.9375" height="40" rx="8.75" fill="white"/>
</g>
<path fill-rule="evenodd" clip-rule="evenodd" d="M86.4721 160V166.986V174L79.875 166.986L86.4721 160Z" fill="#EE353D"/>
<path fill-rule="evenodd" clip-rule="evenodd" d="M86.4723 160H92.9883H99.5584L92.9883 167.043L86.4453 160.029L86.4723 160Z" fill="#EE353D"/>
<path fill-rule="evenodd" clip-rule="evenodd" d="M99.5273 174V166.986V160L106.124 166.986L99.5273 174Z" fill="#EE353D"/>
<path fill-rule="evenodd" clip-rule="evenodd" d="M99.5314 174H93.0154H86.4453L93.0154 166.957L99.5584 173.971L99.5314 174Z" fill="#EE353D"/>
<g filter="url(#filter2_d)">
<rect x="72.9492" y="220" width="39.9375" height="40" rx="8.75" fill="white"/>
</g>
<path fill-rule="evenodd" clip-rule="evenodd" d="M87.9016 244.757L87.864 244.834C87.1115 245.603 86.246 246.025 85.343 246.025C83.4617 246.025 82.1447 244.604 82.1447 242.644C82.1447 240.684 83.4993 239.262 85.343 239.262C86.246 239.262 87.1115 239.685 87.864 240.453L87.9016 240.492L89.1057 238.993L89.0681 238.955C88.0898 237.763 86.8857 237.148 85.4183 237.148C83.9508 237.148 82.5962 237.648 81.618 238.57C80.5644 239.569 80 240.953 80 242.605C80 244.258 80.5644 245.641 81.618 246.64C82.5962 247.563 83.9508 248.062 85.4183 248.062C86.8857 248.062 88.0898 247.486 89.0681 246.256L89.1057 246.218L87.9016 244.757Z" fill="#092769"/>
<path fill-rule="evenodd" clip-rule="evenodd" d="M90.3086 247.87H92.4157V237.302H90.3086V247.87Z" fill="#092769"/>
<path fill-rule="evenodd" clip-rule="evenodd" d="M100.731 245.564C100.167 245.91 99.6399 246.102 99.1507 246.102C98.4734 246.102 98.1724 245.718 98.1724 244.911V239.3H100.317V237.302H98.1724V234.036L96.103 235.189V237.341H94.2969V239.339H96.103V245.295C96.103 246.909 97.0436 248.024 98.4358 248.062C99.3765 248.062 99.9785 247.793 100.317 247.563H100.355L100.882 245.526L100.731 245.564Z" fill="#092769"/>
<path fill-rule="evenodd" clip-rule="evenodd" d="M102.5 247.87H104.607V237.302H102.5V247.87Z" fill="#092769"/>
<path fill-rule="evenodd" clip-rule="evenodd" d="M105.85 235.458C103.893 232.652 100.695 231 97.4216 231C94.1481 231 90.9498 232.652 88.9932 235.458L88.918 235.611H91.3637L91.4013 235.573C93.0569 233.844 95.2393 232.883 97.4592 232.883C99.6792 232.883 101.862 233.805 103.517 235.573L103.555 235.611H106.001L105.85 235.458Z" fill="#FE000C"/>
<rect x="318.566" y="114" width="96.4344" height="96.5854" rx="24" fill="#32353E"/>
<g clip-path="url(#clip0)">
<path d="M346.871 148.854V170.254C346.871 173.614 346.871 175.294 347.525 176.577C348.1 177.706 349.018 178.624 350.147 179.2C351.431 179.854 353.111 179.854 356.471 179.854H377.912C380.153 179.854 381.273 179.854 382.128 179.418C382.881 179.034 383.493 178.422 383.877 177.669C384.312 176.814 384.312 175.694 384.312 173.454V169.854M353.86 151.854H377.912C380.153 151.854 381.273 151.854 382.128 152.289C382.881 152.673 383.493 153.285 383.877 154.038C384.312 154.893 384.312 156.013 384.312 158.254V161.354" stroke="white"/>
<path d="M346.871 148.854C346.871 146.921 348.438 145.354 350.371 145.354H353.859V152.354H350.371C348.438 152.354 346.871 150.787 346.871 148.854Z" stroke="white"/>
<path d="M374.828 165.854C374.828 163.368 376.843 161.354 379.328 161.354H386.309C387.136 161.354 387.806 162.024 387.806 162.85V168.857C387.806 169.683 387.136 170.354 386.309 170.354H379.328C376.843 170.354 374.828 168.339 374.828 165.854Z" stroke="white"/>
<path d="M381.317 165.854H379.32" stroke="white" stroke-miterlimit="10" stroke-linecap="round" stroke-linejoin="round"/>
<path d="M353.859 149.254C353.859 148.125 353.86 147.309 353.912 146.667C353.964 146.031 354.065 145.61 354.241 145.265C354.576 144.606 355.112 144.071 355.77 143.735C356.116 143.559 356.537 143.458 357.173 143.406C357.815 143.354 358.631 143.354 359.759 143.354H372.919C374.047 143.354 374.863 143.354 375.505 143.406C376.141 143.458 376.562 143.559 376.908 143.735C377.566 144.071 378.102 144.606 378.437 145.265C378.613 145.61 378.714 146.031 378.766 146.667C378.818 147.309 378.819 148.125 378.819 149.254V151.863L353.859 152.344V149.254Z" stroke="white"/>
</g>
<defs>
<filter id="filter0_d" x="0" y="0" width="386.523" height="368" filterUnits="userSpaceOnUse" color-interpolation-filters="sRGB">
<feFlood flood-opacity="0" result="BackgroundImageFix"/>
<feColorMatrix in="SourceAlpha" type="matrix" values="0 0 0 0 0 0 0 0 0 0 0 0 0 0 0 0 0 0 127 0"/>
<feOffset/>
<feGaussianBlur stdDeviation="20.5"/>
<feColorMatrix type="matrix" values="0 0 0 0 0 0 0 0 0 0 0 0 0 0 0 0 0 0 0.06 0"/>
<feBlend mode="normal" in2="BackgroundImageFix" result="effect1_dropShadow"/>
<feBlend mode="normal" in="SourceGraphic" in2="effect1_dropShadow" result="shape"/>
</filter>
<filter id="filter1_d" x="41.75" y="122" width="102.437" height="102.5" filterUnits="userSpaceOnUse" color-interpolation-filters="sRGB">
<feFlood flood-opacity="0" result="BackgroundImageFix"/>
<feColorMatrix in="SourceAlpha" type="matrix" values="0 0 0 0 0 0 0 0 0 0 0 0 0 0 0 0 0 0 127 0"/>
<feOffset dy="6.25"/>
<feGaussianBlur stdDeviation="15.625"/>
<feColorMatrix type="matrix" values="0 0 0 0 0.932201 0 0 0 0 0.941456 0 0 0 0 0.955339 0 0 0 1 0"/>
<feBlend mode="normal" in2="BackgroundImageFix" result="effect1_dropShadow"/>
<feBlend mode="normal" in="SourceGraphic" in2="effect1_dropShadow" result="shape"/>
</filter>
<filter id="filter2_d" x="41.6992" y="195" width="102.437" height="102.5" filterUnits="userSpaceOnUse" color-interpolation-filters="sRGB">
<feFlood flood-opacity="0" result="BackgroundImageFix"/>
<feColorMatrix in="SourceAlpha" type="matrix" values="0 0 0 0 0 0 0 0 0 0 0 0 0 0 0 0 0 0 127 0"/>
<feOffset dy="6.25"/>
<feGaussianBlur stdDeviation="15.625"/>
<feColorMatrix type="matrix" values="0 0 0 0 0.932201 0 0 0 0 0.941456 0 0 0 0 0.955339 0 0 0 1 0"/>
<feBlend mode="normal" in2="BackgroundImageFix" result="effect1_dropShadow"/>
<feBlend mode="normal" in="SourceGraphic" in2="effect1_dropShadow" result="shape"/>
</filter>
<clipPath id="clip0">
<rect width="48.2172" height="48.2927" fill="white" transform="translate(342.527 138)"/>
</clipPath>
</defs>
</svg>
