<svg width="590" height="452" viewBox="0 0 590 452" fill="none" xmlns="http://www.w3.org/2000/svg">
<path d="M121.964 355.154C120.471 355.154 119.211 354.659 118.184 353.67C117.157 352.671 116.644 351.402 116.644 349.862C116.644 348.294 117.167 347.006 118.212 345.998C119.257 344.981 120.522 344.472 122.006 344.472C122.949 344.472 123.817 344.682 124.61 345.102C125.403 345.503 126.024 346.049 126.472 346.74L125.436 347.608C124.559 346.423 123.425 345.83 122.034 345.83C120.933 345.83 119.999 346.213 119.234 346.978C118.469 347.743 118.086 348.709 118.086 349.876C118.086 351.015 118.459 351.957 119.206 352.704C119.953 353.441 120.891 353.81 122.02 353.81C122.711 353.81 123.355 353.656 123.952 353.348C124.549 353.04 125.063 352.611 125.492 352.06L126.5 352.914C126.005 353.605 125.357 354.151 124.554 354.552C123.761 354.953 122.897 355.154 121.964 355.154ZM128.605 346.432C128.325 346.432 128.092 346.343 127.905 346.166C127.718 345.979 127.625 345.746 127.625 345.466C127.625 345.195 127.718 344.971 127.905 344.794C128.092 344.617 128.325 344.528 128.605 344.528C128.866 344.528 129.09 344.621 129.277 344.808C129.464 344.985 129.557 345.205 129.557 345.466C129.557 345.746 129.464 345.979 129.277 346.166C129.09 346.343 128.866 346.432 128.605 346.432ZM129.249 347.496V355H127.905V347.496H129.249ZM135.733 353.516L136.237 354.552C135.695 354.972 135.028 355.182 134.235 355.182C133.451 355.182 132.853 354.939 132.443 354.454C132.041 353.969 131.841 353.273 131.841 352.368V348.644H130.511V347.496H131.855V344.836H133.171V347.496H135.831V348.644H133.171V352.466C133.171 353.455 133.577 353.95 134.389 353.95C134.827 353.95 135.275 353.805 135.733 353.516ZM138.011 346.432C137.731 346.432 137.498 346.343 137.311 346.166C137.125 345.979 137.031 345.746 137.031 345.466C137.031 345.195 137.125 344.971 137.311 344.794C137.498 344.617 137.731 344.528 138.011 344.528C138.273 344.528 138.497 344.621 138.683 344.808C138.87 344.985 138.963 345.205 138.963 345.466C138.963 345.746 138.87 345.979 138.683 346.166C138.497 346.343 138.273 346.432 138.011 346.432ZM138.655 347.496V355H137.311V347.496H138.655ZM149.998 349.344C150.614 349.512 151.09 349.843 151.426 350.338C151.771 350.823 151.944 351.388 151.944 352.032C151.944 352.844 151.659 353.539 151.09 354.118C150.53 354.706 149.746 355 148.738 355H144.468V344.654H148.556C149.452 344.654 150.147 344.915 150.642 345.438C151.146 345.951 151.398 346.553 151.398 347.244C151.398 347.72 151.272 348.149 151.02 348.532C150.768 348.915 150.427 349.185 149.998 349.344ZM148.374 345.956H145.854V348.84H148.332C148.827 348.84 149.223 348.695 149.522 348.406C149.821 348.107 149.97 347.748 149.97 347.328C149.97 346.945 149.821 346.623 149.522 346.362C149.233 346.091 148.85 345.956 148.374 345.956ZM145.854 353.684H148.514C149.13 353.684 149.611 353.511 149.956 353.166C150.32 352.821 150.502 352.41 150.502 351.934C150.502 351.421 150.315 350.991 149.942 350.646C149.578 350.291 149.083 350.114 148.458 350.114H145.854V353.684ZM159.544 348.588V347.496H160.832V355H159.544V353.936C158.872 354.767 157.99 355.182 156.898 355.182C155.816 355.182 154.92 354.799 154.21 354.034C153.501 353.269 153.146 352.321 153.146 351.192C153.146 350.063 153.501 349.139 154.21 348.42C154.92 347.683 155.816 347.314 156.898 347.314C157.962 347.314 158.844 347.739 159.544 348.588ZM159.628 351.234C159.628 350.478 159.39 349.843 158.914 349.33C158.438 348.807 157.818 348.546 157.052 348.546C156.287 348.546 155.671 348.807 155.204 349.33C154.738 349.853 154.504 350.492 154.504 351.248C154.504 352.004 154.738 352.643 155.204 353.166C155.671 353.689 156.287 353.95 157.052 353.95C157.818 353.95 158.438 353.689 158.914 353.166C159.39 352.653 159.628 352.009 159.628 351.234ZM164.263 355H162.919V347.496H164.235V348.56C164.711 347.72 165.504 347.3 166.615 347.3C167.455 347.3 168.159 347.571 168.729 348.112C169.298 348.653 169.583 349.433 169.583 350.45V355H168.253V350.828C168.253 350.109 168.075 349.549 167.721 349.148C167.375 348.747 166.913 348.546 166.335 348.546C165.728 348.546 165.229 348.761 164.837 349.19C164.454 349.629 164.263 350.179 164.263 350.842V355ZM178.223 355H176.459L173.631 351.5L172.917 352.144V355H171.573V344.402H172.917V350.534L176.277 347.496H178.097L174.583 350.646L178.223 355Z" fill="#868B93"/>
<path d="M121.46 377.01L119.36 379.25H123.378V381H116.7V379.418L119.934 375.988C120.093 375.829 120.326 375.582 120.634 375.246C121.101 374.686 121.334 374.168 121.334 373.692C121.334 373.272 121.189 372.931 120.9 372.67C120.611 372.399 120.242 372.264 119.794 372.264C119.038 372.264 118.249 372.647 117.428 373.412L116.392 372.04C117.437 370.995 118.618 370.472 119.934 370.472C120.895 370.472 121.693 370.766 122.328 371.354C122.953 371.942 123.266 372.698 123.266 373.622C123.266 374.593 122.664 375.722 121.46 377.01ZM130.79 376.94H131.91V378.55H130.79V381H128.998V378.55H124.378L124 377.332L129.46 370.654H130.79V376.94ZM128.998 373.524L126.226 376.94H128.998V373.524ZM134.253 379.096C134.589 379.096 134.869 379.217 135.093 379.46C135.317 379.693 135.429 379.992 135.429 380.356C135.429 381.345 134.743 382.279 133.371 383.156L132.825 382.414L133.385 381.966C133.721 381.714 133.968 381.443 134.127 381.154H134.085C133.823 381.154 133.599 381.061 133.413 380.874C133.226 380.678 133.133 380.445 133.133 380.174C133.133 379.866 133.24 379.609 133.455 379.404C133.679 379.199 133.945 379.096 134.253 379.096ZM141.53 377.01L139.43 379.25H143.448V381H136.77V379.418L140.004 375.988C140.163 375.829 140.396 375.582 140.704 375.246C141.171 374.686 141.404 374.168 141.404 373.692C141.404 373.272 141.26 372.931 140.97 372.67C140.681 372.399 140.312 372.264 139.864 372.264C139.108 372.264 138.32 372.647 137.498 373.412L136.462 372.04C137.508 370.995 138.688 370.472 140.004 370.472C140.966 370.472 141.764 370.766 142.398 371.354C143.024 371.942 143.336 372.698 143.336 373.622C143.336 374.593 142.734 375.722 141.53 377.01ZM148.925 381.168C148.001 381.168 147.217 380.911 146.573 380.398C145.929 379.875 145.467 379.222 145.187 378.438C144.907 377.654 144.767 376.781 144.767 375.82C144.767 374.859 144.907 373.986 145.187 373.202C145.467 372.418 145.929 371.769 146.573 371.256C147.217 370.733 148.001 370.472 148.925 370.472C149.485 370.472 149.998 370.57 150.465 370.766C150.932 370.962 151.324 371.228 151.641 371.564C151.958 371.891 152.224 372.283 152.439 372.74C152.663 373.197 152.826 373.683 152.929 374.196C153.032 374.709 153.083 375.251 153.083 375.82C153.083 376.389 153.032 376.931 152.929 377.444C152.826 377.957 152.663 378.443 152.439 378.9C152.224 379.357 151.958 379.754 151.641 380.09C151.324 380.417 150.932 380.678 150.465 380.874C149.998 381.07 149.485 381.168 148.925 381.168ZM148.925 379.376C149.681 379.376 150.241 379.049 150.605 378.396C150.978 377.743 151.165 376.884 151.165 375.82C151.165 374.765 150.978 373.911 150.605 373.258C150.222 372.595 149.662 372.264 148.925 372.264C148.188 372.264 147.628 372.595 147.245 373.258C146.872 373.911 146.685 374.765 146.685 375.82C146.685 376.884 146.872 377.743 147.245 378.396C147.618 379.049 148.178 379.376 148.925 379.376ZM158.523 381.168C157.599 381.168 156.815 380.911 156.171 380.398C155.527 379.875 155.065 379.222 154.785 378.438C154.505 377.654 154.365 376.781 154.365 375.82C154.365 374.859 154.505 373.986 154.785 373.202C155.065 372.418 155.527 371.769 156.171 371.256C156.815 370.733 157.599 370.472 158.523 370.472C159.083 370.472 159.596 370.57 160.063 370.766C160.529 370.962 160.921 371.228 161.239 371.564C161.556 371.891 161.822 372.283 162.037 372.74C162.261 373.197 162.424 373.683 162.527 374.196C162.629 374.709 162.681 375.251 162.681 375.82C162.681 376.389 162.629 376.931 162.527 377.444C162.424 377.957 162.261 378.443 162.037 378.9C161.822 379.357 161.556 379.754 161.239 380.09C160.921 380.417 160.529 380.678 160.063 380.874C159.596 381.07 159.083 381.168 158.523 381.168ZM158.523 379.376C159.279 379.376 159.839 379.049 160.203 378.396C160.576 377.743 160.763 376.884 160.763 375.82C160.763 374.765 160.576 373.911 160.203 373.258C159.82 372.595 159.26 372.264 158.523 372.264C157.785 372.264 157.225 372.595 156.843 373.258C156.469 373.911 156.283 374.765 156.283 375.82C156.283 376.884 156.469 377.743 156.843 378.396C157.216 379.049 157.776 379.376 158.523 379.376ZM175.943 381H173.913L173.059 378.648H169.391L168.537 381H166.507L170.511 370.654H171.981L175.943 381ZM172.513 376.926L171.239 373.384L169.951 376.926H172.513ZM184.138 381H177.264V370.654H184.138V372.446H179.182V374.882H183.76V376.66H179.182V379.208H184.138V381ZM189.989 381H186.083V370.654H190.073C191.603 370.654 192.807 371.121 193.685 372.054C194.562 372.969 195.001 374.233 195.001 375.848C195.001 377.435 194.553 378.69 193.657 379.614C192.779 380.538 191.557 381 189.989 381ZM187.987 372.488V379.166H190.059C190.983 379.166 191.706 378.849 192.229 378.214C192.751 377.579 193.013 376.777 193.013 375.806C193.013 374.854 192.756 374.065 192.243 373.44C191.72 372.805 190.997 372.488 190.073 372.488H187.987Z" fill="#32353E"/>
<g filter="url(#filter0_d)">
<rect x="24" y="329" width="68" height="68" rx="20" fill="white"/>
</g>
<g filter="url(#filter1_d)">
<rect x="24" y="329" width="68" height="68" rx="20" fill="white"/>
</g>
<path fill-rule="evenodd" clip-rule="evenodd" d="M50.5478 369.105L50.4928 369.218C49.393 370.341 48.1282 370.959 46.8085 370.959C44.059 370.959 42.1344 368.881 42.1344 366.016C42.1344 363.152 44.114 361.074 46.8085 361.074C48.1282 361.074 49.393 361.692 50.4928 362.815L50.5478 362.871L52.3074 360.681L52.2524 360.625C50.8227 358.884 49.0631 357.985 46.9185 357.985C44.7739 357.985 42.7943 358.715 41.3645 360.063C39.8248 361.524 39 363.545 39 365.96C39 368.375 39.8248 370.397 41.3645 371.857C42.7943 373.205 44.7739 373.935 46.9185 373.935C49.0631 373.935 50.8227 373.093 52.2524 371.296L52.3074 371.239L50.5478 369.105Z" fill="#092769"/>
<path fill-rule="evenodd" clip-rule="evenodd" d="M54.0664 373.655H57.1458V358.21H54.0664V373.655Z" fill="#092769"/>
<path fill-rule="evenodd" clip-rule="evenodd" d="M69.2977 370.285C68.4729 370.79 67.703 371.071 66.9882 371.071C65.9984 371.071 65.5584 370.51 65.5584 369.33V361.131H68.6928V358.21H65.5584V353.437L62.534 355.121V358.266H59.8945V361.187H62.534V369.892C62.534 372.251 63.9088 373.879 65.9434 373.935C67.3181 373.935 68.1979 373.542 68.6928 373.205H68.7478L69.5177 370.229L69.2977 370.285Z" fill="#092769"/>
<path fill-rule="evenodd" clip-rule="evenodd" d="M71.8828 373.655H74.9622V358.21H71.8828V373.655Z" fill="#092769"/>
<path fill-rule="evenodd" clip-rule="evenodd" d="M76.7765 355.515C73.917 351.415 69.2429 349 64.4588 349C59.6748 349 55.0007 351.415 52.1412 355.515L52.0312 355.739H55.6056L55.6605 355.683C58.0801 353.156 61.2695 351.752 64.5138 351.752C67.7582 351.752 70.9476 353.1 73.3671 355.683L73.4221 355.739H76.9964L76.7765 355.515Z" fill="#FE000C"/>
<path d="M119.906 257.168C119.141 257.168 118.441 256.986 117.806 256.622C117.181 256.249 116.705 255.721 116.378 255.04L117.414 254.186C117.974 255.287 118.8 255.838 119.892 255.838C120.471 255.838 120.933 255.689 121.278 255.39C121.623 255.091 121.796 254.718 121.796 254.27C121.796 253.719 121.437 253.239 120.718 252.828C120.587 252.763 120.233 252.595 119.654 252.324C119.178 252.109 118.791 251.913 118.492 251.736C117.456 251.083 116.938 250.261 116.938 249.272C116.938 248.479 117.223 247.816 117.792 247.284C118.361 246.743 119.117 246.472 120.06 246.472C121.348 246.472 122.361 246.981 123.098 247.998L122.16 248.894C121.6 248.157 120.905 247.788 120.074 247.788C119.598 247.788 119.206 247.919 118.898 248.18C118.59 248.432 118.436 248.768 118.436 249.188C118.436 249.729 118.73 250.173 119.318 250.518C119.561 250.667 119.962 250.873 120.522 251.134C121.11 251.414 121.544 251.633 121.824 251.792C122.823 252.399 123.322 253.201 123.322 254.2C123.322 255.087 122.995 255.801 122.342 256.342C121.689 256.893 120.877 257.168 119.906 257.168ZM132.924 257H131.398L130.348 254.312H126.414L125.364 257H123.838L128.024 246.654H128.78L132.924 257ZM129.872 252.996L128.388 249.09L126.89 252.996H129.872ZM139.936 251.344C140.552 251.512 141.028 251.843 141.364 252.338C141.709 252.823 141.882 253.388 141.882 254.032C141.882 254.844 141.597 255.539 141.028 256.118C140.468 256.706 139.684 257 138.676 257H134.406V246.654H138.494C139.39 246.654 140.085 246.915 140.58 247.438C141.084 247.951 141.336 248.553 141.336 249.244C141.336 249.72 141.21 250.149 140.958 250.532C140.706 250.915 140.365 251.185 139.936 251.344ZM138.312 247.956H135.792V250.84H138.27C138.764 250.84 139.161 250.695 139.46 250.406C139.758 250.107 139.908 249.748 139.908 249.328C139.908 248.945 139.758 248.623 139.46 248.362C139.17 248.091 138.788 247.956 138.312 247.956ZM135.792 255.684H138.452C139.068 255.684 139.548 255.511 139.894 255.166C140.258 254.821 140.44 254.41 140.44 253.934C140.44 253.421 140.253 252.991 139.88 252.646C139.516 252.291 139.021 252.114 138.396 252.114H135.792V255.684ZM149.342 251.344C149.958 251.512 150.434 251.843 150.77 252.338C151.115 252.823 151.288 253.388 151.288 254.032C151.288 254.844 151.003 255.539 150.434 256.118C149.874 256.706 149.09 257 148.082 257H143.812V246.654H147.9C148.796 246.654 149.491 246.915 149.986 247.438C150.49 247.951 150.742 248.553 150.742 249.244C150.742 249.72 150.616 250.149 150.364 250.532C150.112 250.915 149.771 251.185 149.342 251.344ZM147.718 247.956H145.198V250.84H147.676C148.17 250.84 148.567 250.695 148.866 250.406C149.164 250.107 149.314 249.748 149.314 249.328C149.314 248.945 149.164 248.623 148.866 248.362C148.576 248.091 148.194 247.956 147.718 247.956ZM145.198 255.684H147.858C148.474 255.684 148.954 255.511 149.3 255.166C149.664 254.821 149.846 254.41 149.846 253.934C149.846 253.421 149.659 252.991 149.286 252.646C148.922 252.291 148.427 252.114 147.802 252.114H145.198V255.684Z" fill="#868B93"/>
<path d="M120.438 283.168C119.309 283.168 118.385 282.888 117.666 282.328C116.957 281.768 116.602 281.049 116.602 280.172C116.602 279.584 116.779 279.047 117.134 278.562C117.489 278.077 117.965 277.727 118.562 277.512V277.484C118.086 277.26 117.713 276.952 117.442 276.56C117.171 276.168 117.036 275.725 117.036 275.23C117.036 274.427 117.349 273.769 117.974 273.256C118.609 272.733 119.43 272.472 120.438 272.472C121.437 272.472 122.253 272.733 122.888 273.256C123.513 273.769 123.826 274.427 123.826 275.23C123.826 275.725 123.686 276.168 123.406 276.56C123.135 276.952 122.757 277.26 122.272 277.484V277.526C122.879 277.731 123.359 278.077 123.714 278.562C124.078 279.038 124.26 279.575 124.26 280.172C124.26 281.049 123.905 281.768 123.196 282.328C122.487 282.888 121.567 283.168 120.438 283.168ZM121.6 276.42C121.899 276.159 122.048 275.827 122.048 275.426C122.048 275.025 121.899 274.693 121.6 274.432C121.301 274.171 120.914 274.04 120.438 274.04C119.962 274.04 119.57 274.171 119.262 274.432C118.954 274.693 118.8 275.025 118.8 275.426C118.8 275.827 118.949 276.159 119.248 276.42C119.547 276.672 119.939 276.798 120.424 276.798C120.909 276.798 121.301 276.672 121.6 276.42ZM119.052 281.054C119.416 281.343 119.878 281.488 120.438 281.488C120.998 281.488 121.455 281.343 121.81 281.054C122.165 280.755 122.342 280.382 122.342 279.934C122.342 279.486 122.165 279.122 121.81 278.842C121.465 278.553 121.007 278.408 120.438 278.408C119.859 278.408 119.393 278.553 119.038 278.842C118.683 279.122 118.506 279.486 118.506 279.934C118.506 280.382 118.688 280.755 119.052 281.054ZM126.637 281.096C126.973 281.096 127.253 281.217 127.477 281.46C127.701 281.693 127.813 281.992 127.813 282.356C127.813 283.345 127.127 284.279 125.755 285.156L125.209 284.414L125.769 283.966C126.105 283.714 126.353 283.443 126.511 283.154H126.469C126.208 283.154 125.984 283.061 125.797 282.874C125.611 282.678 125.517 282.445 125.517 282.174C125.517 281.866 125.625 281.609 125.839 281.404C126.063 281.199 126.329 281.096 126.637 281.096ZM132.627 276.308C133.626 276.308 134.452 276.621 135.105 277.246C135.777 277.871 136.113 278.679 136.113 279.668C136.113 280.676 135.763 281.511 135.063 282.174C134.354 282.837 133.434 283.168 132.305 283.168C131.073 283.168 129.93 282.781 128.875 282.006L129.645 280.48C130.513 281.096 131.372 281.404 132.221 281.404C132.809 281.404 133.285 281.241 133.649 280.914C134.013 280.587 134.195 280.172 134.195 279.668C134.195 279.183 134.018 278.781 133.663 278.464C133.318 278.137 132.874 277.974 132.333 277.974C131.642 277.974 131.054 278.217 130.569 278.702L129.435 277.834L130.009 272.654H135.413V274.404H131.437L131.171 276.602C131.619 276.406 132.104 276.308 132.627 276.308ZM141.447 283.168C140.523 283.168 139.739 282.911 139.095 282.398C138.451 281.875 137.989 281.222 137.709 280.438C137.429 279.654 137.289 278.781 137.289 277.82C137.289 276.859 137.429 275.986 137.709 275.202C137.989 274.418 138.451 273.769 139.095 273.256C139.739 272.733 140.523 272.472 141.447 272.472C142.007 272.472 142.52 272.57 142.987 272.766C143.453 272.962 143.845 273.228 144.163 273.564C144.48 273.891 144.746 274.283 144.961 274.74C145.185 275.197 145.348 275.683 145.451 276.196C145.553 276.709 145.605 277.251 145.605 277.82C145.605 278.389 145.553 278.931 145.451 279.444C145.348 279.957 145.185 280.443 144.961 280.9C144.746 281.357 144.48 281.754 144.163 282.09C143.845 282.417 143.453 282.678 142.987 282.874C142.52 283.07 142.007 283.168 141.447 283.168ZM141.447 281.376C142.203 281.376 142.763 281.049 143.127 280.396C143.5 279.743 143.687 278.884 143.687 277.82C143.687 276.765 143.5 275.911 143.127 275.258C142.744 274.595 142.184 274.264 141.447 274.264C140.709 274.264 140.149 274.595 139.767 275.258C139.393 275.911 139.207 276.765 139.207 277.82C139.207 278.884 139.393 279.743 139.767 280.396C140.14 281.049 140.7 281.376 141.447 281.376ZM153.116 278.94H154.236V280.55H153.116V283H151.324V280.55H146.704L146.326 279.332L151.786 272.654H153.116V278.94ZM151.324 275.524L148.552 278.94H151.324V275.524ZM167.425 283H165.395L164.541 280.648H160.873L160.019 283H157.989L161.993 272.654H163.463L167.425 283ZM163.995 278.926L162.721 275.384L161.433 278.926H163.995ZM175.621 283H168.747V272.654H175.621V274.446H170.665V276.882H175.243V278.66H170.665V281.208H175.621V283ZM181.471 283H177.565V272.654H181.555C183.086 272.654 184.29 273.121 185.167 274.054C186.044 274.969 186.483 276.233 186.483 277.848C186.483 279.435 186.035 280.69 185.139 281.614C184.262 282.538 183.039 283 181.471 283ZM179.469 274.488V281.166H181.541C182.465 281.166 183.188 280.849 183.711 280.214C184.234 279.579 184.495 278.777 184.495 277.806C184.495 276.854 184.238 276.065 183.725 275.44C183.202 274.805 182.479 274.488 181.555 274.488H179.469Z" fill="#32353E"/>
<g filter="url(#filter2_d)">
<rect x="24" y="231" width="68" height="68" rx="20" fill="white"/>
</g>
<g filter="url(#filter3_d)">
<rect x="24" y="231" width="68" height="68" rx="20" fill="white"/>
</g>
<path fill-rule="evenodd" clip-rule="evenodd" d="M47.0549 253.266V264.976V276.734L35.9961 264.976L47.0549 253.266Z" fill="#EE353D"/>
<path fill-rule="evenodd" clip-rule="evenodd" d="M47.057 253.266H57.9799H68.9933L57.9799 265.072L47.0117 253.314L47.057 253.266Z" fill="#EE353D"/>
<path fill-rule="evenodd" clip-rule="evenodd" d="M68.9375 276.734V264.976V253.266L79.9963 264.976L68.9375 276.734Z" fill="#EE353D"/>
<path fill-rule="evenodd" clip-rule="evenodd" d="M68.948 276.734H58.0252H47.0117L58.0252 264.928L68.9933 276.686L68.948 276.734Z" fill="#EE353D"/>
<g filter="url(#filter4_d)">
<rect x="253" y="198" width="270" height="218" rx="20" fill="#C4C4C4"/>
</g>
<path d="M253 182C253 168.745 263.745 158 277 158L499 158C512.255 158 523 168.745 523 182V397C523 410.255 512.255 421 499 421H277C263.745 421 253 410.255 253 397V182Z" fill="white"/>
<line y1="-0.5" x2="210.002" y2="-0.5" transform="matrix(0.999987 0.00499994 -0.00559886 0.999984 283 337)" stroke="#EDF0F5" stroke-dasharray="10 10"/>
<line x1="283" y1="277.5" x2="493" y2="277.5" stroke="#EDF0F5" stroke-dasharray="10 10"/>
<line x1="283" y1="216.5" x2="493" y2="216.5" stroke="#EDF0F5" stroke-dasharray="10 10"/>
<rect x="465" y="277" width="20" height="60" rx="4" fill="#353FFB"/>
<rect x="437" y="240" width="20" height="97" rx="4" fill="#EEBFCF"/>
<rect x="393" y="255" width="20" height="82" rx="4" fill="#353FFB"/>
<rect x="365" y="282" width="20" height="55" rx="4" fill="#EEBFCF"/>
<rect x="321" y="231" width="20" height="106" rx="4" fill="#353FFB"/>
<rect x="293" y="324" width="20" height="13" rx="4" fill="#EEBFCF"/>
<path d="M453.296 351.32V352H449.968V351.32H451.216V347.288L450.056 348.008V347.248L451.568 346.304H452.048V351.32H453.296ZM457.037 349.072C457.368 349.168 457.621 349.333 457.797 349.568C457.973 349.803 458.061 350.099 458.061 350.456C458.061 350.952 457.885 351.344 457.533 351.632C457.186 351.915 456.714 352.056 456.117 352.056C455.738 352.056 455.376 351.997 455.029 351.88C454.688 351.757 454.402 351.587 454.173 351.368L454.469 350.76C454.981 351.176 455.522 351.384 456.093 351.384C456.872 351.384 457.261 351.056 457.261 350.4C457.261 350.08 457.16 349.843 456.957 349.688C456.754 349.528 456.448 349.448 456.037 349.448H455.341V348.776H455.909C456.304 348.776 456.605 348.693 456.813 348.528C457.021 348.363 457.125 348.123 457.125 347.808C457.125 347.52 457.037 347.299 456.861 347.144C456.69 346.989 456.448 346.912 456.133 346.912C455.6 346.912 455.072 347.12 454.549 347.536L454.253 346.928C454.477 346.715 454.76 346.547 455.101 346.424C455.448 346.301 455.805 346.24 456.173 346.24C456.706 346.24 457.13 346.373 457.445 346.64C457.765 346.901 457.925 347.256 457.925 347.704C457.925 348.029 457.848 348.312 457.693 348.552C457.538 348.792 457.32 348.965 457.037 349.072ZM460.034 351.04V352H459.074V351.04H460.034ZM462.916 352.064C462.254 352.064 461.75 351.816 461.404 351.32C461.057 350.824 460.884 350.101 460.884 349.152C460.884 348.203 461.057 347.48 461.404 346.984C461.75 346.488 462.254 346.24 462.916 346.24C463.577 346.24 464.081 346.488 464.428 346.984C464.774 347.475 464.948 348.195 464.948 349.144C464.948 350.099 464.774 350.824 464.428 351.32C464.081 351.816 463.577 352.064 462.916 352.064ZM462.916 351.4C463.326 351.4 463.628 351.219 463.82 350.856C464.017 350.488 464.116 349.917 464.116 349.144C464.116 348.371 464.02 347.805 463.828 347.448C463.636 347.091 463.332 346.912 462.916 346.912C462.505 346.912 462.201 347.093 462.004 347.456C461.812 347.813 461.716 348.376 461.716 349.144C461.716 349.917 461.812 350.488 462.004 350.856C462.201 351.219 462.505 351.4 462.916 351.4ZM469.881 350.816H469.041V352H468.225V350.816H465.673V350.2L468.377 346.304H469.041V350.152H469.881V350.816ZM468.225 350.152V347.64L466.481 350.152H468.225Z" fill="#C4CAD4"/>
<path d="M382.296 351.32V352H378.968V351.32H380.216V347.288L379.056 348.008V347.248L380.568 346.304H381.048V351.32H382.296ZM387.157 351.32V352H383.421V351.384L385.381 349.232C385.632 348.955 385.813 348.704 385.925 348.48C386.042 348.251 386.101 348.024 386.101 347.8C386.101 347.512 386.018 347.293 385.853 347.144C385.688 346.989 385.448 346.912 385.133 346.912C384.605 346.912 384.077 347.12 383.549 347.536L383.253 346.928C383.477 346.72 383.762 346.555 384.109 346.432C384.456 346.304 384.805 346.24 385.157 346.24C385.701 346.24 386.13 346.376 386.445 346.648C386.765 346.92 386.925 347.288 386.925 347.752C386.925 348.083 386.853 348.397 386.709 348.696C386.565 348.989 386.325 349.317 385.989 349.68L384.469 351.32H387.157ZM389.034 351.04V352H388.074V351.04H389.034ZM391.916 352.064C391.254 352.064 390.75 351.816 390.404 351.32C390.057 350.824 389.884 350.101 389.884 349.152C389.884 348.203 390.057 347.48 390.404 346.984C390.75 346.488 391.254 346.24 391.916 346.24C392.577 346.24 393.081 346.488 393.428 346.984C393.774 347.475 393.948 348.195 393.948 349.144C393.948 350.099 393.774 350.824 393.428 351.32C393.081 351.816 392.577 352.064 391.916 352.064ZM391.916 351.4C392.326 351.4 392.628 351.219 392.82 350.856C393.017 350.488 393.116 349.917 393.116 349.144C393.116 348.371 393.02 347.805 392.828 347.448C392.636 347.091 392.332 346.912 391.916 346.912C391.505 346.912 391.201 347.093 391.004 347.456C390.812 347.813 390.716 348.376 390.716 349.144C390.716 349.917 390.812 350.488 391.004 350.856C391.201 351.219 391.505 351.4 391.916 351.4ZM398.881 350.816H398.041V352H397.225V350.816H394.673V350.2L397.377 346.304H398.041V350.152H398.881V350.816ZM397.225 350.152V347.64L395.481 350.152H397.225Z" fill="#C4CAD4"/>
<path d="M311.296 351.32V352H307.968V351.32H309.216V347.288L308.056 348.008V347.248L309.568 346.304H310.048V351.32H311.296ZM314.197 352.064C313.536 352.064 313.032 351.816 312.685 351.32C312.338 350.824 312.165 350.101 312.165 349.152C312.165 348.203 312.338 347.48 312.685 346.984C313.032 346.488 313.536 346.24 314.197 346.24C314.858 346.24 315.362 346.488 315.709 346.984C316.056 347.475 316.229 348.195 316.229 349.144C316.229 350.099 316.056 350.824 315.709 351.32C315.362 351.816 314.858 352.064 314.197 352.064ZM314.197 351.4C314.608 351.4 314.909 351.219 315.101 350.856C315.298 350.488 315.397 349.917 315.397 349.144C315.397 348.371 315.301 347.805 315.109 347.448C314.917 347.091 314.613 346.912 314.197 346.912C313.786 346.912 313.482 347.093 313.285 347.456C313.093 347.813 312.997 348.376 312.997 349.144C312.997 349.917 313.093 350.488 313.285 350.856C313.482 351.219 313.786 351.4 314.197 351.4ZM318.034 351.04V352H317.074V351.04H318.034ZM320.916 352.064C320.254 352.064 319.75 351.816 319.404 351.32C319.057 350.824 318.884 350.101 318.884 349.152C318.884 348.203 319.057 347.48 319.404 346.984C319.75 346.488 320.254 346.24 320.916 346.24C321.577 346.24 322.081 346.488 322.428 346.984C322.774 347.475 322.948 348.195 322.948 349.144C322.948 350.099 322.774 350.824 322.428 351.32C322.081 351.816 321.577 352.064 320.916 352.064ZM320.916 351.4C321.326 351.4 321.628 351.219 321.82 350.856C322.017 350.488 322.116 349.917 322.116 349.144C322.116 348.371 322.02 347.805 321.828 347.448C321.636 347.091 321.332 346.912 320.916 346.912C320.505 346.912 320.201 347.093 320.004 347.456C319.812 347.813 319.716 348.376 319.716 349.144C319.716 349.917 319.812 350.488 320.004 350.856C320.201 351.219 320.505 351.4 320.916 351.4ZM327.881 350.816H327.041V352H326.225V350.816H323.673V350.2L326.377 346.304H327.041V350.152H327.881V350.816ZM326.225 350.152V347.64L324.481 350.152H326.225Z" fill="#C4CAD4"/>
<rect x="328" y="380" width="10" height="10" rx="4" fill="#EEBFCF"/>
<rect x="402" y="380" width="10" height="10" rx="4" fill="#353FFB"/>
<path d="M346.664 382.304H350.36V382.976H347.48V384.768H350.2V385.44H347.48V387.328H350.36V388H346.664V382.304ZM355.039 388H354.079L352.887 386.512L351.711 388H350.743L352.423 385.928L350.839 383.968H351.807L352.887 385.344L353.975 383.968H354.951L353.367 385.928L355.039 388ZM357.783 383.872C358.129 383.872 358.439 383.96 358.711 384.136C358.983 384.312 359.193 384.56 359.343 384.88C359.497 385.2 359.575 385.568 359.575 385.984C359.575 386.4 359.5 386.765 359.351 387.08C359.201 387.389 358.991 387.629 358.719 387.8C358.447 387.971 358.135 388.056 357.783 388.056C357.473 388.056 357.201 387.992 356.967 387.864C356.737 387.731 356.564 387.541 356.447 387.296V389.728H355.647V385.104C355.647 384.683 355.625 384.304 355.583 383.968H356.335L356.415 384.712C356.521 384.445 356.695 384.24 356.935 384.096C357.175 383.947 357.457 383.872 357.783 383.872ZM357.599 387.416C357.961 387.416 358.244 387.291 358.447 387.04C358.649 386.789 358.751 386.437 358.751 385.984C358.751 385.525 358.649 385.168 358.447 384.912C358.244 384.651 357.961 384.52 357.599 384.52C357.225 384.52 356.94 384.645 356.743 384.896C356.545 385.147 356.447 385.504 356.447 385.968C356.447 386.432 356.545 386.789 356.743 387.04C356.945 387.291 357.231 387.416 357.599 387.416ZM363.962 386H361.082C361.108 386.944 361.538 387.416 362.37 387.416C362.834 387.416 363.258 387.264 363.642 386.96L363.89 387.536C363.708 387.696 363.476 387.824 363.194 387.92C362.916 388.011 362.636 388.056 362.354 388.056C361.708 388.056 361.202 387.872 360.834 387.504C360.466 387.131 360.282 386.621 360.282 385.976C360.282 385.565 360.362 385.2 360.522 384.88C360.687 384.56 360.916 384.312 361.21 384.136C361.503 383.96 361.836 383.872 362.21 383.872C362.754 383.872 363.18 384.048 363.49 384.4C363.804 384.752 363.962 385.24 363.962 385.864V386ZM362.226 384.472C361.922 384.472 361.674 384.563 361.482 384.744C361.29 384.925 361.167 385.184 361.114 385.52H363.25C363.218 385.179 363.114 384.92 362.938 384.744C362.762 384.563 362.524 384.472 362.226 384.472ZM367.033 383.872C367.998 383.872 368.481 384.411 368.481 385.488V388H367.673V385.536C367.673 385.184 367.604 384.928 367.465 384.768C367.332 384.608 367.116 384.528 366.817 384.528C366.476 384.528 366.201 384.635 365.993 384.848C365.79 385.061 365.689 385.347 365.689 385.704V388H364.889V385.104C364.889 384.683 364.868 384.304 364.825 383.968H365.577L365.649 384.664C365.777 384.408 365.961 384.213 366.201 384.08C366.446 383.941 366.724 383.872 367.033 383.872ZM371.383 388.056C370.978 388.056 370.623 387.971 370.319 387.8C370.02 387.629 369.791 387.389 369.631 387.08C369.471 386.765 369.391 386.4 369.391 385.984C369.391 385.568 369.474 385.2 369.639 384.88C369.81 384.56 370.047 384.312 370.351 384.136C370.655 383.96 371.01 383.872 371.415 383.872C371.698 383.872 371.97 383.92 372.231 384.016C372.492 384.107 372.703 384.232 372.863 384.392L372.615 384.976C372.236 384.677 371.855 384.528 371.471 384.528C371.082 384.528 370.778 384.656 370.559 384.912C370.34 385.163 370.231 385.517 370.231 385.976C370.231 386.435 370.34 386.789 370.559 387.04C370.778 387.285 371.082 387.408 371.471 387.408C371.866 387.408 372.247 387.259 372.615 386.96L372.863 387.544C372.692 387.704 372.474 387.829 372.207 387.92C371.946 388.011 371.671 388.056 371.383 388.056ZM377.063 386H374.183C374.21 386.944 374.639 387.416 375.471 387.416C375.935 387.416 376.359 387.264 376.743 386.96L376.991 387.536C376.81 387.696 376.578 387.824 376.295 387.92C376.018 388.011 375.738 388.056 375.455 388.056C374.81 388.056 374.303 387.872 373.935 387.504C373.567 387.131 373.383 386.621 373.383 385.976C373.383 385.565 373.463 385.2 373.623 384.88C373.789 384.56 374.018 384.312 374.311 384.136C374.605 383.96 374.938 383.872 375.311 383.872C375.855 383.872 376.282 384.048 376.591 384.4C376.906 384.752 377.063 385.24 377.063 385.864V386ZM375.327 384.472C375.023 384.472 374.775 384.563 374.583 384.744C374.391 384.925 374.269 385.184 374.215 385.52H376.351C376.319 385.179 376.215 384.92 376.039 384.744C375.863 384.563 375.626 384.472 375.327 384.472Z" fill="#565D67"/>
<path d="M420.664 382.304H421.488V388H420.664V382.304ZM424.884 383.872C425.85 383.872 426.332 384.411 426.332 385.488V388H425.524V385.536C425.524 385.184 425.455 384.928 425.316 384.768C425.183 384.608 424.967 384.528 424.668 384.528C424.327 384.528 424.052 384.635 423.844 384.848C423.642 385.061 423.54 385.347 423.54 385.704V388H422.74V385.104C422.74 384.683 422.719 384.304 422.676 383.968H423.428L423.5 384.664C423.628 384.408 423.812 384.213 424.052 384.08C424.298 383.941 424.575 383.872 424.884 383.872ZM429.235 388.056C428.829 388.056 428.475 387.971 428.171 387.8C427.872 387.629 427.643 387.389 427.483 387.08C427.323 386.765 427.243 386.4 427.243 385.984C427.243 385.568 427.325 385.2 427.491 384.88C427.661 384.56 427.899 384.312 428.203 384.136C428.507 383.96 428.861 383.872 429.267 383.872C429.549 383.872 429.821 383.92 430.083 384.016C430.344 384.107 430.555 384.232 430.715 384.392L430.467 384.976C430.088 384.677 429.707 384.528 429.323 384.528C428.933 384.528 428.629 384.656 428.411 384.912C428.192 385.163 428.083 385.517 428.083 385.976C428.083 386.435 428.192 386.789 428.411 387.04C428.629 387.285 428.933 387.408 429.323 387.408C429.717 387.408 430.099 387.259 430.467 386.96L430.715 387.544C430.544 387.704 430.325 387.829 430.059 387.92C429.797 388.011 429.523 388.056 429.235 388.056ZM433.211 388.056C432.816 388.056 432.469 387.971 432.171 387.8C431.872 387.629 431.64 387.387 431.475 387.072C431.315 386.757 431.235 386.389 431.235 385.968C431.235 385.547 431.315 385.179 431.475 384.864C431.64 384.544 431.872 384.299 432.171 384.128C432.469 383.957 432.816 383.872 433.211 383.872C433.6 383.872 433.944 383.957 434.243 384.128C434.541 384.299 434.771 384.544 434.931 384.864C435.096 385.179 435.179 385.547 435.179 385.968C435.179 386.389 435.096 386.757 434.931 387.072C434.771 387.387 434.541 387.629 434.243 387.8C433.944 387.971 433.6 388.056 433.211 388.056ZM433.203 387.416C433.576 387.416 433.861 387.293 434.059 387.048C434.256 386.803 434.355 386.443 434.355 385.968C434.355 385.504 434.253 385.147 434.051 384.896C433.853 384.645 433.573 384.52 433.211 384.52C432.843 384.52 432.557 384.645 432.355 384.896C432.152 385.147 432.051 385.504 432.051 385.968C432.051 386.443 432.149 386.803 432.347 387.048C432.549 387.293 432.835 387.416 433.203 387.416ZM440.723 383.872C441.619 383.872 442.067 384.411 442.067 385.488V388H441.259V385.528C441.259 385.181 441.198 384.928 441.075 384.768C440.958 384.608 440.766 384.528 440.499 384.528C440.19 384.528 439.945 384.635 439.763 384.848C439.587 385.061 439.499 385.352 439.499 385.72V388H438.691V385.528C438.691 385.181 438.63 384.928 438.507 384.768C438.39 384.608 438.198 384.528 437.931 384.528C437.622 384.528 437.377 384.635 437.195 384.848C437.014 385.061 436.923 385.352 436.923 385.72V388H436.123V385.104C436.123 384.683 436.102 384.304 436.059 383.968H436.811L436.883 384.64C437.001 384.395 437.169 384.205 437.387 384.072C437.606 383.939 437.862 383.872 438.155 383.872C438.779 383.872 439.187 384.131 439.379 384.648C439.502 384.408 439.681 384.219 439.915 384.08C440.155 383.941 440.425 383.872 440.723 383.872ZM446.665 386H443.785C443.811 386.944 444.241 387.416 445.073 387.416C445.537 387.416 445.961 387.264 446.345 386.96L446.593 387.536C446.411 387.696 446.179 387.824 445.897 387.92C445.619 388.011 445.339 388.056 445.057 388.056C444.411 388.056 443.905 387.872 443.537 387.504C443.169 387.131 442.985 386.621 442.985 385.976C442.985 385.565 443.065 385.2 443.225 384.88C443.39 384.56 443.619 384.312 443.913 384.136C444.206 383.96 444.539 383.872 444.913 383.872C445.457 383.872 445.883 384.048 446.193 384.4C446.507 384.752 446.665 385.24 446.665 385.864V386ZM444.929 384.472C444.625 384.472 444.377 384.563 444.185 384.744C443.993 384.925 443.87 385.184 443.817 385.52H445.953C445.921 385.179 445.817 384.92 445.641 384.744C445.465 384.563 445.227 384.472 444.929 384.472Z" fill="#565D67"/>
<g filter="url(#filter5_d)">
<rect x="186" y="60" width="320" height="136" rx="30" fill="white"/>
</g>
<g filter="url(#filter6_d)">
<rect x="218" y="90" width="74" height="74" rx="24" fill="white"/>
</g>
<path d="M255.186 112.536L255 112.461L254.814 112.536L240.814 118.136L240.5 118.261V118.6V121.4V121.9H241H269H269.5V121.4V118.6V118.261L269.186 118.136L255.186 112.536Z" stroke="#353FFB" stroke-miterlimit="10" stroke-linecap="square"/>
<path d="M255.002 118.6C255.775 118.6 256.402 117.973 256.402 117.2C256.402 116.427 255.775 115.8 255.002 115.8C254.228 115.8 253.602 116.427 253.602 117.2C253.602 117.973 254.228 118.6 255.002 118.6Z" fill="white" stroke="#353FFB" stroke-miterlimit="10" stroke-linecap="square"/>
<path d="M269.5 138.2V137.7H269H241H240.5V138.2V141V141.5H241H269H269.5V141V138.2Z" stroke="#353FFB" stroke-miterlimit="10" stroke-linecap="square"/>
<rect x="244.147" y="124.55" width="0.699997" height="10.5" fill="#C4CAD4" stroke="#353FFB" stroke-width="0.699997"/>
<rect x="251.147" y="124.55" width="0.699997" height="10.5" fill="#C4CAD4" stroke="#353FFB" stroke-width="0.699997"/>
<rect x="258.147" y="124.55" width="0.699997" height="10.5" fill="#C4CAD4" stroke="#353FFB" stroke-width="0.699997"/>
<rect x="265.147" y="124.55" width="0.699997" height="10.5" fill="#C4CAD4" stroke="#353FFB" stroke-width="0.699997"/>
<path d="M312.232 120V110.032H316.236C317.244 110.032 318.033 110.261 318.602 110.718C319.171 111.166 319.456 111.805 319.456 112.636C319.456 113.215 319.297 113.705 318.98 114.106C318.672 114.498 318.243 114.778 317.692 114.946V114.834C318.317 114.955 318.807 115.231 319.162 115.66C319.517 116.089 319.694 116.631 319.694 117.284C319.694 118.161 319.405 118.833 318.826 119.3C318.247 119.767 317.431 120 316.376 120H312.232ZM313.366 119.048H316.278C317.062 119.048 317.636 118.903 318 118.614C318.373 118.325 318.56 117.872 318.56 117.256C318.56 116.649 318.373 116.192 318 115.884C317.627 115.576 317.053 115.422 316.278 115.422H313.366V119.048ZM313.366 114.456H316.054C316.81 114.456 317.375 114.307 317.748 114.008C318.131 113.709 318.322 113.271 318.322 112.692C318.322 112.123 318.135 111.698 317.762 111.418C317.389 111.129 316.819 110.984 316.054 110.984H313.366V114.456ZM324.323 120.098C323.698 120.098 323.147 119.953 322.671 119.664C322.205 119.365 321.841 118.945 321.579 118.404C321.327 117.853 321.201 117.209 321.201 116.472C321.201 115.735 321.332 115.091 321.593 114.54C321.855 113.989 322.219 113.56 322.685 113.252C323.161 112.944 323.707 112.79 324.323 112.79C324.967 112.79 325.513 112.949 325.961 113.266C326.409 113.583 326.713 114.036 326.871 114.624L326.703 114.736V112.958H327.823V120H326.703V118.18L326.871 118.264C326.713 118.852 326.409 119.305 325.961 119.622C325.513 119.939 324.967 120.098 324.323 120.098ZM324.547 119.16C325.238 119.16 325.77 118.927 326.143 118.46C326.517 117.984 326.703 117.312 326.703 116.444C326.703 115.576 326.512 114.909 326.129 114.442C325.756 113.975 325.229 113.742 324.547 113.742C323.857 113.742 323.315 113.985 322.923 114.47C322.541 114.946 322.349 115.613 322.349 116.472C322.349 117.331 322.541 117.993 322.923 118.46C323.315 118.927 323.857 119.16 324.547 119.16ZM330.016 120V109.696H331.15V120H330.016ZM336.054 120.098C335.428 120.098 334.878 119.953 334.402 119.664C333.935 119.365 333.571 118.945 333.31 118.404C333.058 117.853 332.932 117.209 332.932 116.472C332.932 115.735 333.062 115.091 333.324 114.54C333.585 113.989 333.949 113.56 334.416 113.252C334.892 112.944 335.438 112.79 336.054 112.79C336.698 112.79 337.244 112.949 337.692 113.266C338.14 113.583 338.443 114.036 338.602 114.624L338.434 114.736V112.958H339.554V120H338.434V118.18L338.602 118.264C338.443 118.852 338.14 119.305 337.692 119.622C337.244 119.939 336.698 120.098 336.054 120.098ZM336.278 119.16C336.968 119.16 337.5 118.927 337.874 118.46C338.247 117.984 338.434 117.312 338.434 116.444C338.434 115.576 338.242 114.909 337.86 114.442C337.486 113.975 336.959 113.742 336.278 113.742C335.587 113.742 335.046 113.985 334.654 114.47C334.271 114.946 334.08 115.613 334.08 116.472C334.08 117.331 334.271 117.993 334.654 118.46C335.046 118.927 335.587 119.16 336.278 119.16ZM341.746 120V114.932C341.746 114.605 341.737 114.279 341.718 113.952C341.709 113.616 341.681 113.285 341.634 112.958H342.712L342.838 114.414L342.698 114.526C342.894 113.957 343.221 113.527 343.678 113.238C344.136 112.939 344.663 112.79 345.26 112.79C346.95 112.79 347.794 113.719 347.794 115.576V120H346.66V115.632C346.66 114.979 346.53 114.503 346.268 114.204C346.007 113.896 345.596 113.742 345.036 113.742C344.383 113.742 343.86 113.943 343.468 114.344C343.076 114.745 342.88 115.287 342.88 115.968V120H341.746ZM352.89 120.098C352.199 120.098 351.602 119.949 351.098 119.65C350.594 119.351 350.202 118.931 349.922 118.39C349.651 117.849 349.516 117.209 349.516 116.472C349.516 115.744 349.656 115.105 349.936 114.554C350.216 113.994 350.612 113.56 351.126 113.252C351.639 112.944 352.246 112.79 352.946 112.79C353.422 112.79 353.879 112.874 354.318 113.042C354.766 113.201 355.134 113.425 355.424 113.714L355.046 114.554C354.7 114.283 354.36 114.083 354.024 113.952C353.697 113.812 353.356 113.742 353.002 113.742C352.292 113.742 351.728 113.98 351.308 114.456C350.897 114.932 350.692 115.604 350.692 116.472C350.692 117.331 350.897 117.993 351.308 118.46C351.718 118.927 352.283 119.16 353.002 119.16C353.347 119.16 353.688 119.095 354.024 118.964C354.36 118.824 354.7 118.619 355.046 118.348L355.424 119.188C355.125 119.468 354.747 119.692 354.29 119.86C353.842 120.019 353.375 120.098 352.89 120.098ZM362.635 119.16C362.327 119.449 361.931 119.678 361.445 119.846C360.969 120.014 360.479 120.098 359.975 120.098C359.247 120.098 358.617 119.953 358.085 119.664C357.563 119.375 357.157 118.959 356.867 118.418C356.587 117.867 356.447 117.214 356.447 116.458C356.447 115.73 356.587 115.091 356.867 114.54C357.147 113.989 357.535 113.56 358.029 113.252C358.533 112.944 359.112 112.79 359.765 112.79C360.391 112.79 360.927 112.93 361.375 113.21C361.823 113.481 362.164 113.873 362.397 114.386C362.64 114.899 362.761 115.515 362.761 116.234V116.444H357.441V115.702H362.117L361.753 116.22C361.772 115.399 361.609 114.769 361.263 114.33C360.927 113.891 360.433 113.672 359.779 113.672C359.098 113.672 358.561 113.915 358.169 114.4C357.787 114.876 357.595 115.539 357.595 116.388C357.595 117.303 357.796 117.993 358.197 118.46C358.608 118.927 359.205 119.16 359.989 119.16C360.4 119.16 360.792 119.095 361.165 118.964C361.548 118.824 361.912 118.614 362.257 118.334L362.635 119.16Z" fill="#ADB0B9"/>
<path d="M407.525 141.536H402.485L401.421 144H399.951L404.389 134.032H405.607L410.059 144H408.589L407.525 141.536ZM407.035 140.388L405.005 135.642L402.975 140.388H407.035ZM411.35 134.032H417.818V135.208H412.778V138.344H417.538V139.52H412.778V142.824H417.818V144H411.35V134.032ZM419.621 134.032H423.107C424.722 134.032 425.972 134.466 426.859 135.334C427.746 136.202 428.189 137.425 428.189 139.002C428.189 140.589 427.746 141.821 426.859 142.698C425.972 143.566 424.722 144 423.107 144H419.621V134.032ZM423.023 142.796C425.478 142.796 426.705 141.531 426.705 139.002C426.705 136.491 425.478 135.236 423.023 135.236H421.063V142.796H423.023Z" fill="black" fill-opacity="0.23"/>
<path d="M312.611 144V142.884L317.093 137.916C317.693 137.244 318.131 136.638 318.407 136.098C318.683 135.558 318.821 135.018 318.821 134.478C318.821 133.77 318.617 133.23 318.209 132.858C317.801 132.474 317.219 132.282 316.463 132.282C315.839 132.282 315.227 132.408 314.627 132.66C314.027 132.9 313.427 133.266 312.827 133.758L312.269 132.624C312.773 132.144 313.409 131.76 314.177 131.472C314.945 131.184 315.719 131.04 316.499 131.04C317.279 131.04 317.951 131.178 318.515 131.454C319.091 131.718 319.535 132.102 319.847 132.606C320.159 133.11 320.315 133.71 320.315 134.406C320.315 135.138 320.147 135.846 319.811 136.53C319.487 137.202 318.941 137.958 318.173 138.798L313.853 143.478L313.745 142.758H320.855V144H312.611ZM327.724 144.144C326.176 144.144 324.982 143.61 324.142 142.542C323.302 141.462 322.882 139.92 322.882 137.916C322.882 136.464 323.074 135.228 323.458 134.208C323.854 133.176 324.418 132.39 325.15 131.85C325.894 131.31 326.782 131.04 327.814 131.04C328.558 131.04 329.278 131.178 329.974 131.454C330.67 131.718 331.288 132.108 331.828 132.624L331.27 133.758C330.67 133.242 330.088 132.87 329.524 132.642C328.972 132.402 328.414 132.282 327.85 132.282C326.746 132.282 325.888 132.774 325.276 133.758C324.664 134.73 324.358 136.11 324.358 137.898V139.446L324.142 138.96C324.238 138.348 324.46 137.82 324.808 137.376C325.156 136.92 325.588 136.572 326.104 136.332C326.632 136.08 327.214 135.954 327.85 135.954C328.642 135.954 329.338 136.128 329.938 136.476C330.538 136.812 331.006 137.286 331.342 137.898C331.678 138.51 331.846 139.218 331.846 140.022C331.846 140.814 331.666 141.522 331.306 142.146C330.958 142.77 330.472 143.262 329.848 143.622C329.236 143.97 328.528 144.144 327.724 144.144ZM327.652 142.902C328.468 142.902 329.128 142.644 329.632 142.128C330.136 141.6 330.388 140.904 330.388 140.04C330.388 139.188 330.136 138.504 329.632 137.988C329.128 137.46 328.462 137.196 327.634 137.196C327.082 137.196 326.59 137.322 326.158 137.574C325.726 137.814 325.39 138.15 325.15 138.582C324.91 139.002 324.79 139.488 324.79 140.04C324.79 140.616 324.91 141.12 325.15 141.552C325.39 141.972 325.726 142.302 326.158 142.542C326.59 142.782 327.088 142.902 327.652 142.902ZM334.611 146.07L333.927 145.548C334.251 145.2 334.467 144.882 334.575 144.594C334.683 144.306 334.737 144.012 334.737 143.712L335.169 144H333.855V142.146H335.709V143.46C335.709 143.94 335.625 144.39 335.457 144.81C335.301 145.242 335.019 145.662 334.611 146.07ZM342.269 144.126C341.333 144.126 340.523 143.988 339.839 143.712C339.155 143.424 338.621 143.016 338.237 142.488C337.865 141.96 337.679 141.33 337.679 140.598C337.679 139.71 337.979 138.972 338.579 138.384C339.179 137.796 339.983 137.43 340.991 137.286L340.901 137.556C339.965 137.376 339.239 137.01 338.723 136.458C338.219 135.906 337.967 135.234 337.967 134.442C337.967 133.746 338.147 133.146 338.507 132.642C338.879 132.126 339.383 131.73 340.019 131.454C340.667 131.178 341.417 131.04 342.269 131.04C343.121 131.04 343.865 131.178 344.501 131.454C345.149 131.73 345.653 132.126 346.013 132.642C346.385 133.146 346.571 133.746 346.571 134.442C346.571 135.234 346.313 135.912 345.797 136.476C345.293 137.028 344.579 137.388 343.655 137.556L343.547 137.286C344.591 137.43 345.401 137.802 345.977 138.402C346.565 138.99 346.859 139.722 346.859 140.598C346.859 141.33 346.667 141.96 346.283 142.488C345.911 143.016 345.383 143.424 344.699 143.712C344.015 143.988 343.205 144.126 342.269 144.126ZM342.269 142.902C343.277 142.902 344.051 142.698 344.591 142.29C345.131 141.882 345.401 141.288 345.401 140.508C345.401 139.776 345.107 139.206 344.519 138.798C343.931 138.378 343.181 138.12 342.269 138.024C341.357 138.12 340.607 138.378 340.019 138.798C339.431 139.206 339.137 139.776 339.137 140.508C339.137 141.288 339.407 141.882 339.947 142.29C340.487 142.698 341.261 142.902 342.269 142.902ZM342.269 136.998C343.109 136.902 343.787 136.644 344.303 136.224C344.831 135.804 345.095 135.246 345.095 134.55C345.095 133.83 344.843 133.272 344.339 132.876C343.847 132.468 343.157 132.264 342.269 132.264C341.381 132.264 340.685 132.468 340.181 132.876C339.689 133.272 339.443 133.83 339.443 134.55C339.443 135.246 339.701 135.804 340.217 136.224C340.745 136.644 341.429 136.902 342.269 136.998ZM352.666 131.04C354.214 131.04 355.408 131.58 356.248 132.66C357.088 133.728 357.508 135.264 357.508 137.268C357.508 138.72 357.31 139.962 356.914 140.994C356.53 142.014 355.966 142.794 355.222 143.334C354.49 143.874 353.602 144.144 352.558 144.144C351.826 144.144 351.106 144.012 350.398 143.748C349.702 143.472 349.084 143.076 348.544 142.56L349.12 141.426C349.732 141.942 350.314 142.32 350.866 142.56C351.418 142.788 351.976 142.902 352.54 142.902C353.644 142.902 354.496 142.416 355.096 141.444C355.708 140.46 356.014 139.074 356.014 137.286V135.738L356.248 136.206C356.152 136.83 355.93 137.37 355.582 137.826C355.234 138.27 354.796 138.618 354.268 138.87C353.74 139.11 353.158 139.23 352.522 139.23C351.742 139.23 351.052 139.062 350.452 138.726C349.852 138.378 349.384 137.898 349.048 137.286C348.712 136.674 348.544 135.966 348.544 135.162C348.544 134.37 348.718 133.662 349.066 133.038C349.426 132.414 349.918 131.928 350.542 131.58C351.166 131.22 351.874 131.04 352.666 131.04ZM352.738 132.282C351.91 132.282 351.244 132.546 350.74 133.074C350.248 133.59 350.002 134.28 350.002 135.144C350.002 135.996 350.254 136.686 350.758 137.214C351.262 137.73 351.928 137.988 352.756 137.988C353.308 137.988 353.8 137.868 354.232 137.628C354.664 137.376 355 137.04 355.24 136.62C355.48 136.188 355.6 135.696 355.6 135.144C355.6 134.568 355.48 134.07 355.24 133.65C355 133.218 354.664 132.882 354.232 132.642C353.8 132.402 353.302 132.282 352.738 132.282ZM365.241 144V133.038H365.691L360.363 140.724L360.381 139.986H368.661V141.21H359.337V140.094L365.511 131.184H366.717V144H365.241ZM370.4 142.146H372.254V144H370.4V142.146ZM378.418 131.04C379.966 131.04 381.16 131.58 382 132.66C382.84 133.728 383.26 135.264 383.26 137.268C383.26 138.72 383.062 139.962 382.666 140.994C382.282 142.014 381.718 142.794 380.974 143.334C380.242 143.874 379.354 144.144 378.31 144.144C377.578 144.144 376.858 144.012 376.15 143.748C375.454 143.472 374.836 143.076 374.296 142.56L374.872 141.426C375.484 141.942 376.066 142.32 376.618 142.56C377.17 142.788 377.728 142.902 378.292 142.902C379.396 142.902 380.248 142.416 380.848 141.444C381.46 140.46 381.766 139.074 381.766 137.286V135.738L382 136.206C381.904 136.83 381.682 137.37 381.334 137.826C380.986 138.27 380.548 138.618 380.02 138.87C379.492 139.11 378.91 139.23 378.274 139.23C377.494 139.23 376.804 139.062 376.204 138.726C375.604 138.378 375.136 137.898 374.8 137.286C374.464 136.674 374.296 135.966 374.296 135.162C374.296 134.37 374.47 133.662 374.818 133.038C375.178 132.414 375.67 131.928 376.294 131.58C376.918 131.22 377.626 131.04 378.418 131.04ZM378.49 132.282C377.662 132.282 376.996 132.546 376.492 133.074C376 133.59 375.754 134.28 375.754 135.144C375.754 135.996 376.006 136.686 376.51 137.214C377.014 137.73 377.68 137.988 378.508 137.988C379.06 137.988 379.552 137.868 379.984 137.628C380.416 137.376 380.752 137.04 380.992 136.62C381.232 136.188 381.352 135.696 381.352 135.144C381.352 134.568 381.232 134.07 380.992 133.65C380.752 133.218 380.416 132.882 379.984 132.642C379.552 132.402 379.054 132.282 378.49 132.282ZM390.993 144V133.038H391.443L386.115 140.724L386.133 139.986H394.413V141.21H385.089V140.094L391.263 131.184H392.469V144H390.993Z" fill="black"/>
<rect x="486" y="141" width="96" height="96" rx="24" fill="#32353E"/>
<path d="M555 204.88C555 202.355 553.432 200.099 551.057 199.24C547.566 197.978 541.81 196.5 534 196.5C526.19 196.5 520.434 197.978 516.944 199.24C514.568 200.099 513 202.354 513 204.88V211.5H555V204.88Z" stroke="white" stroke-miterlimit="10" stroke-linecap="square"/>
<path d="M534 190.5C528.201 190.5 523.5 185.799 523.5 180V177C523.5 171.201 528.201 166.5 534 166.5C539.799 166.5 544.5 171.201 544.5 177V180C544.5 185.799 539.799 190.5 534 190.5Z" stroke="white" stroke-miterlimit="10" stroke-linecap="square"/>
<defs>
<filter id="filter0_d" x="4" y="315" width="108" height="108" filterUnits="userSpaceOnUse" color-interpolation-filters="sRGB">
<feFlood flood-opacity="0" result="BackgroundImageFix"/>
<feColorMatrix in="SourceAlpha" type="matrix" values="0 0 0 0 0 0 0 0 0 0 0 0 0 0 0 0 0 0 127 0"/>
<feOffset dy="6"/>
<feGaussianBlur stdDeviation="10"/>
<feColorMatrix type="matrix" values="0 0 0 0 0.910278 0 0 0 0 0.919017 0 0 0 0 0.941667 0 0 0 0.6 0"/>
<feBlend mode="normal" in2="BackgroundImageFix" result="effect1_dropShadow"/>
<feBlend mode="normal" in="SourceGraphic" in2="effect1_dropShadow" result="shape"/>
</filter>
<filter id="filter1_d" x="0" y="311" width="116" height="116" filterUnits="userSpaceOnUse" color-interpolation-filters="sRGB">
<feFlood flood-opacity="0" result="BackgroundImageFix"/>
<feColorMatrix in="SourceAlpha" type="matrix" values="0 0 0 0 0 0 0 0 0 0 0 0 0 0 0 0 0 0 127 0"/>
<feOffset dy="6"/>
<feGaussianBlur stdDeviation="12"/>
<feColorMatrix type="matrix" values="0 0 0 0 0.34 0 0 0 0 0.403111 0 0 0 0 0.566667 0 0 0 0.03 0"/>
<feBlend mode="normal" in2="BackgroundImageFix" result="effect1_dropShadow"/>
<feBlend mode="normal" in="SourceGraphic" in2="effect1_dropShadow" result="shape"/>
</filter>
<filter id="filter2_d" x="4" y="217" width="108" height="108" filterUnits="userSpaceOnUse" color-interpolation-filters="sRGB">
<feFlood flood-opacity="0" result="BackgroundImageFix"/>
<feColorMatrix in="SourceAlpha" type="matrix" values="0 0 0 0 0 0 0 0 0 0 0 0 0 0 0 0 0 0 127 0"/>
<feOffset dy="6"/>
<feGaussianBlur stdDeviation="10"/>
<feColorMatrix type="matrix" values="0 0 0 0 0.910278 0 0 0 0 0.919017 0 0 0 0 0.941667 0 0 0 0.6 0"/>
<feBlend mode="normal" in2="BackgroundImageFix" result="effect1_dropShadow"/>
<feBlend mode="normal" in="SourceGraphic" in2="effect1_dropShadow" result="shape"/>
</filter>
<filter id="filter3_d" x="0" y="213" width="116" height="116" filterUnits="userSpaceOnUse" color-interpolation-filters="sRGB">
<feFlood flood-opacity="0" result="BackgroundImageFix"/>
<feColorMatrix in="SourceAlpha" type="matrix" values="0 0 0 0 0 0 0 0 0 0 0 0 0 0 0 0 0 0 127 0"/>
<feOffset dy="6"/>
<feGaussianBlur stdDeviation="12"/>
<feColorMatrix type="matrix" values="0 0 0 0 0.34 0 0 0 0 0.403111 0 0 0 0 0.566667 0 0 0 0.03 0"/>
<feBlend mode="normal" in2="BackgroundImageFix" result="effect1_dropShadow"/>
<feBlend mode="normal" in="SourceGraphic" in2="effect1_dropShadow" result="shape"/>
</filter>
<filter id="filter4_d" x="223" y="174" width="330" height="278" filterUnits="userSpaceOnUse" color-interpolation-filters="sRGB">
<feFlood flood-opacity="0" result="BackgroundImageFix"/>
<feColorMatrix in="SourceAlpha" type="matrix" values="0 0 0 0 0 0 0 0 0 0 0 0 0 0 0 0 0 0 127 0"/>
<feOffset dy="6"/>
<feGaussianBlur stdDeviation="15"/>
<feColorMatrix type="matrix" values="0 0 0 0 0 0 0 0 0 0.0846354 0 0 0 0 0.270833 0 0 0 0.06 0"/>
<feBlend mode="normal" in2="BackgroundImageFix" result="effect1_dropShadow"/>
<feBlend mode="normal" in="SourceGraphic" in2="effect1_dropShadow" result="shape"/>
</filter>
<filter id="filter5_d" x="102" y="0" width="488" height="304" filterUnits="userSpaceOnUse" color-interpolation-filters="sRGB">
<feFlood flood-opacity="0" result="BackgroundImageFix"/>
<feColorMatrix in="SourceAlpha" type="matrix" values="0 0 0 0 0 0 0 0 0 0 0 0 0 0 0 0 0 0 127 0"/>
<feOffset dy="24"/>
<feGaussianBlur stdDeviation="42"/>
<feColorMatrix type="matrix" values="0 0 0 0 0.263333 0 0 0 0 0.277817 0 0 0 0 0.329167 0 0 0 0.1 0"/>
<feBlend mode="normal" in2="BackgroundImageFix" result="effect1_dropShadow"/>
<feBlend mode="normal" in="SourceGraphic" in2="effect1_dropShadow" result="shape"/>
</filter>
<filter id="filter6_d" x="168" y="50" width="174" height="174" filterUnits="userSpaceOnUse" color-interpolation-filters="sRGB">
<feFlood flood-opacity="0" result="BackgroundImageFix"/>
<feColorMatrix in="SourceAlpha" type="matrix" values="0 0 0 0 0 0 0 0 0 0 0 0 0 0 0 0 0 0 127 0"/>
<feOffset dy="10"/>
<feGaussianBlur stdDeviation="25"/>
<feColorMatrix type="matrix" values="0 0 0 0 0.932201 0 0 0 0 0.941456 0 0 0 0 0.955339 0 0 0 1 0"/>
<feBlend mode="normal" in2="BackgroundImageFix" result="effect1_dropShadow"/>
<feBlend mode="normal" in="SourceGraphic" in2="effect1_dropShadow" result="shape"/>
</filter>
</defs>
</svg>
