<svg width="488" height="467" viewBox="0 0 488 467" fill="none" xmlns="http://www.w3.org/2000/svg">
<g filter="url(#filter0_d)">
<rect x="84" y="60" width="320" height="299" rx="30" fill="white"/>
</g>
<mask id="mask0" mask-type="alpha" maskUnits="userSpaceOnUse" x="84" y="60" width="320" height="299">
<rect x="84" y="60" width="320" height="299" rx="30" fill="white"/>
</mask>
<g mask="url(#mask0)">
<path d="M300.298 311.52H304.512V312.92H300.298V311.52ZM313.157 314.53V316H306.465V314.67L309.853 311.016C310.254 310.577 310.548 310.176 310.735 309.812C310.921 309.448 311.015 309.089 311.015 308.734C311.015 308.277 310.879 307.931 310.609 307.698C310.347 307.465 309.969 307.348 309.475 307.348C308.597 307.348 307.697 307.693 306.773 308.384L306.171 307.068C306.563 306.713 307.067 306.433 307.683 306.228C308.299 306.013 308.919 305.906 309.545 305.906C310.543 305.906 311.332 306.153 311.911 306.648C312.499 307.133 312.793 307.791 312.793 308.622C312.793 309.191 312.667 309.728 312.415 310.232C312.172 310.736 311.761 311.301 311.183 311.926L308.733 314.53H313.157ZM321.593 314.53V316H315.447V314.53H317.631V308.104L315.601 309.322V307.712L318.373 306.032H319.423V314.53H321.593ZM329.945 306.032V307.376L325.423 316H323.491L327.999 307.502H323.001V306.032H329.945ZM342.21 313.662H337.338L336.33 316H334.51L339.018 306.032H340.488L345.01 316H343.204L342.21 313.662ZM341.608 312.262L339.774 307.992L337.94 312.262H341.608ZM346.088 306.032H352.752V307.46H347.852V310.218H352.458V311.646H347.852V314.572H352.752V316H346.088V306.032ZM354.414 306.032H358.082C359.715 306.032 360.98 306.466 361.876 307.334C362.781 308.202 363.234 309.425 363.234 311.002C363.234 312.589 362.781 313.821 361.876 314.698C360.98 315.566 359.715 316 358.082 316H354.414V306.032ZM357.97 314.53C360.266 314.53 361.414 313.354 361.414 311.002C361.414 308.669 360.266 307.502 357.97 307.502H356.22V314.53H357.97Z" fill="#C4C4C4"/>
<path d="M188.156 315H186.63L185.384 311.682C185.253 311.327 185.062 311.085 184.81 310.954C184.558 310.814 184.213 310.744 183.774 310.744H181.59V315H180.162V305.032H184.264C185.356 305.032 186.191 305.275 186.77 305.76C187.358 306.245 187.652 306.941 187.652 307.846C187.652 308.499 187.479 309.055 187.134 309.512C186.789 309.969 186.299 310.291 185.664 310.478C186.243 310.581 186.663 310.991 186.924 311.71L188.156 315ZM184.096 309.582C184.824 309.582 185.365 309.442 185.72 309.162C186.075 308.873 186.252 308.443 186.252 307.874C186.252 307.305 186.075 306.885 185.72 306.614C185.375 306.334 184.833 306.194 184.096 306.194H181.59V309.582H184.096ZM195.818 311.5H190.778C190.824 313.152 191.576 313.978 193.032 313.978C193.844 313.978 194.586 313.712 195.258 313.18L195.692 314.188C195.374 314.468 194.968 314.692 194.474 314.86C193.988 315.019 193.498 315.098 193.004 315.098C191.874 315.098 190.988 314.776 190.344 314.132C189.7 313.479 189.378 312.587 189.378 311.458C189.378 310.739 189.518 310.1 189.798 309.54C190.087 308.98 190.488 308.546 191.002 308.238C191.515 307.93 192.098 307.776 192.752 307.776C193.704 307.776 194.45 308.084 194.992 308.7C195.542 309.316 195.818 310.17 195.818 311.262V311.5ZM192.78 308.826C192.248 308.826 191.814 308.985 191.478 309.302C191.142 309.619 190.927 310.072 190.834 310.66H194.572C194.516 310.063 194.334 309.61 194.026 309.302C193.718 308.985 193.302 308.826 192.78 308.826ZM199.904 315.098C198.672 315.098 197.702 314.799 196.992 314.202L197.412 313.18C198.15 313.74 198.994 314.02 199.946 314.02C200.432 314.02 200.8 313.941 201.052 313.782C201.304 313.614 201.43 313.381 201.43 313.082C201.43 312.83 201.342 312.634 201.164 312.494C200.996 312.345 200.707 312.219 200.296 312.116L199.12 311.836C198.504 311.705 198.033 311.477 197.706 311.15C197.389 310.814 197.23 310.399 197.23 309.904C197.23 309.269 197.482 308.756 197.986 308.364C198.5 307.972 199.176 307.776 200.016 307.776C200.52 307.776 200.996 307.855 201.444 308.014C201.902 308.173 202.289 308.397 202.606 308.686L202.172 309.68C201.491 309.139 200.772 308.868 200.016 308.868C199.559 308.868 199.204 308.957 198.952 309.134C198.7 309.302 198.574 309.54 198.574 309.848C198.574 310.091 198.654 310.287 198.812 310.436C198.971 310.585 199.223 310.702 199.568 310.786L200.772 311.08C201.444 311.229 201.939 311.467 202.256 311.794C202.583 312.111 202.746 312.527 202.746 313.04C202.746 313.675 202.49 314.179 201.976 314.552C201.472 314.916 200.782 315.098 199.904 315.098ZM206.179 309.036V312.578C206.179 313.063 206.281 313.409 206.487 313.614C206.701 313.81 206.995 313.908 207.369 313.908C207.611 313.908 207.859 313.871 208.111 313.796V314.944C207.803 315.047 207.453 315.098 207.061 315.098C206.333 315.098 205.768 314.893 205.367 314.482C204.965 314.071 204.765 313.474 204.765 312.69V309.036H203.393V307.944H204.765V306.18L206.179 305.69V307.944H208.125V309.036H206.179ZM215.885 307.944V315H214.485V313.796C214.279 314.216 213.971 314.538 213.561 314.762C213.159 314.986 212.688 315.098 212.147 315.098C211.521 315.098 210.971 314.949 210.495 314.65C210.028 314.351 209.664 313.931 209.403 313.39C209.141 312.839 209.011 312.2 209.011 311.472C209.011 310.744 209.141 310.1 209.403 309.54C209.673 308.98 210.047 308.546 210.523 308.238C210.999 307.93 211.54 307.776 212.147 307.776C212.688 307.776 213.159 307.893 213.561 308.126C213.962 308.35 214.27 308.672 214.485 309.092V307.944H215.885ZM212.483 313.978C213.117 313.978 213.607 313.759 213.953 313.32C214.307 312.872 214.485 312.247 214.485 311.444C214.485 310.632 214.307 310.007 213.953 309.568C213.607 309.129 213.113 308.91 212.469 308.91C211.834 308.91 211.335 309.139 210.971 309.596C210.616 310.044 210.439 310.669 210.439 311.472C210.439 312.265 210.616 312.881 210.971 313.32C211.335 313.759 211.839 313.978 212.483 313.978ZM224.094 307.944V315H222.722V313.824C222.498 314.235 222.19 314.552 221.798 314.776C221.406 314.991 220.962 315.098 220.468 315.098C218.769 315.098 217.92 314.155 217.92 312.27V307.944H219.32V312.256C219.32 312.835 219.436 313.264 219.67 313.544C219.912 313.815 220.276 313.95 220.762 313.95C221.34 313.95 221.802 313.763 222.148 313.39C222.502 313.017 222.68 312.522 222.68 311.906V307.944H224.094ZM229.679 307.776C229.894 307.776 230.118 307.809 230.351 307.874L230.323 309.162C230.071 309.069 229.796 309.022 229.497 309.022C228.853 309.022 228.368 309.218 228.041 309.61C227.724 309.993 227.565 310.478 227.565 311.066V315H226.165V309.932C226.165 309.195 226.128 308.532 226.053 307.944H227.369L227.495 309.218C227.682 308.751 227.971 308.397 228.363 308.154C228.755 307.902 229.194 307.776 229.679 307.776ZM237.746 307.944V315H236.346V313.796C236.141 314.216 235.833 314.538 235.422 314.762C235.021 314.986 234.549 315.098 234.008 315.098C233.383 315.098 232.832 314.949 232.356 314.65C231.889 314.351 231.525 313.931 231.264 313.39C231.003 312.839 230.872 312.2 230.872 311.472C230.872 310.744 231.003 310.1 231.264 309.54C231.535 308.98 231.908 308.546 232.384 308.238C232.86 307.93 233.401 307.776 234.008 307.776C234.549 307.776 235.021 307.893 235.422 308.126C235.823 308.35 236.131 308.672 236.346 309.092V307.944H237.746ZM234.344 313.978C234.979 313.978 235.469 313.759 235.814 313.32C236.169 312.872 236.346 312.247 236.346 311.444C236.346 310.632 236.169 310.007 235.814 309.568C235.469 309.129 234.974 308.91 234.33 308.91C233.695 308.91 233.196 309.139 232.832 309.596C232.477 310.044 232.3 310.669 232.3 311.472C232.3 312.265 232.477 312.881 232.832 313.32C233.196 313.759 233.7 313.978 234.344 313.978ZM243.575 307.776C245.264 307.776 246.109 308.719 246.109 310.604V315H244.695V310.688C244.695 310.072 244.574 309.624 244.331 309.344C244.098 309.064 243.72 308.924 243.197 308.924C242.6 308.924 242.119 309.111 241.755 309.484C241.4 309.857 241.223 310.357 241.223 310.982V315H239.823V309.932C239.823 309.195 239.786 308.532 239.711 307.944H241.027L241.153 309.162C241.377 308.714 241.699 308.373 242.119 308.14C242.548 307.897 243.034 307.776 243.575 307.776ZM249.956 309.036V312.578C249.956 313.063 250.059 313.409 250.264 313.614C250.479 313.81 250.773 313.908 251.146 313.908C251.389 313.908 251.636 313.871 251.888 313.796V314.944C251.58 315.047 251.23 315.098 250.838 315.098C250.11 315.098 249.545 314.893 249.144 314.482C248.743 314.071 248.542 313.474 248.542 312.69V309.036H247.17V307.944H248.542V306.18L249.956 305.69V307.944H251.902V309.036H249.956Z" fill="black"/>
<g filter="url(#filter1_d)">
<rect x="124" y="286" width="46" height="46" rx="14" fill="white"/>
</g>
<path d="M142 311.5H152" stroke="#C4CAD4" stroke-miterlimit="10" stroke-linecap="square"/>
<path d="M147 319V311.5" stroke="#C4CAD4" stroke-miterlimit="10" stroke-linecap="square"/>
<path d="M137.5 315V319" stroke="#C4CAD4" stroke-miterlimit="10" stroke-linecap="square"/>
<path d="M136.5 309L137.5 315H143V319" stroke="#C4CAD4" stroke-miterlimit="10" stroke-linecap="square"/>
<path d="M156.5 315V319" stroke="#C4CAD4" stroke-miterlimit="10" stroke-linecap="square"/>
<path d="M157.5 309L156.5 315H151V319" stroke="#C4CAD4" stroke-miterlimit="10" stroke-linecap="square"/>
<path d="M157 304C155.836 302.448 154.326 301.188 152.59 300.32C150.854 299.452 148.941 299 147 299C145.059 299 143.146 299.452 141.41 300.32C139.674 301.188 138.164 302.448 137 304H157Z" stroke="#C4CAD4" stroke-miterlimit="10"/>
<path d="M147 304V308" stroke="#C4CAD4" stroke-miterlimit="10"/>
</g>
<path d="M127.64 208V199.012H124.168V198.032H132.274V199.012H128.802V208H127.64ZM132.447 208V202.932C132.447 202.605 132.438 202.279 132.419 201.952C132.41 201.616 132.382 201.285 132.335 200.958H133.413L133.567 202.694L133.413 202.652C133.544 202.036 133.824 201.574 134.253 201.266C134.692 200.949 135.182 200.79 135.723 200.79C135.845 200.79 135.957 200.799 136.059 200.818C136.171 200.827 136.274 200.846 136.367 200.874L136.339 201.91C136.125 201.835 135.877 201.798 135.597 201.798C135.112 201.798 134.72 201.905 134.421 202.12C134.132 202.335 133.917 202.61 133.777 202.946C133.647 203.273 133.581 203.618 133.581 203.982V208H132.447ZM140.085 208.098C139.46 208.098 138.909 207.953 138.433 207.664C137.966 207.365 137.602 206.945 137.341 206.404C137.089 205.853 136.963 205.209 136.963 204.472C136.963 203.735 137.094 203.091 137.355 202.54C137.616 201.989 137.98 201.56 138.447 201.252C138.923 200.944 139.469 200.79 140.085 200.79C140.729 200.79 141.275 200.949 141.723 201.266C142.171 201.583 142.474 202.036 142.633 202.624L142.465 202.736V200.958H143.585V208H142.465V206.18L142.633 206.264C142.474 206.852 142.171 207.305 141.723 207.622C141.275 207.939 140.729 208.098 140.085 208.098ZM140.309 207.16C141 207.16 141.532 206.927 141.905 206.46C142.278 205.984 142.465 205.312 142.465 204.444C142.465 203.576 142.274 202.909 141.891 202.442C141.518 201.975 140.99 201.742 140.309 201.742C139.618 201.742 139.077 201.985 138.685 202.47C138.302 202.946 138.111 203.613 138.111 204.472C138.111 205.331 138.302 205.993 138.685 206.46C139.077 206.927 139.618 207.16 140.309 207.16ZM145.778 208V202.932C145.778 202.605 145.768 202.279 145.75 201.952C145.74 201.616 145.712 201.285 145.666 200.958H146.744L146.87 202.414L146.73 202.526C146.926 201.957 147.252 201.527 147.71 201.238C148.167 200.939 148.694 200.79 149.292 200.79C150.981 200.79 151.826 201.719 151.826 203.576V208H150.692V203.632C150.692 202.979 150.561 202.503 150.3 202.204C150.038 201.896 149.628 201.742 149.068 201.742C148.414 201.742 147.892 201.943 147.5 202.344C147.108 202.745 146.912 203.287 146.912 203.968V208H145.778ZM156.347 208.098C155.162 208.098 154.224 207.795 153.533 207.188L153.911 206.348C154.284 206.637 154.667 206.852 155.059 206.992C155.46 207.123 155.904 207.188 156.389 207.188C156.921 207.188 157.322 207.099 157.593 206.922C157.873 206.735 158.013 206.469 158.013 206.124C158.013 205.844 157.92 205.625 157.733 205.466C157.546 205.298 157.238 205.163 156.809 205.06L155.619 204.78C155.031 204.649 154.574 204.416 154.247 204.08C153.93 203.744 153.771 203.343 153.771 202.876C153.771 202.465 153.883 202.106 154.107 201.798C154.331 201.481 154.644 201.233 155.045 201.056C155.446 200.879 155.922 200.79 156.473 200.79C156.968 200.79 157.434 200.869 157.873 201.028C158.312 201.187 158.68 201.415 158.979 201.714L158.601 202.54C158.265 202.26 157.92 202.055 157.565 201.924C157.22 201.784 156.856 201.714 156.473 201.714C155.969 201.714 155.577 201.812 155.297 202.008C155.026 202.204 154.891 202.47 154.891 202.806C154.891 203.095 154.975 203.324 155.143 203.492C155.32 203.66 155.6 203.791 155.983 203.884L157.173 204.178C157.836 204.318 158.321 204.551 158.629 204.878C158.946 205.195 159.105 205.601 159.105 206.096C159.105 206.703 158.858 207.188 158.363 207.552C157.868 207.916 157.196 208.098 156.347 208.098ZM163.614 208.098C162.989 208.098 162.438 207.953 161.962 207.664C161.496 207.365 161.132 206.945 160.87 206.404C160.618 205.853 160.492 205.209 160.492 204.472C160.492 203.735 160.623 203.091 160.884 202.54C161.146 201.989 161.51 201.56 161.976 201.252C162.452 200.944 162.998 200.79 163.614 200.79C164.258 200.79 164.804 200.949 165.252 201.266C165.7 201.583 166.004 202.036 166.162 202.624L165.994 202.736V200.958H167.114V208H165.994V206.18L166.162 206.264C166.004 206.852 165.7 207.305 165.252 207.622C164.804 207.939 164.258 208.098 163.614 208.098ZM163.838 207.16C164.529 207.16 165.061 206.927 165.434 206.46C165.808 205.984 165.994 205.312 165.994 204.444C165.994 203.576 165.803 202.909 165.42 202.442C165.047 201.975 164.52 201.742 163.838 201.742C163.148 201.742 162.606 201.985 162.214 202.47C161.832 202.946 161.64 203.613 161.64 204.472C161.64 205.331 161.832 205.993 162.214 206.46C162.606 206.927 163.148 207.16 163.838 207.16ZM172.261 208.098C171.57 208.098 170.973 207.949 170.469 207.65C169.965 207.351 169.573 206.931 169.293 206.39C169.022 205.849 168.887 205.209 168.887 204.472C168.887 203.744 169.027 203.105 169.307 202.554C169.587 201.994 169.984 201.56 170.497 201.252C171.01 200.944 171.617 200.79 172.317 200.79C172.793 200.79 173.25 200.874 173.689 201.042C174.137 201.201 174.506 201.425 174.795 201.714L174.417 202.554C174.072 202.283 173.731 202.083 173.395 201.952C173.068 201.812 172.728 201.742 172.373 201.742C171.664 201.742 171.099 201.98 170.679 202.456C170.268 202.932 170.063 203.604 170.063 204.472C170.063 205.331 170.268 205.993 170.679 206.46C171.09 206.927 171.654 207.16 172.373 207.16C172.718 207.16 173.059 207.095 173.395 206.964C173.731 206.824 174.072 206.619 174.417 206.348L174.795 207.188C174.496 207.468 174.118 207.692 173.661 207.86C173.213 208.019 172.746 208.098 172.261 208.098ZM175.258 201.854V200.958H179.78V201.854H175.258ZM179.752 206.992V207.958C179.593 208.005 179.435 208.037 179.276 208.056C179.127 208.084 178.959 208.098 178.772 208.098C178.119 208.098 177.596 207.911 177.204 207.538C176.821 207.165 176.63 206.605 176.63 205.858V199.152L177.764 198.746V205.704C177.764 206.077 177.815 206.367 177.918 206.572C178.03 206.777 178.179 206.922 178.366 207.006C178.553 207.081 178.763 207.118 178.996 207.118C179.136 207.118 179.262 207.109 179.374 207.09C179.486 207.071 179.612 207.039 179.752 206.992ZM181.147 208V200.958H182.281V208H181.147ZM181.035 197.976H182.421V199.264H181.035V197.976ZM187.395 208.098C186.723 208.098 186.135 207.949 185.631 207.65C185.136 207.351 184.749 206.931 184.469 206.39C184.198 205.839 184.063 205.191 184.063 204.444C184.063 203.707 184.198 203.063 184.469 202.512C184.749 201.961 185.136 201.537 185.631 201.238C186.135 200.939 186.723 200.79 187.395 200.79C188.067 200.79 188.65 200.939 189.145 201.238C189.649 201.537 190.036 201.961 190.307 202.512C190.587 203.063 190.727 203.707 190.727 204.444C190.727 205.191 190.587 205.839 190.307 206.39C190.036 206.931 189.649 207.351 189.145 207.65C188.65 207.949 188.067 208.098 187.395 208.098ZM187.395 207.16C188.085 207.16 188.617 206.931 188.991 206.474C189.373 206.007 189.565 205.331 189.565 204.444C189.565 203.576 189.373 202.909 188.991 202.442C188.608 201.975 188.076 201.742 187.395 201.742C186.713 201.742 186.177 201.975 185.785 202.442C185.402 202.909 185.211 203.576 185.211 204.444C185.211 205.331 185.397 206.007 185.771 206.474C186.153 206.931 186.695 207.16 187.395 207.16ZM192.494 208V202.932C192.494 202.605 192.485 202.279 192.466 201.952C192.457 201.616 192.429 201.285 192.382 200.958H193.46L193.586 202.414L193.446 202.526C193.642 201.957 193.969 201.527 194.426 201.238C194.884 200.939 195.411 200.79 196.008 200.79C197.698 200.79 198.542 201.719 198.542 203.576V208H197.408V203.632C197.408 202.979 197.278 202.503 197.016 202.204C196.755 201.896 196.344 201.742 195.784 201.742C195.131 201.742 194.608 201.943 194.216 202.344C193.824 202.745 193.628 203.287 193.628 203.968V208H192.494ZM203.064 208.098C201.878 208.098 200.94 207.795 200.25 207.188L200.628 206.348C201.001 206.637 201.384 206.852 201.776 206.992C202.177 207.123 202.62 207.188 203.106 207.188C203.638 207.188 204.039 207.099 204.31 206.922C204.59 206.735 204.73 206.469 204.73 206.124C204.73 205.844 204.636 205.625 204.45 205.466C204.263 205.298 203.955 205.163 203.526 205.06L202.336 204.78C201.748 204.649 201.29 204.416 200.964 204.08C200.646 203.744 200.488 203.343 200.488 202.876C200.488 202.465 200.6 202.106 200.824 201.798C201.048 201.481 201.36 201.233 201.762 201.056C202.163 200.879 202.639 200.79 203.19 200.79C203.684 200.79 204.151 200.869 204.59 201.028C205.028 201.187 205.397 201.415 205.696 201.714L205.318 202.54C204.982 202.26 204.636 202.055 204.282 201.924C203.936 201.784 203.572 201.714 203.19 201.714C202.686 201.714 202.294 201.812 202.014 202.008C201.743 202.204 201.608 202.47 201.608 202.806C201.608 203.095 201.692 203.324 201.86 203.492C202.037 203.66 202.317 203.791 202.7 203.884L203.89 204.178C204.552 204.318 205.038 204.551 205.346 204.878C205.663 205.195 205.822 205.601 205.822 206.096C205.822 206.703 205.574 207.188 205.08 207.552C204.585 207.916 203.913 208.098 203.064 208.098Z" fill="black"/>
<g filter="url(#filter2_d)">
<rect x="124" y="87" width="74" height="74" rx="24" fill="white"/>
</g>
<path d="M161.186 109.536L161 109.461L160.814 109.536L146.814 115.136L146.5 115.261V115.6V118.4V118.9H147H175H175.5V118.4V115.6V115.261L175.186 115.136L161.186 109.536Z" stroke="#353FFB" stroke-miterlimit="10" stroke-linecap="square"/>
<path d="M161.001 115.6C161.775 115.6 162.401 114.973 162.401 114.2C162.401 113.427 161.775 112.8 161.001 112.8C160.228 112.8 159.601 113.427 159.601 114.2C159.601 114.973 160.228 115.6 161.001 115.6Z" fill="white" stroke="#353FFB" stroke-miterlimit="10" stroke-linecap="square"/>
<path d="M175.5 135.2V134.7H175H147H146.5V135.2V138V138.5H147H175H175.5V138V135.2Z" stroke="#353FFB" stroke-miterlimit="10" stroke-linecap="square"/>
<rect x="150.147" y="121.55" width="0.699997" height="10.5" fill="#C4CAD4" stroke="#353FFB" stroke-width="0.699997"/>
<rect x="157.147" y="121.55" width="0.699997" height="10.5" fill="#C4CAD4" stroke="#353FFB" stroke-width="0.699997"/>
<rect x="164.147" y="121.55" width="0.699997" height="10.5" fill="#C4CAD4" stroke="#353FFB" stroke-width="0.699997"/>
<rect x="171.147" y="121.55" width="0.699997" height="10.5" fill="#C4CAD4" stroke="#353FFB" stroke-width="0.699997"/>
<path d="M308.706 251.52H312.92V252.92H308.706V251.52ZM318.611 249.63C319.236 249.63 319.787 249.765 320.263 250.036C320.739 250.297 321.108 250.671 321.369 251.156C321.63 251.632 321.761 252.183 321.761 252.808C321.761 253.461 321.612 254.04 321.313 254.544C321.014 255.039 320.585 255.426 320.025 255.706C319.465 255.977 318.816 256.112 318.079 256.112C317.454 256.112 316.838 256.009 316.231 255.804C315.624 255.589 315.125 255.305 314.733 254.95L315.335 253.634C316.24 254.325 317.164 254.67 318.107 254.67C318.732 254.67 319.208 254.516 319.535 254.208C319.871 253.891 320.039 253.443 320.039 252.864C320.039 252.313 319.866 251.875 319.521 251.548C319.185 251.212 318.732 251.044 318.163 251.044C317.771 251.044 317.402 251.119 317.057 251.268C316.712 251.408 316.408 251.618 316.147 251.898H315.055V246.032H321.299V247.432H316.819V250.148C317.323 249.803 317.92 249.63 318.611 249.63ZM328.013 250.876C328.601 251.035 329.049 251.324 329.357 251.744C329.675 252.164 329.833 252.682 329.833 253.298C329.833 254.166 329.511 254.852 328.867 255.356C328.233 255.86 327.374 256.112 326.291 256.112C325.619 256.112 324.971 256.009 324.345 255.804C323.729 255.599 323.221 255.314 322.819 254.95L323.435 253.634C324.322 254.325 325.251 254.67 326.221 254.67C326.856 254.67 327.327 254.544 327.635 254.292C327.953 254.04 328.111 253.657 328.111 253.144C328.111 252.64 327.953 252.271 327.635 252.038C327.318 251.795 326.828 251.674 326.165 251.674H324.849V250.232H325.927C327.215 250.232 327.859 249.742 327.859 248.762C327.859 248.305 327.719 247.955 327.439 247.712C327.159 247.469 326.767 247.348 326.263 247.348C325.367 247.348 324.471 247.693 323.575 248.384L322.973 247.068C323.375 246.713 323.879 246.433 324.485 246.228C325.101 246.013 325.731 245.906 326.375 245.906C327.355 245.906 328.135 246.149 328.713 246.634C329.301 247.11 329.595 247.749 329.595 248.552C329.586 249.103 329.441 249.583 329.161 249.994C328.891 250.395 328.508 250.689 328.013 250.876ZM342.21 253.662H337.338L336.33 256H334.51L339.018 246.032H340.488L345.01 256H343.204L342.21 253.662ZM341.608 252.262L339.774 247.992L337.94 252.262H341.608ZM346.088 246.032H352.752V247.46H347.852V250.218H352.458V251.646H347.852V254.572H352.752V256H346.088V246.032ZM354.414 246.032H358.082C359.715 246.032 360.98 246.466 361.876 247.334C362.781 248.202 363.234 249.425 363.234 251.002C363.234 252.589 362.781 253.821 361.876 254.698C360.98 255.566 359.715 256 358.082 256H354.414V246.032ZM357.97 254.53C360.266 254.53 361.414 253.354 361.414 251.002C361.414 248.669 360.266 247.502 357.97 247.502H356.22V254.53H357.97Z" fill="#C4C4C4"/>
<path d="M183.542 246.236H180.168V245.032H188.372V246.236H184.998V255H183.542V246.236ZM194.941 247.944V255H193.541V253.796C193.336 254.216 193.028 254.538 192.617 254.762C192.216 254.986 191.745 255.098 191.203 255.098C190.578 255.098 190.027 254.949 189.551 254.65C189.085 254.351 188.721 253.931 188.459 253.39C188.198 252.839 188.067 252.2 188.067 251.472C188.067 250.744 188.198 250.1 188.459 249.54C188.73 248.98 189.103 248.546 189.579 248.238C190.055 247.93 190.597 247.776 191.203 247.776C191.745 247.776 192.216 247.893 192.617 248.126C193.019 248.35 193.327 248.672 193.541 249.092V247.944H194.941ZM191.539 253.978C192.174 253.978 192.664 253.759 193.009 253.32C193.364 252.872 193.541 252.247 193.541 251.444C193.541 250.632 193.364 250.007 193.009 249.568C192.664 249.129 192.169 248.91 191.525 248.91C190.891 248.91 190.391 249.139 190.027 249.596C189.673 250.044 189.495 250.669 189.495 251.472C189.495 252.265 189.673 252.881 190.027 253.32C190.391 253.759 190.895 253.978 191.539 253.978ZM203.528 255H201.848L199.762 252.396L197.704 255H196.01L198.95 251.374L196.178 247.944H197.872L199.762 250.352L201.666 247.944H203.374L200.602 251.374L203.528 255ZM204.593 247.944H205.993V255H204.593V247.944ZM206.105 244.864V246.348H204.467V244.864H206.105Z" fill="black"/>
<g filter="url(#filter3_d)">
<rect x="125" y="226" width="46" height="46" rx="14" fill="white"/>
</g>
<path d="M145 239.5V238H151V239.5" stroke="#C4CAD4" stroke-miterlimit="10" stroke-linecap="square"/>
<path d="M157 249L156.122 242.859C156.052 242.366 155.63 242 155.132 242H140.867C140.37 242 139.948 242.366 139.878 242.859L139 249" stroke="#C8CED7" stroke-miterlimit="10"/>
<path d="M142.5 257V260H138V257" stroke="#C4CAD4" stroke-miterlimit="10" stroke-linecap="square"/>
<path d="M158 257V260H153.5V257" stroke="#C4CAD4" stroke-miterlimit="10" stroke-linecap="square"/>
<path d="M159 257H137V251.828C137 251.298 137.21 250.789 137.586 250.414L139 249H157L158.414 250.414C158.789 250.789 159 251.298 159 251.828V257Z" stroke="#C8CED7" stroke-miterlimit="10" stroke-linecap="square"/>
<path d="M141 254.5C141.828 254.5 142.5 253.828 142.5 253C142.5 252.172 141.828 251.5 141 251.5C140.172 251.5 139.5 252.172 139.5 253C139.5 253.828 140.172 254.5 141 254.5Z" stroke="#C4CAD4" stroke-miterlimit="10" stroke-linecap="square"/>
<path d="M155 254.5C155.828 254.5 156.5 253.828 156.5 253C156.5 252.172 155.828 251.5 155 251.5C154.172 251.5 153.5 252.172 153.5 253C153.5 253.828 154.172 254.5 155 254.5Z" stroke="#C4CAD4" stroke-miterlimit="10" stroke-linecap="square"/>
<path d="M146.5 253H149.5" stroke="#C4CAD4" stroke-miterlimit="10" stroke-linecap="square"/>
<path d="M218.232 117V107.032H222.236C223.244 107.032 224.033 107.261 224.602 107.718C225.171 108.166 225.456 108.805 225.456 109.636C225.456 110.215 225.297 110.705 224.98 111.106C224.672 111.498 224.243 111.778 223.692 111.946V111.834C224.317 111.955 224.807 112.231 225.162 112.66C225.517 113.089 225.694 113.631 225.694 114.284C225.694 115.161 225.405 115.833 224.826 116.3C224.247 116.767 223.431 117 222.376 117H218.232ZM219.366 116.048H222.278C223.062 116.048 223.636 115.903 224 115.614C224.373 115.325 224.56 114.872 224.56 114.256C224.56 113.649 224.373 113.192 224 112.884C223.627 112.576 223.053 112.422 222.278 112.422H219.366V116.048ZM219.366 111.456H222.054C222.81 111.456 223.375 111.307 223.748 111.008C224.131 110.709 224.322 110.271 224.322 109.692C224.322 109.123 224.135 108.698 223.762 108.418C223.389 108.129 222.819 107.984 222.054 107.984H219.366V111.456ZM230.323 117.098C229.698 117.098 229.147 116.953 228.671 116.664C228.205 116.365 227.841 115.945 227.579 115.404C227.327 114.853 227.201 114.209 227.201 113.472C227.201 112.735 227.332 112.091 227.593 111.54C227.855 110.989 228.219 110.56 228.685 110.252C229.161 109.944 229.707 109.79 230.323 109.79C230.967 109.79 231.513 109.949 231.961 110.266C232.409 110.583 232.713 111.036 232.871 111.624L232.703 111.736V109.958H233.823V117H232.703V115.18L232.871 115.264C232.713 115.852 232.409 116.305 231.961 116.622C231.513 116.939 230.967 117.098 230.323 117.098ZM230.547 116.16C231.238 116.16 231.77 115.927 232.143 115.46C232.517 114.984 232.703 114.312 232.703 113.444C232.703 112.576 232.512 111.909 232.129 111.442C231.756 110.975 231.229 110.742 230.547 110.742C229.857 110.742 229.315 110.985 228.923 111.47C228.541 111.946 228.349 112.613 228.349 113.472C228.349 114.331 228.541 114.993 228.923 115.46C229.315 115.927 229.857 116.16 230.547 116.16ZM236.016 117V106.696H237.15V117H236.016ZM242.054 117.098C241.428 117.098 240.878 116.953 240.402 116.664C239.935 116.365 239.571 115.945 239.31 115.404C239.058 114.853 238.932 114.209 238.932 113.472C238.932 112.735 239.062 112.091 239.324 111.54C239.585 110.989 239.949 110.56 240.416 110.252C240.892 109.944 241.438 109.79 242.054 109.79C242.698 109.79 243.244 109.949 243.692 110.266C244.14 110.583 244.443 111.036 244.602 111.624L244.434 111.736V109.958H245.554V117H244.434V115.18L244.602 115.264C244.443 115.852 244.14 116.305 243.692 116.622C243.244 116.939 242.698 117.098 242.054 117.098ZM242.278 116.16C242.968 116.16 243.5 115.927 243.874 115.46C244.247 114.984 244.434 114.312 244.434 113.444C244.434 112.576 244.242 111.909 243.86 111.442C243.486 110.975 242.959 110.742 242.278 110.742C241.587 110.742 241.046 110.985 240.654 111.47C240.271 111.946 240.08 112.613 240.08 113.472C240.08 114.331 240.271 114.993 240.654 115.46C241.046 115.927 241.587 116.16 242.278 116.16ZM247.746 117V111.932C247.746 111.605 247.737 111.279 247.718 110.952C247.709 110.616 247.681 110.285 247.634 109.958H248.712L248.838 111.414L248.698 111.526C248.894 110.957 249.221 110.527 249.678 110.238C250.136 109.939 250.663 109.79 251.26 109.79C252.95 109.79 253.794 110.719 253.794 112.576V117H252.66V112.632C252.66 111.979 252.53 111.503 252.268 111.204C252.007 110.896 251.596 110.742 251.036 110.742C250.383 110.742 249.86 110.943 249.468 111.344C249.076 111.745 248.88 112.287 248.88 112.968V117H247.746ZM258.89 117.098C258.199 117.098 257.602 116.949 257.098 116.65C256.594 116.351 256.202 115.931 255.922 115.39C255.651 114.849 255.516 114.209 255.516 113.472C255.516 112.744 255.656 112.105 255.936 111.554C256.216 110.994 256.612 110.56 257.126 110.252C257.639 109.944 258.246 109.79 258.946 109.79C259.422 109.79 259.879 109.874 260.318 110.042C260.766 110.201 261.134 110.425 261.424 110.714L261.046 111.554C260.7 111.283 260.36 111.083 260.024 110.952C259.697 110.812 259.356 110.742 259.002 110.742C258.292 110.742 257.728 110.98 257.308 111.456C256.897 111.932 256.692 112.604 256.692 113.472C256.692 114.331 256.897 114.993 257.308 115.46C257.718 115.927 258.283 116.16 259.002 116.16C259.347 116.16 259.688 116.095 260.024 115.964C260.36 115.824 260.7 115.619 261.046 115.348L261.424 116.188C261.125 116.468 260.747 116.692 260.29 116.86C259.842 117.019 259.375 117.098 258.89 117.098ZM268.635 116.16C268.327 116.449 267.931 116.678 267.445 116.846C266.969 117.014 266.479 117.098 265.975 117.098C265.247 117.098 264.617 116.953 264.085 116.664C263.563 116.375 263.157 115.959 262.867 115.418C262.587 114.867 262.447 114.214 262.447 113.458C262.447 112.73 262.587 112.091 262.867 111.54C263.147 110.989 263.535 110.56 264.029 110.252C264.533 109.944 265.112 109.79 265.765 109.79C266.391 109.79 266.927 109.93 267.375 110.21C267.823 110.481 268.164 110.873 268.397 111.386C268.64 111.899 268.761 112.515 268.761 113.234V113.444H263.441V112.702H268.117L267.753 113.22C267.772 112.399 267.609 111.769 267.263 111.33C266.927 110.891 266.433 110.672 265.779 110.672C265.098 110.672 264.561 110.915 264.169 111.4C263.787 111.876 263.595 112.539 263.595 113.388C263.595 114.303 263.796 114.993 264.197 115.46C264.608 115.927 265.205 116.16 265.989 116.16C266.4 116.16 266.792 116.095 267.165 115.964C267.548 115.824 267.912 115.614 268.257 115.334L268.635 116.16Z" fill="#ADB0B9"/>
<path d="M314.589 141L313.525 138.536H308.485L307.421 141H305.951L310.389 131.032H311.607L316.059 141H314.589ZM308.975 137.388H313.035L311.005 132.642L308.975 137.388ZM317.35 141V131.032H323.818V132.208H318.778V135.344H323.538V136.52H318.778V139.824H323.818V141H317.35ZM325.621 131.032H329.107C330.722 131.032 331.972 131.466 332.859 132.334C333.746 133.202 334.189 134.425 334.189 136.002C334.189 137.589 333.746 138.821 332.859 139.698C331.972 140.566 330.722 141 329.107 141H325.621V131.032ZM329.023 139.796C331.478 139.796 332.705 138.531 332.705 136.002C332.705 133.491 331.478 132.236 329.023 132.236H327.063V139.796H329.023Z" fill="black" fill-opacity="0.23"/>
<path d="M218.611 141V139.884L223.093 134.916C223.693 134.244 224.131 133.638 224.407 133.098C224.683 132.558 224.821 132.018 224.821 131.478C224.821 130.77 224.617 130.23 224.209 129.858C223.801 129.474 223.219 129.282 222.463 129.282C221.839 129.282 221.227 129.408 220.627 129.66C220.027 129.9 219.427 130.266 218.827 130.758L218.269 129.624C218.773 129.144 219.409 128.76 220.177 128.472C220.945 128.184 221.719 128.04 222.499 128.04C223.279 128.04 223.951 128.178 224.515 128.454C225.091 128.718 225.535 129.102 225.847 129.606C226.159 130.11 226.315 130.71 226.315 131.406C226.315 132.138 226.147 132.846 225.811 133.53C225.487 134.202 224.941 134.958 224.173 135.798L219.853 140.478L219.745 139.758H226.855V141H218.611ZM233.724 141.144C232.176 141.144 230.982 140.61 230.142 139.542C229.302 138.462 228.882 136.92 228.882 134.916C228.882 133.464 229.074 132.228 229.458 131.208C229.854 130.176 230.418 129.39 231.15 128.85C231.894 128.31 232.782 128.04 233.814 128.04C234.558 128.04 235.278 128.178 235.974 128.454C236.67 128.718 237.288 129.108 237.828 129.624L237.27 130.758C236.67 130.242 236.088 129.87 235.524 129.642C234.972 129.402 234.414 129.282 233.85 129.282C232.746 129.282 231.888 129.774 231.276 130.758C230.664 131.73 230.358 133.11 230.358 134.898V136.446L230.142 135.96C230.238 135.348 230.46 134.82 230.808 134.376C231.156 133.92 231.588 133.572 232.104 133.332C232.632 133.08 233.214 132.954 233.85 132.954C234.642 132.954 235.338 133.128 235.938 133.476C236.538 133.812 237.006 134.286 237.342 134.898C237.678 135.51 237.846 136.218 237.846 137.022C237.846 137.814 237.666 138.522 237.306 139.146C236.958 139.77 236.472 140.262 235.848 140.622C235.236 140.97 234.528 141.144 233.724 141.144ZM233.652 139.902C234.468 139.902 235.128 139.644 235.632 139.128C236.136 138.6 236.388 137.904 236.388 137.04C236.388 136.188 236.136 135.504 235.632 134.988C235.128 134.46 234.462 134.196 233.634 134.196C233.082 134.196 232.59 134.322 232.158 134.574C231.726 134.814 231.39 135.15 231.15 135.582C230.91 136.002 230.79 136.488 230.79 137.04C230.79 137.616 230.91 138.12 231.15 138.552C231.39 138.972 231.726 139.302 232.158 139.542C232.59 139.782 233.088 139.902 233.652 139.902ZM240.611 143.07L239.927 142.548C240.251 142.2 240.467 141.882 240.575 141.594C240.683 141.306 240.737 141.012 240.737 140.712L241.169 141H239.855V139.146H241.709V140.46C241.709 140.94 241.625 141.39 241.457 141.81C241.301 142.242 241.019 142.662 240.611 143.07ZM248.269 141.126C247.333 141.126 246.523 140.988 245.839 140.712C245.155 140.424 244.621 140.016 244.237 139.488C243.865 138.96 243.679 138.33 243.679 137.598C243.679 136.71 243.979 135.972 244.579 135.384C245.179 134.796 245.983 134.43 246.991 134.286L246.901 134.556C245.965 134.376 245.239 134.01 244.723 133.458C244.219 132.906 243.967 132.234 243.967 131.442C243.967 130.746 244.147 130.146 244.507 129.642C244.879 129.126 245.383 128.73 246.019 128.454C246.667 128.178 247.417 128.04 248.269 128.04C249.121 128.04 249.865 128.178 250.501 128.454C251.149 128.73 251.653 129.126 252.013 129.642C252.385 130.146 252.571 130.746 252.571 131.442C252.571 132.234 252.313 132.912 251.797 133.476C251.293 134.028 250.579 134.388 249.655 134.556L249.547 134.286C250.591 134.43 251.401 134.802 251.977 135.402C252.565 135.99 252.859 136.722 252.859 137.598C252.859 138.33 252.667 138.96 252.283 139.488C251.911 140.016 251.383 140.424 250.699 140.712C250.015 140.988 249.205 141.126 248.269 141.126ZM248.269 139.902C249.277 139.902 250.051 139.698 250.591 139.29C251.131 138.882 251.401 138.288 251.401 137.508C251.401 136.776 251.107 136.206 250.519 135.798C249.931 135.378 249.181 135.12 248.269 135.024C247.357 135.12 246.607 135.378 246.019 135.798C245.431 136.206 245.137 136.776 245.137 137.508C245.137 138.288 245.407 138.882 245.947 139.29C246.487 139.698 247.261 139.902 248.269 139.902ZM248.269 133.998C249.109 133.902 249.787 133.644 250.303 133.224C250.831 132.804 251.095 132.246 251.095 131.55C251.095 130.83 250.843 130.272 250.339 129.876C249.847 129.468 249.157 129.264 248.269 129.264C247.381 129.264 246.685 129.468 246.181 129.876C245.689 130.272 245.443 130.83 245.443 131.55C245.443 132.246 245.701 132.804 246.217 133.224C246.745 133.644 247.429 133.902 248.269 133.998ZM258.666 128.04C260.214 128.04 261.408 128.58 262.248 129.66C263.088 130.728 263.508 132.264 263.508 134.268C263.508 135.72 263.31 136.962 262.914 137.994C262.53 139.014 261.966 139.794 261.222 140.334C260.49 140.874 259.602 141.144 258.558 141.144C257.826 141.144 257.106 141.012 256.398 140.748C255.702 140.472 255.084 140.076 254.544 139.56L255.12 138.426C255.732 138.942 256.314 139.32 256.866 139.56C257.418 139.788 257.976 139.902 258.54 139.902C259.644 139.902 260.496 139.416 261.096 138.444C261.708 137.46 262.014 136.074 262.014 134.286V132.738L262.248 133.206C262.152 133.83 261.93 134.37 261.582 134.826C261.234 135.27 260.796 135.618 260.268 135.87C259.74 136.11 259.158 136.23 258.522 136.23C257.742 136.23 257.052 136.062 256.452 135.726C255.852 135.378 255.384 134.898 255.048 134.286C254.712 133.674 254.544 132.966 254.544 132.162C254.544 131.37 254.718 130.662 255.066 130.038C255.426 129.414 255.918 128.928 256.542 128.58C257.166 128.22 257.874 128.04 258.666 128.04ZM258.738 129.282C257.91 129.282 257.244 129.546 256.74 130.074C256.248 130.59 256.002 131.28 256.002 132.144C256.002 132.996 256.254 133.686 256.758 134.214C257.262 134.73 257.928 134.988 258.756 134.988C259.308 134.988 259.8 134.868 260.232 134.628C260.664 134.376 261 134.04 261.24 133.62C261.48 133.188 261.6 132.696 261.6 132.144C261.6 131.568 261.48 131.07 261.24 130.65C261 130.218 260.664 129.882 260.232 129.642C259.8 129.402 259.302 129.282 258.738 129.282ZM271.241 141V130.038H271.691L266.363 137.724L266.381 136.986H274.661V138.21H265.337V137.094L271.511 128.184H272.717V141H271.241ZM276.4 139.146H278.254V141H276.4V139.146ZM284.418 128.04C285.966 128.04 287.16 128.58 288 129.66C288.84 130.728 289.26 132.264 289.26 134.268C289.26 135.72 289.062 136.962 288.666 137.994C288.282 139.014 287.718 139.794 286.974 140.334C286.242 140.874 285.354 141.144 284.31 141.144C283.578 141.144 282.858 141.012 282.15 140.748C281.454 140.472 280.836 140.076 280.296 139.56L280.872 138.426C281.484 138.942 282.066 139.32 282.618 139.56C283.17 139.788 283.728 139.902 284.292 139.902C285.396 139.902 286.248 139.416 286.848 138.444C287.46 137.46 287.766 136.074 287.766 134.286V132.738L288 133.206C287.904 133.83 287.682 134.37 287.334 134.826C286.986 135.27 286.548 135.618 286.02 135.87C285.492 136.11 284.91 136.23 284.274 136.23C283.494 136.23 282.804 136.062 282.204 135.726C281.604 135.378 281.136 134.898 280.8 134.286C280.464 133.674 280.296 132.966 280.296 132.162C280.296 131.37 280.47 130.662 280.818 130.038C281.178 129.414 281.67 128.928 282.294 128.58C282.918 128.22 283.626 128.04 284.418 128.04ZM284.49 129.282C283.662 129.282 282.996 129.546 282.492 130.074C282 130.59 281.754 131.28 281.754 132.144C281.754 132.996 282.006 133.686 282.51 134.214C283.014 134.73 283.68 134.988 284.508 134.988C285.06 134.988 285.552 134.868 285.984 134.628C286.416 134.376 286.752 134.04 286.992 133.62C287.232 133.188 287.352 132.696 287.352 132.144C287.352 131.568 287.232 131.07 286.992 130.65C286.752 130.218 286.416 129.882 285.984 129.642C285.552 129.402 285.054 129.282 284.49 129.282ZM296.993 141V130.038H297.443L292.115 137.724L292.133 136.986H300.413V138.21H291.089V137.094L297.263 128.184H298.469V141H296.993Z" fill="black"/>
<rect x="348" y="124" width="96" height="96" rx="24" fill="#32353E"/>
<path d="M396.5 162.5V182.5" stroke="white" stroke-miterlimit="10" stroke-linecap="square"/>
<path d="M406.5 172.5H386.5" stroke="white" stroke-miterlimit="10" stroke-linecap="square"/>
<path d="M396.5 194.5C408.65 194.5 418.5 184.65 418.5 172.5C418.5 160.35 408.65 150.5 396.5 150.5C384.35 150.5 374.5 160.35 374.5 172.5C374.5 184.65 384.35 194.5 396.5 194.5Z" stroke="white" stroke-miterlimit="10" stroke-linecap="square"/>
<defs>
<filter id="filter0_d" x="0" y="0" width="488" height="467" filterUnits="userSpaceOnUse" color-interpolation-filters="sRGB">
<feFlood flood-opacity="0" result="BackgroundImageFix"/>
<feColorMatrix in="SourceAlpha" type="matrix" values="0 0 0 0 0 0 0 0 0 0 0 0 0 0 0 0 0 0 127 0"/>
<feOffset dy="24"/>
<feGaussianBlur stdDeviation="42"/>
<feColorMatrix type="matrix" values="0 0 0 0 0.263333 0 0 0 0 0.277817 0 0 0 0 0.329167 0 0 0 0.1 0"/>
<feBlend mode="normal" in2="BackgroundImageFix" result="effect1_dropShadow"/>
<feBlend mode="normal" in="SourceGraphic" in2="effect1_dropShadow" result="shape"/>
</filter>
<filter id="filter1_d" x="74" y="246" width="146" height="146" filterUnits="userSpaceOnUse" color-interpolation-filters="sRGB">
<feFlood flood-opacity="0" result="BackgroundImageFix"/>
<feColorMatrix in="SourceAlpha" type="matrix" values="0 0 0 0 0 0 0 0 0 0 0 0 0 0 0 0 0 0 127 0"/>
<feOffset dy="10"/>
<feGaussianBlur stdDeviation="25"/>
<feColorMatrix type="matrix" values="0 0 0 0 0.932201 0 0 0 0 0.941456 0 0 0 0 0.955339 0 0 0 1 0"/>
<feBlend mode="normal" in2="BackgroundImageFix" result="effect1_dropShadow"/>
<feBlend mode="normal" in="SourceGraphic" in2="effect1_dropShadow" result="shape"/>
</filter>
<filter id="filter2_d" x="74" y="47" width="174" height="174" filterUnits="userSpaceOnUse" color-interpolation-filters="sRGB">
<feFlood flood-opacity="0" result="BackgroundImageFix"/>
<feColorMatrix in="SourceAlpha" type="matrix" values="0 0 0 0 0 0 0 0 0 0 0 0 0 0 0 0 0 0 127 0"/>
<feOffset dy="10"/>
<feGaussianBlur stdDeviation="25"/>
<feColorMatrix type="matrix" values="0 0 0 0 0.932201 0 0 0 0 0.941456 0 0 0 0 0.955339 0 0 0 1 0"/>
<feBlend mode="normal" in2="BackgroundImageFix" result="effect1_dropShadow"/>
<feBlend mode="normal" in="SourceGraphic" in2="effect1_dropShadow" result="shape"/>
</filter>
<filter id="filter3_d" x="75" y="186" width="146" height="146" filterUnits="userSpaceOnUse" color-interpolation-filters="sRGB">
<feFlood flood-opacity="0" result="BackgroundImageFix"/>
<feColorMatrix in="SourceAlpha" type="matrix" values="0 0 0 0 0 0 0 0 0 0 0 0 0 0 0 0 0 0 127 0"/>
<feOffset dy="10"/>
<feGaussianBlur stdDeviation="25"/>
<feColorMatrix type="matrix" values="0 0 0 0 0.932201 0 0 0 0 0.941456 0 0 0 0 0.955339 0 0 0 1 0"/>
<feBlend mode="normal" in2="BackgroundImageFix" result="effect1_dropShadow"/>
<feBlend mode="normal" in="SourceGraphic" in2="effect1_dropShadow" result="shape"/>
</filter>
</defs>
</svg>
