<svg width="572" height="564" viewBox="0 0 572 564" fill="none" xmlns="http://www.w3.org/2000/svg">
<g filter="url(#filter0_d)">
<rect x="41" y="185" width="305" height="264" rx="20" fill="white"/>
</g>
<path d="M282.51 233.74H278.91L278.15 235.5H277.1L280.27 228.38H281.14L284.32 235.5H283.27L282.51 233.74ZM282.16 232.92L280.71 229.53L279.26 232.92H282.16ZM289.762 228.14V235.5H288.762V234.64C288.615 234.94 288.395 235.17 288.102 235.33C287.815 235.49 287.479 235.57 287.092 235.57C286.659 235.57 286.272 235.46 285.932 235.24C285.592 235.02 285.325 234.713 285.132 234.32C284.945 233.92 284.852 233.46 284.852 232.94C284.852 232.42 284.945 231.963 285.132 231.57C285.319 231.177 285.579 230.873 285.912 230.66C286.252 230.447 286.645 230.34 287.092 230.34C287.472 230.34 287.805 230.42 288.092 230.58C288.385 230.74 288.605 230.967 288.752 231.26V228.14H289.762ZM287.322 234.77C287.782 234.77 288.135 234.613 288.382 234.3C288.635 233.98 288.762 233.533 288.762 232.96C288.762 232.387 288.635 231.943 288.382 231.63C288.135 231.31 287.785 231.15 287.332 231.15C286.872 231.15 286.512 231.307 286.252 231.62C285.999 231.933 285.872 232.373 285.872 232.94C285.872 233.513 285.999 233.963 286.252 234.29C286.512 234.61 286.869 234.77 287.322 234.77ZM295.856 228.14V235.5H294.856V234.64C294.709 234.94 294.489 235.17 294.196 235.33C293.909 235.49 293.573 235.57 293.186 235.57C292.753 235.57 292.366 235.46 292.026 235.24C291.686 235.02 291.419 234.713 291.226 234.32C291.039 233.92 290.946 233.46 290.946 232.94C290.946 232.42 291.039 231.963 291.226 231.57C291.413 231.177 291.673 230.873 292.006 230.66C292.346 230.447 292.739 230.34 293.186 230.34C293.566 230.34 293.899 230.42 294.186 230.58C294.479 230.74 294.699 230.967 294.846 231.26V228.14H295.856ZM293.416 234.77C293.876 234.77 294.229 234.613 294.476 234.3C294.729 233.98 294.856 233.533 294.856 232.96C294.856 232.387 294.729 231.943 294.476 231.63C294.229 231.31 293.879 231.15 293.426 231.15C292.966 231.15 292.606 231.307 292.346 231.62C292.093 231.933 291.966 232.373 291.966 232.94C291.966 233.513 292.093 233.963 292.346 234.29C292.606 234.61 292.963 234.77 293.416 234.77Z" fill="#32353E"/>
<rect x="261.5" y="220.5" width="51" height="23" rx="11.5" stroke="#353FFB"/>
<path d="M86.698 226.184V239H85.33V229.478L81.172 239H80.128L75.934 229.55L75.952 239H74.584V226.184H75.808L80.668 237.236L85.474 226.184H86.698ZM97.6354 229.946L93.4054 239.828C92.9614 240.86 92.4034 241.616 91.7314 242.096C91.0594 242.576 90.2314 242.906 89.2474 243.086L88.9414 241.952C89.7934 241.76 90.4354 241.502 90.8674 241.178C91.3114 240.866 91.6774 240.38 91.9654 239.72L92.3254 238.91L88.4914 229.946H90.0214L93.0814 237.416L96.1774 229.946H97.6354ZM111.909 229.946V239H110.469V237.362C110.205 237.926 109.803 238.364 109.263 238.676C108.735 238.976 108.117 239.126 107.409 239.126C106.605 239.126 105.897 238.934 105.285 238.55C104.685 238.166 104.217 237.626 103.881 236.93C103.557 236.222 103.395 235.4 103.395 234.464C103.395 233.528 103.563 232.706 103.899 231.998C104.235 231.278 104.703 230.72 105.303 230.324C105.915 229.928 106.617 229.73 107.409 229.73C108.117 229.73 108.735 229.886 109.263 230.198C109.791 230.51 110.193 230.948 110.469 231.512V229.946H111.909ZM107.697 237.92C108.585 237.92 109.269 237.62 109.749 237.02C110.229 236.408 110.469 235.544 110.469 234.428C110.469 233.312 110.229 232.454 109.749 231.854C109.269 231.254 108.585 230.954 107.697 230.954C106.809 230.954 106.113 231.266 105.609 231.89C105.117 232.502 104.871 233.36 104.871 234.464C104.871 235.568 105.117 236.42 105.609 237.02C106.101 237.62 106.797 237.92 107.697 237.92ZM118.526 239.126C117.65 239.126 116.882 238.934 116.222 238.55C115.574 238.166 115.07 237.626 114.71 236.93C114.362 236.222 114.188 235.4 114.188 234.464C114.188 233.528 114.368 232.706 114.728 231.998C115.088 231.278 115.598 230.72 116.258 230.324C116.93 229.928 117.71 229.73 118.598 229.73C119.21 229.73 119.798 229.838 120.362 230.054C120.938 230.258 121.412 230.546 121.784 230.918L121.298 231.998C120.842 231.638 120.398 231.374 119.966 231.206C119.546 231.038 119.114 230.954 118.67 230.954C117.746 230.954 117.02 231.266 116.492 231.89C115.964 232.502 115.7 233.36 115.7 234.464C115.7 235.556 115.958 236.408 116.474 237.02C117.002 237.62 117.734 237.92 118.67 237.92C119.114 237.92 119.546 237.836 119.966 237.668C120.398 237.5 120.842 237.236 121.298 236.876L121.784 237.956C121.4 238.316 120.914 238.604 120.326 238.82C119.75 239.024 119.15 239.126 118.526 239.126ZM127.438 239.126C126.562 239.126 125.794 238.934 125.134 238.55C124.486 238.166 123.982 237.626 123.622 236.93C123.274 236.222 123.1 235.4 123.1 234.464C123.1 233.528 123.28 232.706 123.64 231.998C124 231.278 124.51 230.72 125.17 230.324C125.842 229.928 126.622 229.73 127.51 229.73C128.122 229.73 128.71 229.838 129.274 230.054C129.85 230.258 130.324 230.546 130.696 230.918L130.21 231.998C129.754 231.638 129.31 231.374 128.878 231.206C128.458 231.038 128.026 230.954 127.582 230.954C126.658 230.954 125.932 231.266 125.404 231.89C124.876 232.502 124.612 233.36 124.612 234.464C124.612 235.556 124.87 236.408 125.386 237.02C125.914 237.62 126.646 237.92 127.582 237.92C128.026 237.92 128.458 237.836 128.878 237.668C129.31 237.5 129.754 237.236 130.21 236.876L130.696 237.956C130.312 238.316 129.826 238.604 129.238 238.82C128.662 239.024 128.062 239.126 127.438 239.126ZM136.296 239.126C135.444 239.126 134.694 238.934 134.046 238.55C133.398 238.166 132.894 237.62 132.534 236.912C132.186 236.204 132.012 235.376 132.012 234.428C132.012 233.48 132.186 232.652 132.534 231.944C132.894 231.236 133.398 230.69 134.046 230.306C134.694 229.922 135.444 229.73 136.296 229.73C137.148 229.73 137.898 229.922 138.546 230.306C139.194 230.69 139.692 231.236 140.04 231.944C140.4 232.652 140.58 233.48 140.58 234.428C140.58 235.376 140.4 236.204 140.04 236.912C139.692 237.62 139.194 238.166 138.546 238.55C137.898 238.934 137.148 239.126 136.296 239.126ZM136.296 237.92C137.196 237.92 137.886 237.626 138.366 237.038C138.846 236.438 139.086 235.568 139.086 234.428C139.086 233.324 138.84 232.472 138.348 231.872C137.856 231.26 137.172 230.954 136.296 230.954C135.408 230.954 134.718 231.26 134.226 231.872C133.734 232.472 133.488 233.324 133.488 234.428C133.488 235.568 133.728 236.438 134.208 237.038C134.7 237.626 135.396 237.92 136.296 237.92ZM150.431 229.946V239H149.009V237.434C148.721 237.986 148.319 238.406 147.803 238.694C147.287 238.982 146.705 239.126 146.057 239.126C144.989 239.126 144.179 238.826 143.627 238.226C143.075 237.626 142.799 236.738 142.799 235.562V229.946H144.257V235.526C144.257 236.342 144.425 236.942 144.761 237.326C145.097 237.71 145.607 237.902 146.291 237.902C147.095 237.902 147.743 237.644 148.235 237.128C148.727 236.6 148.973 235.91 148.973 235.058V229.946H150.431ZM157.76 229.73C159.932 229.73 161.018 230.924 161.018 233.312V239H159.56V233.384C159.56 232.544 159.392 231.932 159.056 231.548C158.72 231.152 158.192 230.954 157.472 230.954C156.632 230.954 155.96 231.212 155.456 231.728C154.952 232.244 154.7 232.94 154.7 233.816V239H153.242V232.484C153.242 231.548 153.194 230.702 153.098 229.946H154.484L154.628 231.566C154.904 230.978 155.318 230.528 155.87 230.216C156.422 229.892 157.052 229.73 157.76 229.73ZM165.715 231.098V236.048C165.715 236.72 165.853 237.194 166.129 237.47C166.405 237.734 166.795 237.866 167.299 237.866C167.635 237.866 167.959 237.812 168.271 237.704V238.946C167.899 239.066 167.479 239.126 167.011 239.126C166.147 239.126 165.469 238.886 164.977 238.406C164.497 237.914 164.257 237.194 164.257 236.246V231.098H162.493V229.946H164.257V227.624L165.715 227.102V229.946H168.307V231.098H165.715Z" fill="#101010"/>
<rect x="73" y="255" width="240" height="1" fill="#EDF0F5"/>
<rect x="57" y="280" width="273" height="64" rx="12" fill="#F4F6F9"/>
<path d="M129.424 306.112C128.649 306.112 127.94 306.009 127.296 305.804C126.661 305.599 126.111 305.291 125.644 304.88L126.162 303.816C126.647 304.208 127.151 304.493 127.674 304.67C128.197 304.847 128.785 304.936 129.438 304.936C130.185 304.936 130.763 304.796 131.174 304.516C131.585 304.236 131.79 303.839 131.79 303.326C131.79 302.897 131.599 302.575 131.216 302.36C130.833 302.136 130.227 301.931 129.396 301.744C128.603 301.576 127.954 301.385 127.45 301.17C126.946 300.946 126.549 300.652 126.26 300.288C125.971 299.915 125.826 299.439 125.826 298.86C125.826 298.281 125.98 297.773 126.288 297.334C126.596 296.886 127.03 296.541 127.59 296.298C128.159 296.046 128.813 295.92 129.55 295.92C130.25 295.92 130.903 296.027 131.51 296.242C132.126 296.457 132.639 296.76 133.05 297.152L132.532 298.216C132.075 297.833 131.603 297.553 131.118 297.376C130.633 297.189 130.115 297.096 129.564 297.096C128.845 297.096 128.281 297.25 127.87 297.558C127.459 297.857 127.254 298.267 127.254 298.79C127.254 299.238 127.431 299.579 127.786 299.812C128.15 300.045 128.729 300.255 129.522 300.442C130.353 300.629 131.025 300.825 131.538 301.03C132.051 301.235 132.462 301.515 132.77 301.87C133.078 302.225 133.232 302.682 133.232 303.242C133.232 303.821 133.078 304.325 132.77 304.754C132.462 305.183 132.019 305.519 131.44 305.762C130.871 305.995 130.199 306.112 129.424 306.112ZM141.505 303.536H136.465L135.401 306H133.931L138.369 296.032H139.587L144.039 306H142.569L141.505 303.536ZM141.015 302.388L138.985 297.642L136.955 302.388H141.015ZM151.196 300.862C151.775 301.021 152.223 301.31 152.54 301.73C152.857 302.15 153.016 302.668 153.016 303.284C153.016 304.143 152.717 304.81 152.12 305.286C151.532 305.762 150.706 306 149.642 306H145.33V296.032H149.502C150.529 296.032 151.327 296.261 151.896 296.718C152.475 297.175 152.764 297.815 152.764 298.636C152.764 299.168 152.624 299.63 152.344 300.022C152.073 300.405 151.691 300.685 151.196 300.862ZM146.758 300.358H149.278C150.669 300.358 151.364 299.821 151.364 298.748C151.364 297.712 150.669 297.194 149.278 297.194H146.758V300.358ZM149.502 304.838C150.23 304.838 150.762 304.707 151.098 304.446C151.434 304.175 151.602 303.76 151.602 303.2C151.602 302.631 151.429 302.211 151.084 301.94C150.748 301.66 150.221 301.52 149.502 301.52H146.758V304.838H149.502ZM160.78 300.862C161.359 301.021 161.807 301.31 162.124 301.73C162.441 302.15 162.6 302.668 162.6 303.284C162.6 304.143 162.301 304.81 161.704 305.286C161.116 305.762 160.29 306 159.226 306H154.914V296.032H159.086C160.113 296.032 160.911 296.261 161.48 296.718C162.059 297.175 162.348 297.815 162.348 298.636C162.348 299.168 162.208 299.63 161.928 300.022C161.657 300.405 161.275 300.685 160.78 300.862ZM156.342 300.358H158.862C160.253 300.358 160.948 299.821 160.948 298.748C160.948 297.712 160.253 297.194 158.862 297.194H156.342V300.358ZM159.086 304.838C159.814 304.838 160.346 304.707 160.682 304.446C161.018 304.175 161.186 303.76 161.186 303.2C161.186 302.631 161.013 302.211 160.668 301.94C160.332 301.66 159.805 301.52 159.086 301.52H156.342V304.838H159.086Z" fill="#101010"/>
<path d="M129.704 327.096C128.896 327.096 128.192 326.92 127.592 326.568C127 326.216 126.544 325.712 126.224 325.056C125.904 324.392 125.744 323.612 125.744 322.716C125.744 321.82 125.904 321.048 126.224 320.4C126.544 319.744 127 319.24 127.592 318.888C128.192 318.536 128.896 318.36 129.704 318.36C130.296 318.36 130.836 318.452 131.324 318.636C131.82 318.812 132.248 319.08 132.608 319.44L132.236 320.196C131.828 319.844 131.424 319.592 131.024 319.44C130.632 319.288 130.196 319.212 129.716 319.212C128.78 319.212 128.052 319.516 127.532 320.124C127.02 320.732 126.764 321.596 126.764 322.716C126.764 323.844 127.02 324.716 127.532 325.332C128.044 325.94 128.772 326.244 129.716 326.244C130.196 326.244 130.632 326.168 131.024 326.016C131.424 325.864 131.828 325.612 132.236 325.26L132.608 326.016C132.248 326.376 131.82 326.648 131.324 326.832C130.836 327.008 130.296 327.096 129.704 327.096ZM139.074 320.964V327H138.126V325.956C137.934 326.324 137.666 326.604 137.322 326.796C136.978 326.988 136.59 327.084 136.158 327.084C135.446 327.084 134.906 326.884 134.538 326.484C134.17 326.084 133.986 325.492 133.986 324.708V320.964H134.958V324.684C134.958 325.228 135.07 325.628 135.294 325.884C135.518 326.14 135.858 326.268 136.314 326.268C136.85 326.268 137.282 326.096 137.61 325.752C137.938 325.4 138.102 324.94 138.102 324.372V320.964H139.074ZM143.756 320.82C143.956 320.82 144.14 320.844 144.308 320.892L144.284 321.78C144.1 321.716 143.888 321.684 143.648 321.684C143.064 321.684 142.628 321.868 142.34 322.236C142.06 322.596 141.92 323.036 141.92 323.556V327H140.948V322.656C140.948 322.032 140.916 321.468 140.852 320.964H141.776L141.872 322.08C142.024 321.672 142.268 321.36 142.604 321.144C142.94 320.928 143.324 320.82 143.756 320.82ZM148.103 320.82C148.303 320.82 148.487 320.844 148.655 320.892L148.631 321.78C148.447 321.716 148.235 321.684 147.995 321.684C147.411 321.684 146.975 321.868 146.687 322.236C146.407 322.596 146.267 323.036 146.267 323.556V327H145.295V322.656C145.295 322.032 145.263 321.468 145.199 320.964H146.123L146.219 322.08C146.371 321.672 146.615 321.36 146.951 321.144C147.287 320.928 147.671 320.82 148.103 320.82ZM154.578 323.952H150.15C150.158 324.72 150.334 325.3 150.678 325.692C151.03 326.084 151.538 326.28 152.202 326.28C152.906 326.28 153.554 326.044 154.146 325.572L154.47 326.28C154.206 326.528 153.866 326.724 153.45 326.868C153.042 327.012 152.622 327.084 152.19 327.084C151.246 327.084 150.506 326.808 149.97 326.256C149.434 325.696 149.166 324.932 149.166 323.964C149.166 323.348 149.286 322.804 149.526 322.332C149.766 321.852 150.102 321.48 150.534 321.216C150.966 320.952 151.458 320.82 152.01 320.82C152.81 320.82 153.438 321.084 153.894 321.612C154.35 322.132 154.578 322.852 154.578 323.772V323.952ZM152.022 321.576C151.518 321.576 151.106 321.728 150.786 322.032C150.474 322.336 150.274 322.764 150.186 323.316H153.702C153.654 322.748 153.486 322.316 153.198 322.02C152.918 321.724 152.526 321.576 152.022 321.576ZM159.065 320.82C160.513 320.82 161.237 321.616 161.237 323.208V327H160.265V323.256C160.265 322.696 160.153 322.288 159.929 322.032C159.705 321.768 159.353 321.636 158.873 321.636C158.313 321.636 157.865 321.808 157.529 322.152C157.193 322.496 157.025 322.96 157.025 323.544V327H156.053V322.656C156.053 322.032 156.021 321.468 155.957 320.964H156.881L156.977 322.044C157.161 321.652 157.437 321.352 157.805 321.144C158.173 320.928 158.593 320.82 159.065 320.82ZM164.369 321.732V325.032C164.369 325.48 164.461 325.796 164.645 325.98C164.829 326.156 165.089 326.244 165.425 326.244C165.649 326.244 165.865 326.208 166.073 326.136V326.964C165.825 327.044 165.545 327.084 165.233 327.084C164.657 327.084 164.205 326.924 163.877 326.604C163.557 326.276 163.397 325.796 163.397 325.164V321.732H162.221V320.964H163.397V319.416L164.369 319.068V320.964H166.097V321.732H164.369Z" fill="#ACB0B9"/>
<path d="M242.612 325.888H238.292L237.38 328H236.12L239.924 319.456H240.968L244.784 328H243.524L242.612 325.888ZM242.192 324.904L240.452 320.836L238.712 324.904H242.192ZM245.891 319.456H251.435V320.464H247.115V323.152H251.195V324.16H247.115V326.992H251.435V328H245.891V319.456ZM252.98 319.456H255.968C257.352 319.456 258.424 319.828 259.184 320.572C259.944 321.316 260.324 322.364 260.324 323.716C260.324 325.076 259.944 326.132 259.184 326.884C258.424 327.628 257.352 328 255.968 328H252.98V319.456ZM255.896 326.968C258 326.968 259.052 325.884 259.052 323.716C259.052 321.564 258 320.488 255.896 320.488H254.216V326.968H255.896ZM271.071 326.224H269.811V328H268.587V326.224H264.759V325.3L268.815 319.456H269.811V325.228H271.071V326.224ZM268.587 325.228V321.46L265.971 325.228H268.587ZM273.574 326.56V327.544C273.574 327.92 273.51 328.26 273.382 328.564C273.254 328.876 273.038 329.184 272.734 329.488L272.218 329.068C272.554 328.7 272.746 328.344 272.794 328H272.134V326.56H273.574ZM277.897 328.096C276.905 328.096 276.149 327.724 275.629 326.98C275.109 326.236 274.849 325.152 274.849 323.728C274.849 322.304 275.109 321.22 275.629 320.476C276.149 319.732 276.905 319.36 277.897 319.36C278.889 319.36 279.645 319.732 280.165 320.476C280.685 321.212 280.945 322.292 280.945 323.716C280.945 325.148 280.685 326.236 280.165 326.98C279.645 327.724 278.889 328.096 277.897 328.096ZM277.897 327.1C278.513 327.1 278.965 326.828 279.253 326.284C279.549 325.732 279.697 324.876 279.697 323.716C279.697 322.556 279.553 321.708 279.265 321.172C278.977 320.636 278.521 320.368 277.897 320.368C277.281 320.368 276.825 320.64 276.529 321.184C276.241 321.72 276.097 322.564 276.097 323.716C276.097 324.876 276.241 325.732 276.529 326.284C276.825 326.828 277.281 327.1 277.897 327.1ZM287.936 326.98V328H282.944V326.98H284.816V320.932L283.076 322.012V320.872L285.344 319.456H286.064V326.98H287.936ZM293.548 323.608C294.044 323.752 294.424 324 294.688 324.352C294.952 324.704 295.084 325.148 295.084 325.684C295.084 326.428 294.82 327.016 294.292 327.448C293.772 327.872 293.064 328.084 292.168 328.084C291.6 328.084 291.056 327.996 290.536 327.82C290.024 327.636 289.596 327.38 289.252 327.052L289.696 326.14C290.464 326.764 291.276 327.076 292.132 327.076C293.3 327.076 293.884 326.584 293.884 325.6C293.884 325.12 293.732 324.764 293.428 324.532C293.124 324.292 292.664 324.172 292.048 324.172H291.004V323.164H291.855C292.448 323.164 292.9 323.04 293.212 322.792C293.524 322.544 293.68 322.184 293.68 321.712C293.68 321.28 293.548 320.948 293.284 320.716C293.028 320.484 292.664 320.368 292.192 320.368C291.392 320.368 290.6 320.68 289.816 321.304L289.372 320.392C289.708 320.072 290.132 319.82 290.644 319.636C291.164 319.452 291.7 319.36 292.252 319.36C293.052 319.36 293.688 319.56 294.16 319.96C294.64 320.352 294.88 320.884 294.88 321.556C294.88 322.044 294.764 322.468 294.532 322.828C294.3 323.188 293.972 323.448 293.548 323.608ZM298.043 326.56V328H296.603V326.56H298.043ZM305.258 319.456V320.38L301.31 328H299.978L303.914 320.476H299.474V319.456H305.258ZM312.813 326.224H311.553V328H310.329V326.224H306.501V325.3L310.557 319.456H311.553V325.228H312.813V326.224ZM310.329 325.228V321.46L307.713 325.228H310.329Z" fill="black"/>
<path d="M274.656 303.656L274.056 303.224L275.22 301.736L273.396 301.196L273.636 300.488L275.4 301.124L275.34 299.252H276.084L276.024 301.136L277.812 300.488L278.04 301.196L276.228 301.736L277.392 303.224L276.78 303.656L275.724 302.084L274.656 303.656ZM280.117 303.656L279.517 303.224L280.681 301.736L278.857 301.196L279.097 300.488L280.861 301.124L280.801 299.252H281.545L281.485 301.136L283.273 300.488L283.501 301.196L281.689 301.736L282.853 303.224L282.241 303.656L281.185 302.084L280.117 303.656ZM288.446 308V300.692H288.746L285.194 305.816L285.206 305.324H290.726V306.14H284.51V305.396L288.626 299.456H289.43V308H288.446ZM294.537 307.556V300.032L295.101 300.32L292.785 301.796V300.848L294.969 299.456H295.533V307.556H294.537ZM292.653 308V307.172H297.417V308H292.653ZM302.045 308.084C301.525 308.084 301.013 307.992 300.509 307.808C300.005 307.616 299.581 307.356 299.237 307.028L299.609 306.272C300.001 306.592 300.397 306.836 300.797 307.004C301.205 307.172 301.621 307.256 302.045 307.256C302.645 307.256 303.113 307.088 303.449 306.752C303.793 306.408 303.965 305.944 303.965 305.36C303.965 304.984 303.889 304.656 303.737 304.376C303.585 304.088 303.369 303.864 303.089 303.704C302.817 303.544 302.493 303.464 302.117 303.464C301.709 303.464 301.341 303.548 301.013 303.716C300.693 303.876 300.409 304.124 300.161 304.46H299.477V299.456H304.601V300.272H300.461V303.728L300.149 303.692C300.381 303.356 300.677 303.096 301.037 302.912C301.405 302.728 301.817 302.636 302.273 302.636C302.817 302.636 303.289 302.752 303.689 302.984C304.089 303.208 304.397 303.524 304.613 303.932C304.829 304.34 304.937 304.812 304.937 305.348C304.937 305.884 304.817 306.36 304.577 306.776C304.345 307.184 304.013 307.504 303.581 307.736C303.149 307.968 302.637 308.084 302.045 308.084ZM309.384 308.096C308.352 308.096 307.556 307.74 306.996 307.028C306.436 306.308 306.156 305.28 306.156 303.944C306.156 302.976 306.284 302.152 306.54 301.472C306.804 300.784 307.18 300.26 307.668 299.9C308.164 299.54 308.756 299.36 309.444 299.36C309.94 299.36 310.42 299.452 310.884 299.636C311.348 299.812 311.76 300.072 312.12 300.416L311.748 301.172C311.348 300.828 310.96 300.58 310.584 300.428C310.216 300.268 309.844 300.188 309.468 300.188C308.732 300.188 308.16 300.516 307.752 301.172C307.344 301.82 307.14 302.74 307.14 303.932V304.964L306.996 304.64C307.06 304.232 307.208 303.88 307.44 303.584C307.672 303.28 307.96 303.048 308.304 302.888C308.656 302.72 309.044 302.636 309.468 302.636C309.996 302.636 310.46 302.752 310.86 302.984C311.26 303.208 311.572 303.524 311.796 303.932C312.02 304.34 312.132 304.812 312.132 305.348C312.132 305.876 312.012 306.348 311.772 306.764C311.54 307.18 311.216 307.508 310.8 307.748C310.392 307.98 309.92 308.096 309.384 308.096ZM309.336 307.268C309.88 307.268 310.32 307.096 310.656 306.752C310.992 306.4 311.16 305.936 311.16 305.36C311.16 304.792 310.992 304.336 310.656 303.992C310.32 303.64 309.876 303.464 309.324 303.464C308.956 303.464 308.628 303.548 308.34 303.716C308.052 303.876 307.828 304.1 307.668 304.388C307.508 304.668 307.428 304.992 307.428 305.36C307.428 305.744 307.508 306.08 307.668 306.368C307.828 306.648 308.052 306.868 308.34 307.028C308.628 307.188 308.96 307.268 309.336 307.268Z" fill="#868B93"/>
<path d="M130.544 379.112C129.583 379.112 128.743 378.907 128.024 378.496C127.315 378.076 126.769 377.483 126.386 376.718C126.003 375.953 125.812 375.047 125.812 374.002C125.812 372.966 126.003 372.065 126.386 371.3C126.769 370.535 127.315 369.947 128.024 369.536C128.743 369.125 129.583 368.92 130.544 368.92C131.225 368.92 131.855 369.027 132.434 369.242C133.022 369.447 133.517 369.751 133.918 370.152L133.414 371.216C132.947 370.833 132.485 370.558 132.028 370.39C131.58 370.213 131.09 370.124 130.558 370.124C129.522 370.124 128.719 370.46 128.15 371.132C127.59 371.804 127.31 372.761 127.31 374.002C127.31 375.253 127.59 376.219 128.15 376.9C128.719 377.572 129.522 377.908 130.558 377.908C131.09 377.908 131.58 377.824 132.028 377.656C132.485 377.479 132.947 377.199 133.414 376.816L133.918 377.88C133.517 378.281 133.022 378.589 132.434 378.804C131.855 379.009 131.225 379.112 130.544 379.112ZM135.606 371.944H137.006V379H135.606V371.944ZM137.118 368.864V370.348H135.48V368.864H137.118ZM140.913 373.036V376.578C140.913 377.063 141.016 377.409 141.221 377.614C141.436 377.81 141.73 377.908 142.103 377.908C142.346 377.908 142.593 377.871 142.845 377.796V378.944C142.537 379.047 142.187 379.098 141.795 379.098C141.067 379.098 140.502 378.893 140.101 378.482C139.7 378.071 139.499 377.474 139.499 376.69V373.036H138.127V371.944H139.499V370.18L140.913 369.69V371.944H142.859V373.036H140.913ZM144.165 371.944H145.565V379H144.165V371.944ZM145.677 368.864V370.348H144.039V368.864H145.677ZM157.362 373.862C157.941 374.021 158.389 374.31 158.706 374.73C159.023 375.15 159.182 375.668 159.182 376.284C159.182 377.143 158.883 377.81 158.286 378.286C157.698 378.762 156.872 379 155.808 379H151.496V369.032H155.668C156.695 369.032 157.493 369.261 158.062 369.718C158.641 370.175 158.93 370.815 158.93 371.636C158.93 372.168 158.79 372.63 158.51 373.022C158.239 373.405 157.857 373.685 157.362 373.862ZM152.924 373.358H155.444C156.835 373.358 157.53 372.821 157.53 371.748C157.53 370.712 156.835 370.194 155.444 370.194H152.924V373.358ZM155.668 377.838C156.396 377.838 156.928 377.707 157.264 377.446C157.6 377.175 157.768 376.76 157.768 376.2C157.768 375.631 157.595 375.211 157.25 374.94C156.914 374.66 156.387 374.52 155.668 374.52H152.924V377.838H155.668ZM167.408 371.944V379H166.008V377.796C165.803 378.216 165.495 378.538 165.084 378.762C164.683 378.986 164.211 379.098 163.67 379.098C163.045 379.098 162.494 378.949 162.018 378.65C161.551 378.351 161.187 377.931 160.926 377.39C160.665 376.839 160.534 376.2 160.534 375.472C160.534 374.744 160.665 374.1 160.926 373.54C161.197 372.98 161.57 372.546 162.046 372.238C162.522 371.93 163.063 371.776 163.67 371.776C164.211 371.776 164.683 371.893 165.084 372.126C165.485 372.35 165.793 372.672 166.008 373.092V371.944H167.408ZM164.006 377.978C164.641 377.978 165.131 377.759 165.476 377.32C165.831 376.872 166.008 376.247 166.008 375.444C166.008 374.632 165.831 374.007 165.476 373.568C165.131 373.129 164.636 372.91 163.992 372.91C163.357 372.91 162.858 373.139 162.494 373.596C162.139 374.044 161.962 374.669 161.962 375.472C161.962 376.265 162.139 376.881 162.494 377.32C162.858 377.759 163.362 377.978 164.006 377.978ZM173.237 371.776C174.927 371.776 175.771 372.719 175.771 374.604V379H174.357V374.688C174.357 374.072 174.236 373.624 173.993 373.344C173.76 373.064 173.382 372.924 172.859 372.924C172.262 372.924 171.781 373.111 171.417 373.484C171.063 373.857 170.885 374.357 170.885 374.982V379H169.485V373.932C169.485 373.195 169.448 372.532 169.373 371.944H170.689L170.815 373.162C171.039 372.714 171.361 372.373 171.781 372.14C172.211 371.897 172.696 371.776 173.237 371.776ZM182.558 379L179.184 375.668V379H177.784V368.696H179.184V375.136L182.32 371.958H184.07L180.696 375.346L184.364 379H182.558Z" fill="#101010"/>
<path d="M128.768 400.096C127.432 400.096 126.368 399.736 125.576 399.016L125.948 398.26C126.372 398.62 126.804 398.876 127.244 399.028C127.684 399.18 128.196 399.256 128.78 399.256C129.468 399.256 129.996 399.124 130.364 398.86C130.74 398.588 130.928 398.208 130.928 397.72C130.928 397.432 130.836 397.2 130.652 397.024C130.476 396.84 130.24 396.696 129.944 396.592C129.656 396.488 129.268 396.38 128.78 396.268C128.124 396.124 127.584 395.968 127.16 395.8C126.736 395.632 126.392 395.392 126.128 395.08C125.864 394.76 125.732 394.344 125.732 393.832C125.732 393.344 125.86 392.916 126.116 392.548C126.372 392.172 126.732 391.88 127.196 391.672C127.668 391.464 128.216 391.36 128.84 391.36C129.432 391.36 129.984 391.452 130.496 391.636C131.008 391.82 131.44 392.088 131.792 392.44L131.408 393.196C131.008 392.852 130.6 392.6 130.184 392.44C129.776 392.28 129.328 392.2 128.84 392.2C128.176 392.2 127.656 392.344 127.28 392.632C126.904 392.912 126.716 393.3 126.716 393.796C126.716 394.228 126.88 394.552 127.208 394.768C127.536 394.984 128.04 395.172 128.72 395.332C129.456 395.508 130.032 395.672 130.448 395.824C130.872 395.968 131.224 396.192 131.504 396.496C131.784 396.792 131.924 397.188 131.924 397.684C131.924 398.164 131.796 398.588 131.54 398.956C131.284 399.316 130.916 399.596 130.436 399.796C129.964 399.996 129.408 400.096 128.768 400.096ZM138.729 393.964V400H137.769V398.908C137.593 399.284 137.325 399.576 136.965 399.784C136.613 399.984 136.201 400.084 135.729 400.084C135.193 400.084 134.721 399.956 134.313 399.7C133.913 399.444 133.601 399.084 133.377 398.62C133.161 398.148 133.053 397.6 133.053 396.976C133.053 396.352 133.165 395.804 133.389 395.332C133.613 394.852 133.925 394.48 134.325 394.216C134.733 393.952 135.201 393.82 135.729 393.82C136.201 393.82 136.613 393.924 136.965 394.132C137.317 394.34 137.585 394.632 137.769 395.008V393.964H138.729ZM135.921 399.28C136.513 399.28 136.969 399.08 137.289 398.68C137.609 398.272 137.769 397.696 137.769 396.952C137.769 396.208 137.609 395.636 137.289 395.236C136.969 394.836 136.513 394.636 135.921 394.636C135.329 394.636 134.865 394.844 134.529 395.26C134.201 395.668 134.037 396.24 134.037 396.976C134.037 397.712 134.201 398.28 134.529 398.68C134.857 399.08 135.321 399.28 135.921 399.28ZM145.912 393.976L143.308 400H142.384L139.816 393.976H140.836L142.876 398.944L144.94 393.976H145.912ZM146.983 393.964H147.955V400H146.983V393.964ZM148.075 391.408V392.512H146.887V391.408H148.075ZM152.854 393.82C154.302 393.82 155.026 394.616 155.026 396.208V400H154.054V396.256C154.054 395.696 153.942 395.288 153.718 395.032C153.494 394.768 153.142 394.636 152.662 394.636C152.102 394.636 151.654 394.808 151.318 395.152C150.982 395.496 150.814 395.96 150.814 396.544V400H149.842V395.656C149.842 395.032 149.81 394.468 149.746 393.964H150.67L150.766 395.044C150.95 394.652 151.226 394.352 151.594 394.144C151.962 393.928 152.382 393.82 152.854 393.82ZM162.238 393.964V399.952C162.238 400.848 162.006 401.524 161.542 401.98C161.086 402.444 160.41 402.676 159.514 402.676C158.594 402.676 157.802 402.468 157.138 402.052L157.306 401.26C157.69 401.476 158.05 401.632 158.386 401.728C158.73 401.824 159.106 401.872 159.514 401.872C160.098 401.872 160.538 401.716 160.834 401.404C161.13 401.1 161.278 400.644 161.278 400.036V398.608C161.094 398.992 160.822 399.292 160.462 399.508C160.11 399.716 159.69 399.82 159.202 399.82C158.674 399.82 158.202 399.696 157.786 399.448C157.378 399.2 157.062 398.848 156.838 398.392C156.614 397.936 156.502 397.412 156.502 396.82C156.502 396.228 156.614 395.704 156.838 395.248C157.062 394.792 157.378 394.44 157.786 394.192C158.202 393.944 158.674 393.82 159.202 393.82C159.682 393.82 160.098 393.924 160.45 394.132C160.81 394.34 161.082 394.632 161.266 395.008V393.964H162.238ZM159.394 399.004C159.978 399.004 160.434 398.812 160.762 398.428C161.098 398.036 161.266 397.5 161.266 396.82C161.266 396.14 161.098 395.608 160.762 395.224C160.434 394.832 159.978 394.636 159.394 394.636C158.802 394.636 158.334 394.832 157.99 395.224C157.654 395.608 157.486 396.14 157.486 396.82C157.486 397.5 157.654 398.036 157.99 398.428C158.334 398.812 158.802 399.004 159.394 399.004Z" fill="#ACB0B9"/>
<path d="M242.612 398.888H238.292L237.38 401H236.12L239.924 392.456H240.968L244.784 401H243.524L242.612 398.888ZM242.192 397.904L240.452 393.836L238.712 397.904H242.192ZM245.891 392.456H251.435V393.464H247.115V396.152H251.195V397.16H247.115V399.992H251.435V401H245.891V392.456ZM252.98 392.456H255.968C257.352 392.456 258.424 392.828 259.184 393.572C259.944 394.316 260.324 395.364 260.324 396.716C260.324 398.076 259.944 399.132 259.184 399.884C258.424 400.628 257.352 401 255.968 401H252.98V392.456ZM255.896 399.968C258 399.968 259.052 398.884 259.052 396.716C259.052 394.564 258 393.488 255.896 393.488H254.216V399.968H255.896ZM271.071 399.224H269.811V401H268.587V399.224H264.759V398.3L268.815 392.456H269.811V398.228H271.071V399.224ZM268.587 398.228V394.46L265.971 398.228H268.587ZM273.574 399.56V400.544C273.574 400.92 273.51 401.26 273.382 401.564C273.254 401.876 273.038 402.184 272.734 402.488L272.218 402.068C272.554 401.7 272.746 401.344 272.794 401H272.134V399.56H273.574ZM277.897 401.096C276.905 401.096 276.149 400.724 275.629 399.98C275.109 399.236 274.849 398.152 274.849 396.728C274.849 395.304 275.109 394.22 275.629 393.476C276.149 392.732 276.905 392.36 277.897 392.36C278.889 392.36 279.645 392.732 280.165 393.476C280.685 394.212 280.945 395.292 280.945 396.716C280.945 398.148 280.685 399.236 280.165 399.98C279.645 400.724 278.889 401.096 277.897 401.096ZM277.897 400.1C278.513 400.1 278.965 399.828 279.253 399.284C279.549 398.732 279.697 397.876 279.697 396.716C279.697 395.556 279.553 394.708 279.265 394.172C278.977 393.636 278.521 393.368 277.897 393.368C277.281 393.368 276.825 393.64 276.529 394.184C276.241 394.72 276.097 395.564 276.097 396.716C276.097 397.876 276.241 398.732 276.529 399.284C276.825 399.828 277.281 400.1 277.897 400.1ZM287.936 399.98V401H282.944V399.98H284.816V393.932L283.076 395.012V393.872L285.344 392.456H286.064V399.98H287.936ZM293.548 396.608C294.044 396.752 294.424 397 294.688 397.352C294.952 397.704 295.084 398.148 295.084 398.684C295.084 399.428 294.82 400.016 294.292 400.448C293.772 400.872 293.064 401.084 292.168 401.084C291.6 401.084 291.056 400.996 290.536 400.82C290.024 400.636 289.596 400.38 289.252 400.052L289.696 399.14C290.464 399.764 291.276 400.076 292.132 400.076C293.3 400.076 293.884 399.584 293.884 398.6C293.884 398.12 293.732 397.764 293.428 397.532C293.124 397.292 292.664 397.172 292.048 397.172H291.004V396.164H291.855C292.448 396.164 292.9 396.04 293.212 395.792C293.524 395.544 293.68 395.184 293.68 394.712C293.68 394.28 293.548 393.948 293.284 393.716C293.028 393.484 292.664 393.368 292.192 393.368C291.392 393.368 290.6 393.68 289.816 394.304L289.372 393.392C289.708 393.072 290.132 392.82 290.644 392.636C291.164 392.452 291.7 392.36 292.252 392.36C293.052 392.36 293.688 392.56 294.16 392.96C294.64 393.352 294.88 393.884 294.88 394.556C294.88 395.044 294.764 395.468 294.532 395.828C294.3 396.188 293.972 396.448 293.548 396.608ZM298.043 399.56V401H296.603V399.56H298.043ZM305.258 392.456V393.38L301.31 401H299.978L303.914 393.476H299.474V392.456H305.258ZM312.813 399.224H311.553V401H310.329V399.224H306.501V398.3L310.557 392.456H311.553V398.228H312.813V399.224ZM310.329 398.228V394.46L307.713 398.228H310.329Z" fill="black"/>
<path d="M274.656 376.656L274.056 376.224L275.22 374.736L273.396 374.196L273.636 373.488L275.4 374.124L275.34 372.252H276.084L276.024 374.136L277.812 373.488L278.04 374.196L276.228 374.736L277.392 376.224L276.78 376.656L275.724 375.084L274.656 376.656ZM280.117 376.656L279.517 376.224L280.681 374.736L278.857 374.196L279.097 373.488L280.861 374.124L280.801 372.252H281.545L281.485 374.136L283.273 373.488L283.501 374.196L281.689 374.736L282.853 376.224L282.241 376.656L281.185 375.084L280.117 376.656ZM288.446 381V373.692H288.746L285.194 378.816L285.206 378.324H290.726V379.14H284.51V378.396L288.626 372.456H289.43V381H288.446ZM294.537 380.556V373.032L295.101 373.32L292.785 374.796V373.848L294.969 372.456H295.533V380.556H294.537ZM292.653 381V380.172H297.417V381H292.653ZM302.045 381.084C301.525 381.084 301.013 380.992 300.509 380.808C300.005 380.616 299.581 380.356 299.237 380.028L299.609 379.272C300.001 379.592 300.397 379.836 300.797 380.004C301.205 380.172 301.621 380.256 302.045 380.256C302.645 380.256 303.113 380.088 303.449 379.752C303.793 379.408 303.965 378.944 303.965 378.36C303.965 377.984 303.889 377.656 303.737 377.376C303.585 377.088 303.369 376.864 303.089 376.704C302.817 376.544 302.493 376.464 302.117 376.464C301.709 376.464 301.341 376.548 301.013 376.716C300.693 376.876 300.409 377.124 300.161 377.46H299.477V372.456H304.601V373.272H300.461V376.728L300.149 376.692C300.381 376.356 300.677 376.096 301.037 375.912C301.405 375.728 301.817 375.636 302.273 375.636C302.817 375.636 303.289 375.752 303.689 375.984C304.089 376.208 304.397 376.524 304.613 376.932C304.829 377.34 304.937 377.812 304.937 378.348C304.937 378.884 304.817 379.36 304.577 379.776C304.345 380.184 304.013 380.504 303.581 380.736C303.149 380.968 302.637 381.084 302.045 381.084ZM309.384 381.096C308.352 381.096 307.556 380.74 306.996 380.028C306.436 379.308 306.156 378.28 306.156 376.944C306.156 375.976 306.284 375.152 306.54 374.472C306.804 373.784 307.18 373.26 307.668 372.9C308.164 372.54 308.756 372.36 309.444 372.36C309.94 372.36 310.42 372.452 310.884 372.636C311.348 372.812 311.76 373.072 312.12 373.416L311.748 374.172C311.348 373.828 310.96 373.58 310.584 373.428C310.216 373.268 309.844 373.188 309.468 373.188C308.732 373.188 308.16 373.516 307.752 374.172C307.344 374.82 307.14 375.74 307.14 376.932V377.964L306.996 377.64C307.06 377.232 307.208 376.88 307.44 376.584C307.672 376.28 307.96 376.048 308.304 375.888C308.656 375.72 309.044 375.636 309.468 375.636C309.996 375.636 310.46 375.752 310.86 375.984C311.26 376.208 311.572 376.524 311.796 376.932C312.02 377.34 312.132 377.812 312.132 378.348C312.132 378.876 312.012 379.348 311.772 379.764C311.54 380.18 311.216 380.508 310.8 380.748C310.392 380.98 309.92 381.096 309.384 381.096ZM309.336 380.268C309.88 380.268 310.32 380.096 310.656 379.752C310.992 379.4 311.16 378.936 311.16 378.36C311.16 377.792 310.992 377.336 310.656 376.992C310.32 376.64 309.876 376.464 309.324 376.464C308.956 376.464 308.628 376.548 308.34 376.716C308.052 376.876 307.828 377.1 307.668 377.388C307.508 377.668 307.428 377.992 307.428 378.36C307.428 378.744 307.508 379.08 307.668 379.368C307.828 379.648 308.052 379.868 308.34 380.028C308.628 380.188 308.96 380.268 309.336 380.268Z" fill="#868B93"/>
<g filter="url(#filter1_d)">
<rect x="73" y="291" width="40" height="40" rx="8.75" fill="white"/>
</g>
<path fill-rule="evenodd" clip-rule="evenodd" d="M86.0331 303.531V310.985V318.469L78.9941 310.985L86.0331 303.531Z" fill="#EE353D"/>
<path fill-rule="evenodd" clip-rule="evenodd" d="M86.0347 303.531H92.9871H99.9972L92.9871 311.046L86.0059 303.562L86.0347 303.531Z" fill="#EE353D"/>
<path fill-rule="evenodd" clip-rule="evenodd" d="M99.9609 318.469V310.985V303.531L107 310.985L99.9609 318.469Z" fill="#EE353D"/>
<path fill-rule="evenodd" clip-rule="evenodd" d="M99.9683 318.469H93.0159H86.0059L93.0159 310.954L99.9972 318.438L99.9683 318.469Z" fill="#EE353D"/>
<g filter="url(#filter2_d)">
<rect x="73" y="364" width="40" height="40" rx="8.75" fill="white"/>
</g>
<path fill-rule="evenodd" clip-rule="evenodd" d="M87.594 388.18L87.5577 388.254C86.8311 388.996 85.9955 389.404 85.1236 389.404C83.3071 389.404 82.0356 388.031 82.0356 386.139C82.0356 384.247 83.3435 382.874 85.1236 382.874C85.9955 382.874 86.8311 383.282 87.5577 384.024L87.594 384.061L88.7565 382.614L88.7202 382.577C87.7756 381.427 86.6131 380.833 85.1963 380.833C83.7794 380.833 82.4716 381.315 81.527 382.206C80.5098 383.171 79.9648 384.506 79.9648 386.102C79.9648 387.697 80.5098 389.033 81.527 389.998C82.4716 390.888 83.7794 391.37 85.1963 391.37C86.6131 391.37 87.7756 390.814 88.7202 389.627L88.7565 389.589L87.594 388.18Z" fill="#092769"/>
<path fill-rule="evenodd" clip-rule="evenodd" d="M89.918 391.185H91.9524V380.981H89.918V391.185Z" fill="#092769"/>
<path fill-rule="evenodd" clip-rule="evenodd" d="M99.9818 388.959C99.4369 389.293 98.9283 389.478 98.456 389.478C97.8021 389.478 97.5115 389.107 97.5115 388.328V382.911H99.5822V380.981H97.5115V377.828L95.5133 378.941V381.019H93.7695V382.948H95.5133V388.699C95.5133 390.257 96.4216 391.333 97.7658 391.37C98.674 391.37 99.2553 391.111 99.5822 390.888H99.6186L100.127 388.922L99.9818 388.959Z" fill="#092769"/>
<path fill-rule="evenodd" clip-rule="evenodd" d="M101.688 391.185H103.722V380.981H101.688V391.185Z" fill="#092769"/>
<path fill-rule="evenodd" clip-rule="evenodd" d="M104.924 379.201C103.035 376.492 99.9472 374.896 96.7866 374.896C93.6259 374.896 90.538 376.492 88.6488 379.201L88.5762 379.349H90.9376L90.9739 379.312C92.5724 377.642 94.6795 376.715 96.8229 376.715C98.9664 376.715 101.073 377.605 102.672 379.312L102.708 379.349H105.07L104.924 379.201Z" fill="#FE000C"/>
<g filter="url(#filter3_d)">
<rect x="236" y="60" width="252" height="184" rx="30" fill="white"/>
</g>
<rect x="260" y="84" width="56" height="56" rx="16" fill="#EDF9F3"/>
<path d="M295 106L288 99L281 106" stroke="#2DC14E" stroke-linecap="round" stroke-linejoin="round"/>
<path d="M288 125L288 99" stroke="#2DC14E" stroke-linecap="round" stroke-linejoin="round"/>
<path d="M349.058 103H347.84L346.608 99.682C346.459 99.2713 346.249 98.996 345.978 98.856C345.717 98.716 345.343 98.646 344.858 98.646H342.366V103H341.232V93.032H345.194C346.267 93.032 347.089 93.27 347.658 93.746C348.237 94.222 348.526 94.908 348.526 95.804C348.526 96.4573 348.353 97.008 348.008 97.456C347.672 97.8947 347.182 98.2073 346.538 98.394C346.827 98.4407 347.075 98.5667 347.28 98.772C347.485 98.968 347.658 99.2527 347.798 99.626L349.058 103ZM345.096 97.694C346.627 97.694 347.392 97.0687 347.392 95.818C347.392 95.202 347.205 94.7447 346.832 94.446C346.459 94.138 345.88 93.984 345.096 93.984H342.366V97.694H345.096ZM356.693 99.444H351.527C351.536 100.34 351.742 101.017 352.143 101.474C352.554 101.931 353.146 102.16 353.921 102.16C354.742 102.16 355.498 101.885 356.189 101.334L356.567 102.16C356.259 102.449 355.862 102.678 355.377 102.846C354.901 103.014 354.411 103.098 353.907 103.098C352.806 103.098 351.942 102.776 351.317 102.132C350.692 101.479 350.379 100.587 350.379 99.458C350.379 98.7393 350.519 98.1047 350.799 97.554C351.079 96.994 351.471 96.56 351.975 96.252C352.479 95.944 353.053 95.79 353.697 95.79C354.63 95.79 355.363 96.098 355.895 96.714C356.427 97.3207 356.693 98.1607 356.693 99.234V99.444ZM353.711 96.672C353.123 96.672 352.642 96.8493 352.269 97.204C351.905 97.5587 351.672 98.058 351.569 98.702H355.671C355.615 98.0393 355.419 97.5353 355.083 97.19C354.756 96.8447 354.299 96.672 353.711 96.672ZM361.368 103.098C360.687 103.098 360.09 102.949 359.576 102.65C359.072 102.351 358.68 101.931 358.4 101.39C358.13 100.839 357.994 100.2 357.994 99.472C357.994 98.744 358.134 98.1047 358.414 97.554C358.694 96.994 359.091 96.56 359.604 96.252C360.127 95.944 360.734 95.79 361.424 95.79C361.9 95.79 362.358 95.874 362.796 96.042C363.244 96.2007 363.613 96.4247 363.902 96.714L363.524 97.554C363.17 97.274 362.824 97.0687 362.488 96.938C362.162 96.8073 361.826 96.742 361.48 96.742C360.762 96.742 360.197 96.9847 359.786 97.47C359.376 97.946 359.17 98.6133 359.17 99.472C359.17 100.321 359.371 100.984 359.772 101.46C360.183 101.927 360.752 102.16 361.48 102.16C361.826 102.16 362.162 102.095 362.488 101.964C362.824 101.833 363.17 101.628 363.524 101.348L363.902 102.188C363.604 102.468 363.226 102.692 362.768 102.86C362.32 103.019 361.854 103.098 361.368 103.098ZM371.24 99.444H366.074C366.083 100.34 366.289 101.017 366.69 101.474C367.101 101.931 367.693 102.16 368.468 102.16C369.289 102.16 370.045 101.885 370.736 101.334L371.114 102.16C370.806 102.449 370.409 102.678 369.924 102.846C369.448 103.014 368.958 103.098 368.454 103.098C367.353 103.098 366.489 102.776 365.864 102.132C365.239 101.479 364.926 100.587 364.926 99.458C364.926 98.7393 365.066 98.1047 365.346 97.554C365.626 96.994 366.018 96.56 366.522 96.252C367.026 95.944 367.6 95.79 368.244 95.79C369.177 95.79 369.91 96.098 370.442 96.714C370.974 97.3207 371.24 98.1607 371.24 99.234V99.444ZM368.258 96.672C367.67 96.672 367.189 96.8493 366.816 97.204C366.452 97.5587 366.219 98.058 366.116 98.702H370.218C370.162 98.0393 369.966 97.5353 369.63 97.19C369.303 96.8447 368.846 96.672 368.258 96.672ZM372.961 95.958H374.095V103H372.961V95.958ZM374.235 92.976V94.264H372.849V92.976H374.235ZM379.811 95.79C380.427 95.79 380.973 95.944 381.449 96.252C381.925 96.56 382.294 96.994 382.555 97.554C382.816 98.1047 382.947 98.744 382.947 99.472C382.947 100.2 382.816 100.839 382.555 101.39C382.294 101.931 381.925 102.351 381.449 102.65C380.982 102.949 380.436 103.098 379.811 103.098C379.26 103.098 378.78 102.977 378.369 102.734C377.958 102.491 377.646 102.146 377.431 101.698V106.024H376.297V97.932C376.297 97.204 376.26 96.546 376.185 95.958H377.263L377.375 97.316C377.571 96.8307 377.879 96.4573 378.299 96.196C378.728 95.9253 379.232 95.79 379.811 95.79ZM379.601 102.16C380.292 102.16 380.824 101.927 381.197 101.46C381.58 100.993 381.771 100.331 381.771 99.472C381.771 98.6133 381.58 97.946 381.197 97.47C380.814 96.9847 380.282 96.742 379.601 96.742C378.901 96.742 378.364 96.9753 377.991 97.442C377.618 97.9087 377.431 98.576 377.431 99.444C377.431 100.312 377.618 100.984 377.991 101.46C378.364 101.927 378.901 102.16 379.601 102.16ZM386.19 96.854V100.704C386.19 101.227 386.297 101.595 386.512 101.81C386.727 102.015 387.03 102.118 387.422 102.118C387.683 102.118 387.935 102.076 388.178 101.992V102.958C387.889 103.051 387.562 103.098 387.198 103.098C386.526 103.098 385.999 102.911 385.616 102.538C385.243 102.155 385.056 101.595 385.056 100.858V96.854H383.684V95.958H385.056V94.152L386.19 93.746V95.958H388.206V96.854H386.19Z" fill="#565D67"/>
<path d="M426.525 126.536H421.485L420.421 129H418.951L423.389 119.032H424.607L429.059 129H427.589L426.525 126.536ZM426.035 125.388L424.005 120.642L421.975 125.388H426.035ZM430.35 119.032H436.818V120.208H431.778V123.344H436.538V124.52H431.778V127.824H436.818V129H430.35V119.032ZM438.621 119.032H442.107C443.722 119.032 444.972 119.466 445.859 120.334C446.746 121.202 447.189 122.425 447.189 124.002C447.189 125.589 446.746 126.821 445.859 127.698C444.972 128.566 443.722 129 442.107 129H438.621V119.032ZM442.023 127.796C444.478 127.796 445.705 126.531 445.705 124.002C445.705 121.491 444.478 120.236 442.023 120.236H440.063V127.796H442.023Z" fill="black" fill-opacity="0.23"/>
<path d="M343.618 129H342.034L348.316 116.832L348.442 117.426H341.17V116.184H349.63V117.282L343.618 129ZM352.701 131.07L352.017 130.548C352.341 130.2 352.557 129.882 352.665 129.594C352.773 129.306 352.827 129.012 352.827 128.712L353.259 129H351.945V127.146H353.799V128.46C353.799 128.94 353.715 129.39 353.547 129.81C353.391 130.242 353.109 130.662 352.701 131.07ZM356.453 129V127.884L360.935 122.916C361.535 122.244 361.973 121.638 362.249 121.098C362.525 120.558 362.663 120.018 362.663 119.478C362.663 118.77 362.459 118.23 362.051 117.858C361.643 117.474 361.061 117.282 360.305 117.282C359.681 117.282 359.069 117.408 358.469 117.66C357.869 117.9 357.269 118.266 356.669 118.758L356.111 117.624C356.615 117.144 357.251 116.76 358.019 116.472C358.787 116.184 359.561 116.04 360.341 116.04C361.121 116.04 361.793 116.178 362.357 116.454C362.933 116.718 363.377 117.102 363.689 117.606C364.001 118.11 364.157 118.71 364.157 119.406C364.157 120.138 363.989 120.846 363.653 121.53C363.329 122.202 362.783 122.958 362.015 123.798L357.695 128.478L357.587 127.758H364.697V129H356.453ZM370.882 128.334V117.048L371.728 117.48L368.254 119.694V118.272L371.53 116.184H372.376V128.334H370.882ZM368.056 129V127.758H375.202V129H368.056ZM381.819 129.126C380.991 129.126 380.193 128.988 379.425 128.712C378.669 128.436 378.027 128.046 377.499 127.542L378.075 126.408C378.651 126.9 379.245 127.272 379.857 127.524C380.469 127.764 381.111 127.884 381.783 127.884C382.695 127.884 383.385 127.68 383.853 127.272C384.333 126.864 384.573 126.264 384.573 125.472C384.573 124.68 384.327 124.092 383.835 123.708C383.343 123.312 382.605 123.114 381.621 123.114H380.145V121.872H381.333C382.281 121.872 383.007 121.662 383.511 121.242C384.015 120.822 384.267 120.222 384.267 119.442C384.267 118.746 384.057 118.212 383.637 117.84C383.229 117.468 382.647 117.282 381.891 117.282C381.255 117.282 380.637 117.408 380.037 117.66C379.437 117.9 378.843 118.266 378.255 118.758L377.697 117.624C378.213 117.132 378.849 116.748 379.605 116.472C380.361 116.184 381.141 116.04 381.945 116.04C382.713 116.04 383.385 116.178 383.961 116.454C384.537 116.718 384.975 117.096 385.275 117.588C385.587 118.08 385.743 118.662 385.743 119.334C385.743 120.126 385.533 120.804 385.113 121.368C384.705 121.92 384.141 122.298 383.421 122.502L383.367 122.322C384.231 122.502 384.891 122.868 385.347 123.42C385.803 123.972 386.031 124.674 386.031 125.526C386.031 126.642 385.653 127.524 384.897 128.172C384.141 128.808 383.115 129.126 381.819 129.126ZM388.49 127.146H390.344V129H388.49V127.146ZM396.778 129.126C395.95 129.126 395.152 128.988 394.384 128.712C393.628 128.436 392.986 128.046 392.458 127.542L393.034 126.408C393.61 126.9 394.204 127.272 394.816 127.524C395.428 127.764 396.07 127.884 396.742 127.884C397.654 127.884 398.344 127.68 398.812 127.272C399.292 126.864 399.532 126.264 399.532 125.472C399.532 124.68 399.286 124.092 398.794 123.708C398.302 123.312 397.564 123.114 396.58 123.114H395.104V121.872H396.292C397.24 121.872 397.966 121.662 398.47 121.242C398.974 120.822 399.226 120.222 399.226 119.442C399.226 118.746 399.016 118.212 398.596 117.84C398.188 117.468 397.606 117.282 396.85 117.282C396.214 117.282 395.596 117.408 394.996 117.66C394.396 117.9 393.802 118.266 393.214 118.758L392.656 117.624C393.172 117.132 393.808 116.748 394.564 116.472C395.32 116.184 396.1 116.04 396.904 116.04C397.672 116.04 398.344 116.178 398.92 116.454C399.496 116.718 399.934 117.096 400.234 117.588C400.546 118.08 400.702 118.662 400.702 119.334C400.702 120.126 400.492 120.804 400.072 121.368C399.664 121.92 399.1 122.298 398.38 122.502L398.326 122.322C399.19 122.502 399.85 122.868 400.306 123.42C400.762 123.972 400.99 124.674 400.99 125.526C400.99 126.642 400.612 127.524 399.856 128.172C399.1 128.808 398.074 129.126 396.778 129.126ZM407.301 116.04C408.849 116.04 410.043 116.58 410.883 117.66C411.723 118.728 412.143 120.264 412.143 122.268C412.143 123.72 411.945 124.962 411.549 125.994C411.165 127.014 410.601 127.794 409.857 128.334C409.125 128.874 408.237 129.144 407.193 129.144C406.461 129.144 405.741 129.012 405.033 128.748C404.337 128.472 403.719 128.076 403.179 127.56L403.755 126.426C404.367 126.942 404.949 127.32 405.501 127.56C406.053 127.788 406.611 127.902 407.175 127.902C408.279 127.902 409.131 127.416 409.731 126.444C410.343 125.46 410.649 124.074 410.649 122.286V120.738L410.883 121.206C410.787 121.83 410.565 122.37 410.217 122.826C409.869 123.27 409.431 123.618 408.903 123.87C408.375 124.11 407.793 124.23 407.157 124.23C406.377 124.23 405.687 124.062 405.087 123.726C404.487 123.378 404.019 122.898 403.683 122.286C403.347 121.674 403.179 120.966 403.179 120.162C403.179 119.37 403.353 118.662 403.701 118.038C404.061 117.414 404.553 116.928 405.177 116.58C405.801 116.22 406.509 116.04 407.301 116.04ZM407.373 117.282C406.545 117.282 405.879 117.546 405.375 118.074C404.883 118.59 404.637 119.28 404.637 120.144C404.637 120.996 404.889 121.686 405.393 122.214C405.897 122.73 406.563 122.988 407.391 122.988C407.943 122.988 408.435 122.868 408.867 122.628C409.299 122.376 409.635 122.04 409.875 121.62C410.115 121.188 410.235 120.696 410.235 120.144C410.235 119.568 410.115 119.07 409.875 118.65C409.635 118.218 409.299 117.882 408.867 117.642C408.435 117.402 407.937 117.282 407.373 117.282Z" fill="black"/>
<path d="M343.64 174.012H340.168V173.032H348.274V174.012H344.802V183H343.64V174.012ZM351.723 175.79C351.957 175.79 352.171 175.818 352.367 175.874L352.339 176.91C352.125 176.835 351.877 176.798 351.597 176.798C350.916 176.798 350.407 177.013 350.071 177.442C349.745 177.862 349.581 178.375 349.581 178.982V183H348.447V177.932C348.447 177.204 348.41 176.546 348.335 175.958H349.413L349.525 177.26C349.703 176.784 349.987 176.42 350.379 176.168C350.771 175.916 351.219 175.79 351.723 175.79ZM359.585 175.958V183H358.465V181.726C358.26 182.165 357.947 182.505 357.527 182.748C357.116 182.981 356.636 183.098 356.085 183.098C355.46 183.098 354.909 182.949 354.433 182.65C353.966 182.351 353.602 181.931 353.341 181.39C353.089 180.839 352.963 180.2 352.963 179.472C352.963 178.744 353.094 178.105 353.355 177.554C353.616 176.994 353.98 176.56 354.447 176.252C354.923 175.944 355.469 175.79 356.085 175.79C356.636 175.79 357.116 175.911 357.527 176.154C357.938 176.397 358.25 176.737 358.465 177.176V175.958H359.585ZM356.309 182.16C357 182.16 357.532 181.927 357.905 181.46C358.278 180.984 358.465 180.312 358.465 179.444C358.465 178.576 358.278 177.909 357.905 177.442C357.532 176.975 357 176.742 356.309 176.742C355.618 176.742 355.077 176.985 354.685 177.47C354.302 177.946 354.111 178.613 354.111 179.472C354.111 180.331 354.302 180.993 354.685 181.46C355.068 181.927 355.609 182.16 356.309 182.16ZM365.292 175.79C366.981 175.79 367.826 176.719 367.826 178.576V183H366.692V178.632C366.692 177.979 366.561 177.503 366.3 177.204C366.038 176.896 365.628 176.742 365.068 176.742C364.414 176.742 363.892 176.943 363.5 177.344C363.108 177.745 362.912 178.287 362.912 178.968V183H361.778V177.932C361.778 177.204 361.74 176.546 361.666 175.958H362.744L362.856 177.218C363.07 176.761 363.392 176.411 363.822 176.168C364.251 175.916 364.741 175.79 365.292 175.79ZM372.347 183.098C371.162 183.098 370.224 182.795 369.533 182.188L369.911 181.348C370.294 181.647 370.681 181.861 371.073 181.992C371.465 182.123 371.904 182.188 372.389 182.188C372.921 182.188 373.322 182.099 373.593 181.922C373.873 181.735 374.013 181.469 374.013 181.124C374.013 180.844 373.92 180.62 373.733 180.452C373.546 180.284 373.238 180.153 372.809 180.06L371.619 179.78C371.031 179.649 370.574 179.416 370.247 179.08C369.93 178.744 369.771 178.343 369.771 177.876C369.771 177.26 370.018 176.761 370.513 176.378C371.008 175.986 371.661 175.79 372.473 175.79C372.968 175.79 373.434 175.869 373.873 176.028C374.312 176.187 374.68 176.415 374.979 176.714L374.601 177.54C373.938 176.989 373.229 176.714 372.473 176.714C371.969 176.714 371.577 176.812 371.297 177.008C371.026 177.195 370.891 177.461 370.891 177.806C370.891 178.095 370.975 178.324 371.143 178.492C371.32 178.66 371.6 178.791 371.983 178.884L373.173 179.178C373.826 179.327 374.312 179.561 374.629 179.878C374.946 180.186 375.105 180.592 375.105 181.096C375.105 181.703 374.858 182.188 374.363 182.552C373.868 182.916 373.196 183.098 372.347 183.098ZM379.614 173.62C379.241 173.62 378.947 173.727 378.732 173.942C378.527 174.147 378.424 174.507 378.424 175.02V175.958H380.146V176.854H378.424V183H377.29V176.854H375.918V175.958H377.29V174.88C377.29 174.143 377.472 173.587 377.836 173.214C378.21 172.831 378.728 172.64 379.39 172.64C379.717 172.64 380.034 172.682 380.342 172.766V173.732C380.081 173.657 379.838 173.62 379.614 173.62ZM387.455 179.444H382.289C382.298 180.34 382.503 181.017 382.905 181.474C383.315 181.931 383.908 182.16 384.683 182.16C385.504 182.16 386.26 181.885 386.951 181.334L387.329 182.16C387.021 182.449 386.624 182.678 386.139 182.846C385.663 183.014 385.173 183.098 384.669 183.098C383.567 183.098 382.704 182.776 382.079 182.132C381.453 181.479 381.141 180.587 381.141 179.458C381.141 178.739 381.281 178.105 381.561 177.554C381.841 176.994 382.233 176.56 382.737 176.252C383.241 175.944 383.815 175.79 384.459 175.79C385.392 175.79 386.125 176.098 386.657 176.714C387.189 177.321 387.455 178.161 387.455 179.234V179.444ZM384.473 176.672C383.885 176.672 383.404 176.849 383.031 177.204C382.667 177.559 382.433 178.058 382.331 178.702H386.433C386.377 178.039 386.181 177.535 385.845 177.19C385.518 176.845 385.061 176.672 384.473 176.672ZM392.452 175.79C392.685 175.79 392.9 175.818 393.096 175.874L393.068 176.91C392.853 176.835 392.606 176.798 392.326 176.798C391.645 176.798 391.136 177.013 390.8 177.442C390.473 177.862 390.31 178.375 390.31 178.982V183H389.176V177.932C389.176 177.204 389.139 176.546 389.064 175.958H390.142L390.254 177.26C390.431 176.784 390.716 176.42 391.108 176.168C391.5 175.916 391.948 175.79 392.452 175.79Z" fill="#565D67"/>
<path d="M411.525 206.536H406.485L405.421 209H403.951L408.389 199.032H409.607L414.059 209H412.589L411.525 206.536ZM411.035 205.388L409.005 200.642L406.975 205.388H411.035ZM415.35 199.032H421.818V200.208H416.778V203.344H421.538V204.52H416.778V207.824H421.818V209H415.35V199.032ZM423.621 199.032H427.107C428.722 199.032 429.972 199.466 430.859 200.334C431.746 201.202 432.189 202.425 432.189 204.002C432.189 205.589 431.746 206.821 430.859 207.698C429.972 208.566 428.722 209 427.107 209H423.621V199.032ZM427.023 207.796C429.478 207.796 430.705 206.531 430.705 204.002C430.705 201.491 429.478 200.236 427.023 200.236H425.063V207.796H427.023Z" fill="black" fill-opacity="0.23"/>
<path d="M345.004 196.04C346.552 196.04 347.746 196.58 348.586 197.66C349.426 198.728 349.846 200.264 349.846 202.268C349.846 203.72 349.648 204.962 349.252 205.994C348.868 207.014 348.304 207.794 347.56 208.334C346.828 208.874 345.94 209.144 344.896 209.144C344.164 209.144 343.444 209.012 342.736 208.748C342.04 208.472 341.422 208.076 340.882 207.56L341.458 206.426C342.07 206.942 342.652 207.32 343.204 207.56C343.756 207.788 344.314 207.902 344.878 207.902C345.982 207.902 346.834 207.416 347.434 206.444C348.046 205.46 348.352 204.074 348.352 202.286V200.738L348.586 201.206C348.49 201.83 348.268 202.37 347.92 202.826C347.572 203.27 347.134 203.618 346.606 203.87C346.078 204.11 345.496 204.23 344.86 204.23C344.08 204.23 343.39 204.062 342.79 203.726C342.19 203.378 341.722 202.898 341.386 202.286C341.05 201.674 340.882 200.966 340.882 200.162C340.882 199.37 341.056 198.662 341.404 198.038C341.764 197.414 342.256 196.928 342.88 196.58C343.504 196.22 344.212 196.04 345.004 196.04ZM345.076 197.282C344.248 197.282 343.582 197.546 343.078 198.074C342.586 198.59 342.34 199.28 342.34 200.144C342.34 200.996 342.592 201.686 343.096 202.214C343.6 202.73 344.266 202.988 345.094 202.988C345.646 202.988 346.138 202.868 346.57 202.628C347.002 202.376 347.338 202.04 347.578 201.62C347.818 201.188 347.938 200.696 347.938 200.144C347.938 199.568 347.818 199.07 347.578 198.65C347.338 198.218 347.002 197.882 346.57 197.642C346.138 197.402 345.64 197.282 345.076 197.282ZM356.193 209.126C355.257 209.126 354.447 208.988 353.763 208.712C353.079 208.424 352.545 208.016 352.161 207.488C351.789 206.96 351.603 206.33 351.603 205.598C351.603 204.71 351.903 203.972 352.503 203.384C353.103 202.796 353.907 202.43 354.915 202.286L354.825 202.556C353.889 202.376 353.163 202.01 352.647 201.458C352.143 200.906 351.891 200.234 351.891 199.442C351.891 198.746 352.071 198.146 352.431 197.642C352.803 197.126 353.307 196.73 353.943 196.454C354.591 196.178 355.341 196.04 356.193 196.04C357.045 196.04 357.789 196.178 358.425 196.454C359.073 196.73 359.577 197.126 359.937 197.642C360.309 198.146 360.495 198.746 360.495 199.442C360.495 200.234 360.237 200.912 359.721 201.476C359.217 202.028 358.503 202.388 357.579 202.556L357.471 202.286C358.515 202.43 359.325 202.802 359.901 203.402C360.489 203.99 360.783 204.722 360.783 205.598C360.783 206.33 360.591 206.96 360.207 207.488C359.835 208.016 359.307 208.424 358.623 208.712C357.939 208.988 357.129 209.126 356.193 209.126ZM356.193 207.902C357.201 207.902 357.975 207.698 358.515 207.29C359.055 206.882 359.325 206.288 359.325 205.508C359.325 204.776 359.031 204.206 358.443 203.798C357.855 203.378 357.105 203.12 356.193 203.024C355.281 203.12 354.531 203.378 353.943 203.798C353.355 204.206 353.061 204.776 353.061 205.508C353.061 206.288 353.331 206.882 353.871 207.29C354.411 207.698 355.185 207.902 356.193 207.902ZM356.193 201.998C357.033 201.902 357.711 201.644 358.227 201.224C358.755 200.804 359.019 200.246 359.019 199.55C359.019 198.83 358.767 198.272 358.263 197.876C357.771 197.468 357.081 197.264 356.193 197.264C355.305 197.264 354.609 197.468 354.105 197.876C353.613 198.272 353.367 198.83 353.367 199.55C353.367 200.246 353.625 200.804 354.141 201.224C354.669 201.644 355.353 201.902 356.193 201.998ZM366.986 209.144C365.522 209.144 364.406 208.592 363.638 207.488C362.882 206.372 362.504 204.74 362.504 202.592C362.504 200.444 362.882 198.818 363.638 197.714C364.394 196.598 365.51 196.04 366.986 196.04C368.462 196.04 369.578 196.598 370.334 197.714C371.09 198.818 371.468 200.438 371.468 202.574C371.468 204.722 371.084 206.354 370.316 207.47C369.56 208.586 368.45 209.144 366.986 209.144ZM366.986 207.902C368.006 207.902 368.756 207.47 369.236 206.606C369.728 205.742 369.974 204.398 369.974 202.574C369.974 200.75 369.728 199.418 369.236 198.578C368.756 197.726 368.006 197.3 366.986 197.3C365.966 197.3 365.21 197.726 364.718 198.578C364.238 199.43 363.998 200.762 363.998 202.574C363.998 204.398 364.238 205.742 364.718 206.606C365.21 207.47 365.966 207.902 366.986 207.902ZM373.531 207.146H375.385V209H373.531V207.146ZM380.163 209H378.579L384.861 196.832L384.987 197.426H377.715V196.184H386.175V197.282L380.163 209ZM394.124 209V198.038H394.574L389.246 205.724L389.264 204.986H397.544V206.21H388.22V205.094L394.394 196.184H395.6V209H394.124Z" fill="black"/>
<rect x="260" y="164" width="56" height="56" rx="16" fill="#FBECEC"/>
<path d="M281 198L288 205L295 198" stroke="#FF2020" stroke-linecap="round" stroke-linejoin="round"/>
<path d="M288 178L288 204" stroke="#FF2020" stroke-linecap="round" stroke-linejoin="round"/>
<g filter="url(#filter4_d)">
<rect x="155" y="459" width="300" height="64" rx="10" fill="white"/>
</g>
<rect x="155" y="443" width="96" height="96" rx="24" fill="#32353E"/>
<path d="M191.844 471.312V510.688" stroke="white" stroke-miterlimit="10" stroke-linecap="square"/>
<path d="M185.281 471.312H215.349C216.865 471.312 218.094 472.488 218.094 473.938V508.062C218.094 509.512 216.865 510.688 215.349 510.688H185.281V471.312Z" stroke="white" stroke-miterlimit="10" stroke-linecap="square"/>
<path d="M222.031 476.562V481.812" stroke="white" stroke-miterlimit="10" stroke-linecap="square"/>
<path d="M222.031 487.062V492.312" stroke="white" stroke-miterlimit="10" stroke-linecap="square"/>
<path d="M204.969 489.031C206.418 489.031 207.594 487.856 207.594 486.406C207.594 484.957 206.418 483.781 204.969 483.781C203.519 483.781 202.344 484.957 202.344 486.406C202.344 487.856 203.519 489.031 204.969 489.031Z" stroke="white" stroke-miterlimit="10" stroke-linecap="square"/>
<path d="M211.531 497.562H198.406C198.406 494.663 200.757 492.312 203.656 492.312H206.281C209.181 492.312 211.531 494.663 211.531 497.562Z" stroke="white" stroke-miterlimit="10" stroke-linecap="square"/>
<path d="M288.736 492.904H285.296V496.344H284.304V492.904H280.864V491.896H284.304V488.456H285.296V491.896H288.736V492.904ZM297.994 495.896V497H291.642V495.896H294.154V487.24L291.818 488.728V487.464L294.73 485.608H295.482V495.896H297.994ZM312.431 494.52H310.703V497H309.391V494.52H304.143V493.528L309.631 485.608H310.703V493.432H312.431V494.52ZM309.391 493.432V487.832L305.503 493.432H309.391ZM321.353 495.896V497H315.001V495.896H317.513V487.24L315.177 488.728V487.464L318.089 485.608H318.841V495.896H321.353ZM327.827 489.848C328.542 489.848 329.166 490.003 329.699 490.312C330.243 490.611 330.659 491.032 330.947 491.576C331.235 492.12 331.379 492.749 331.379 493.464C331.379 494.179 331.219 494.813 330.899 495.368C330.59 495.923 330.142 496.355 329.555 496.664C328.979 496.963 328.302 497.112 327.523 497.112C326.83 497.112 326.147 496.989 325.475 496.744C324.803 496.488 324.238 496.141 323.779 495.704L324.275 494.696C325.331 495.571 326.414 496.008 327.523 496.008C328.323 496.008 328.947 495.784 329.395 495.336C329.854 494.877 330.083 494.259 330.083 493.48C330.083 492.723 329.859 492.115 329.411 491.656C328.963 491.187 328.366 490.952 327.619 490.952C326.531 490.952 325.662 491.395 325.011 492.28H324.099V485.608H330.931V486.696H325.411V490.76C326.04 490.152 326.846 489.848 327.827 489.848ZM342.681 491.144C343.353 491.336 343.865 491.667 344.217 492.136C344.569 492.605 344.745 493.197 344.745 493.912C344.745 494.904 344.409 495.688 343.737 496.264C343.065 496.829 342.153 497.112 341.001 497.112C340.265 497.112 339.555 496.989 338.873 496.744C338.201 496.499 337.63 496.152 337.161 495.704L337.673 494.696C338.729 495.571 339.827 496.008 340.969 496.008C341.779 496.008 342.393 495.827 342.809 495.464C343.235 495.101 343.449 494.568 343.449 493.864C343.449 492.467 342.574 491.768 340.825 491.768H339.513V490.664H340.569C341.411 490.664 342.057 490.477 342.505 490.104C342.953 489.731 343.177 489.197 343.177 488.504C343.177 487.885 342.99 487.411 342.617 487.08C342.254 486.749 341.737 486.584 341.065 486.584C339.977 486.584 338.899 487.021 337.833 487.896L337.337 486.888C337.795 486.451 338.355 486.109 339.017 485.864C339.689 485.608 340.387 485.48 341.113 485.48C342.137 485.48 342.953 485.741 343.561 486.264C344.179 486.787 344.489 487.491 344.489 488.376C344.489 489.027 344.329 489.597 344.009 490.088C343.689 490.579 343.246 490.931 342.681 491.144ZM350.354 485.48C351.73 485.48 352.792 485.96 353.538 486.92C354.285 487.88 354.658 489.245 354.658 491.016C354.658 492.947 354.269 494.451 353.49 495.528C352.722 496.595 351.645 497.128 350.258 497.128C349.608 497.128 348.968 497.005 348.338 496.76C347.72 496.515 347.17 496.168 346.69 495.72L347.202 494.712C347.746 495.171 348.264 495.507 348.754 495.72C349.245 495.923 349.741 496.024 350.242 496.024C351.224 496.024 351.981 495.587 352.514 494.712C353.058 493.837 353.33 492.611 353.33 491.032V490.824C353.085 491.421 352.685 491.896 352.13 492.248C351.576 492.589 350.941 492.76 350.226 492.76C349.533 492.76 348.92 492.611 348.386 492.312C347.853 492.003 347.437 491.576 347.138 491.032C346.84 490.477 346.69 489.848 346.69 489.144C346.69 488.44 346.845 487.811 347.154 487.256C347.474 486.701 347.912 486.269 348.466 485.96C349.021 485.64 349.65 485.48 350.354 485.48ZM350.434 491.656C351.181 491.656 351.789 491.421 352.258 490.952C352.728 490.483 352.962 489.875 352.962 489.128C352.962 488.371 352.728 487.757 352.258 487.288C351.789 486.819 351.176 486.584 350.418 486.584C349.693 486.584 349.106 486.819 348.658 487.288C348.21 487.747 347.986 488.36 347.986 489.128C347.986 489.885 348.21 490.499 348.658 490.968C349.106 491.427 349.698 491.656 350.434 491.656ZM360.3 497.128C358.999 497.128 358.007 496.637 357.324 495.656C356.652 494.664 356.316 493.213 356.316 491.304C356.316 489.395 356.652 487.949 357.324 486.968C358.007 485.976 358.999 485.48 360.3 485.48C361.601 485.48 362.588 485.976 363.26 486.968C363.943 487.949 364.284 489.389 364.284 491.288C364.284 493.197 363.943 494.648 363.26 495.64C362.588 496.632 361.601 497.128 360.3 497.128ZM360.3 496.024C361.207 496.024 361.873 495.64 362.3 494.872C362.737 494.104 362.956 492.909 362.956 491.288C362.956 489.677 362.743 488.493 362.316 487.736C361.889 486.979 361.217 486.6 360.3 486.6C359.393 486.6 358.721 486.979 358.284 487.736C357.857 488.493 357.644 489.677 357.644 491.288C357.644 492.899 357.857 494.093 358.284 494.872C358.721 495.64 359.393 496.024 360.3 496.024ZM366.262 492.168H370.79V493.24H366.262V492.168ZM380.609 495.896V497H373.281V496.008L377.265 491.592C377.798 490.995 378.188 490.456 378.433 489.976C378.678 489.496 378.801 489.016 378.801 488.536C378.801 487.907 378.62 487.427 378.257 487.096C377.894 486.755 377.377 486.584 376.705 486.584C375.617 486.584 374.54 487.021 373.473 487.896L372.977 486.888C373.425 486.461 373.99 486.12 374.673 485.864C375.356 485.608 376.044 485.48 376.737 485.48C377.782 485.48 378.609 485.752 379.217 486.296C379.825 486.829 380.129 487.555 380.129 488.472C380.129 489.123 379.98 489.752 379.681 490.36C379.393 490.957 378.908 491.629 378.225 492.376L374.977 495.896H380.609ZM386.827 489.848C387.52 489.848 388.134 490.003 388.667 490.312C389.211 490.611 389.632 491.037 389.931 491.592C390.23 492.136 390.379 492.76 390.379 493.464C390.379 494.168 390.219 494.797 389.899 495.352C389.59 495.907 389.158 496.344 388.603 496.664C388.048 496.973 387.419 497.128 386.715 497.128C385.339 497.128 384.278 496.648 383.531 495.688C382.784 494.728 382.411 493.363 382.411 491.592C382.411 490.312 382.582 489.213 382.923 488.296C383.275 487.379 383.776 486.68 384.427 486.2C385.088 485.72 385.878 485.48 386.795 485.48C387.456 485.48 388.096 485.603 388.715 485.848C389.344 486.093 389.894 486.44 390.363 486.888L389.867 487.896C389.334 487.448 388.822 487.117 388.331 486.904C387.84 486.691 387.339 486.584 386.827 486.584C385.846 486.584 385.083 487.021 384.539 487.896C383.995 488.771 383.723 489.997 383.723 491.576V491.816C383.968 491.208 384.368 490.728 384.923 490.376C385.478 490.024 386.112 489.848 386.827 489.848ZM386.651 496.024C387.376 496.024 387.963 495.795 388.411 495.336C388.859 494.867 389.083 494.248 389.083 493.48C389.083 492.723 388.854 492.115 388.395 491.656C387.947 491.187 387.36 490.952 386.635 490.952C385.888 490.952 385.28 491.187 384.811 491.656C384.342 492.125 384.107 492.733 384.107 493.48C384.107 494.237 384.342 494.851 384.811 495.32C385.28 495.789 385.894 496.024 386.651 496.024ZM397.509 491.144C398.181 491.336 398.693 491.667 399.045 492.136C399.397 492.605 399.573 493.197 399.573 493.912C399.573 494.904 399.237 495.688 398.565 496.264C397.893 496.829 396.981 497.112 395.829 497.112C395.093 497.112 394.383 496.989 393.701 496.744C393.029 496.499 392.458 496.152 391.989 495.704L392.501 494.696C393.557 495.571 394.655 496.008 395.797 496.008C396.607 496.008 397.221 495.827 397.637 495.464C398.063 495.101 398.277 494.568 398.277 493.864C398.277 492.467 397.402 491.768 395.653 491.768H394.341V490.664H395.397C396.239 490.664 396.885 490.477 397.333 490.104C397.781 489.731 398.005 489.197 398.005 488.504C398.005 487.885 397.818 487.411 397.445 487.08C397.082 486.749 396.565 486.584 395.893 486.584C394.805 486.584 393.727 487.021 392.661 487.896L392.165 486.888C392.623 486.451 393.183 486.109 393.845 485.864C394.517 485.608 395.215 485.48 395.941 485.48C396.965 485.48 397.781 485.741 398.389 486.264C399.007 486.787 399.317 487.491 399.317 488.376C399.317 489.027 399.157 489.597 398.837 490.088C398.517 490.579 398.074 490.931 397.509 491.144ZM409.39 495.896V497H402.062V496.008L406.046 491.592C406.58 490.995 406.969 490.456 407.214 489.976C407.46 489.496 407.582 489.016 407.582 488.536C407.582 487.907 407.401 487.427 407.038 487.096C406.676 486.755 406.158 486.584 405.486 486.584C404.398 486.584 403.321 487.021 402.254 487.896L401.758 486.888C402.206 486.461 402.772 486.12 403.454 485.864C404.137 485.608 404.825 485.48 405.518 485.48C406.564 485.48 407.39 485.752 407.998 486.296C408.606 486.829 408.91 487.555 408.91 488.472C408.91 489.123 408.761 489.752 408.462 490.36C408.174 490.957 407.689 491.629 407.006 492.376L403.758 495.896H409.39Z" fill="black"/>
<defs>
<filter id="filter0_d" x="0" y="144" width="387" height="346" filterUnits="userSpaceOnUse" color-interpolation-filters="sRGB">
<feFlood flood-opacity="0" result="BackgroundImageFix"/>
<feColorMatrix in="SourceAlpha" type="matrix" values="0 0 0 0 0 0 0 0 0 0 0 0 0 0 0 0 0 0 127 0"/>
<feOffset/>
<feGaussianBlur stdDeviation="20.5"/>
<feColorMatrix type="matrix" values="0 0 0 0 0 0 0 0 0 0 0 0 0 0 0 0 0 0 0.06 0"/>
<feBlend mode="normal" in2="BackgroundImageFix" result="effect1_dropShadow"/>
<feBlend mode="normal" in="SourceGraphic" in2="effect1_dropShadow" result="shape"/>
</filter>
<filter id="filter1_d" x="41.75" y="266" width="102.5" height="102.5" filterUnits="userSpaceOnUse" color-interpolation-filters="sRGB">
<feFlood flood-opacity="0" result="BackgroundImageFix"/>
<feColorMatrix in="SourceAlpha" type="matrix" values="0 0 0 0 0 0 0 0 0 0 0 0 0 0 0 0 0 0 127 0"/>
<feOffset dy="6.25"/>
<feGaussianBlur stdDeviation="15.625"/>
<feColorMatrix type="matrix" values="0 0 0 0 0.932201 0 0 0 0 0.941456 0 0 0 0 0.955339 0 0 0 1 0"/>
<feBlend mode="normal" in2="BackgroundImageFix" result="effect1_dropShadow"/>
<feBlend mode="normal" in="SourceGraphic" in2="effect1_dropShadow" result="shape"/>
</filter>
<filter id="filter2_d" x="41.75" y="339" width="102.5" height="102.5" filterUnits="userSpaceOnUse" color-interpolation-filters="sRGB">
<feFlood flood-opacity="0" result="BackgroundImageFix"/>
<feColorMatrix in="SourceAlpha" type="matrix" values="0 0 0 0 0 0 0 0 0 0 0 0 0 0 0 0 0 0 127 0"/>
<feOffset dy="6.25"/>
<feGaussianBlur stdDeviation="15.625"/>
<feColorMatrix type="matrix" values="0 0 0 0 0.932201 0 0 0 0 0.941456 0 0 0 0 0.955339 0 0 0 1 0"/>
<feBlend mode="normal" in2="BackgroundImageFix" result="effect1_dropShadow"/>
<feBlend mode="normal" in="SourceGraphic" in2="effect1_dropShadow" result="shape"/>
</filter>
<filter id="filter3_d" x="152" y="0" width="420" height="352" filterUnits="userSpaceOnUse" color-interpolation-filters="sRGB">
<feFlood flood-opacity="0" result="BackgroundImageFix"/>
<feColorMatrix in="SourceAlpha" type="matrix" values="0 0 0 0 0 0 0 0 0 0 0 0 0 0 0 0 0 0 127 0"/>
<feOffset dy="24"/>
<feGaussianBlur stdDeviation="42"/>
<feColorMatrix type="matrix" values="0 0 0 0 0.263333 0 0 0 0 0.277817 0 0 0 0 0.329167 0 0 0 0.1 0"/>
<feBlend mode="normal" in2="BackgroundImageFix" result="effect1_dropShadow"/>
<feBlend mode="normal" in="SourceGraphic" in2="effect1_dropShadow" result="shape"/>
</filter>
<filter id="filter4_d" x="114" y="418" width="382" height="146" filterUnits="userSpaceOnUse" color-interpolation-filters="sRGB">
<feFlood flood-opacity="0" result="BackgroundImageFix"/>
<feColorMatrix in="SourceAlpha" type="matrix" values="0 0 0 0 0 0 0 0 0 0 0 0 0 0 0 0 0 0 127 0"/>
<feOffset/>
<feGaussianBlur stdDeviation="20.5"/>
<feColorMatrix type="matrix" values="0 0 0 0 0 0 0 0 0 0 0 0 0 0 0 0 0 0 0.06 0"/>
<feBlend mode="normal" in2="BackgroundImageFix" result="effect1_dropShadow"/>
<feBlend mode="normal" in="SourceGraphic" in2="effect1_dropShadow" result="shape"/>
</filter>
</defs>
</svg>
