<svg width="537" height="350" viewBox="0 0 537 350" fill="none" xmlns="http://www.w3.org/2000/svg">
<g filter="url(#filter0_d)">
<rect x="58" y="46" width="270" height="268" rx="20" fill="#C4C4C4"/>
</g>
<path d="M58 24C58 10.7452 68.7452 0 82 0L304 0C317.255 0 328 10.7452 328 24V295C328 308.255 317.255 319 304 319H82C68.7452 319 58 308.255 58 295L58 24Z" fill="white"/>
<line y1="-0.5" x2="210.002" y2="-0.5" transform="matrix(0.999987 0.00499994 -0.00559886 0.999984 88 220)" stroke="#EDF0F5" stroke-dasharray="10 10"/>
<line x1="88" y1="160.5" x2="298" y2="160.5" stroke="#EDF0F5" stroke-dasharray="10 10"/>
<line x1="88" y1="99.5" x2="298" y2="99.5" stroke="#EDF0F5" stroke-dasharray="10 10"/>
<rect x="270" y="175" width="20" height="60" rx="4" fill="#353FFB"/>
<rect x="242" y="138" width="20" height="97" rx="4" fill="#EEBFCF"/>
<rect x="198" y="153" width="20" height="82" rx="4" fill="#353FFB"/>
<rect x="170" y="180" width="20" height="55" rx="4" fill="#EEBFCF"/>
<rect x="126" y="129" width="20" height="106" rx="4" fill="#353FFB"/>
<rect x="98" y="222" width="20" height="13" rx="4" fill="#EEBFCF"/>
<path d="M258.296 249.32V250H254.968V249.32H256.216V245.288L255.056 246.008V245.248L256.568 244.304H257.048V249.32H258.296ZM262.037 247.072C262.368 247.168 262.621 247.333 262.797 247.568C262.973 247.803 263.061 248.099 263.061 248.456C263.061 248.952 262.885 249.344 262.533 249.632C262.186 249.915 261.714 250.056 261.117 250.056C260.738 250.056 260.376 249.997 260.029 249.88C259.688 249.757 259.402 249.587 259.173 249.368L259.469 248.76C259.981 249.176 260.522 249.384 261.093 249.384C261.872 249.384 262.261 249.056 262.261 248.4C262.261 248.08 262.16 247.843 261.957 247.688C261.754 247.528 261.448 247.448 261.037 247.448H260.341V246.776H260.909C261.304 246.776 261.605 246.693 261.813 246.528C262.021 246.363 262.125 246.123 262.125 245.808C262.125 245.52 262.037 245.299 261.861 245.144C261.69 244.989 261.448 244.912 261.133 244.912C260.6 244.912 260.072 245.12 259.549 245.536L259.253 244.928C259.477 244.715 259.76 244.547 260.101 244.424C260.448 244.301 260.805 244.24 261.173 244.24C261.706 244.24 262.13 244.373 262.445 244.64C262.765 244.901 262.925 245.256 262.925 245.704C262.925 246.029 262.848 246.312 262.693 246.552C262.538 246.792 262.32 246.965 262.037 247.072ZM265.034 249.04V250H264.074V249.04H265.034ZM267.916 250.064C267.254 250.064 266.75 249.816 266.404 249.32C266.057 248.824 265.884 248.101 265.884 247.152C265.884 246.203 266.057 245.48 266.404 244.984C266.75 244.488 267.254 244.24 267.916 244.24C268.577 244.24 269.081 244.488 269.428 244.984C269.774 245.475 269.948 246.195 269.948 247.144C269.948 248.099 269.774 248.824 269.428 249.32C269.081 249.816 268.577 250.064 267.916 250.064ZM267.916 249.4C268.326 249.4 268.628 249.219 268.82 248.856C269.017 248.488 269.116 247.917 269.116 247.144C269.116 246.371 269.02 245.805 268.828 245.448C268.636 245.091 268.332 244.912 267.916 244.912C267.505 244.912 267.201 245.093 267.004 245.456C266.812 245.813 266.716 246.376 266.716 247.144C266.716 247.917 266.812 248.488 267.004 248.856C267.201 249.219 267.505 249.4 267.916 249.4ZM274.881 248.816H274.041V250H273.225V248.816H270.673V248.2L273.377 244.304H274.041V248.152H274.881V248.816ZM273.225 248.152V245.64L271.481 248.152H273.225Z" fill="#C4CAD4"/>
<path d="M187.296 249.32V250H183.968V249.32H185.216V245.288L184.056 246.008V245.248L185.568 244.304H186.048V249.32H187.296ZM192.157 249.32V250H188.421V249.384L190.381 247.232C190.632 246.955 190.813 246.704 190.925 246.48C191.042 246.251 191.101 246.024 191.101 245.8C191.101 245.512 191.018 245.293 190.853 245.144C190.688 244.989 190.448 244.912 190.133 244.912C189.605 244.912 189.077 245.12 188.549 245.536L188.253 244.928C188.477 244.72 188.762 244.555 189.109 244.432C189.456 244.304 189.805 244.24 190.157 244.24C190.701 244.24 191.13 244.376 191.445 244.648C191.765 244.92 191.925 245.288 191.925 245.752C191.925 246.083 191.853 246.397 191.709 246.696C191.565 246.989 191.325 247.317 190.989 247.68L189.469 249.32H192.157ZM194.034 249.04V250H193.074V249.04H194.034ZM196.916 250.064C196.254 250.064 195.75 249.816 195.404 249.32C195.057 248.824 194.884 248.101 194.884 247.152C194.884 246.203 195.057 245.48 195.404 244.984C195.75 244.488 196.254 244.24 196.916 244.24C197.577 244.24 198.081 244.488 198.428 244.984C198.774 245.475 198.948 246.195 198.948 247.144C198.948 248.099 198.774 248.824 198.428 249.32C198.081 249.816 197.577 250.064 196.916 250.064ZM196.916 249.4C197.326 249.4 197.628 249.219 197.82 248.856C198.017 248.488 198.116 247.917 198.116 247.144C198.116 246.371 198.02 245.805 197.828 245.448C197.636 245.091 197.332 244.912 196.916 244.912C196.505 244.912 196.201 245.093 196.004 245.456C195.812 245.813 195.716 246.376 195.716 247.144C195.716 247.917 195.812 248.488 196.004 248.856C196.201 249.219 196.505 249.4 196.916 249.4ZM203.881 248.816H203.041V250H202.225V248.816H199.673V248.2L202.377 244.304H203.041V248.152H203.881V248.816ZM202.225 248.152V245.64L200.481 248.152H202.225Z" fill="#C4CAD4"/>
<path d="M116.296 249.32V250H112.968V249.32H114.216V245.288L113.056 246.008V245.248L114.568 244.304H115.048V249.32H116.296ZM119.197 250.064C118.536 250.064 118.032 249.816 117.685 249.32C117.338 248.824 117.165 248.101 117.165 247.152C117.165 246.203 117.338 245.48 117.685 244.984C118.032 244.488 118.536 244.24 119.197 244.24C119.858 244.24 120.362 244.488 120.709 244.984C121.056 245.475 121.229 246.195 121.229 247.144C121.229 248.099 121.056 248.824 120.709 249.32C120.362 249.816 119.858 250.064 119.197 250.064ZM119.197 249.4C119.608 249.4 119.909 249.219 120.101 248.856C120.298 248.488 120.397 247.917 120.397 247.144C120.397 246.371 120.301 245.805 120.109 245.448C119.917 245.091 119.613 244.912 119.197 244.912C118.786 244.912 118.482 245.093 118.285 245.456C118.093 245.813 117.997 246.376 117.997 247.144C117.997 247.917 118.093 248.488 118.285 248.856C118.482 249.219 118.786 249.4 119.197 249.4ZM123.034 249.04V250H122.074V249.04H123.034ZM125.916 250.064C125.254 250.064 124.75 249.816 124.404 249.32C124.057 248.824 123.884 248.101 123.884 247.152C123.884 246.203 124.057 245.48 124.404 244.984C124.75 244.488 125.254 244.24 125.916 244.24C126.577 244.24 127.081 244.488 127.428 244.984C127.774 245.475 127.948 246.195 127.948 247.144C127.948 248.099 127.774 248.824 127.428 249.32C127.081 249.816 126.577 250.064 125.916 250.064ZM125.916 249.4C126.326 249.4 126.628 249.219 126.82 248.856C127.017 248.488 127.116 247.917 127.116 247.144C127.116 246.371 127.02 245.805 126.828 245.448C126.636 245.091 126.332 244.912 125.916 244.912C125.505 244.912 125.201 245.093 125.004 245.456C124.812 245.813 124.716 246.376 124.716 247.144C124.716 247.917 124.812 248.488 125.004 248.856C125.201 249.219 125.505 249.4 125.916 249.4ZM132.881 248.816H132.041V250H131.225V248.816H128.673V248.2L131.377 244.304H132.041V248.152H132.881V248.816ZM131.225 248.152V245.64L129.481 248.152H131.225Z" fill="#C4CAD4"/>
<rect x="137" y="278" width="10" height="10" rx="4" fill="#EEBFCF"/>
<rect x="205" y="278" width="10" height="10" rx="4" fill="#353FFB"/>
<path d="M155.664 280.304H156.488V286H155.664V280.304ZM159.884 281.872C160.85 281.872 161.332 282.411 161.332 283.488V286H160.524V283.536C160.524 283.184 160.455 282.928 160.316 282.768C160.183 282.608 159.967 282.528 159.668 282.528C159.327 282.528 159.052 282.635 158.844 282.848C158.642 283.061 158.54 283.347 158.54 283.704V286H157.74V283.104C157.74 282.683 157.719 282.304 157.676 281.968H158.428L158.5 282.664C158.628 282.408 158.812 282.213 159.052 282.08C159.298 281.941 159.575 281.872 159.884 281.872ZM166.147 281.976L164.395 286H163.667L161.931 281.976H162.787L164.051 285.088L165.339 281.976H166.147ZM170.157 284H167.277C167.304 284.944 167.733 285.416 168.565 285.416C169.029 285.416 169.453 285.264 169.837 284.96L170.085 285.536C169.904 285.696 169.672 285.824 169.389 285.92C169.112 286.011 168.832 286.056 168.549 286.056C167.904 286.056 167.397 285.872 167.029 285.504C166.661 285.131 166.477 284.621 166.477 283.976C166.477 283.565 166.557 283.2 166.717 282.88C166.882 282.56 167.112 282.312 167.405 282.136C167.698 281.96 168.032 281.872 168.405 281.872C168.949 281.872 169.376 282.048 169.685 282.4C170 282.752 170.157 283.24 170.157 283.864V284ZM168.421 282.472C168.117 282.472 167.869 282.563 167.677 282.744C167.485 282.925 167.362 283.184 167.309 283.52H169.445C169.413 283.179 169.309 282.92 169.133 282.744C168.957 282.563 168.72 282.472 168.421 282.472ZM172.492 286.056C171.788 286.056 171.234 285.885 170.828 285.544L171.068 284.96C171.49 285.28 171.972 285.44 172.516 285.44C172.794 285.44 173.004 285.395 173.148 285.304C173.292 285.208 173.364 285.075 173.364 284.904C173.364 284.76 173.314 284.648 173.212 284.568C173.116 284.483 172.951 284.411 172.716 284.352L172.044 284.192C171.692 284.117 171.423 283.987 171.236 283.8C171.055 283.608 170.964 283.371 170.964 283.088C170.964 282.725 171.108 282.432 171.396 282.208C171.69 281.984 172.076 281.872 172.556 281.872C172.844 281.872 173.116 281.917 173.372 282.008C173.634 282.099 173.855 282.227 174.036 282.392L173.788 282.96C173.399 282.651 172.988 282.496 172.556 282.496C172.295 282.496 172.092 282.547 171.948 282.648C171.804 282.744 171.732 282.88 171.732 283.056C171.732 283.195 171.778 283.307 171.868 283.392C171.959 283.477 172.103 283.544 172.3 283.592L172.988 283.76C173.372 283.845 173.655 283.981 173.836 284.168C174.023 284.349 174.116 284.587 174.116 284.88C174.116 285.243 173.97 285.531 173.676 285.744C173.388 285.952 172.994 286.056 172.492 286.056ZM176.078 282.592V284.616C176.078 284.893 176.136 285.091 176.254 285.208C176.376 285.32 176.544 285.376 176.758 285.376C176.896 285.376 177.038 285.355 177.182 285.312V285.968C177.006 286.027 176.806 286.056 176.582 286.056C176.166 286.056 175.843 285.939 175.613 285.704C175.384 285.469 175.27 285.128 175.27 284.68V282.592H174.486V281.968H175.27V280.96L176.078 280.68V281.968H177.19V282.592H176.078ZM181.376 284H178.496C178.522 284.944 178.952 285.416 179.784 285.416C180.248 285.416 180.672 285.264 181.056 284.96L181.304 285.536C181.122 285.696 180.89 285.824 180.608 285.92C180.33 286.011 180.05 286.056 179.768 286.056C179.122 286.056 178.616 285.872 178.248 285.504C177.88 285.131 177.696 284.621 177.696 283.976C177.696 283.565 177.776 283.2 177.936 282.88C178.101 282.56 178.33 282.312 178.624 282.136C178.917 281.96 179.25 281.872 179.624 281.872C180.168 281.872 180.594 282.048 180.904 282.4C181.218 282.752 181.376 283.24 181.376 283.864V284ZM179.64 282.472C179.336 282.472 179.088 282.563 178.896 282.744C178.704 282.925 178.581 283.184 178.528 283.52H180.664C180.632 283.179 180.528 282.92 180.352 282.744C180.176 282.563 179.938 282.472 179.64 282.472ZM185.991 280.112V286H185.191V285.312C185.074 285.552 184.898 285.736 184.663 285.864C184.434 285.992 184.164 286.056 183.855 286.056C183.508 286.056 183.199 285.968 182.927 285.792C182.655 285.616 182.442 285.371 182.287 285.056C182.138 284.736 182.063 284.368 182.063 283.952C182.063 283.536 182.138 283.171 182.287 282.856C182.436 282.541 182.644 282.299 182.911 282.128C183.183 281.957 183.498 281.872 183.855 281.872C184.159 281.872 184.426 281.936 184.655 282.064C184.89 282.192 185.066 282.373 185.183 282.608V280.112H185.991ZM184.039 285.416C184.407 285.416 184.69 285.291 184.887 285.04C185.09 284.784 185.191 284.427 185.191 283.968C185.191 283.509 185.09 283.155 184.887 282.904C184.69 282.648 184.41 282.52 184.047 282.52C183.679 282.52 183.391 282.645 183.183 282.896C182.98 283.147 182.879 283.499 182.879 283.952C182.879 284.411 182.98 284.771 183.183 285.032C183.391 285.288 183.676 285.416 184.039 285.416Z" fill="#565D67"/>
<path d="M223.664 280.304H226.032C226.629 280.304 227.093 280.451 227.424 280.744C227.76 281.032 227.928 281.427 227.928 281.928C227.928 282.429 227.757 282.827 227.416 283.12C227.08 283.408 226.619 283.552 226.032 283.552H224.488V286H223.664V280.304ZM225.936 282.896C226.331 282.896 226.627 282.813 226.824 282.648C227.027 282.483 227.128 282.243 227.128 281.928C227.128 281.619 227.027 281.381 226.824 281.216C226.627 281.051 226.331 280.968 225.936 280.968H224.488V282.896H225.936ZM230.788 281.872C230.91 281.872 231.038 281.891 231.172 281.928L231.156 282.664C231.012 282.611 230.854 282.584 230.684 282.584C230.316 282.584 230.038 282.696 229.852 282.92C229.67 283.139 229.58 283.416 229.58 283.752V286H228.78V283.104C228.78 282.683 228.758 282.304 228.715 281.968H229.468L229.54 282.696C229.646 282.429 229.812 282.227 230.036 282.088C230.26 281.944 230.51 281.872 230.788 281.872ZM233.445 286.056C233.051 286.056 232.704 285.971 232.405 285.8C232.107 285.629 231.875 285.387 231.709 285.072C231.549 284.757 231.469 284.389 231.469 283.968C231.469 283.547 231.549 283.179 231.709 282.864C231.875 282.544 232.107 282.299 232.405 282.128C232.704 281.957 233.051 281.872 233.445 281.872C233.835 281.872 234.179 281.957 234.477 282.128C234.776 282.299 235.005 282.544 235.165 282.864C235.331 283.179 235.413 283.547 235.413 283.968C235.413 284.389 235.331 284.757 235.165 285.072C235.005 285.387 234.776 285.629 234.477 285.8C234.179 285.971 233.835 286.056 233.445 286.056ZM233.437 285.416C233.811 285.416 234.096 285.293 234.293 285.048C234.491 284.803 234.589 284.443 234.589 283.968C234.589 283.504 234.488 283.147 234.285 282.896C234.088 282.645 233.808 282.52 233.445 282.52C233.077 282.52 232.792 282.645 232.589 282.896C232.387 283.147 232.285 283.504 232.285 283.968C232.285 284.443 232.384 284.803 232.581 285.048C232.784 285.293 233.069 285.416 233.437 285.416ZM237.39 281.968H239.942V286H239.134V282.592H237.39V286H236.582V282.592H235.798V281.968H236.582V281.496C236.582 281.149 236.633 280.875 236.734 280.672C236.841 280.469 237.011 280.323 237.246 280.232C237.486 280.136 237.811 280.088 238.222 280.088H238.494V280.696H238.294C238.033 280.696 237.841 280.72 237.718 280.768C237.595 280.811 237.51 280.896 237.462 281.024C237.414 281.147 237.39 281.341 237.39 281.608V281.968ZM240.014 280.168V281.04H239.062V280.168H240.014ZM242.163 282.592V284.616C242.163 284.893 242.222 285.091 242.339 285.208C242.462 285.32 242.63 285.376 242.843 285.376C242.982 285.376 243.123 285.355 243.267 285.312V285.968C243.091 286.027 242.891 286.056 242.667 286.056C242.251 286.056 241.929 285.939 241.699 285.704C241.47 285.469 241.355 285.128 241.355 284.68V282.592H240.571V281.968H241.355V280.96L242.163 280.68V281.968H243.275V282.592H242.163Z" fill="#565D67"/>
<path d="M161.924 45.456H163.472V54H161.924V45.456ZM168.682 47.784C170.13 47.784 170.854 48.616 170.854 50.28V54H169.354V50.352C169.354 49.872 169.262 49.524 169.078 49.308C168.894 49.084 168.61 48.972 168.226 48.972C167.77 48.972 167.402 49.12 167.122 49.416C166.842 49.704 166.702 50.088 166.702 50.568V54H165.214V49.656C165.214 49.016 165.182 48.444 165.118 47.94H166.522L166.63 48.936C166.838 48.568 167.118 48.284 167.47 48.084C167.83 47.884 168.234 47.784 168.682 47.784ZM178.181 47.952L175.529 54H174.221L171.605 47.952H173.177L174.917 52.296L176.693 47.952H178.181ZM184.159 51.048H179.983C180.015 51.696 180.175 52.176 180.463 52.488C180.759 52.792 181.195 52.944 181.771 52.944C182.435 52.944 183.051 52.728 183.619 52.296L184.051 53.328C183.763 53.56 183.407 53.748 182.983 53.892C182.567 54.028 182.143 54.096 181.711 54.096C180.719 54.096 179.939 53.816 179.371 53.256C178.803 52.696 178.519 51.928 178.519 50.952C178.519 50.336 178.643 49.788 178.891 49.308C179.139 48.828 179.487 48.456 179.935 48.192C180.383 47.92 180.891 47.784 181.459 47.784C182.291 47.784 182.947 48.056 183.427 48.6C183.915 49.136 184.159 49.876 184.159 50.82V51.048ZM181.495 48.864C181.095 48.864 180.767 48.984 180.511 49.224C180.263 49.456 180.103 49.796 180.031 50.244H182.851C182.803 49.788 182.663 49.444 182.431 49.212C182.207 48.98 181.895 48.864 181.495 48.864ZM187.649 54.096C186.553 54.096 185.681 53.84 185.033 53.328L185.453 52.272C186.101 52.752 186.841 52.992 187.673 52.992C188.033 52.992 188.309 52.932 188.501 52.812C188.701 52.692 188.801 52.524 188.801 52.308C188.801 52.124 188.733 51.98 188.597 51.876C188.461 51.764 188.229 51.668 187.901 51.588L186.893 51.36C185.789 51.12 185.237 50.556 185.237 49.668C185.237 49.3 185.341 48.976 185.549 48.696C185.757 48.408 186.049 48.184 186.425 48.024C186.801 47.864 187.237 47.784 187.733 47.784C188.165 47.784 188.581 47.852 188.981 47.988C189.381 48.116 189.733 48.304 190.037 48.552L189.593 49.572C188.985 49.124 188.361 48.9 187.721 48.9C187.377 48.9 187.109 48.964 186.917 49.092C186.725 49.22 186.629 49.396 186.629 49.62C186.629 49.796 186.685 49.936 186.797 50.04C186.917 50.144 187.117 50.232 187.397 50.304L188.429 50.532C189.029 50.668 189.465 50.88 189.737 51.168C190.017 51.448 190.157 51.816 190.157 52.272C190.157 52.832 189.933 53.276 189.485 53.604C189.037 53.932 188.425 54.096 187.649 54.096ZM193.29 49.068V51.78C193.29 52.492 193.622 52.848 194.286 52.848C194.47 52.848 194.67 52.816 194.886 52.752V53.94C194.622 54.036 194.302 54.084 193.926 54.084C193.238 54.084 192.71 53.892 192.342 53.508C191.974 53.124 191.79 52.572 191.79 51.852V49.068H190.626V47.94H191.79V46.464L193.29 45.96V47.94H194.898V49.068H193.29ZM203.081 47.784C203.769 47.784 204.281 47.992 204.617 48.408C204.953 48.816 205.121 49.44 205.121 50.28V54H203.621V50.328C203.621 49.848 203.541 49.504 203.381 49.296C203.229 49.08 202.973 48.972 202.613 48.972C202.197 48.972 201.869 49.12 201.629 49.416C201.397 49.704 201.281 50.104 201.281 50.616V54H199.781V50.328C199.781 49.856 199.697 49.512 199.529 49.296C199.369 49.08 199.113 48.972 198.761 48.972C198.345 48.972 198.017 49.12 197.777 49.416C197.537 49.704 197.417 50.104 197.417 50.616V54H195.929V49.656C195.929 49.016 195.897 48.444 195.833 47.94H197.237L197.345 48.9C197.521 48.54 197.773 48.264 198.101 48.072C198.437 47.88 198.821 47.784 199.253 47.784C200.181 47.784 200.785 48.168 201.065 48.936C201.257 48.576 201.529 48.296 201.881 48.096C202.241 47.888 202.641 47.784 203.081 47.784ZM212.026 51.048H207.85C207.882 51.696 208.042 52.176 208.33 52.488C208.626 52.792 209.062 52.944 209.638 52.944C210.302 52.944 210.918 52.728 211.486 52.296L211.918 53.328C211.63 53.56 211.274 53.748 210.85 53.892C210.434 54.028 210.01 54.096 209.578 54.096C208.586 54.096 207.806 53.816 207.238 53.256C206.67 52.696 206.386 51.928 206.386 50.952C206.386 50.336 206.51 49.788 206.758 49.308C207.006 48.828 207.354 48.456 207.802 48.192C208.25 47.92 208.758 47.784 209.326 47.784C210.158 47.784 210.814 48.056 211.294 48.6C211.782 49.136 212.026 49.876 212.026 50.82V51.048ZM209.362 48.864C208.962 48.864 208.634 48.984 208.378 49.224C208.13 49.456 207.97 49.796 207.898 50.244H210.718C210.67 49.788 210.53 49.444 210.298 49.212C210.074 48.98 209.762 48.864 209.362 48.864ZM216.764 47.784C218.212 47.784 218.936 48.616 218.936 50.28V54H217.436V50.352C217.436 49.872 217.344 49.524 217.16 49.308C216.976 49.084 216.692 48.972 216.308 48.972C215.852 48.972 215.484 49.12 215.204 49.416C214.924 49.704 214.784 50.088 214.784 50.568V54H213.296V49.656C213.296 49.016 213.264 48.444 213.2 47.94H214.604L214.712 48.936C214.92 48.568 215.2 48.284 215.552 48.084C215.912 47.884 216.316 47.784 216.764 47.784ZM222.435 49.068V51.78C222.435 52.492 222.767 52.848 223.431 52.848C223.615 52.848 223.815 52.816 224.031 52.752V53.94C223.767 54.036 223.447 54.084 223.071 54.084C222.383 54.084 221.855 53.892 221.487 53.508C221.119 53.124 220.935 52.572 220.935 51.852V49.068H219.771V47.94H220.935V46.464L222.435 45.96V47.94H224.043V49.068H222.435Z" fill="black"/>
<g filter="url(#filter1_d)">
<rect x="237" y="84" width="270" height="44" rx="20" fill="#C4C4C4"/>
</g>
<path d="M237 93C237 81.9543 245.954 73 257 73L487 73C498.046 73 507 81.9543 507 93V112C507 123.046 498.046 132 487 132H257C245.954 132 237 123.046 237 112V93Z" fill="white"/>
<rect x="409" y="80" width="91" height="45" rx="12" fill="#F5F7FA"/>
<path d="M432.63 106.81V108H426.092V106.922L429.522 103.156C429.961 102.671 430.278 102.232 430.474 101.84C430.679 101.439 430.782 101.042 430.782 100.65C430.782 100.146 430.637 99.7633 430.348 99.502C430.059 99.2313 429.639 99.096 429.088 99.096C428.164 99.096 427.24 99.46 426.316 100.188L425.798 99.124C426.19 98.76 426.689 98.4707 427.296 98.256C427.903 98.032 428.514 97.92 429.13 97.92C430.082 97.92 430.833 98.158 431.384 98.634C431.944 99.11 432.224 99.754 432.224 100.566C432.224 101.145 432.098 101.695 431.846 102.218C431.594 102.731 431.174 103.305 430.586 103.94L427.926 106.81H432.63ZM438.071 101.686C438.696 101.686 439.242 101.821 439.709 102.092C440.185 102.353 440.549 102.727 440.801 103.212C441.062 103.688 441.193 104.239 441.193 104.864C441.193 105.508 441.048 106.073 440.759 106.558C440.479 107.043 440.073 107.421 439.541 107.692C439.009 107.963 438.388 108.098 437.679 108.098C437.063 108.098 436.456 107.991 435.859 107.776C435.261 107.561 434.767 107.267 434.375 106.894L434.879 105.83C435.803 106.558 436.741 106.922 437.693 106.922C438.355 106.922 438.869 106.745 439.233 106.39C439.606 106.026 439.793 105.527 439.793 104.892C439.793 104.285 439.606 103.795 439.233 103.422C438.869 103.049 438.379 102.862 437.763 102.862C436.867 102.862 436.148 103.203 435.607 103.884H434.669V98.032H440.773V99.194H436.097V102.358C436.629 101.91 437.287 101.686 438.071 101.686ZM445.989 108.112C444.832 108.112 443.95 107.678 443.343 106.81C442.736 105.942 442.433 104.677 442.433 103.016C442.433 101.355 442.736 100.09 443.343 99.222C443.95 98.354 444.832 97.92 445.989 97.92C447.146 97.92 448.028 98.354 448.635 99.222C449.242 100.081 449.545 101.341 449.545 103.002C449.545 104.673 449.242 105.942 448.635 106.81C448.028 107.678 447.146 108.112 445.989 108.112ZM445.989 106.95C446.708 106.95 447.235 106.633 447.571 105.998C447.916 105.354 448.089 104.355 448.089 103.002C448.089 101.649 447.921 100.659 447.585 100.034C447.249 99.4087 446.717 99.096 445.989 99.096C445.27 99.096 444.738 99.4133 444.393 100.048C444.057 100.673 443.889 101.658 443.889 103.002C443.889 104.355 444.057 105.354 444.393 105.998C444.738 106.633 445.27 106.95 445.989 106.95ZM461.63 105.536H456.59L455.526 108H454.056L458.494 98.032H459.712L464.164 108H462.694L461.63 105.536ZM461.14 104.388L459.11 99.642L457.08 104.388H461.14ZM465.455 98.032H471.923V99.208H466.883V102.344H471.643V103.52H466.883V106.824H471.923V108H465.455V98.032ZM473.726 98.032H477.212C478.827 98.032 480.078 98.466 480.964 99.334C481.851 100.202 482.294 101.425 482.294 103.002C482.294 104.589 481.851 105.821 480.964 106.698C480.078 107.566 478.827 108 477.212 108H473.726V98.032ZM477.128 106.796C479.583 106.796 480.81 105.531 480.81 103.002C480.81 100.491 479.583 99.236 477.128 99.236H475.168V106.796H477.128Z" fill="#32353E"/>
<g filter="url(#filter2_d)">
<rect x="409" y="144" width="91" height="45" rx="12" fill="white"/>
<path d="M429.676 165.686C430.301 165.686 430.847 165.821 431.314 166.092C431.79 166.353 432.154 166.727 432.406 167.212C432.667 167.688 432.798 168.239 432.798 168.864C432.798 169.508 432.653 170.073 432.364 170.558C432.084 171.043 431.678 171.421 431.146 171.692C430.614 171.963 429.993 172.098 429.284 172.098C428.668 172.098 428.061 171.991 427.464 171.776C426.867 171.561 426.372 171.267 425.98 170.894L426.484 169.83C427.408 170.558 428.346 170.922 429.298 170.922C429.961 170.922 430.474 170.745 430.838 170.39C431.211 170.026 431.398 169.527 431.398 168.892C431.398 168.285 431.211 167.795 430.838 167.422C430.474 167.049 429.984 166.862 429.368 166.862C428.472 166.862 427.753 167.203 427.212 167.884H426.274V162.032H432.378V163.194H427.702V166.358C428.234 165.91 428.892 165.686 429.676 165.686ZM437.595 172.112C436.437 172.112 435.555 171.678 434.949 170.81C434.342 169.942 434.039 168.677 434.039 167.016C434.039 165.355 434.342 164.09 434.949 163.222C435.555 162.354 436.437 161.92 437.595 161.92C438.752 161.92 439.634 162.354 440.241 163.222C440.847 164.081 441.151 165.341 441.151 167.002C441.151 168.673 440.847 169.942 440.241 170.81C439.634 171.678 438.752 172.112 437.595 172.112ZM437.595 170.95C438.313 170.95 438.841 170.633 439.177 169.998C439.522 169.354 439.695 168.355 439.695 167.002C439.695 165.649 439.527 164.659 439.191 164.034C438.855 163.409 438.323 163.096 437.595 163.096C436.876 163.096 436.344 163.413 435.999 164.048C435.663 164.673 435.495 165.658 435.495 167.002C435.495 168.355 435.663 169.354 435.999 169.998C436.344 170.633 436.876 170.95 437.595 170.95ZM445.989 172.112C444.832 172.112 443.95 171.678 443.343 170.81C442.736 169.942 442.433 168.677 442.433 167.016C442.433 165.355 442.736 164.09 443.343 163.222C443.95 162.354 444.832 161.92 445.989 161.92C447.146 161.92 448.028 162.354 448.635 163.222C449.242 164.081 449.545 165.341 449.545 167.002C449.545 168.673 449.242 169.942 448.635 170.81C448.028 171.678 447.146 172.112 445.989 172.112ZM445.989 170.95C446.708 170.95 447.235 170.633 447.571 169.998C447.916 169.354 448.089 168.355 448.089 167.002C448.089 165.649 447.921 164.659 447.585 164.034C447.249 163.409 446.717 163.096 445.989 163.096C445.27 163.096 444.738 163.413 444.393 164.048C444.057 164.673 443.889 165.658 443.889 167.002C443.889 168.355 444.057 169.354 444.393 169.998C444.738 170.633 445.27 170.95 445.989 170.95ZM461.63 169.536H456.59L455.526 172H454.056L458.494 162.032H459.712L464.164 172H462.694L461.63 169.536ZM461.14 168.388L459.11 163.642L457.08 168.388H461.14ZM465.455 162.032H471.923V163.208H466.883V166.344H471.643V167.52H466.883V170.824H471.923V172H465.455V162.032ZM473.726 162.032H477.212C478.827 162.032 480.078 162.466 480.964 163.334C481.851 164.202 482.294 165.425 482.294 167.002C482.294 168.589 481.851 169.821 480.964 170.698C480.078 171.566 478.827 172 477.212 172H473.726V162.032ZM477.128 170.796C479.583 170.796 480.81 169.531 480.81 167.002C480.81 164.491 479.583 163.236 477.128 163.236H475.168V170.796H477.128Z" fill="#727986"/>
</g>
<path d="M265.924 98.456H267.472V107H265.924V98.456ZM272.682 100.784C274.13 100.784 274.854 101.616 274.854 103.28V107H273.354V103.352C273.354 102.872 273.262 102.524 273.078 102.308C272.894 102.084 272.61 101.972 272.226 101.972C271.77 101.972 271.402 102.12 271.122 102.416C270.842 102.704 270.702 103.088 270.702 103.568V107H269.214V102.656C269.214 102.016 269.182 101.444 269.118 100.94H270.522L270.63 101.936C270.838 101.568 271.118 101.284 271.47 101.084C271.83 100.884 272.234 100.784 272.682 100.784ZM282.181 100.952L279.529 107H278.221L275.605 100.952H277.177L278.917 105.296L280.693 100.952H282.181ZM288.159 104.048H283.983C284.015 104.696 284.175 105.176 284.463 105.488C284.759 105.792 285.195 105.944 285.771 105.944C286.435 105.944 287.051 105.728 287.619 105.296L288.051 106.328C287.763 106.56 287.407 106.748 286.983 106.892C286.567 107.028 286.143 107.096 285.711 107.096C284.719 107.096 283.939 106.816 283.371 106.256C282.803 105.696 282.519 104.928 282.519 103.952C282.519 103.336 282.643 102.788 282.891 102.308C283.139 101.828 283.487 101.456 283.935 101.192C284.383 100.92 284.891 100.784 285.459 100.784C286.291 100.784 286.947 101.056 287.427 101.6C287.915 102.136 288.159 102.876 288.159 103.82V104.048ZM285.495 101.864C285.095 101.864 284.767 101.984 284.511 102.224C284.263 102.456 284.103 102.796 284.031 103.244H286.851C286.803 102.788 286.663 102.444 286.431 102.212C286.207 101.98 285.895 101.864 285.495 101.864ZM291.649 107.096C290.553 107.096 289.681 106.84 289.033 106.328L289.453 105.272C290.101 105.752 290.841 105.992 291.673 105.992C292.033 105.992 292.309 105.932 292.501 105.812C292.701 105.692 292.801 105.524 292.801 105.308C292.801 105.124 292.733 104.98 292.597 104.876C292.461 104.764 292.229 104.668 291.901 104.588L290.893 104.36C289.789 104.12 289.237 103.556 289.237 102.668C289.237 102.3 289.341 101.976 289.549 101.696C289.757 101.408 290.049 101.184 290.425 101.024C290.801 100.864 291.237 100.784 291.733 100.784C292.165 100.784 292.581 100.852 292.981 100.988C293.381 101.116 293.733 101.304 294.037 101.552L293.593 102.572C292.985 102.124 292.361 101.9 291.721 101.9C291.377 101.9 291.109 101.964 290.917 102.092C290.725 102.22 290.629 102.396 290.629 102.62C290.629 102.796 290.685 102.936 290.797 103.04C290.917 103.144 291.117 103.232 291.397 103.304L292.429 103.532C293.029 103.668 293.465 103.88 293.737 104.168C294.017 104.448 294.157 104.816 294.157 105.272C294.157 105.832 293.933 106.276 293.485 106.604C293.037 106.932 292.425 107.096 291.649 107.096ZM297.29 102.068V104.78C297.29 105.492 297.622 105.848 298.286 105.848C298.47 105.848 298.67 105.816 298.886 105.752V106.94C298.622 107.036 298.302 107.084 297.926 107.084C297.238 107.084 296.71 106.892 296.342 106.508C295.974 106.124 295.79 105.572 295.79 104.852V102.068H294.626V100.94H295.79V99.464L297.29 98.96V100.94H298.898V102.068H297.29ZM305.233 104.048H301.057C301.089 104.696 301.249 105.176 301.537 105.488C301.833 105.792 302.269 105.944 302.845 105.944C303.509 105.944 304.125 105.728 304.693 105.296L305.125 106.328C304.837 106.56 304.481 106.748 304.057 106.892C303.641 107.028 303.217 107.096 302.785 107.096C301.793 107.096 301.013 106.816 300.445 106.256C299.877 105.696 299.593 104.928 299.593 103.952C299.593 103.336 299.717 102.788 299.965 102.308C300.213 101.828 300.561 101.456 301.009 101.192C301.457 100.92 301.965 100.784 302.533 100.784C303.365 100.784 304.021 101.056 304.501 101.6C304.989 102.136 305.233 102.876 305.233 103.82V104.048ZM302.569 101.864C302.169 101.864 301.841 101.984 301.585 102.224C301.337 102.456 301.177 102.796 301.105 103.244H303.925C303.877 102.788 303.737 102.444 303.505 102.212C303.281 101.98 302.969 101.864 302.569 101.864ZM312.299 98.168V107H310.824V106.028C310.64 106.364 310.376 106.628 310.032 106.82C309.688 107.004 309.296 107.096 308.855 107.096C308.336 107.096 307.872 106.964 307.464 106.7C307.056 106.436 306.736 106.064 306.504 105.584C306.28 105.096 306.168 104.54 306.168 103.916C306.168 103.292 306.28 102.744 306.504 102.272C306.728 101.8 307.044 101.436 307.451 101.18C307.86 100.916 308.328 100.784 308.855 100.784C309.288 100.784 309.672 100.876 310.008 101.06C310.352 101.236 310.616 101.488 310.8 101.816V98.168H312.299ZM309.252 105.92C309.748 105.92 310.132 105.748 310.404 105.404C310.684 105.06 310.824 104.572 310.824 103.94C310.824 103.308 310.688 102.82 310.416 102.476C310.144 102.132 309.76 101.96 309.264 101.96C308.76 101.96 308.368 102.132 308.088 102.476C307.816 102.812 307.68 103.292 307.68 103.916C307.68 104.548 307.816 105.04 308.088 105.392C308.368 105.744 308.756 105.92 309.252 105.92Z" fill="black"/>
<rect y="189" width="97" height="97" rx="24" fill="#32353E"/>
<path d="M48.5 229C56.5081 229 63 226.314 63 223C63 219.686 56.5081 217 48.5 217C40.4919 217 34 219.686 34 223C34 226.314 40.4919 229 48.5 229Z" stroke="white" stroke-miterlimit="10" stroke-linecap="square"/>
<path d="M34 223V232.6C34 236.134 40.4912 239 48.5 239C56.5088 239 63 236.134 63 232.6V223" stroke="white" stroke-miterlimit="10"/>
<path d="M34 233V242.6C34 246.134 40.4912 249 48.5 249C56.5088 249 63 246.134 63 242.6V233" stroke="white" stroke-miterlimit="10"/>
<path d="M34 242V251.6C34 255.134 40.4912 258 48.5 258C56.5088 258 63 255.134 63 251.6V242" stroke="white" stroke-miterlimit="10"/>
<defs>
<filter id="filter0_d" x="28" y="22" width="330" height="328" filterUnits="userSpaceOnUse" color-interpolation-filters="sRGB">
<feFlood flood-opacity="0" result="BackgroundImageFix"/>
<feColorMatrix in="SourceAlpha" type="matrix" values="0 0 0 0 0 0 0 0 0 0 0 0 0 0 0 0 0 0 127 0"/>
<feOffset dy="6"/>
<feGaussianBlur stdDeviation="15"/>
<feColorMatrix type="matrix" values="0 0 0 0 0 0 0 0 0 0.0846354 0 0 0 0 0.270833 0 0 0 0.06 0"/>
<feBlend mode="normal" in2="BackgroundImageFix" result="effect1_dropShadow"/>
<feBlend mode="normal" in="SourceGraphic" in2="effect1_dropShadow" result="shape"/>
</filter>
<filter id="filter1_d" x="207" y="60" width="330" height="104" filterUnits="userSpaceOnUse" color-interpolation-filters="sRGB">
<feFlood flood-opacity="0" result="BackgroundImageFix"/>
<feColorMatrix in="SourceAlpha" type="matrix" values="0 0 0 0 0 0 0 0 0 0 0 0 0 0 0 0 0 0 127 0"/>
<feOffset dy="6"/>
<feGaussianBlur stdDeviation="15"/>
<feColorMatrix type="matrix" values="0 0 0 0 0 0 0 0 0 0.0846354 0 0 0 0 0.270833 0 0 0 0.06 0"/>
<feBlend mode="normal" in2="BackgroundImageFix" result="effect1_dropShadow"/>
<feBlend mode="normal" in="SourceGraphic" in2="effect1_dropShadow" result="shape"/>
</filter>
<filter id="filter2_d" x="385" y="128" width="139" height="93" filterUnits="userSpaceOnUse" color-interpolation-filters="sRGB">
<feFlood flood-opacity="0" result="BackgroundImageFix"/>
<feColorMatrix in="SourceAlpha" type="matrix" values="0 0 0 0 0 0 0 0 0 0 0 0 0 0 0 0 0 0 127 0"/>
<feOffset dy="8"/>
<feGaussianBlur stdDeviation="12"/>
<feColorMatrix type="matrix" values="0 0 0 0 0.2175 0 0 0 0 0.2208 0 0 0 0 0.3 0 0 0 0.1 0"/>
<feBlend mode="normal" in2="BackgroundImageFix" result="effect1_dropShadow"/>
<feBlend mode="normal" in="SourceGraphic" in2="effect1_dropShadow" result="shape"/>
</filter>
</defs>
</svg>
