<svg width="488" height="448" viewBox="0 0 488 448" fill="none" xmlns="http://www.w3.org/2000/svg">
<g filter="url(#filter0_d)">
<rect x="84" y="60" width="320" height="280" rx="32" fill="white"/>
</g>
<rect x="124" y="205.914" width="91" height="45" rx="12" fill="#F5F7FA"/>
<path d="M147.518 232.724V233.914H141.694V232.724H143.878V225.668L141.848 226.928V225.598L144.494 223.946H145.334V232.724H147.518ZM152.595 234.026C151.437 234.026 150.555 233.592 149.949 232.724C149.342 231.856 149.039 230.591 149.039 228.93C149.039 227.268 149.342 226.004 149.949 225.136C150.555 224.268 151.437 223.834 152.595 223.834C153.752 223.834 154.634 224.268 155.241 225.136C155.847 225.994 156.151 227.254 156.151 228.916C156.151 230.586 155.847 231.856 155.241 232.724C154.634 233.592 153.752 234.026 152.595 234.026ZM152.595 232.864C153.313 232.864 153.841 232.546 154.177 231.912C154.522 231.268 154.695 230.269 154.695 228.916C154.695 227.562 154.527 226.573 154.191 225.948C153.855 225.322 153.323 225.01 152.595 225.01C151.876 225.01 151.344 225.327 150.999 225.962C150.663 226.587 150.495 227.572 150.495 228.916C150.495 230.269 150.663 231.268 150.999 231.912C151.344 232.546 151.876 232.864 152.595 232.864ZM160.989 234.026C159.832 234.026 158.95 233.592 158.343 232.724C157.736 231.856 157.433 230.591 157.433 228.93C157.433 227.268 157.736 226.004 158.343 225.136C158.95 224.268 159.832 223.834 160.989 223.834C162.146 223.834 163.028 224.268 163.635 225.136C164.242 225.994 164.545 227.254 164.545 228.916C164.545 230.586 164.242 231.856 163.635 232.724C163.028 233.592 162.146 234.026 160.989 234.026ZM160.989 232.864C161.708 232.864 162.235 232.546 162.571 231.912C162.916 231.268 163.089 230.269 163.089 228.916C163.089 227.562 162.921 226.573 162.585 225.948C162.249 225.322 161.717 225.01 160.989 225.01C160.27 225.01 159.738 225.327 159.393 225.962C159.057 226.587 158.889 227.572 158.889 228.916C158.889 230.269 159.057 231.268 159.393 231.912C159.738 232.546 160.27 232.864 160.989 232.864ZM176.63 231.45H171.59L170.526 233.914H169.056L173.494 223.946H174.712L179.164 233.914H177.694L176.63 231.45ZM176.14 230.302L174.11 225.556L172.08 230.302H176.14ZM180.455 223.946H186.923V225.122H181.883V228.258H186.643V229.434H181.883V232.738H186.923V233.914H180.455V223.946ZM188.726 223.946H192.212C193.827 223.946 195.078 224.38 195.964 225.248C196.851 226.116 197.294 227.338 197.294 228.916C197.294 230.502 196.851 231.734 195.964 232.612C195.078 233.48 193.827 233.914 192.212 233.914H188.726V223.946ZM192.128 232.71C194.583 232.71 195.81 231.445 195.81 228.916C195.81 226.405 194.583 225.15 192.128 225.15H190.168V232.71H192.128Z" fill="#32353E"/>
<rect x="231" y="205.914" width="91" height="45" rx="12" fill="#F5F7FA"/>
<path d="M254.63 232.724V233.914H248.092V232.836L251.522 229.07C251.961 228.584 252.278 228.146 252.474 227.754C252.679 227.352 252.782 226.956 252.782 226.564C252.782 226.06 252.637 225.677 252.348 225.416C252.059 225.145 251.639 225.01 251.088 225.01C250.164 225.01 249.24 225.374 248.316 226.102L247.798 225.038C248.19 224.674 248.689 224.384 249.296 224.17C249.903 223.946 250.514 223.834 251.13 223.834C252.082 223.834 252.833 224.072 253.384 224.548C253.944 225.024 254.224 225.668 254.224 226.48C254.224 227.058 254.098 227.609 253.846 228.132C253.594 228.645 253.174 229.219 252.586 229.854L249.926 232.724H254.63ZM260.071 227.6C260.696 227.6 261.242 227.735 261.709 228.006C262.185 228.267 262.549 228.64 262.801 229.126C263.062 229.602 263.193 230.152 263.193 230.778C263.193 231.422 263.048 231.986 262.759 232.472C262.479 232.957 262.073 233.335 261.541 233.606C261.009 233.876 260.388 234.012 259.679 234.012C259.063 234.012 258.456 233.904 257.859 233.69C257.261 233.475 256.767 233.181 256.375 232.808L256.879 231.744C257.803 232.472 258.741 232.836 259.693 232.836C260.355 232.836 260.869 232.658 261.233 232.304C261.606 231.94 261.793 231.44 261.793 230.806C261.793 230.199 261.606 229.709 261.233 229.336C260.869 228.962 260.379 228.776 259.763 228.776C258.867 228.776 258.148 229.116 257.607 229.798H256.669V223.946H262.773V225.108H258.097V228.272C258.629 227.824 259.287 227.6 260.071 227.6ZM267.989 234.026C266.832 234.026 265.95 233.592 265.343 232.724C264.736 231.856 264.433 230.591 264.433 228.93C264.433 227.268 264.736 226.004 265.343 225.136C265.95 224.268 266.832 223.834 267.989 223.834C269.146 223.834 270.028 224.268 270.635 225.136C271.242 225.994 271.545 227.254 271.545 228.916C271.545 230.586 271.242 231.856 270.635 232.724C270.028 233.592 269.146 234.026 267.989 234.026ZM267.989 232.864C268.708 232.864 269.235 232.546 269.571 231.912C269.916 231.268 270.089 230.269 270.089 228.916C270.089 227.562 269.921 226.573 269.585 225.948C269.249 225.322 268.717 225.01 267.989 225.01C267.27 225.01 266.738 225.327 266.393 225.962C266.057 226.587 265.889 227.572 265.889 228.916C265.889 230.269 266.057 231.268 266.393 231.912C266.738 232.546 267.27 232.864 267.989 232.864ZM283.63 231.45H278.59L277.526 233.914H276.056L280.494 223.946H281.712L286.164 233.914H284.694L283.63 231.45ZM283.14 230.302L281.11 225.556L279.08 230.302H283.14ZM287.455 223.946H293.923V225.122H288.883V228.258H293.643V229.434H288.883V232.738H293.923V233.914H287.455V223.946ZM295.726 223.946H299.212C300.827 223.946 302.078 224.38 302.964 225.248C303.851 226.116 304.294 227.338 304.294 228.916C304.294 230.502 303.851 231.734 302.964 232.612C302.078 233.48 300.827 233.914 299.212 233.914H295.726V223.946ZM299.128 232.71C301.583 232.71 302.81 231.445 302.81 228.916C302.81 226.405 301.583 225.15 299.128 225.15H297.168V232.71H299.128Z" fill="#32353E"/>
<g filter="url(#filter1_d)">
<rect x="338" y="205.914" width="91" height="45" rx="12" fill="white"/>
<path d="M358.676 227.6C359.301 227.6 359.847 227.735 360.314 228.006C360.79 228.267 361.154 228.64 361.406 229.126C361.667 229.602 361.798 230.152 361.798 230.778C361.798 231.422 361.653 231.986 361.364 232.472C361.084 232.957 360.678 233.335 360.146 233.606C359.614 233.876 358.993 234.012 358.284 234.012C357.668 234.012 357.061 233.904 356.464 233.69C355.867 233.475 355.372 233.181 354.98 232.808L355.484 231.744C356.408 232.472 357.346 232.836 358.298 232.836C358.961 232.836 359.474 232.658 359.838 232.304C360.211 231.94 360.398 231.44 360.398 230.806C360.398 230.199 360.211 229.709 359.838 229.336C359.474 228.962 358.984 228.776 358.368 228.776C357.472 228.776 356.753 229.116 356.212 229.798H355.274V223.946H361.378V225.108H356.702V228.272C357.234 227.824 357.892 227.6 358.676 227.6ZM366.595 234.026C365.437 234.026 364.555 233.592 363.949 232.724C363.342 231.856 363.039 230.591 363.039 228.93C363.039 227.268 363.342 226.004 363.949 225.136C364.555 224.268 365.437 223.834 366.595 223.834C367.752 223.834 368.634 224.268 369.241 225.136C369.847 225.994 370.151 227.254 370.151 228.916C370.151 230.586 369.847 231.856 369.241 232.724C368.634 233.592 367.752 234.026 366.595 234.026ZM366.595 232.864C367.313 232.864 367.841 232.546 368.177 231.912C368.522 231.268 368.695 230.269 368.695 228.916C368.695 227.562 368.527 226.573 368.191 225.948C367.855 225.322 367.323 225.01 366.595 225.01C365.876 225.01 365.344 225.327 364.999 225.962C364.663 226.587 364.495 227.572 364.495 228.916C364.495 230.269 364.663 231.268 364.999 231.912C365.344 232.546 365.876 232.864 366.595 232.864ZM374.989 234.026C373.832 234.026 372.95 233.592 372.343 232.724C371.736 231.856 371.433 230.591 371.433 228.93C371.433 227.268 371.736 226.004 372.343 225.136C372.95 224.268 373.832 223.834 374.989 223.834C376.146 223.834 377.028 224.268 377.635 225.136C378.242 225.994 378.545 227.254 378.545 228.916C378.545 230.586 378.242 231.856 377.635 232.724C377.028 233.592 376.146 234.026 374.989 234.026ZM374.989 232.864C375.708 232.864 376.235 232.546 376.571 231.912C376.916 231.268 377.089 230.269 377.089 228.916C377.089 227.562 376.921 226.573 376.585 225.948C376.249 225.322 375.717 225.01 374.989 225.01C374.27 225.01 373.738 225.327 373.393 225.962C373.057 226.587 372.889 227.572 372.889 228.916C372.889 230.269 373.057 231.268 373.393 231.912C373.738 232.546 374.27 232.864 374.989 232.864ZM390.63 231.45H385.59L384.526 233.914H383.056L387.494 223.946H388.712L393.164 233.914H391.694L390.63 231.45ZM390.14 230.302L388.11 225.556L386.08 230.302H390.14ZM394.455 223.946H400.923V225.122H395.883V228.258H400.643V229.434H395.883V232.738H400.923V233.914H394.455V223.946ZM402.726 223.946H406.212C407.827 223.946 409.078 224.38 409.964 225.248C410.851 226.116 411.294 227.338 411.294 228.916C411.294 230.502 410.851 231.734 409.964 232.612C409.078 233.48 407.827 233.914 406.212 233.914H402.726V223.946ZM406.128 232.71C408.583 232.71 409.81 231.445 409.81 228.916C409.81 226.405 408.583 225.15 406.128 225.15H404.168V232.71H406.128Z" fill="#727986"/>
</g>
<path d="M138.928 154.336C136.848 154.336 134.8 153.968 132.784 153.232C130.768 152.464 129.072 151.424 127.696 150.112L129.184 147.088C130.752 148.368 132.336 149.344 133.936 150.016C135.568 150.688 137.232 151.024 138.928 151.024C141.328 151.024 143.2 150.352 144.544 149.008C145.92 147.632 146.608 145.776 146.608 143.44C146.608 141.936 146.304 140.624 145.696 139.504C145.088 138.352 144.224 137.456 143.104 136.816C142.016 136.176 140.72 135.856 139.216 135.856C137.584 135.856 136.112 136.192 134.8 136.864C133.52 137.504 132.384 138.496 131.392 139.84H128.656V119.824H149.152V123.088H132.592V136.912L131.344 136.768C132.272 135.424 133.456 134.384 134.896 133.648C136.368 132.912 138.016 132.544 139.84 132.544C142.016 132.544 143.904 133.008 145.504 133.936C147.104 134.832 148.336 136.096 149.2 137.728C150.064 139.36 150.496 141.248 150.496 143.392C150.496 145.536 150.016 147.44 149.056 149.104C148.128 150.736 146.8 152.016 145.072 152.944C143.344 153.872 141.296 154.336 138.928 154.336ZM167.181 154.384C163.277 154.384 160.301 152.912 158.253 149.968C156.237 146.992 155.229 142.64 155.229 136.912C155.229 131.184 156.237 126.848 158.253 123.904C160.269 120.928 163.245 119.44 167.181 119.44C171.117 119.44 174.093 120.928 176.109 123.904C178.125 126.848 179.133 131.168 179.133 136.864C179.133 142.592 178.109 146.944 176.061 149.92C174.045 152.896 171.085 154.384 167.181 154.384ZM167.181 151.072C169.901 151.072 171.901 149.92 173.181 147.616C174.493 145.312 175.149 141.728 175.149 136.864C175.149 132 174.493 128.448 173.181 126.208C171.901 123.936 169.901 122.8 167.181 122.8C164.461 122.8 162.445 123.936 161.133 126.208C159.853 128.48 159.213 132.032 159.213 136.864C159.213 141.728 159.853 145.312 161.133 147.616C162.445 149.92 164.461 151.072 167.181 151.072ZM195.963 154.384C192.059 154.384 189.083 152.912 187.035 149.968C185.019 146.992 184.011 142.64 184.011 136.912C184.011 131.184 185.019 126.848 187.035 123.904C189.051 120.928 192.027 119.44 195.963 119.44C199.899 119.44 202.875 120.928 204.891 123.904C206.907 126.848 207.915 131.168 207.915 136.864C207.915 142.592 206.891 146.944 204.843 149.92C202.827 152.896 199.867 154.384 195.963 154.384ZM195.963 151.072C198.683 151.072 200.683 149.92 201.963 147.616C203.275 145.312 203.931 141.728 203.931 136.864C203.931 132 203.275 128.448 201.963 126.208C200.683 123.936 198.683 122.8 195.963 122.8C193.243 122.8 191.227 123.936 189.915 126.208C188.635 128.48 187.995 132.032 187.995 136.864C187.995 141.728 188.635 145.312 189.915 147.616C191.227 149.92 193.243 151.072 195.963 151.072Z" fill="#1B1D22"/>
<path d="M326.645 149.992H318.293L316.565 154H313.445L321.173 136.912H323.693L331.445 154H328.349L326.645 149.992ZM325.613 147.592L322.469 140.272L319.325 147.592H325.613ZM333.293 136.912H344.717V139.36H336.317V144.088H344.213V146.536H336.317V151.552H344.717V154H333.293V136.912ZM347.567 136.912H353.855C356.655 136.912 358.823 137.656 360.359 139.144C361.911 140.632 362.687 142.728 362.687 145.432C362.687 148.152 361.911 150.264 360.359 151.768C358.823 153.256 356.655 154 353.855 154H347.567V136.912ZM353.663 151.48C357.599 151.48 359.567 149.464 359.567 145.432C359.567 141.432 357.599 139.432 353.663 139.432H350.663V151.48H353.663Z" fill="#C4CAD4"/>
<path d="M215 112L215 160" stroke="#353FFB" stroke-width="2" stroke-linecap="round"/>
<rect x="260" y="292" width="96" height="96" rx="24" fill="#32353E"/>
<g clip-path="url(#clip0)">
<path d="M327 320L295 343V359L302 354" stroke="white" stroke-miterlimit="10"/>
<path d="M285 336L327 320L319 360L285 336Z" stroke="white" stroke-miterlimit="10" stroke-linecap="square"/>
</g>
<defs>
<filter id="filter0_d" x="0" y="0" width="488" height="448" filterUnits="userSpaceOnUse" color-interpolation-filters="sRGB">
<feFlood flood-opacity="0" result="BackgroundImageFix"/>
<feColorMatrix in="SourceAlpha" type="matrix" values="0 0 0 0 0 0 0 0 0 0 0 0 0 0 0 0 0 0 127 0"/>
<feOffset dy="24"/>
<feGaussianBlur stdDeviation="42"/>
<feColorMatrix type="matrix" values="0 0 0 0 0.2175 0 0 0 0 0.2208 0 0 0 0 0.3 0 0 0 0.1 0"/>
<feBlend mode="normal" in2="BackgroundImageFix" result="effect1_dropShadow"/>
<feBlend mode="normal" in="SourceGraphic" in2="effect1_dropShadow" result="shape"/>
</filter>
<filter id="filter1_d" x="314" y="189.914" width="139" height="93" filterUnits="userSpaceOnUse" color-interpolation-filters="sRGB">
<feFlood flood-opacity="0" result="BackgroundImageFix"/>
<feColorMatrix in="SourceAlpha" type="matrix" values="0 0 0 0 0 0 0 0 0 0 0 0 0 0 0 0 0 0 127 0"/>
<feOffset dy="8"/>
<feGaussianBlur stdDeviation="12"/>
<feColorMatrix type="matrix" values="0 0 0 0 0.2175 0 0 0 0 0.2208 0 0 0 0 0.3 0 0 0 0.1 0"/>
<feBlend mode="normal" in2="BackgroundImageFix" result="effect1_dropShadow"/>
<feBlend mode="normal" in="SourceGraphic" in2="effect1_dropShadow" result="shape"/>
</filter>
<clipPath id="clip0">
<rect x="284" y="316" width="48" height="48" fill="white"/>
</clipPath>
</defs>
</svg>
