<svg width="477" height="355" viewBox="0 0 477 355" fill="none" xmlns="http://www.w3.org/2000/svg">
<g filter="url(#filter0_d)">
<rect x="58" y="60" width="232" height="230" rx="20" fill="#C4C4C4"/>
</g>
<path d="M58 45C58 31.7452 68.7452 21 82 21L266 21C279.255 21 290 31.7452 290 45V270C290 283.255 279.255 294 266 294H82C68.7452 294 58 283.255 58 270L58 45Z" fill="white"/>
<path d="M136.244 119.456V128H135.008V124.172H130.22V128H128.996V119.456H130.22V123.152H135.008V119.456H136.244ZM143.282 125H138.962C139.002 126.416 139.646 127.124 140.894 127.124C141.59 127.124 142.226 126.896 142.802 126.44L143.174 127.304C142.902 127.544 142.554 127.736 142.13 127.88C141.714 128.016 141.294 128.084 140.87 128.084C139.902 128.084 139.142 127.808 138.59 127.256C138.038 126.696 137.762 125.932 137.762 124.964C137.762 124.348 137.882 123.8 138.122 123.32C138.37 122.84 138.714 122.468 139.154 122.204C139.594 121.94 140.094 121.808 140.654 121.808C141.47 121.808 142.11 122.072 142.574 122.6C143.046 123.128 143.282 123.86 143.282 124.796V125ZM140.678 122.708C140.222 122.708 139.85 122.844 139.562 123.116C139.274 123.388 139.09 123.776 139.01 124.28H142.214C142.166 123.768 142.01 123.38 141.746 123.116C141.482 122.844 141.126 122.708 140.678 122.708ZM146.785 128.084C145.729 128.084 144.897 127.828 144.289 127.316L144.649 126.44C145.281 126.92 146.005 127.16 146.821 127.16C147.237 127.16 147.553 127.092 147.769 126.956C147.985 126.812 148.093 126.612 148.093 126.356C148.093 126.14 148.017 125.972 147.865 125.852C147.721 125.724 147.473 125.616 147.121 125.528L146.113 125.288C145.585 125.176 145.181 124.98 144.901 124.7C144.629 124.412 144.493 124.056 144.493 123.632C144.493 123.088 144.709 122.648 145.141 122.312C145.581 121.976 146.161 121.808 146.881 121.808C147.313 121.808 147.721 121.876 148.105 122.012C148.497 122.148 148.829 122.34 149.101 122.588L148.729 123.44C148.145 122.976 147.529 122.744 146.881 122.744C146.489 122.744 146.185 122.82 145.969 122.972C145.753 123.116 145.645 123.32 145.645 123.584C145.645 123.792 145.713 123.96 145.849 124.088C145.985 124.216 146.201 124.316 146.497 124.388L147.529 124.64C148.105 124.768 148.529 124.972 148.801 125.252C149.081 125.524 149.221 125.88 149.221 126.32C149.221 126.864 149.001 127.296 148.561 127.616C148.129 127.928 147.537 128.084 146.785 128.084ZM153.866 121.808C155.314 121.808 156.038 122.616 156.038 124.232V128H154.826V124.304C154.826 123.776 154.722 123.392 154.514 123.152C154.314 122.912 153.99 122.792 153.542 122.792C153.03 122.792 152.618 122.952 152.306 123.272C152.002 123.592 151.85 124.02 151.85 124.556V128H150.65V119.168H151.85V122.888C152.05 122.536 152.326 122.268 152.678 122.084C153.03 121.9 153.426 121.808 153.866 121.808ZM163.295 121.952V128H162.095V126.968C161.919 127.328 161.655 127.604 161.303 127.796C160.959 127.988 160.555 128.084 160.091 128.084C159.555 128.084 159.083 127.956 158.675 127.7C158.275 127.444 157.963 127.084 157.739 126.62C157.515 126.148 157.403 125.6 157.403 124.976C157.403 124.352 157.515 123.8 157.739 123.32C157.971 122.84 158.291 122.468 158.699 122.204C159.107 121.94 159.571 121.808 160.091 121.808C160.555 121.808 160.959 121.908 161.303 122.108C161.647 122.3 161.911 122.576 162.095 122.936V121.952H163.295ZM160.379 127.124C160.923 127.124 161.343 126.936 161.639 126.56C161.943 126.176 162.095 125.64 162.095 124.952C162.095 124.256 161.943 123.72 161.639 123.344C161.343 122.968 160.919 122.78 160.367 122.78C159.823 122.78 159.395 122.976 159.083 123.368C158.779 123.752 158.627 124.288 158.627 124.976C158.627 125.656 158.779 126.184 159.083 126.56C159.395 126.936 159.827 127.124 160.379 127.124ZM171.976 121.808C173.32 121.808 173.992 122.616 173.992 124.232V128H172.78V124.292C172.78 123.772 172.688 123.392 172.504 123.152C172.328 122.912 172.04 122.792 171.64 122.792C171.176 122.792 170.808 122.952 170.536 123.272C170.272 123.592 170.14 124.028 170.14 124.58V128H168.928V124.292C168.928 123.772 168.836 123.392 168.652 123.152C168.476 122.912 168.188 122.792 167.788 122.792C167.324 122.792 166.956 122.952 166.684 123.272C166.412 123.592 166.276 124.028 166.276 124.58V128H165.076V123.656C165.076 123.024 165.044 122.456 164.979 121.952H166.108L166.216 122.96C166.392 122.592 166.644 122.308 166.972 122.108C167.3 121.908 167.684 121.808 168.124 121.808C169.06 121.808 169.672 122.196 169.96 122.972C170.144 122.612 170.412 122.328 170.764 122.12C171.124 121.912 171.528 121.808 171.976 121.808ZM185.959 123.464V127.496C185.599 127.68 185.143 127.828 184.591 127.94C184.047 128.044 183.491 128.096 182.923 128.096C182.059 128.096 181.311 127.924 180.679 127.58C180.047 127.228 179.563 126.724 179.227 126.068C178.899 125.412 178.735 124.628 178.735 123.716C178.735 122.82 178.899 122.044 179.227 121.388C179.563 120.732 180.039 120.232 180.655 119.888C181.279 119.536 182.011 119.36 182.851 119.36C183.451 119.36 184.003 119.452 184.507 119.636C185.019 119.812 185.455 120.068 185.815 120.404L185.371 121.328C184.963 120.992 184.563 120.752 184.171 120.608C183.779 120.464 183.343 120.392 182.863 120.392C181.935 120.392 181.227 120.676 180.739 121.244C180.259 121.812 180.019 122.636 180.019 123.716C180.019 124.828 180.267 125.672 180.763 126.248C181.259 126.816 181.991 127.1 182.959 127.1C183.607 127.1 184.231 127.004 184.831 126.812V124.412H182.839V123.464H185.959ZM190.967 121.808C192.415 121.808 193.139 122.616 193.139 124.232V128H191.927V124.304C191.927 123.776 191.823 123.392 191.615 123.152C191.415 122.912 191.091 122.792 190.643 122.792C190.131 122.792 189.719 122.952 189.407 123.272C189.103 123.592 188.951 124.02 188.951 124.556V128H187.751V119.168H188.951V122.888C189.151 122.536 189.427 122.268 189.779 122.084C190.131 121.9 190.527 121.808 190.967 121.808ZM200.397 121.952V128H199.197V126.968C199.021 127.328 198.757 127.604 198.405 127.796C198.061 127.988 197.657 128.084 197.193 128.084C196.657 128.084 196.185 127.956 195.777 127.7C195.377 127.444 195.065 127.084 194.841 126.62C194.617 126.148 194.505 125.6 194.505 124.976C194.505 124.352 194.617 123.8 194.841 123.32C195.073 122.84 195.393 122.468 195.801 122.204C196.209 121.94 196.673 121.808 197.193 121.808C197.657 121.808 198.061 121.908 198.405 122.108C198.749 122.3 199.013 122.576 199.197 122.936V121.952H200.397ZM197.481 127.124C198.025 127.124 198.445 126.936 198.741 126.56C199.045 126.176 199.197 125.64 199.197 124.952C199.197 124.256 199.045 123.72 198.741 123.344C198.445 122.968 198.021 122.78 197.469 122.78C196.925 122.78 196.497 122.976 196.185 123.368C195.881 123.752 195.729 124.288 195.729 124.976C195.729 125.656 195.881 126.184 196.185 126.56C196.497 126.936 196.929 127.124 197.481 127.124ZM205.393 121.808C206.841 121.808 207.565 122.616 207.565 124.232V128H206.353V124.304C206.353 123.776 206.249 123.392 206.041 123.152C205.841 122.912 205.517 122.792 205.069 122.792C204.557 122.792 204.145 122.952 203.833 123.272C203.529 123.592 203.377 124.02 203.377 124.556V128H202.177V123.656C202.177 123.024 202.145 122.456 202.081 121.952H203.209L203.317 122.996C203.509 122.612 203.785 122.32 204.145 122.12C204.513 121.912 204.929 121.808 205.393 121.808ZM214.822 119.168V128H213.622V126.968C213.446 127.328 213.182 127.604 212.83 127.796C212.486 127.988 212.082 128.084 211.618 128.084C211.098 128.084 210.634 127.952 210.226 127.688C209.818 127.424 209.498 127.056 209.266 126.584C209.042 126.104 208.93 125.552 208.93 124.928C208.93 124.304 209.042 123.756 209.266 123.284C209.49 122.812 209.802 122.448 210.202 122.192C210.61 121.936 211.082 121.808 211.618 121.808C212.074 121.808 212.474 121.904 212.818 122.096C213.17 122.288 213.434 122.56 213.61 122.912V119.168H214.822ZM211.894 127.124C212.446 127.124 212.87 126.936 213.166 126.56C213.47 126.176 213.622 125.64 213.622 124.952C213.622 124.264 213.47 123.732 213.166 123.356C212.87 122.972 212.45 122.78 211.906 122.78C211.354 122.78 210.922 122.968 210.61 123.344C210.306 123.72 210.154 124.248 210.154 124.928C210.154 125.616 210.306 126.156 210.61 126.548C210.922 126.932 211.35 127.124 211.894 127.124ZM219.207 128.084C218.615 128.084 218.095 127.956 217.647 127.7C217.199 127.444 216.851 127.08 216.603 126.608C216.363 126.136 216.243 125.584 216.243 124.952C216.243 124.32 216.363 123.768 216.603 123.296C216.851 122.816 217.199 122.448 217.647 122.192C218.095 121.936 218.615 121.808 219.207 121.808C219.791 121.808 220.307 121.936 220.755 122.192C221.203 122.448 221.547 122.816 221.787 123.296C222.035 123.768 222.159 124.32 222.159 124.952C222.159 125.584 222.035 126.136 221.787 126.608C221.547 127.08 221.203 127.444 220.755 127.7C220.307 127.956 219.791 128.084 219.207 128.084ZM219.195 127.124C219.755 127.124 220.183 126.94 220.479 126.572C220.775 126.204 220.923 125.664 220.923 124.952C220.923 124.256 220.771 123.72 220.467 123.344C220.171 122.968 219.751 122.78 219.207 122.78C218.655 122.78 218.227 122.968 217.923 123.344C217.619 123.72 217.467 124.256 217.467 124.952C217.467 125.664 217.615 126.204 217.911 126.572C218.215 126.94 218.643 127.124 219.195 127.124ZM228.832 121.952V128H227.656V126.992C227.464 127.344 227.2 127.616 226.864 127.808C226.528 127.992 226.148 128.084 225.724 128.084C224.268 128.084 223.54 127.276 223.54 125.66V121.952H224.74V125.648C224.74 126.144 224.84 126.512 225.04 126.752C225.248 126.984 225.56 127.1 225.976 127.1C226.472 127.1 226.868 126.94 227.164 126.62C227.468 126.3 227.62 125.876 227.62 125.348V121.952H228.832ZM233.619 121.808C233.803 121.808 233.995 121.836 234.195 121.892L234.171 122.996C233.955 122.916 233.719 122.876 233.463 122.876C232.911 122.876 232.495 123.044 232.215 123.38C231.943 123.708 231.807 124.124 231.807 124.628V128H230.607V123.656C230.607 123.024 230.575 122.456 230.511 121.952H231.639L231.747 123.044C231.907 122.644 232.155 122.34 232.491 122.132C232.827 121.916 233.203 121.808 233.619 121.808Z" fill="#32353E"/>
<g filter="url(#filter1_d)">
<rect x="73" y="100" width="46" height="46" rx="14" fill="white"/>
</g>
<path d="M99.25 126H94.75C92.7609 126 90.8532 126.79 89.4467 128.197C88.0402 129.603 87.25 131.511 87.25 133.5H106.75C106.75 132.515 106.556 131.54 106.179 130.63C105.802 129.72 105.25 128.893 104.553 128.197C103.857 127.5 103.03 126.948 102.12 126.571C101.21 126.194 100.235 126 99.25 126V126Z" stroke="#C4CAD4" stroke-linecap="round" stroke-linejoin="round"/>
<path d="M97 123.5C99.8995 123.5 102.25 121.149 102.25 118.25C102.25 115.351 99.8995 113 97 113C94.1005 113 91.75 115.351 91.75 118.25C91.75 121.149 94.1005 123.5 97 123.5Z" stroke="#C4CAD4" stroke-linecap="round" stroke-linejoin="round"/>
<path d="M132.668 188.096C131.86 188.096 131.156 187.92 130.556 187.568C129.964 187.208 129.504 186.7 129.176 186.044C128.856 185.388 128.696 184.616 128.696 183.728C128.696 182.832 128.856 182.056 129.176 181.4C129.496 180.744 129.956 180.24 130.556 179.888C131.156 179.536 131.86 179.36 132.668 179.36C133.484 179.36 134.188 179.536 134.78 179.888C135.38 180.24 135.84 180.744 136.16 181.4C136.48 182.056 136.64 182.828 136.64 183.716C136.64 184.612 136.48 185.388 136.16 186.044C135.84 186.7 135.38 187.208 134.78 187.568C134.18 187.92 133.476 188.096 132.668 188.096ZM132.668 187.088C133.524 187.088 134.188 186.796 134.66 186.212C135.14 185.628 135.38 184.796 135.38 183.716C135.38 182.644 135.14 181.82 134.66 181.244C134.188 180.66 133.524 180.368 132.668 180.368C131.812 180.368 131.148 180.66 130.676 181.244C130.204 181.82 129.968 182.644 129.968 183.716C129.968 184.796 130.204 185.628 130.676 186.212C131.156 186.796 131.82 187.088 132.668 187.088ZM141.252 181.808C141.436 181.808 141.628 181.836 141.828 181.892L141.804 182.996C141.588 182.916 141.352 182.876 141.096 182.876C140.544 182.876 140.128 183.044 139.848 183.38C139.576 183.708 139.44 184.124 139.44 184.628V188H138.24V183.656C138.24 183.024 138.208 182.456 138.144 181.952H139.272L139.38 183.044C139.54 182.644 139.788 182.34 140.124 182.132C140.46 181.916 140.836 181.808 141.252 181.808ZM145.967 181.808C147.415 181.808 148.139 182.616 148.139 184.232V188H146.927V184.304C146.927 183.776 146.823 183.392 146.615 183.152C146.415 182.912 146.091 182.792 145.643 182.792C145.131 182.792 144.719 182.952 144.407 183.272C144.103 183.592 143.951 184.02 143.951 184.556V188H142.751V179.168H143.951V182.888C144.151 182.536 144.427 182.268 144.779 182.084C145.131 181.9 145.527 181.808 145.967 181.808ZM155.397 181.952V188H154.197V186.968C154.021 187.328 153.757 187.604 153.405 187.796C153.061 187.988 152.657 188.084 152.193 188.084C151.657 188.084 151.185 187.956 150.777 187.7C150.377 187.444 150.065 187.084 149.841 186.62C149.617 186.148 149.505 185.6 149.505 184.976C149.505 184.352 149.617 183.8 149.841 183.32C150.073 182.84 150.393 182.468 150.801 182.204C151.209 181.94 151.673 181.808 152.193 181.808C152.657 181.808 153.061 181.908 153.405 182.108C153.749 182.3 154.013 182.576 154.197 182.936V181.952H155.397ZM152.481 187.124C153.025 187.124 153.445 186.936 153.741 186.56C154.045 186.176 154.197 185.64 154.197 184.952C154.197 184.256 154.045 183.72 153.741 183.344C153.445 182.968 153.021 182.78 152.469 182.78C151.925 182.78 151.497 182.976 151.185 183.368C150.881 183.752 150.729 184.288 150.729 184.976C150.729 185.656 150.881 186.184 151.185 186.56C151.497 186.936 151.929 187.124 152.481 187.124ZM160.393 181.808C161.841 181.808 162.565 182.616 162.565 184.232V188H161.353V184.304C161.353 183.776 161.249 183.392 161.041 183.152C160.841 182.912 160.517 182.792 160.069 182.792C159.557 182.792 159.145 182.952 158.833 183.272C158.529 183.592 158.377 184.02 158.377 184.556V188H157.177V183.656C157.177 183.024 157.145 182.456 157.081 181.952H158.209L158.317 182.996C158.509 182.612 158.785 182.32 159.145 182.12C159.513 181.912 159.929 181.808 160.393 181.808ZM170.394 188.096C169.73 188.096 169.122 188.008 168.57 187.832C168.026 187.656 167.554 187.392 167.154 187.04L167.598 186.128C168.014 186.464 168.446 186.708 168.894 186.86C169.342 187.012 169.846 187.088 170.406 187.088C171.046 187.088 171.542 186.968 171.894 186.728C172.246 186.488 172.422 186.148 172.422 185.708C172.422 185.34 172.258 185.064 171.93 184.88C171.602 184.688 171.082 184.512 170.37 184.352C169.69 184.208 169.134 184.044 168.702 183.86C168.27 183.668 167.93 183.416 167.682 183.104C167.434 182.784 167.31 182.376 167.31 181.88C167.31 181.384 167.442 180.948 167.706 180.572C167.97 180.188 168.342 179.892 168.822 179.684C169.31 179.468 169.87 179.36 170.502 179.36C171.102 179.36 171.662 179.452 172.182 179.636C172.71 179.82 173.15 180.08 173.502 180.416L173.058 181.328C172.666 181 172.262 180.76 171.846 180.608C171.43 180.448 170.986 180.368 170.514 180.368C169.898 180.368 169.414 180.5 169.062 180.764C168.71 181.02 168.534 181.372 168.534 181.82C168.534 182.204 168.686 182.496 168.99 182.696C169.302 182.896 169.798 183.076 170.478 183.236C171.19 183.396 171.766 183.564 172.206 183.74C172.646 183.916 172.998 184.156 173.262 184.46C173.526 184.764 173.658 185.156 173.658 185.636C173.658 186.132 173.526 186.564 173.262 186.932C172.998 187.3 172.618 187.588 172.122 187.796C171.634 187.996 171.058 188.096 170.394 188.096ZM180.497 181.952L177.677 188.492C177.365 189.204 176.973 189.724 176.501 190.052C176.037 190.388 175.461 190.612 174.773 190.724L174.509 189.788C175.077 189.66 175.505 189.492 175.793 189.284C176.089 189.084 176.325 188.78 176.501 188.372L176.717 187.868L174.173 181.952H175.457L177.353 186.632L179.285 181.952H180.497ZM186.513 185H182.193C182.233 186.416 182.877 187.124 184.125 187.124C184.821 187.124 185.457 186.896 186.033 186.44L186.405 187.304C186.133 187.544 185.785 187.736 185.361 187.88C184.945 188.016 184.525 188.084 184.101 188.084C183.133 188.084 182.373 187.808 181.821 187.256C181.269 186.696 180.993 185.932 180.993 184.964C180.993 184.348 181.113 183.8 181.353 183.32C181.601 182.84 181.945 182.468 182.385 182.204C182.825 181.94 183.325 181.808 183.885 181.808C184.701 181.808 185.341 182.072 185.805 182.6C186.277 183.128 186.513 183.86 186.513 184.796V185ZM183.909 182.708C183.453 182.708 183.081 182.844 182.793 183.116C182.505 183.388 182.321 183.776 182.241 184.28H185.445C185.397 183.768 185.241 183.38 184.977 183.116C184.713 182.844 184.357 182.708 183.909 182.708ZM193.436 179.168V188H192.236V186.968C192.06 187.328 191.796 187.604 191.444 187.796C191.1 187.988 190.696 188.084 190.232 188.084C189.712 188.084 189.248 187.952 188.84 187.688C188.432 187.424 188.112 187.056 187.88 186.584C187.656 186.104 187.544 185.552 187.544 184.928C187.544 184.304 187.656 183.756 187.88 183.284C188.104 182.812 188.416 182.448 188.816 182.192C189.224 181.936 189.696 181.808 190.232 181.808C190.688 181.808 191.088 181.904 191.432 182.096C191.784 182.288 192.048 182.56 192.224 182.912V179.168H193.436ZM190.508 187.124C191.06 187.124 191.484 186.936 191.78 186.56C192.084 186.176 192.236 185.64 192.236 184.952C192.236 184.264 192.084 183.732 191.78 183.356C191.484 182.972 191.064 182.78 190.52 182.78C189.968 182.78 189.536 182.968 189.224 183.344C188.92 183.72 188.768 184.248 188.768 184.928C188.768 185.616 188.92 186.156 189.224 186.548C189.536 186.932 189.964 187.124 190.508 187.124Z" fill="#32353E"/>
<g filter="url(#filter2_d)">
<rect x="73" y="160" width="46" height="46" rx="14" fill="white"/>
</g>
<path d="M98.25 186H93.75C91.7609 186 89.8532 186.79 88.4467 188.197C87.0402 189.603 86.25 191.511 86.25 193.5H105.75C105.75 192.515 105.556 191.54 105.179 190.63C104.802 189.72 104.25 188.893 103.553 188.197C102.857 187.5 102.03 186.948 101.12 186.571C100.21 186.194 99.2349 186 98.25 186V186Z" stroke="#C4CAD4" stroke-linecap="round" stroke-linejoin="round"/>
<path d="M96 183.5C98.8995 183.5 101.25 181.149 101.25 178.25C101.25 175.351 98.8995 173 96 173C93.1005 173 90.75 175.351 90.75 178.25C90.75 181.149 93.1005 183.5 96 183.5Z" stroke="#C4CAD4" stroke-linecap="round" stroke-linejoin="round"/>
<path d="M131.792 248.096C131.128 248.096 130.52 248.008 129.968 247.832C129.424 247.656 128.952 247.392 128.552 247.04L128.996 246.128C129.412 246.464 129.844 246.708 130.292 246.86C130.74 247.012 131.244 247.088 131.804 247.088C132.444 247.088 132.94 246.968 133.292 246.728C133.644 246.488 133.82 246.148 133.82 245.708C133.82 245.34 133.656 245.064 133.328 244.88C133 244.688 132.48 244.512 131.768 244.352C131.088 244.208 130.532 244.044 130.1 243.86C129.668 243.668 129.328 243.416 129.08 243.104C128.832 242.784 128.708 242.376 128.708 241.88C128.708 241.384 128.84 240.948 129.104 240.572C129.368 240.188 129.74 239.892 130.22 239.684C130.708 239.468 131.268 239.36 131.9 239.36C132.5 239.36 133.06 239.452 133.58 239.636C134.108 239.82 134.548 240.08 134.9 240.416L134.456 241.328C134.064 241 133.66 240.76 133.244 240.608C132.828 240.448 132.384 240.368 131.912 240.368C131.296 240.368 130.812 240.5 130.46 240.764C130.108 241.02 129.932 241.372 129.932 241.82C129.932 242.204 130.084 242.496 130.388 242.696C130.7 242.896 131.196 243.076 131.876 243.236C132.588 243.396 133.164 243.564 133.604 243.74C134.044 243.916 134.396 244.156 134.66 244.46C134.924 244.764 135.056 245.156 135.056 245.636C135.056 246.132 134.924 246.564 134.66 246.932C134.396 247.3 134.016 247.588 133.52 247.796C133.032 247.996 132.456 248.096 131.792 248.096ZM139.494 241.808C139.678 241.808 139.87 241.836 140.07 241.892L140.046 242.996C139.83 242.916 139.594 242.876 139.338 242.876C138.786 242.876 138.37 243.044 138.09 243.38C137.818 243.708 137.682 244.124 137.682 244.628V248H136.482V243.656C136.482 243.024 136.45 242.456 136.386 241.952H137.514L137.622 243.044C137.782 242.644 138.03 242.34 138.366 242.132C138.702 241.916 139.078 241.808 139.494 241.808ZM140.993 241.952H142.193V248H140.993V241.952ZM142.289 239.312V240.584H140.885V239.312H142.289ZM149.502 239.168V248H148.302V246.968C148.126 247.328 147.862 247.604 147.51 247.796C147.166 247.988 146.762 248.084 146.298 248.084C145.778 248.084 145.314 247.952 144.906 247.688C144.498 247.424 144.178 247.056 143.946 246.584C143.722 246.104 143.61 245.552 143.61 244.928C143.61 244.304 143.722 243.756 143.946 243.284C144.17 242.812 144.482 242.448 144.882 242.192C145.29 241.936 145.762 241.808 146.298 241.808C146.754 241.808 147.154 241.904 147.498 242.096C147.85 242.288 148.114 242.56 148.29 242.912V239.168H149.502ZM146.574 247.124C147.126 247.124 147.55 246.936 147.846 246.56C148.15 246.176 148.302 245.64 148.302 244.952C148.302 244.264 148.15 243.732 147.846 243.356C147.55 242.972 147.13 242.78 146.586 242.78C146.034 242.78 145.602 242.968 145.29 243.344C144.986 243.72 144.834 244.248 144.834 244.928C144.834 245.616 144.986 246.156 145.29 246.548C145.602 246.932 146.03 247.124 146.574 247.124ZM154.499 241.808C155.947 241.808 156.671 242.616 156.671 244.232V248H155.459V244.304C155.459 243.776 155.355 243.392 155.147 243.152C154.947 242.912 154.623 242.792 154.175 242.792C153.663 242.792 153.251 242.952 152.939 243.272C152.635 243.592 152.483 244.02 152.483 244.556V248H151.283V239.168H152.483V242.888C152.683 242.536 152.959 242.268 153.311 242.084C153.663 241.9 154.059 241.808 154.499 241.808ZM163.928 241.952V248H162.728V246.968C162.552 247.328 162.288 247.604 161.936 247.796C161.592 247.988 161.188 248.084 160.724 248.084C160.188 248.084 159.716 247.956 159.308 247.7C158.908 247.444 158.596 247.084 158.372 246.62C158.148 246.148 158.036 245.6 158.036 244.976C158.036 244.352 158.148 243.8 158.372 243.32C158.604 242.84 158.924 242.468 159.332 242.204C159.74 241.94 160.204 241.808 160.724 241.808C161.188 241.808 161.592 241.908 161.936 242.108C162.28 242.3 162.544 242.576 162.728 242.936V241.952H163.928ZM161.012 247.124C161.556 247.124 161.976 246.936 162.272 246.56C162.576 246.176 162.728 245.64 162.728 244.952C162.728 244.256 162.576 243.72 162.272 243.344C161.976 242.968 161.552 242.78 161 242.78C160.456 242.78 160.028 242.976 159.716 243.368C159.412 243.752 159.26 244.288 159.26 244.976C159.26 245.656 159.412 246.184 159.716 246.56C160.028 246.936 160.46 247.124 161.012 247.124ZM168.72 241.808C168.904 241.808 169.096 241.836 169.296 241.892L169.272 242.996C169.056 242.916 168.82 242.876 168.564 242.876C168.012 242.876 167.596 243.044 167.316 243.38C167.044 243.708 166.908 244.124 166.908 244.628V248H165.708V243.656C165.708 243.024 165.676 242.456 165.612 241.952H166.74L166.848 243.044C167.008 242.644 167.256 242.34 167.592 242.132C167.928 241.916 168.304 241.808 168.72 241.808ZM176.323 248.096C175.659 248.096 175.051 248.008 174.499 247.832C173.955 247.656 173.483 247.392 173.083 247.04L173.527 246.128C173.943 246.464 174.375 246.708 174.823 246.86C175.271 247.012 175.775 247.088 176.335 247.088C176.975 247.088 177.471 246.968 177.823 246.728C178.175 246.488 178.351 246.148 178.351 245.708C178.351 245.34 178.187 245.064 177.859 244.88C177.531 244.688 177.011 244.512 176.299 244.352C175.619 244.208 175.063 244.044 174.631 243.86C174.199 243.668 173.859 243.416 173.611 243.104C173.363 242.784 173.239 242.376 173.239 241.88C173.239 241.384 173.371 240.948 173.635 240.572C173.899 240.188 174.271 239.892 174.751 239.684C175.239 239.468 175.799 239.36 176.431 239.36C177.031 239.36 177.591 239.452 178.111 239.636C178.639 239.82 179.079 240.08 179.431 240.416L178.987 241.328C178.595 241 178.191 240.76 177.775 240.608C177.359 240.448 176.915 240.368 176.443 240.368C175.827 240.368 175.343 240.5 174.991 240.764C174.639 241.02 174.463 241.372 174.463 241.82C174.463 242.204 174.615 242.496 174.919 242.696C175.231 242.896 175.727 243.076 176.407 243.236C177.119 243.396 177.695 243.564 178.135 243.74C178.575 243.916 178.927 244.156 179.191 244.46C179.455 244.764 179.587 245.156 179.587 245.636C179.587 246.132 179.455 246.564 179.191 246.932C178.927 247.3 178.547 247.588 178.051 247.796C177.563 247.996 176.987 248.096 176.323 248.096ZM186.269 241.952V248H185.093V246.992C184.901 247.344 184.637 247.616 184.301 247.808C183.965 247.992 183.585 248.084 183.161 248.084C181.705 248.084 180.977 247.276 180.977 245.66V241.952H182.177V245.648C182.177 246.144 182.277 246.512 182.477 246.752C182.685 246.984 182.997 247.1 183.413 247.1C183.909 247.1 184.305 246.94 184.601 246.62C184.905 246.3 185.057 245.876 185.057 245.348V241.952H186.269ZM191.248 241.808C191.776 241.808 192.244 241.936 192.652 242.192C193.06 242.448 193.376 242.812 193.6 243.284C193.824 243.756 193.936 244.304 193.936 244.928C193.936 245.552 193.82 246.104 193.588 246.584C193.364 247.056 193.048 247.424 192.64 247.688C192.232 247.952 191.768 248.084 191.248 248.084C190.784 248.084 190.376 247.988 190.024 247.796C189.68 247.596 189.42 247.312 189.244 246.944V248H188.044V239.168H189.244V242.948C189.42 242.588 189.68 242.308 190.024 242.108C190.376 241.908 190.784 241.808 191.248 241.808ZM190.972 247.124C191.516 247.124 191.94 246.932 192.244 246.548C192.548 246.156 192.7 245.616 192.7 244.928C192.7 244.248 192.548 243.72 192.244 243.344C191.94 242.968 191.516 242.78 190.972 242.78C190.42 242.78 189.992 242.968 189.688 243.344C189.392 243.72 189.244 244.256 189.244 244.952C189.244 245.648 189.392 246.184 189.688 246.56C189.992 246.936 190.42 247.124 190.972 247.124ZM200.889 241.952V248H199.689V246.968C199.513 247.328 199.249 247.604 198.897 247.796C198.553 247.988 198.149 248.084 197.685 248.084C197.149 248.084 196.677 247.956 196.269 247.7C195.869 247.444 195.557 247.084 195.333 246.62C195.109 246.148 194.997 245.6 194.997 244.976C194.997 244.352 195.109 243.8 195.333 243.32C195.565 242.84 195.885 242.468 196.293 242.204C196.701 241.94 197.165 241.808 197.685 241.808C198.149 241.808 198.553 241.908 198.897 242.108C199.241 242.3 199.505 242.576 199.689 242.936V241.952H200.889ZM197.973 247.124C198.517 247.124 198.937 246.936 199.233 246.56C199.537 246.176 199.689 245.64 199.689 244.952C199.689 244.256 199.537 243.72 199.233 243.344C198.937 242.968 198.513 242.78 197.961 242.78C197.417 242.78 196.989 242.976 196.677 243.368C196.373 243.752 196.221 244.288 196.221 244.976C196.221 245.656 196.373 246.184 196.677 246.56C196.989 246.936 197.421 247.124 197.973 247.124ZM205.681 241.808C205.865 241.808 206.057 241.836 206.257 241.892L206.233 242.996C206.017 242.916 205.781 242.876 205.525 242.876C204.973 242.876 204.557 243.044 204.277 243.38C204.005 243.708 203.869 244.124 203.869 244.628V248H202.669V243.656C202.669 243.024 202.637 242.456 202.573 241.952H203.701L203.809 243.044C203.969 242.644 204.217 242.34 204.553 242.132C204.889 241.916 205.265 241.808 205.681 241.808ZM212.596 241.952V248H211.396V246.968C211.22 247.328 210.956 247.604 210.604 247.796C210.26 247.988 209.856 248.084 209.392 248.084C208.856 248.084 208.384 247.956 207.976 247.7C207.576 247.444 207.264 247.084 207.04 246.62C206.816 246.148 206.704 245.6 206.704 244.976C206.704 244.352 206.816 243.8 207.04 243.32C207.272 242.84 207.592 242.468 208 242.204C208.408 241.94 208.872 241.808 209.392 241.808C209.856 241.808 210.26 241.908 210.604 242.108C210.948 242.3 211.212 242.576 211.396 242.936V241.952H212.596ZM209.68 247.124C210.224 247.124 210.644 246.936 210.94 246.56C211.244 246.176 211.396 245.64 211.396 244.952C211.396 244.256 211.244 243.72 210.94 243.344C210.644 242.968 210.22 242.78 209.668 242.78C209.124 242.78 208.696 242.976 208.384 243.368C208.08 243.752 207.928 244.288 207.928 244.976C207.928 245.656 208.08 246.184 208.384 246.56C208.696 246.936 209.128 247.124 209.68 247.124ZM221.276 241.808C222.62 241.808 223.292 242.616 223.292 244.232V248H222.08V244.292C222.08 243.772 221.988 243.392 221.804 243.152C221.628 242.912 221.34 242.792 220.94 242.792C220.476 242.792 220.108 242.952 219.836 243.272C219.572 243.592 219.44 244.028 219.44 244.58V248H218.228V244.292C218.228 243.772 218.136 243.392 217.952 243.152C217.776 242.912 217.488 242.792 217.088 242.792C216.624 242.792 216.256 242.952 215.984 243.272C215.712 243.592 215.576 244.028 215.576 244.58V248H214.376V243.656C214.376 243.024 214.344 242.456 214.28 241.952H215.408L215.516 242.96C215.692 242.592 215.944 242.308 216.272 242.108C216.6 241.908 216.984 241.808 217.424 241.808C218.36 241.808 218.972 242.196 219.26 242.972C219.444 242.612 219.712 242.328 220.064 242.12C220.424 241.912 220.828 241.808 221.276 241.808ZM230.561 241.952V248H229.361V246.968C229.185 247.328 228.921 247.604 228.569 247.796C228.225 247.988 227.821 248.084 227.357 248.084C226.821 248.084 226.349 247.956 225.941 247.7C225.541 247.444 225.229 247.084 225.005 246.62C224.781 246.148 224.669 245.6 224.669 244.976C224.669 244.352 224.781 243.8 225.005 243.32C225.237 242.84 225.557 242.468 225.965 242.204C226.373 241.94 226.837 241.808 227.357 241.808C227.821 241.808 228.225 241.908 228.569 242.108C228.913 242.3 229.177 242.576 229.361 242.936V241.952H230.561ZM227.645 247.124C228.189 247.124 228.609 246.936 228.905 246.56C229.209 246.176 229.361 245.64 229.361 244.952C229.361 244.256 229.209 243.72 228.905 243.344C228.609 242.968 228.185 242.78 227.633 242.78C227.089 242.78 226.661 242.976 226.349 243.368C226.045 243.752 225.893 244.288 225.893 244.976C225.893 245.656 226.045 246.184 226.349 246.56C226.661 246.936 227.093 247.124 227.645 247.124ZM235.557 241.808C237.005 241.808 237.729 242.616 237.729 244.232V248H236.517V244.304C236.517 243.776 236.413 243.392 236.205 243.152C236.005 242.912 235.681 242.792 235.233 242.792C234.721 242.792 234.309 242.952 233.997 243.272C233.693 243.592 233.541 244.02 233.541 244.556V248H232.341V243.656C232.341 243.024 232.309 242.456 232.245 241.952H233.373L233.481 242.996C233.673 242.612 233.949 242.32 234.309 242.12C234.677 241.912 235.093 241.808 235.557 241.808Z" fill="#32353E"/>
<g clip-path="url(#clip0)">
<path d="M260.312 61.8125H272.562" stroke="#353FFB" stroke-miterlimit="10" stroke-linecap="round" stroke-linejoin="round"/>
<path d="M271.688 59.1875H261.188C260.705 59.1875 260.312 59.5795 260.312 60.0625V69.6875C260.312 70.1705 260.705 70.5625 261.188 70.5625H271.688C272.17 70.5625 272.562 70.1705 272.562 69.6875V60.0625C272.562 59.5795 272.17 59.1875 271.688 59.1875Z" stroke="#353FFB" stroke-miterlimit="10" stroke-linecap="round" stroke-linejoin="round"/>
<path d="M262.938 57.4375V59.1875" stroke="#353FFB" stroke-miterlimit="10" stroke-linecap="round" stroke-linejoin="round"/>
<path d="M269.938 57.4375V59.1875" stroke="#353FFB" stroke-miterlimit="10" stroke-linecap="round" stroke-linejoin="round"/>
<path d="M266.438 57.4375V59.1875" stroke="#353FFB" stroke-miterlimit="10" stroke-linecap="round" stroke-linejoin="round"/>
</g>
<g clip-path="url(#clip1)">
<path d="M260.312 121.812H272.562" stroke="#353FFB" stroke-miterlimit="10" stroke-linecap="round" stroke-linejoin="round"/>
<path d="M271.688 119.188H261.188C260.705 119.188 260.312 119.58 260.312 120.062V129.688C260.312 130.17 260.705 130.562 261.188 130.562H271.688C272.17 130.562 272.562 130.17 272.562 129.688V120.062C272.562 119.58 272.17 119.188 271.688 119.188Z" stroke="#353FFB" stroke-miterlimit="10" stroke-linecap="round" stroke-linejoin="round"/>
<path d="M262.938 117.438V119.188" stroke="#353FFB" stroke-miterlimit="10" stroke-linecap="round" stroke-linejoin="round"/>
<path d="M269.938 117.438V119.188" stroke="#353FFB" stroke-miterlimit="10" stroke-linecap="round" stroke-linejoin="round"/>
<path d="M266.438 117.438V119.188" stroke="#353FFB" stroke-miterlimit="10" stroke-linecap="round" stroke-linejoin="round"/>
</g>
<g clip-path="url(#clip2)">
<path d="M260.312 181.812H272.562" stroke="#353FFB" stroke-miterlimit="10" stroke-linecap="round" stroke-linejoin="round"/>
<path d="M271.688 179.188H261.188C260.705 179.188 260.312 179.58 260.312 180.062V189.688C260.312 190.17 260.705 190.562 261.188 190.562H271.688C272.17 190.562 272.562 190.17 272.562 189.688V180.062C272.562 179.58 272.17 179.188 271.688 179.188Z" stroke="#353FFB" stroke-miterlimit="10" stroke-linecap="round" stroke-linejoin="round"/>
<path d="M262.938 177.438V179.188" stroke="#353FFB" stroke-miterlimit="10" stroke-linecap="round" stroke-linejoin="round"/>
<path d="M269.938 177.438V179.188" stroke="#353FFB" stroke-miterlimit="10" stroke-linecap="round" stroke-linejoin="round"/>
<path d="M266.438 177.438V179.188" stroke="#353FFB" stroke-miterlimit="10" stroke-linecap="round" stroke-linejoin="round"/>
</g>
<g clip-path="url(#clip3)">
<path d="M260.312 241.812H272.562" stroke="#353FFB" stroke-miterlimit="10" stroke-linecap="round" stroke-linejoin="round"/>
<path d="M271.688 239.188H261.188C260.705 239.188 260.312 239.58 260.312 240.062V249.688C260.312 250.17 260.705 250.562 261.188 250.562H271.688C272.17 250.562 272.562 250.17 272.562 249.688V240.062C272.562 239.58 272.17 239.188 271.688 239.188Z" stroke="#353FFB" stroke-miterlimit="10" stroke-linecap="round" stroke-linejoin="round"/>
<path d="M262.938 237.438V239.188" stroke="#353FFB" stroke-miterlimit="10" stroke-linecap="round" stroke-linejoin="round"/>
<path d="M269.938 237.438V239.188" stroke="#353FFB" stroke-miterlimit="10" stroke-linecap="round" stroke-linejoin="round"/>
<path d="M266.438 237.438V239.188" stroke="#353FFB" stroke-miterlimit="10" stroke-linecap="round" stroke-linejoin="round"/>
</g>
<g filter="url(#filter3_d)">
<rect x="73" y="220" width="46" height="46" rx="14" fill="white"/>
</g>
<path d="M98.25 246H93.75C91.7609 246 89.8532 246.79 88.4467 248.197C87.0402 249.603 86.25 251.511 86.25 253.5H105.75C105.75 252.515 105.556 251.54 105.179 250.63C104.802 249.72 104.25 248.893 103.553 248.197C102.857 247.5 102.03 246.948 101.12 246.571C100.21 246.194 99.2349 246 98.25 246V246Z" stroke="#C4CAD4" stroke-linecap="round" stroke-linejoin="round"/>
<path d="M96 243.5C98.8995 243.5 101.25 241.149 101.25 238.25C101.25 235.351 98.8995 233 96 233C93.1005 233 90.75 235.351 90.75 238.25C90.75 241.149 93.1005 243.5 96 243.5Z" stroke="#C4CAD4" stroke-linecap="round" stroke-linejoin="round"/>
<path d="M138.18 59.456V68H137.064V62.132L134.532 68H133.68L131.112 62.168L131.124 68H130.008V59.456H131.004L134.112 66.512L137.184 59.456H138.18ZM142.676 68.084C142.084 68.084 141.564 67.956 141.116 67.7C140.668 67.444 140.32 67.08 140.072 66.608C139.832 66.136 139.712 65.584 139.712 64.952C139.712 64.32 139.832 63.768 140.072 63.296C140.32 62.816 140.668 62.448 141.116 62.192C141.564 61.936 142.084 61.808 142.676 61.808C143.26 61.808 143.776 61.936 144.224 62.192C144.672 62.448 145.016 62.816 145.256 63.296C145.504 63.768 145.628 64.32 145.628 64.952C145.628 65.584 145.504 66.136 145.256 66.608C145.016 67.08 144.672 67.444 144.224 67.7C143.776 67.956 143.26 68.084 142.676 68.084ZM142.664 67.124C143.224 67.124 143.652 66.94 143.948 66.572C144.244 66.204 144.392 65.664 144.392 64.952C144.392 64.256 144.24 63.72 143.936 63.344C143.64 62.968 143.22 62.78 142.676 62.78C142.124 62.78 141.696 62.968 141.392 63.344C141.088 63.72 140.936 64.256 140.936 64.952C140.936 65.664 141.084 66.204 141.38 66.572C141.684 66.94 142.112 67.124 142.664 67.124ZM150.26 61.808C151.708 61.808 152.432 62.616 152.432 64.232V68H151.22V64.304C151.22 63.776 151.116 63.392 150.908 63.152C150.708 62.912 150.384 62.792 149.936 62.792C149.424 62.792 149.012 62.952 148.7 63.272C148.396 63.592 148.244 64.02 148.244 64.556V68H147.044V59.168H148.244V62.888C148.444 62.536 148.72 62.268 149.072 62.084C149.424 61.9 149.82 61.808 150.26 61.808ZM159.69 61.952V68H158.49V66.968C158.314 67.328 158.05 67.604 157.698 67.796C157.354 67.988 156.95 68.084 156.486 68.084C155.95 68.084 155.478 67.956 155.07 67.7C154.67 67.444 154.358 67.084 154.134 66.62C153.91 66.148 153.798 65.6 153.798 64.976C153.798 64.352 153.91 63.8 154.134 63.32C154.366 62.84 154.686 62.468 155.094 62.204C155.502 61.94 155.966 61.808 156.486 61.808C156.95 61.808 157.354 61.908 157.698 62.108C158.042 62.3 158.306 62.576 158.49 62.936V61.952H159.69ZM156.774 67.124C157.318 67.124 157.738 66.936 158.034 66.56C158.338 66.176 158.49 65.64 158.49 64.952C158.49 64.256 158.338 63.72 158.034 63.344C157.738 62.968 157.314 62.78 156.762 62.78C156.218 62.78 155.79 62.976 155.478 63.368C155.174 63.752 155.022 64.288 155.022 64.976C155.022 65.656 155.174 66.184 155.478 66.56C155.79 66.936 156.222 67.124 156.774 67.124ZM168.37 61.808C169.714 61.808 170.386 62.616 170.386 64.232V68H169.174V64.292C169.174 63.772 169.082 63.392 168.898 63.152C168.722 62.912 168.434 62.792 168.034 62.792C167.57 62.792 167.202 62.952 166.93 63.272C166.666 63.592 166.534 64.028 166.534 64.58V68H165.322V64.292C165.322 63.772 165.23 63.392 165.046 63.152C164.87 62.912 164.582 62.792 164.182 62.792C163.718 62.792 163.35 62.952 163.078 63.272C162.806 63.592 162.67 64.028 162.67 64.58V68H161.47V63.656C161.47 63.024 161.438 62.456 161.374 61.952H162.502L162.61 62.96C162.786 62.592 163.038 62.308 163.366 62.108C163.694 61.908 164.078 61.808 164.518 61.808C165.454 61.808 166.066 62.196 166.354 62.972C166.538 62.612 166.806 62.328 167.158 62.12C167.518 61.912 167.922 61.808 168.37 61.808ZM179.022 61.808C180.366 61.808 181.038 62.616 181.038 64.232V68H179.826V64.292C179.826 63.772 179.734 63.392 179.55 63.152C179.374 62.912 179.086 62.792 178.686 62.792C178.222 62.792 177.854 62.952 177.582 63.272C177.318 63.592 177.186 64.028 177.186 64.58V68H175.974V64.292C175.974 63.772 175.882 63.392 175.698 63.152C175.522 62.912 175.234 62.792 174.834 62.792C174.37 62.792 174.002 62.952 173.73 63.272C173.458 63.592 173.322 64.028 173.322 64.58V68H172.122V63.656C172.122 63.024 172.09 62.456 172.026 61.952H173.154L173.262 62.96C173.438 62.592 173.69 62.308 174.018 62.108C174.346 61.908 174.73 61.808 175.17 61.808C176.106 61.808 176.718 62.196 177.006 62.972C177.19 62.612 177.458 62.328 177.81 62.12C178.17 61.912 178.574 61.808 179.022 61.808ZM187.935 65H183.615C183.655 66.416 184.299 67.124 185.547 67.124C186.243 67.124 186.879 66.896 187.455 66.44L187.827 67.304C187.555 67.544 187.207 67.736 186.783 67.88C186.367 68.016 185.947 68.084 185.523 68.084C184.555 68.084 183.795 67.808 183.243 67.256C182.691 66.696 182.415 65.932 182.415 64.964C182.415 64.348 182.535 63.8 182.775 63.32C183.023 62.84 183.367 62.468 183.807 62.204C184.247 61.94 184.747 61.808 185.307 61.808C186.123 61.808 186.763 62.072 187.227 62.6C187.699 63.128 187.935 63.86 187.935 64.796V65ZM185.331 62.708C184.875 62.708 184.503 62.844 184.215 63.116C183.927 63.388 183.743 63.776 183.663 64.28H186.867C186.819 63.768 186.663 63.38 186.399 63.116C186.135 62.844 185.779 62.708 185.331 62.708ZM194.858 59.168V68H193.658V66.968C193.482 67.328 193.218 67.604 192.866 67.796C192.522 67.988 192.118 68.084 191.654 68.084C191.134 68.084 190.67 67.952 190.262 67.688C189.854 67.424 189.534 67.056 189.302 66.584C189.078 66.104 188.966 65.552 188.966 64.928C188.966 64.304 189.078 63.756 189.302 63.284C189.526 62.812 189.838 62.448 190.238 62.192C190.646 61.936 191.118 61.808 191.654 61.808C192.11 61.808 192.51 61.904 192.854 62.096C193.206 62.288 193.47 62.56 193.646 62.912V59.168H194.858ZM191.93 67.124C192.482 67.124 192.906 66.936 193.202 66.56C193.506 66.176 193.658 65.64 193.658 64.952C193.658 64.264 193.506 63.732 193.202 63.356C192.906 62.972 192.486 62.78 191.942 62.78C191.39 62.78 190.958 62.968 190.646 63.344C190.342 63.72 190.19 64.248 190.19 64.928C190.19 65.616 190.342 66.156 190.646 66.548C190.958 66.932 191.386 67.124 191.93 67.124ZM205.561 65.888H201.241L200.329 68H199.069L202.873 59.456H203.917L207.733 68H206.473L205.561 65.888ZM205.141 64.904L203.401 60.836L201.661 64.904H205.141ZM213.592 67.064V68H208.42V67.16L211.996 62.888H208.516V61.952H213.46V62.804L209.884 67.064H213.592ZM214.978 61.952H216.178V68H214.978V61.952ZM216.274 59.312V60.584H214.87V59.312H216.274ZM222.838 67.064V68H217.666V67.16L221.242 62.888H217.762V61.952H222.706V62.804L219.13 67.064H222.838Z" fill="#32353E"/>
<g filter="url(#filter4_d)">
<rect x="74" y="40" width="46" height="46" rx="14" fill="white"/>
</g>
<path d="M99.25 66H94.75C92.7609 66 90.8532 66.7902 89.4467 68.1967C88.0402 69.6032 87.25 71.5109 87.25 73.5H106.75C106.75 72.5151 106.556 71.5398 106.179 70.6299C105.802 69.7199 105.25 68.8931 104.553 68.1967C103.857 67.5003 103.03 66.9478 102.12 66.5709C101.21 66.194 100.235 66 99.25 66V66Z" stroke="#C4CAD4" stroke-linecap="round" stroke-linejoin="round"/>
<path d="M97 63.5C99.8995 63.5 102.25 61.1495 102.25 58.25C102.25 55.3505 99.8995 53 97 53C94.1005 53 91.75 55.3505 91.75 58.25C91.75 61.1495 94.1005 63.5 97 63.5Z" stroke="#C4CAD4" stroke-linecap="round" stroke-linejoin="round"/>
<rect y="80" width="97" height="97" rx="24" fill="#32353E"/>
<path d="M60 137V141H64" stroke="white" stroke-miterlimit="10" stroke-linecap="square"/>
<path d="M60 150C64.9706 150 69 145.971 69 141C69 136.029 64.9706 132 60 132C55.0294 132 51 136.029 51 141C51 145.971 55.0294 150 60 150Z" stroke="white" stroke-miterlimit="10" stroke-linecap="square"/>
<path d="M70 120H28" stroke="white" stroke-miterlimit="10"/>
<path d="M46 146H31C30.2044 146 29.4413 145.684 28.8787 145.121C28.3161 144.559 28 143.796 28 143V113C28 112.204 28.3161 111.441 28.8787 110.879C29.4413 110.316 30.2044 110 31 110H67C67.7956 110 68.5587 110.316 69.1213 110.879C69.6839 111.441 70 112.204 70 113V129.012" stroke="white" stroke-miterlimit="10" stroke-linecap="square"/>
<path d="M38 106V114" stroke="white" stroke-miterlimit="10" stroke-linecap="square"/>
<path d="M60 106V114" stroke="white" stroke-miterlimit="10" stroke-linecap="square"/>
<g filter="url(#filter5_d)">
<rect x="167" y="247" width="232" height="56" rx="20" fill="#C4C4C4"/>
</g>
<path d="M167 261C167 247.745 177.745 237 191 237L453 237C466.255 237 477 247.745 477 261V284C477 297.255 466.255 308 453 308H191C177.745 308 167 297.255 167 284V261Z" fill="white"/>
<g filter="url(#filter6_d)">
<rect x="181" y="249" width="46" height="46" rx="14" fill="#353FFB"/>
</g>
<path d="M204 267V277" stroke="white"/>
<path d="M209 272L199 272" stroke="white"/>
<circle cx="204" cy="272" r="11.5" stroke="white"/>
<path d="M253.612 274.888H249.292L248.38 277H247.12L250.924 268.456H251.968L255.784 277H254.524L253.612 274.888ZM253.192 273.904L251.452 269.836L249.712 273.904H253.192ZM262.315 268.168V277H261.115V275.968C260.939 276.328 260.675 276.604 260.323 276.796C259.979 276.988 259.575 277.084 259.111 277.084C258.591 277.084 258.127 276.952 257.719 276.688C257.311 276.424 256.991 276.056 256.759 275.584C256.535 275.104 256.423 274.552 256.423 273.928C256.423 273.304 256.535 272.756 256.759 272.284C256.983 271.812 257.295 271.448 257.695 271.192C258.103 270.936 258.575 270.808 259.111 270.808C259.567 270.808 259.967 270.904 260.311 271.096C260.663 271.288 260.927 271.56 261.103 271.912V268.168H262.315ZM259.387 276.124C259.939 276.124 260.363 275.936 260.659 275.56C260.963 275.176 261.115 274.64 261.115 273.952C261.115 273.264 260.963 272.732 260.659 272.356C260.363 271.972 259.943 271.78 259.399 271.78C258.847 271.78 258.415 271.968 258.103 272.344C257.799 272.72 257.647 273.248 257.647 273.928C257.647 274.616 257.799 275.156 258.103 275.548C258.415 275.932 258.843 276.124 259.387 276.124ZM269.627 268.168V277H268.427V275.968C268.251 276.328 267.987 276.604 267.635 276.796C267.291 276.988 266.887 277.084 266.423 277.084C265.903 277.084 265.439 276.952 265.031 276.688C264.623 276.424 264.303 276.056 264.071 275.584C263.847 275.104 263.735 274.552 263.735 273.928C263.735 273.304 263.847 272.756 264.071 272.284C264.295 271.812 264.607 271.448 265.007 271.192C265.415 270.936 265.887 270.808 266.423 270.808C266.879 270.808 267.279 270.904 267.623 271.096C267.975 271.288 268.239 271.56 268.415 271.912V268.168H269.627ZM266.699 276.124C267.251 276.124 267.675 275.936 267.971 275.56C268.275 275.176 268.427 274.64 268.427 273.952C268.427 273.264 268.275 272.732 267.971 272.356C267.675 271.972 267.255 271.78 266.711 271.78C266.159 271.78 265.727 271.968 265.415 272.344C265.111 272.72 264.959 273.248 264.959 273.928C264.959 274.616 265.111 275.156 265.415 275.548C265.727 275.932 266.155 276.124 266.699 276.124ZM280.139 270.952V277H278.939V275.968C278.763 276.328 278.499 276.604 278.147 276.796C277.803 276.988 277.399 277.084 276.935 277.084C276.399 277.084 275.927 276.956 275.519 276.7C275.119 276.444 274.807 276.084 274.583 275.62C274.359 275.148 274.247 274.6 274.247 273.976C274.247 273.352 274.359 272.8 274.583 272.32C274.815 271.84 275.135 271.468 275.543 271.204C275.951 270.94 276.415 270.808 276.935 270.808C277.399 270.808 277.803 270.908 278.147 271.108C278.491 271.3 278.755 271.576 278.939 271.936V270.952H280.139ZM277.223 276.124C277.767 276.124 278.187 275.936 278.483 275.56C278.787 275.176 278.939 274.64 278.939 273.952C278.939 273.256 278.787 272.72 278.483 272.344C278.187 271.968 277.763 271.78 277.211 271.78C276.667 271.78 276.239 271.976 275.927 272.368C275.623 272.752 275.471 273.288 275.471 273.976C275.471 274.656 275.623 275.184 275.927 275.56C276.239 275.936 276.671 276.124 277.223 276.124ZM288.334 270.808C289.782 270.808 290.506 271.616 290.506 273.232V277H289.294V273.304C289.294 272.776 289.19 272.392 288.982 272.152C288.782 271.912 288.458 271.792 288.01 271.792C287.498 271.792 287.086 271.952 286.774 272.272C286.47 272.592 286.318 273.02 286.318 273.556V277H285.118V272.656C285.118 272.024 285.086 271.456 285.022 270.952H286.15L286.258 271.996C286.45 271.612 286.726 271.32 287.086 271.12C287.454 270.912 287.87 270.808 288.334 270.808ZM297.392 274H293.072C293.112 275.416 293.756 276.124 295.004 276.124C295.7 276.124 296.336 275.896 296.912 275.44L297.284 276.304C297.012 276.544 296.664 276.736 296.24 276.88C295.824 277.016 295.404 277.084 294.98 277.084C294.012 277.084 293.252 276.808 292.7 276.256C292.148 275.696 291.872 274.932 291.872 273.964C291.872 273.348 291.992 272.8 292.232 272.32C292.48 271.84 292.824 271.468 293.264 271.204C293.704 270.94 294.204 270.808 294.764 270.808C295.58 270.808 296.22 271.072 296.684 271.6C297.156 272.128 297.392 272.86 297.392 273.796V274ZM294.788 271.708C294.332 271.708 293.96 271.844 293.672 272.116C293.384 272.388 293.2 272.776 293.12 273.28H296.324C296.276 272.768 296.12 272.38 295.856 272.116C295.592 271.844 295.236 271.708 294.788 271.708ZM308.085 270.952L305.781 277H304.677L303.057 272.62L301.449 277H300.345L298.041 270.952H299.301L300.945 275.572L302.613 270.952H303.573L305.241 275.572L306.897 270.952H308.085ZM315.615 270.808C316.135 270.808 316.599 270.94 317.007 271.204C317.415 271.468 317.731 271.84 317.955 272.32C318.187 272.8 318.303 273.352 318.303 273.976C318.303 274.6 318.191 275.148 317.967 275.62C317.743 276.084 317.427 276.444 317.019 276.7C316.611 276.956 316.143 277.084 315.615 277.084C315.151 277.084 314.743 276.988 314.391 276.796C314.047 276.596 313.787 276.312 313.611 275.944V279.592H312.411V272.656C312.411 272.024 312.379 271.456 312.315 270.952H313.443L313.563 272.068C313.723 271.668 313.983 271.36 314.343 271.144C314.703 270.92 315.127 270.808 315.615 270.808ZM315.339 276.124C315.883 276.124 316.307 275.936 316.611 275.56C316.915 275.184 317.067 274.656 317.067 273.976C317.067 273.288 316.915 272.752 316.611 272.368C316.307 271.976 315.883 271.78 315.339 271.78C314.779 271.78 314.351 271.968 314.055 272.344C313.759 272.72 313.611 273.256 313.611 273.952C313.611 274.648 313.759 275.184 314.055 275.56C314.359 275.936 314.787 276.124 315.339 276.124ZM325.256 270.952V277H324.056V275.968C323.88 276.328 323.616 276.604 323.264 276.796C322.92 276.988 322.516 277.084 322.052 277.084C321.516 277.084 321.044 276.956 320.636 276.7C320.236 276.444 319.924 276.084 319.7 275.62C319.476 275.148 319.364 274.6 319.364 273.976C319.364 273.352 319.476 272.8 319.7 272.32C319.932 271.84 320.252 271.468 320.66 271.204C321.068 270.94 321.532 270.808 322.052 270.808C322.516 270.808 322.92 270.908 323.264 271.108C323.608 271.3 323.872 271.576 324.056 271.936V270.952H325.256ZM322.34 276.124C322.884 276.124 323.304 275.936 323.6 275.56C323.904 275.176 324.056 274.64 324.056 273.952C324.056 273.256 323.904 272.72 323.6 272.344C323.304 271.968 322.88 271.78 322.328 271.78C321.784 271.78 321.356 271.976 321.044 272.368C320.74 272.752 320.588 273.288 320.588 273.976C320.588 274.656 320.74 275.184 321.044 275.56C321.356 275.936 321.788 276.124 322.34 276.124ZM332.532 270.952L329.712 277.492C329.4 278.204 329.008 278.724 328.536 279.052C328.072 279.388 327.496 279.612 326.808 279.724L326.544 278.788C327.112 278.66 327.54 278.492 327.828 278.284C328.124 278.084 328.36 277.78 328.536 277.372L328.752 276.868L326.208 270.952H327.492L329.388 275.632L331.32 270.952H332.532ZM335.992 277.084C335.4 277.084 334.88 276.956 334.432 276.7C333.984 276.444 333.636 276.08 333.388 275.608C333.148 275.136 333.028 274.584 333.028 273.952C333.028 273.32 333.148 272.768 333.388 272.296C333.636 271.816 333.984 271.448 334.432 271.192C334.88 270.936 335.4 270.808 335.992 270.808C336.576 270.808 337.092 270.936 337.54 271.192C337.988 271.448 338.332 271.816 338.572 272.296C338.82 272.768 338.944 273.32 338.944 273.952C338.944 274.584 338.82 275.136 338.572 275.608C338.332 276.08 337.988 276.444 337.54 276.7C337.092 276.956 336.576 277.084 335.992 277.084ZM335.98 276.124C336.54 276.124 336.968 275.94 337.264 275.572C337.56 275.204 337.708 274.664 337.708 273.952C337.708 273.256 337.556 272.72 337.252 272.344C336.956 271.968 336.536 271.78 335.992 271.78C335.44 271.78 335.012 271.968 334.708 272.344C334.404 272.72 334.252 273.256 334.252 273.952C334.252 274.664 334.4 275.204 334.696 275.572C335 275.94 335.428 276.124 335.98 276.124ZM345.617 270.952V277H344.441V275.992C344.249 276.344 343.985 276.616 343.649 276.808C343.313 276.992 342.933 277.084 342.509 277.084C341.053 277.084 340.325 276.276 340.325 274.66V270.952H341.525V274.648C341.525 275.144 341.625 275.512 341.825 275.752C342.033 275.984 342.345 276.1 342.761 276.1C343.257 276.1 343.653 275.94 343.949 275.62C344.253 275.3 344.405 274.876 344.405 274.348V270.952H345.617ZM348.964 271.888V274.924C348.964 275.34 349.052 275.636 349.228 275.812C349.412 275.98 349.664 276.064 349.984 276.064C350.192 276.064 350.404 276.032 350.62 275.968V276.952C350.356 277.04 350.056 277.084 349.72 277.084C349.096 277.084 348.612 276.908 348.268 276.556C347.924 276.204 347.752 275.692 347.752 275.02V271.888H346.576V270.952H347.752V269.44L348.964 269.02V270.952H350.632V271.888H348.964ZM357.062 277.084C356.007 277.084 355.175 276.828 354.567 276.316L354.927 275.44C355.559 275.92 356.283 276.16 357.099 276.16C357.515 276.16 357.831 276.092 358.047 275.956C358.263 275.812 358.371 275.612 358.371 275.356C358.371 275.14 358.295 274.972 358.143 274.852C357.999 274.724 357.751 274.616 357.399 274.528L356.391 274.288C355.863 274.176 355.459 273.98 355.179 273.7C354.907 273.412 354.771 273.056 354.771 272.632C354.771 272.088 354.987 271.648 355.419 271.312C355.859 270.976 356.439 270.808 357.159 270.808C357.591 270.808 357.999 270.876 358.383 271.012C358.775 271.148 359.107 271.34 359.379 271.588L359.007 272.44C358.423 271.976 357.807 271.744 357.159 271.744C356.767 271.744 356.463 271.82 356.247 271.972C356.031 272.116 355.923 272.32 355.923 272.584C355.923 272.792 355.991 272.96 356.127 273.088C356.263 273.216 356.479 273.316 356.775 273.388L357.807 273.64C358.383 273.768 358.807 273.972 359.079 274.252C359.359 274.524 359.499 274.88 359.499 275.32C359.499 275.864 359.279 276.296 358.839 276.616C358.407 276.928 357.815 277.084 357.062 277.084ZM363.555 277.084C362.947 277.084 362.415 276.956 361.959 276.7C361.511 276.444 361.167 276.084 360.927 275.62C360.687 275.148 360.567 274.6 360.567 273.976C360.567 273.352 360.691 272.8 360.939 272.32C361.195 271.84 361.551 271.468 362.007 271.204C362.463 270.94 362.995 270.808 363.603 270.808C364.027 270.808 364.435 270.88 364.827 271.024C365.219 271.16 365.535 271.348 365.775 271.588L365.403 272.464C364.835 272.016 364.263 271.792 363.687 271.792C363.103 271.792 362.647 271.984 362.319 272.368C361.991 272.744 361.827 273.276 361.827 273.964C361.827 274.652 361.991 275.184 362.319 275.56C362.647 275.928 363.103 276.112 363.687 276.112C364.279 276.112 364.851 275.888 365.403 275.44L365.775 276.316C365.519 276.556 365.191 276.744 364.791 276.88C364.399 277.016 363.987 277.084 363.555 277.084ZM370.131 270.808C371.579 270.808 372.303 271.616 372.303 273.232V277H371.091V273.304C371.091 272.776 370.987 272.392 370.779 272.152C370.579 271.912 370.255 271.792 369.807 271.792C369.295 271.792 368.883 271.952 368.571 272.272C368.267 272.592 368.115 273.02 368.115 273.556V277H366.915V268.168H368.115V271.888C368.315 271.536 368.591 271.268 368.943 271.084C369.295 270.9 369.691 270.808 370.131 270.808ZM379.189 274H374.869C374.909 275.416 375.553 276.124 376.801 276.124C377.497 276.124 378.133 275.896 378.709 275.44L379.081 276.304C378.809 276.544 378.461 276.736 378.037 276.88C377.621 277.016 377.201 277.084 376.777 277.084C375.809 277.084 375.049 276.808 374.497 276.256C373.945 275.696 373.669 274.932 373.669 273.964C373.669 273.348 373.789 272.8 374.029 272.32C374.277 271.84 374.621 271.468 375.061 271.204C375.501 270.94 376.001 270.808 376.561 270.808C377.377 270.808 378.017 271.072 378.481 271.6C378.953 272.128 379.189 272.86 379.189 273.796V274ZM376.585 271.708C376.129 271.708 375.757 271.844 375.469 272.116C375.181 272.388 374.997 272.776 374.917 273.28H378.121C378.073 272.768 377.917 272.38 377.653 272.116C377.389 271.844 377.033 271.708 376.585 271.708ZM386.111 268.168V277H384.911V275.968C384.735 276.328 384.471 276.604 384.119 276.796C383.775 276.988 383.371 277.084 382.907 277.084C382.387 277.084 381.923 276.952 381.515 276.688C381.107 276.424 380.787 276.056 380.555 275.584C380.331 275.104 380.219 274.552 380.219 273.928C380.219 273.304 380.331 272.756 380.555 272.284C380.779 271.812 381.091 271.448 381.491 271.192C381.899 270.936 382.371 270.808 382.907 270.808C383.363 270.808 383.763 270.904 384.107 271.096C384.459 271.288 384.723 271.56 384.899 271.912V268.168H386.111ZM383.183 276.124C383.735 276.124 384.159 275.936 384.455 275.56C384.759 275.176 384.911 274.64 384.911 273.952C384.911 273.264 384.759 272.732 384.455 272.356C384.159 271.972 383.739 271.78 383.195 271.78C382.643 271.78 382.211 271.968 381.899 272.344C381.595 272.72 381.443 273.248 381.443 273.928C381.443 274.616 381.595 275.156 381.899 275.548C382.211 275.932 382.639 276.124 383.183 276.124ZM393.148 270.952V277H391.972V275.992C391.78 276.344 391.516 276.616 391.18 276.808C390.844 276.992 390.464 277.084 390.04 277.084C388.584 277.084 387.856 276.276 387.856 274.66V270.952H389.056V274.648C389.056 275.144 389.156 275.512 389.356 275.752C389.564 275.984 389.876 276.1 390.292 276.1C390.788 276.1 391.184 275.94 391.48 275.62C391.784 275.3 391.936 274.876 391.936 274.348V270.952H393.148ZM394.923 268.168H396.123V277H394.923V268.168ZM403.06 274H398.74C398.78 275.416 399.424 276.124 400.672 276.124C401.368 276.124 402.004 275.896 402.58 275.44L402.952 276.304C402.68 276.544 402.332 276.736 401.908 276.88C401.492 277.016 401.072 277.084 400.648 277.084C399.68 277.084 398.92 276.808 398.368 276.256C397.816 275.696 397.54 274.932 397.54 273.964C397.54 273.348 397.66 272.8 397.9 272.32C398.148 271.84 398.492 271.468 398.932 271.204C399.372 270.94 399.872 270.808 400.432 270.808C401.248 270.808 401.888 271.072 402.352 271.6C402.824 272.128 403.06 272.86 403.06 273.796V274ZM400.456 271.708C400 271.708 399.628 271.844 399.34 272.116C399.052 272.388 398.868 272.776 398.788 273.28H401.992C401.944 272.768 401.788 272.38 401.524 272.116C401.26 271.844 400.904 271.708 400.456 271.708Z" fill="black"/>
<defs>
<filter id="filter0_d" x="28" y="36" width="292" height="290" filterUnits="userSpaceOnUse" color-interpolation-filters="sRGB">
<feFlood flood-opacity="0" result="BackgroundImageFix"/>
<feColorMatrix in="SourceAlpha" type="matrix" values="0 0 0 0 0 0 0 0 0 0 0 0 0 0 0 0 0 0 127 0"/>
<feOffset dy="6"/>
<feGaussianBlur stdDeviation="15"/>
<feColorMatrix type="matrix" values="0 0 0 0 0 0 0 0 0 0.0846354 0 0 0 0 0.270833 0 0 0 0.06 0"/>
<feBlend mode="normal" in2="BackgroundImageFix" result="effect1_dropShadow"/>
<feBlend mode="normal" in="SourceGraphic" in2="effect1_dropShadow" result="shape"/>
</filter>
<filter id="filter1_d" x="23" y="60" width="146" height="146" filterUnits="userSpaceOnUse" color-interpolation-filters="sRGB">
<feFlood flood-opacity="0" result="BackgroundImageFix"/>
<feColorMatrix in="SourceAlpha" type="matrix" values="0 0 0 0 0 0 0 0 0 0 0 0 0 0 0 0 0 0 127 0"/>
<feOffset dy="10"/>
<feGaussianBlur stdDeviation="25"/>
<feColorMatrix type="matrix" values="0 0 0 0 0.932201 0 0 0 0 0.941456 0 0 0 0 0.955339 0 0 0 1 0"/>
<feBlend mode="normal" in2="BackgroundImageFix" result="effect1_dropShadow"/>
<feBlend mode="normal" in="SourceGraphic" in2="effect1_dropShadow" result="shape"/>
</filter>
<filter id="filter2_d" x="23" y="120" width="146" height="146" filterUnits="userSpaceOnUse" color-interpolation-filters="sRGB">
<feFlood flood-opacity="0" result="BackgroundImageFix"/>
<feColorMatrix in="SourceAlpha" type="matrix" values="0 0 0 0 0 0 0 0 0 0 0 0 0 0 0 0 0 0 127 0"/>
<feOffset dy="10"/>
<feGaussianBlur stdDeviation="25"/>
<feColorMatrix type="matrix" values="0 0 0 0 0.932201 0 0 0 0 0.941456 0 0 0 0 0.955339 0 0 0 1 0"/>
<feBlend mode="normal" in2="BackgroundImageFix" result="effect1_dropShadow"/>
<feBlend mode="normal" in="SourceGraphic" in2="effect1_dropShadow" result="shape"/>
</filter>
<filter id="filter3_d" x="23" y="180" width="146" height="146" filterUnits="userSpaceOnUse" color-interpolation-filters="sRGB">
<feFlood flood-opacity="0" result="BackgroundImageFix"/>
<feColorMatrix in="SourceAlpha" type="matrix" values="0 0 0 0 0 0 0 0 0 0 0 0 0 0 0 0 0 0 127 0"/>
<feOffset dy="10"/>
<feGaussianBlur stdDeviation="25"/>
<feColorMatrix type="matrix" values="0 0 0 0 0.932201 0 0 0 0 0.941456 0 0 0 0 0.955339 0 0 0 1 0"/>
<feBlend mode="normal" in2="BackgroundImageFix" result="effect1_dropShadow"/>
<feBlend mode="normal" in="SourceGraphic" in2="effect1_dropShadow" result="shape"/>
</filter>
<filter id="filter4_d" x="24" y="0" width="146" height="146" filterUnits="userSpaceOnUse" color-interpolation-filters="sRGB">
<feFlood flood-opacity="0" result="BackgroundImageFix"/>
<feColorMatrix in="SourceAlpha" type="matrix" values="0 0 0 0 0 0 0 0 0 0 0 0 0 0 0 0 0 0 127 0"/>
<feOffset dy="10"/>
<feGaussianBlur stdDeviation="25"/>
<feColorMatrix type="matrix" values="0 0 0 0 0.932201 0 0 0 0 0.941456 0 0 0 0 0.955339 0 0 0 1 0"/>
<feBlend mode="normal" in2="BackgroundImageFix" result="effect1_dropShadow"/>
<feBlend mode="normal" in="SourceGraphic" in2="effect1_dropShadow" result="shape"/>
</filter>
<filter id="filter5_d" x="137" y="223" width="292" height="116" filterUnits="userSpaceOnUse" color-interpolation-filters="sRGB">
<feFlood flood-opacity="0" result="BackgroundImageFix"/>
<feColorMatrix in="SourceAlpha" type="matrix" values="0 0 0 0 0 0 0 0 0 0 0 0 0 0 0 0 0 0 127 0"/>
<feOffset dy="6"/>
<feGaussianBlur stdDeviation="15"/>
<feColorMatrix type="matrix" values="0 0 0 0 0 0 0 0 0 0.0846354 0 0 0 0 0.270833 0 0 0 0.06 0"/>
<feBlend mode="normal" in2="BackgroundImageFix" result="effect1_dropShadow"/>
<feBlend mode="normal" in="SourceGraphic" in2="effect1_dropShadow" result="shape"/>
</filter>
<filter id="filter6_d" x="131" y="209" width="146" height="146" filterUnits="userSpaceOnUse" color-interpolation-filters="sRGB">
<feFlood flood-opacity="0" result="BackgroundImageFix"/>
<feColorMatrix in="SourceAlpha" type="matrix" values="0 0 0 0 0 0 0 0 0 0 0 0 0 0 0 0 0 0 127 0"/>
<feOffset dy="10"/>
<feGaussianBlur stdDeviation="25"/>
<feColorMatrix type="matrix" values="0 0 0 0 0.932201 0 0 0 0 0.941456 0 0 0 0 0.955339 0 0 0 1 0"/>
<feBlend mode="normal" in2="BackgroundImageFix" result="effect1_dropShadow"/>
<feBlend mode="normal" in="SourceGraphic" in2="effect1_dropShadow" result="shape"/>
</filter>
<clipPath id="clip0">
<rect x="259" y="57" width="14" height="14" fill="white"/>
</clipPath>
<clipPath id="clip1">
<rect x="259" y="117" width="14" height="14" fill="white"/>
</clipPath>
<clipPath id="clip2">
<rect x="259" y="177" width="14" height="14" fill="white"/>
</clipPath>
<clipPath id="clip3">
<rect x="259" y="237" width="14" height="14" fill="white"/>
</clipPath>
</defs>
</svg>
