<svg width="475" height="381" viewBox="0 0 475 381" fill="none" xmlns="http://www.w3.org/2000/svg">
<g filter="url(#filter0_d)">
<rect x="129" y="65" width="305" height="275" rx="20" fill="white"/>
</g>
<path d="M169.181 144.592H171.422C172.46 144.592 173.264 144.871 173.834 145.429C174.404 145.987 174.689 146.773 174.689 147.787C174.689 148.807 174.404 149.599 173.834 150.163C173.264 150.721 172.46 151 171.422 151H169.181V144.592ZM171.368 150.226C172.946 150.226 173.735 149.413 173.735 147.787C173.735 146.173 172.946 145.366 171.368 145.366H170.108V150.226H171.368ZM180.02 149.416H176.78L176.096 151H175.151L178.004 144.592H178.787L181.649 151H180.704L180.02 149.416ZM179.705 148.678L178.4 145.627L177.095 148.678H179.705ZM184.251 148.426V151H183.315V148.408L180.768 144.592H181.83L183.792 147.616L185.745 144.592H186.807L184.251 148.426Z" fill="#32353E"/>
<rect x="153.5" y="134.5" width="48" height="25" rx="7.5" stroke="#353FFB"/>
<rect x="210" y="134" width="58" height="26" rx="8" fill="#F5F7FA"/>
<path d="M236.025 144.592L233.766 151H232.992L231.264 146.05L229.527 151H228.753L226.503 144.592H227.448L229.167 149.686L230.94 144.592L231.624 144.601L233.37 149.713L235.116 144.592H236.025ZM237.035 144.592H241.193V145.348H237.953V147.364H241.013V148.12H237.953V150.244H241.193V151H237.035V144.592ZM242.352 144.592H246.51V145.348H243.27V147.364H246.33V148.12H243.27V150.244H246.51V151H242.352V144.592ZM251.755 151L248.596 147.976V151H247.669V144.592H248.596V147.508L251.62 144.592H252.763L249.532 147.688L252.925 151H251.755Z" fill="#565D67"/>
<rect x="276" y="134" width="66" height="26" rx="8" fill="#F5F7FA"/>
<path d="M298.975 144.592V151H298.138V146.599L296.239 151H295.6L293.674 146.626L293.683 151H292.846V144.592H293.593L295.924 149.884L298.228 144.592H298.975ZM303.229 151.072C302.623 151.072 302.095 150.94 301.645 150.676C301.201 150.406 300.856 150.025 300.61 149.533C300.37 149.041 300.25 148.462 300.25 147.796C300.25 147.124 300.37 146.542 300.61 146.05C300.85 145.558 301.195 145.18 301.645 144.916C302.095 144.652 302.623 144.52 303.229 144.52C303.841 144.52 304.369 144.652 304.813 144.916C305.263 145.18 305.608 145.558 305.848 146.05C306.088 146.542 306.208 147.121 306.208 147.787C306.208 148.459 306.088 149.041 305.848 149.533C305.608 150.025 305.263 150.406 304.813 150.676C304.363 150.94 303.835 151.072 303.229 151.072ZM303.229 150.316C303.871 150.316 304.369 150.097 304.723 149.659C305.083 149.221 305.263 148.597 305.263 147.787C305.263 146.983 305.083 146.365 304.723 145.933C304.369 145.495 303.871 145.276 303.229 145.276C302.587 145.276 302.089 145.495 301.735 145.933C301.381 146.365 301.204 146.983 301.204 147.787C301.204 148.597 301.381 149.221 301.735 149.659C302.095 150.097 302.593 150.316 303.229 150.316ZM312.744 144.592V151H312.033L308.361 146.158V151H307.488V144.592H308.19L311.871 149.443V144.592H312.744ZM315.768 145.366H313.599V144.592H318.873V145.366H316.704V151H315.768V145.366ZM325.167 144.592V151H324.24V148.129H320.649V151H319.731V144.592H320.649V147.364H324.24V144.592H325.167Z" fill="#565D67"/>
<rect x="350" y="134" width="55" height="26" rx="8" fill="#F5F7FA"/>
<path d="M368.388 148.426V151H367.452V148.408L364.905 144.592H365.967L367.929 147.616L369.882 144.592H370.944L368.388 148.426ZM371.45 144.592H375.608V145.348H372.368V147.364H375.428V148.12H372.368V150.244H375.608V151H371.45V144.592ZM380.865 149.416H377.625L376.941 151H375.996L378.849 144.592H379.632L382.494 151H381.549L380.865 149.416ZM380.55 148.678L379.245 145.627L377.94 148.678H380.55ZM388.463 151H387.482L386.681 148.867C386.597 148.639 386.474 148.483 386.312 148.399C386.15 148.309 385.928 148.264 385.646 148.264H384.242V151H383.324V144.592H385.961C386.663 144.592 387.2 144.748 387.572 145.06C387.95 145.372 388.139 145.819 388.139 146.401C388.139 146.821 388.028 147.178 387.806 147.472C387.584 147.766 387.269 147.973 386.861 148.093C387.233 148.159 387.503 148.423 387.671 148.885L388.463 151ZM385.853 147.517C386.321 147.517 386.669 147.427 386.897 147.247C387.125 147.061 387.239 146.785 387.239 146.419C387.239 146.053 387.125 145.783 386.897 145.609C386.675 145.429 386.327 145.339 385.853 145.339H384.242V147.517H385.853Z" fill="#565D67"/>
<rect x="153" y="192" width="46" height="46" rx="14" fill="#EDF9F3"/>
<path d="M182 209.923L176 204L170 209.923" stroke="#2DC14E" stroke-linecap="round" stroke-linejoin="round"/>
<path d="M176 226L176 204" stroke="#2DC14E" stroke-linecap="round" stroke-linejoin="round"/>
<rect x="199" y="300" width="46" height="46" rx="14" transform="rotate(-180 199 300)" fill="#FBECEC"/>
<path d="M170 282.077L176 288L182 282.077" stroke="#FF2020" stroke-linecap="round" stroke-linejoin="round"/>
<path d="M176 266L176 288" stroke="#FF2020" stroke-linecap="round" stroke-linejoin="round"/>
<path d="M218.764 209H217.72L216.664 206.156C216.536 205.804 216.356 205.568 216.124 205.448C215.9 205.328 215.58 205.268 215.164 205.268H213.028V209H212.056V200.456H215.452C216.372 200.456 217.076 200.66 217.564 201.068C218.06 201.476 218.308 202.064 218.308 202.832C218.308 203.392 218.16 203.864 217.864 204.248C217.576 204.624 217.156 204.892 216.604 205.052C216.852 205.092 217.064 205.2 217.24 205.376C217.416 205.544 217.564 205.788 217.684 206.108L218.764 209ZM215.368 204.452C216.68 204.452 217.336 203.916 217.336 202.844C217.336 202.316 217.176 201.924 216.856 201.668C216.536 201.404 216.04 201.272 215.368 201.272H213.028V204.452H215.368ZM225.308 205.952H220.88C220.888 206.72 221.064 207.3 221.408 207.692C221.76 208.084 222.268 208.28 222.932 208.28C223.636 208.28 224.284 208.044 224.876 207.572L225.2 208.28C224.936 208.528 224.596 208.724 224.18 208.868C223.772 209.012 223.352 209.084 222.92 209.084C221.976 209.084 221.236 208.808 220.7 208.256C220.164 207.696 219.896 206.932 219.896 205.964C219.896 205.348 220.016 204.804 220.256 204.332C220.496 203.852 220.832 203.48 221.264 203.216C221.696 202.952 222.188 202.82 222.74 202.82C223.54 202.82 224.168 203.084 224.624 203.612C225.08 204.132 225.308 204.852 225.308 205.772V205.952ZM222.752 203.576C222.248 203.576 221.836 203.728 221.516 204.032C221.204 204.336 221.004 204.764 220.916 205.316H224.432C224.384 204.748 224.216 204.316 223.928 204.02C223.648 203.724 223.256 203.576 222.752 203.576ZM229.316 209.084C228.732 209.084 228.22 208.956 227.78 208.7C227.348 208.444 227.012 208.084 226.772 207.62C226.54 207.148 226.424 206.6 226.424 205.976C226.424 205.352 226.544 204.804 226.784 204.332C227.024 203.852 227.364 203.48 227.804 203.216C228.252 202.952 228.772 202.82 229.364 202.82C229.772 202.82 230.164 202.892 230.54 203.036C230.924 203.172 231.24 203.364 231.488 203.612L231.164 204.332C230.86 204.092 230.564 203.916 230.276 203.804C229.996 203.692 229.708 203.636 229.412 203.636C228.796 203.636 228.312 203.844 227.96 204.26C227.608 204.668 227.432 205.24 227.432 205.976C227.432 206.704 227.604 207.272 227.948 207.68C228.3 208.08 228.788 208.28 229.412 208.28C229.708 208.28 229.996 208.224 230.276 208.112C230.564 208 230.86 207.824 231.164 207.584L231.488 208.304C231.232 208.544 230.908 208.736 230.516 208.88C230.132 209.016 229.732 209.084 229.316 209.084ZM237.777 205.952H233.349C233.357 206.72 233.533 207.3 233.877 207.692C234.229 208.084 234.737 208.28 235.401 208.28C236.105 208.28 236.753 208.044 237.345 207.572L237.669 208.28C237.405 208.528 237.065 208.724 236.649 208.868C236.241 209.012 235.821 209.084 235.389 209.084C234.445 209.084 233.705 208.808 233.169 208.256C232.633 207.696 232.365 206.932 232.365 205.964C232.365 205.348 232.485 204.804 232.725 204.332C232.965 203.852 233.301 203.48 233.733 203.216C234.165 202.952 234.657 202.82 235.209 202.82C236.009 202.82 236.637 203.084 237.093 203.612C237.549 204.132 237.777 204.852 237.777 205.772V205.952ZM235.221 203.576C234.717 203.576 234.305 203.728 233.985 204.032C233.673 204.336 233.473 204.764 233.385 205.316H236.901C236.853 204.748 236.685 204.316 236.397 204.02C236.117 203.724 235.725 203.576 235.221 203.576ZM239.252 202.964H240.224V209H239.252V202.964ZM240.344 200.408V201.512H239.156V200.408H240.344ZM245.124 202.82C245.652 202.82 246.12 202.952 246.528 203.216C246.936 203.48 247.252 203.852 247.476 204.332C247.7 204.804 247.812 205.352 247.812 205.976C247.812 206.6 247.7 207.148 247.476 207.62C247.252 208.084 246.936 208.444 246.528 208.7C246.128 208.956 245.66 209.084 245.124 209.084C244.652 209.084 244.24 208.98 243.888 208.772C243.536 208.564 243.268 208.268 243.084 207.884V211.592H242.112V204.656C242.112 204.032 242.08 203.468 242.016 202.964H242.94L243.036 204.128C243.204 203.712 243.468 203.392 243.828 203.168C244.196 202.936 244.628 202.82 245.124 202.82ZM244.944 208.28C245.536 208.28 245.992 208.08 246.312 207.68C246.64 207.28 246.804 206.712 246.804 205.976C246.804 205.24 246.64 204.668 246.312 204.26C245.984 203.844 245.528 203.636 244.944 203.636C244.344 203.636 243.884 203.836 243.564 204.236C243.244 204.636 243.084 205.208 243.084 205.952C243.084 206.696 243.244 207.272 243.564 207.68C243.884 208.08 244.344 208.28 244.944 208.28ZM250.591 203.732V207.032C250.591 207.48 250.683 207.796 250.867 207.98C251.051 208.156 251.311 208.244 251.647 208.244C251.871 208.244 252.087 208.208 252.295 208.136V208.964C252.047 209.044 251.767 209.084 251.455 209.084C250.879 209.084 250.427 208.924 250.099 208.604C249.779 208.276 249.619 207.796 249.619 207.164V203.732H248.443V202.964H249.619V201.416L250.591 201.068V202.964H252.319V203.732H250.591Z" fill="#98A0AC"/>
<path d="M219.004 222.456V231H218.056L213.16 224.544V231H211.996V222.456H212.932L217.84 228.924V222.456H219.004ZM226.048 228H221.728C221.768 229.416 222.412 230.124 223.66 230.124C224.356 230.124 224.992 229.896 225.568 229.44L225.94 230.304C225.668 230.544 225.32 230.736 224.896 230.88C224.48 231.016 224.06 231.084 223.636 231.084C222.668 231.084 221.908 230.808 221.356 230.256C220.804 229.696 220.528 228.932 220.528 227.964C220.528 227.348 220.648 226.8 220.888 226.32C221.136 225.84 221.48 225.468 221.92 225.204C222.36 224.94 222.86 224.808 223.42 224.808C224.236 224.808 224.876 225.072 225.34 225.6C225.812 226.128 226.048 226.86 226.048 227.796V228ZM223.444 225.708C222.988 225.708 222.616 225.844 222.328 226.116C222.04 226.388 221.856 226.776 221.776 227.28H224.98C224.932 226.768 224.776 226.38 224.512 226.116C224.248 225.844 223.892 225.708 223.444 225.708ZM236.741 224.952L234.437 231H233.333L231.713 226.62L230.105 231H229.001L226.697 224.952H227.957L229.601 229.572L231.269 224.952H232.229L233.897 229.572L235.553 224.952H236.741ZM244.272 224.808C244.792 224.808 245.256 224.94 245.664 225.204C246.072 225.468 246.388 225.84 246.612 226.32C246.844 226.8 246.96 227.352 246.96 227.976C246.96 228.6 246.848 229.148 246.624 229.62C246.4 230.084 246.084 230.444 245.676 230.7C245.268 230.956 244.8 231.084 244.272 231.084C243.808 231.084 243.4 230.988 243.048 230.796C242.704 230.596 242.444 230.312 242.268 229.944V233.592H241.068V226.656C241.068 226.024 241.036 225.456 240.972 224.952H242.1L242.22 226.068C242.38 225.668 242.64 225.36 243 225.144C243.36 224.92 243.784 224.808 244.272 224.808ZM243.996 230.124C244.54 230.124 244.964 229.936 245.268 229.56C245.572 229.184 245.724 228.656 245.724 227.976C245.724 227.288 245.572 226.752 245.268 226.368C244.964 225.976 244.54 225.78 243.996 225.78C243.436 225.78 243.008 225.968 242.712 226.344C242.416 226.72 242.268 227.256 242.268 227.952C242.268 228.648 242.416 229.184 242.712 229.56C243.016 229.936 243.444 230.124 243.996 230.124ZM253.912 224.952V231H252.712V229.968C252.536 230.328 252.272 230.604 251.92 230.796C251.576 230.988 251.172 231.084 250.708 231.084C250.172 231.084 249.7 230.956 249.292 230.7C248.892 230.444 248.58 230.084 248.356 229.62C248.132 229.148 248.02 228.6 248.02 227.976C248.02 227.352 248.132 226.8 248.356 226.32C248.588 225.84 248.908 225.468 249.316 225.204C249.724 224.94 250.188 224.808 250.708 224.808C251.172 224.808 251.576 224.908 251.92 225.108C252.264 225.3 252.528 225.576 252.712 225.936V224.952H253.912ZM250.996 230.124C251.54 230.124 251.96 229.936 252.256 229.56C252.56 229.176 252.712 228.64 252.712 227.952C252.712 227.256 252.56 226.72 252.256 226.344C251.96 225.968 251.536 225.78 250.984 225.78C250.44 225.78 250.012 225.976 249.7 226.368C249.396 226.752 249.244 227.288 249.244 227.976C249.244 228.656 249.396 229.184 249.7 229.56C250.012 229.936 250.444 230.124 250.996 230.124ZM261.189 224.952L258.369 231.492C258.057 232.204 257.665 232.724 257.193 233.052C256.729 233.388 256.153 233.612 255.465 233.724L255.201 232.788C255.769 232.66 256.197 232.492 256.485 232.284C256.781 232.084 257.017 231.78 257.193 231.372L257.409 230.868L254.865 224.952H256.149L258.045 229.632L259.977 224.952H261.189ZM269.026 224.808C270.37 224.808 271.042 225.616 271.042 227.232V231H269.83V227.292C269.83 226.772 269.738 226.392 269.554 226.152C269.378 225.912 269.09 225.792 268.69 225.792C268.226 225.792 267.858 225.952 267.586 226.272C267.322 226.592 267.19 227.028 267.19 227.58V231H265.978V227.292C265.978 226.772 265.886 226.392 265.702 226.152C265.526 225.912 265.238 225.792 264.838 225.792C264.374 225.792 264.006 225.952 263.734 226.272C263.462 226.592 263.326 227.028 263.326 227.58V231H262.126V226.656C262.126 226.024 262.094 225.456 262.03 224.952H263.158L263.266 225.96C263.442 225.592 263.694 225.308 264.022 225.108C264.35 224.908 264.734 224.808 265.174 224.808C266.11 224.808 266.722 225.196 267.01 225.972C267.194 225.612 267.462 225.328 267.814 225.12C268.174 224.912 268.578 224.808 269.026 224.808ZM277.939 228H273.619C273.659 229.416 274.303 230.124 275.551 230.124C276.247 230.124 276.883 229.896 277.459 229.44L277.831 230.304C277.559 230.544 277.211 230.736 276.787 230.88C276.371 231.016 275.951 231.084 275.527 231.084C274.559 231.084 273.799 230.808 273.247 230.256C272.695 229.696 272.419 228.932 272.419 227.964C272.419 227.348 272.539 226.8 272.779 226.32C273.027 225.84 273.371 225.468 273.811 225.204C274.251 224.94 274.751 224.808 275.311 224.808C276.127 224.808 276.767 225.072 277.231 225.6C277.703 226.128 277.939 226.86 277.939 227.796V228ZM275.335 225.708C274.879 225.708 274.507 225.844 274.219 226.116C273.931 226.388 273.747 226.776 273.667 227.28H276.871C276.823 226.768 276.667 226.38 276.403 226.116C276.139 225.844 275.783 225.708 275.335 225.708ZM282.545 224.808C283.993 224.808 284.717 225.616 284.717 227.232V231H283.505V227.304C283.505 226.776 283.401 226.392 283.193 226.152C282.993 225.912 282.669 225.792 282.221 225.792C281.709 225.792 281.297 225.952 280.985 226.272C280.681 226.592 280.529 227.02 280.529 227.556V231H279.329V226.656C279.329 226.024 279.297 225.456 279.233 224.952H280.361L280.469 225.996C280.661 225.612 280.937 225.32 281.297 225.12C281.665 224.912 282.081 224.808 282.545 224.808ZM288.015 225.888V228.924C288.015 229.34 288.103 229.636 288.279 229.812C288.463 229.98 288.715 230.064 289.035 230.064C289.243 230.064 289.455 230.032 289.671 229.968V230.952C289.407 231.04 289.107 231.084 288.771 231.084C288.147 231.084 287.663 230.908 287.319 230.556C286.975 230.204 286.803 229.692 286.803 229.02V225.888H285.627V224.952H286.803V223.44L288.015 223.02V224.952H289.683V225.888H288.015Z" fill="#32353E"/>
<path d="M384.592 228.888H380.272L379.36 231H378.1L381.904 222.456H382.948L386.764 231H385.504L384.592 228.888ZM384.172 227.904L382.432 223.836L380.692 227.904H384.172ZM387.871 222.456H393.415V223.464H389.095V226.152H393.175V227.16H389.095V229.992H393.415V231H387.871V222.456ZM394.961 222.456H397.949C399.333 222.456 400.405 222.828 401.165 223.572C401.925 224.316 402.305 225.364 402.305 226.716C402.305 228.076 401.925 229.132 401.165 229.884C400.405 230.628 399.333 231 397.949 231H394.961V222.456ZM397.877 229.968C399.981 229.968 401.033 228.884 401.033 226.716C401.033 224.564 399.981 223.488 397.877 223.488H396.197V229.968H397.877Z" fill="black" fill-opacity="0.23"/>
<path d="M330.492 222.456V223.38L326.544 231H325.212L329.148 223.476H324.708V222.456H330.492ZM333.355 229.56V230.544C333.355 230.92 333.291 231.26 333.163 231.564C333.035 231.876 332.819 232.184 332.515 232.488L331.999 232.068C332.335 231.7 332.527 231.344 332.575 231H331.915V229.56H333.355ZM340.618 229.98V231H335.014V230.076L337.954 226.848C338.33 226.432 338.602 226.056 338.77 225.72C338.946 225.376 339.034 225.036 339.034 224.7C339.034 224.268 338.91 223.94 338.662 223.716C338.414 223.484 338.054 223.368 337.582 223.368C336.79 223.368 335.998 223.68 335.206 224.304L334.762 223.392C335.098 223.08 335.526 222.832 336.046 222.648C336.566 222.456 337.09 222.36 337.618 222.36C338.434 222.36 339.078 222.564 339.55 222.972C340.03 223.38 340.27 223.932 340.27 224.628C340.27 225.124 340.162 225.596 339.946 226.044C339.73 226.484 339.37 226.976 338.866 227.52L336.586 229.98H340.618ZM347.717 229.98V231H342.725V229.98H344.597V223.932L342.857 225.012V223.872L345.125 222.456H345.845V229.98H347.717ZM353.329 226.608C353.825 226.752 354.205 227 354.469 227.352C354.733 227.704 354.865 228.148 354.865 228.684C354.865 229.428 354.601 230.016 354.073 230.448C353.553 230.872 352.845 231.084 351.949 231.084C351.381 231.084 350.837 230.996 350.317 230.82C349.805 230.636 349.377 230.38 349.033 230.052L349.477 229.14C350.245 229.764 351.057 230.076 351.913 230.076C353.081 230.076 353.665 229.584 353.665 228.6C353.665 228.12 353.513 227.764 353.209 227.532C352.905 227.292 352.445 227.172 351.829 227.172H350.785V226.164H351.637C352.229 226.164 352.681 226.04 352.993 225.792C353.305 225.544 353.461 225.184 353.461 224.712C353.461 224.28 353.329 223.948 353.065 223.716C352.809 223.484 352.445 223.368 351.973 223.368C351.173 223.368 350.381 223.68 349.597 224.304L349.153 223.392C349.489 223.072 349.913 222.82 350.425 222.636C350.945 222.452 351.481 222.36 352.033 222.36C352.833 222.36 353.469 222.56 353.941 222.96C354.421 223.352 354.661 223.884 354.661 224.556C354.661 225.044 354.545 225.468 354.313 225.828C354.081 226.188 353.753 226.448 353.329 226.608ZM357.824 229.56V231H356.384V229.56H357.824ZM363.407 226.608C363.903 226.752 364.283 227 364.547 227.352C364.811 227.704 364.943 228.148 364.943 228.684C364.943 229.428 364.679 230.016 364.151 230.448C363.631 230.872 362.923 231.084 362.027 231.084C361.459 231.084 360.915 230.996 360.395 230.82C359.883 230.636 359.455 230.38 359.111 230.052L359.555 229.14C360.323 229.764 361.135 230.076 361.991 230.076C363.159 230.076 363.743 229.584 363.743 228.6C363.743 228.12 363.591 227.764 363.287 227.532C362.983 227.292 362.523 227.172 361.907 227.172H360.863V226.164H361.715C362.307 226.164 362.759 226.04 363.071 225.792C363.383 225.544 363.539 225.184 363.539 224.712C363.539 224.28 363.407 223.948 363.143 223.716C362.887 223.484 362.523 223.368 362.051 223.368C361.251 223.368 360.459 223.68 359.675 224.304L359.231 223.392C359.567 223.072 359.991 222.82 360.503 222.636C361.023 222.452 361.559 222.36 362.111 222.36C362.911 222.36 363.547 222.56 364.019 222.96C364.499 223.352 364.739 223.884 364.739 224.556C364.739 225.044 364.623 225.468 364.391 225.828C364.159 226.188 363.831 226.448 363.407 226.608ZM369.078 222.36C370.134 222.36 370.946 222.72 371.514 223.44C372.082 224.16 372.366 225.192 372.366 226.536C372.366 227.488 372.23 228.308 371.958 228.996C371.694 229.676 371.306 230.196 370.794 230.556C370.29 230.916 369.686 231.096 368.982 231.096C368.478 231.096 367.99 231.008 367.518 230.832C367.046 230.648 366.634 230.392 366.282 230.064L366.714 229.152C367.114 229.48 367.494 229.72 367.854 229.872C368.222 230.016 368.586 230.088 368.946 230.088C369.642 230.088 370.178 229.784 370.554 229.176C370.938 228.56 371.13 227.688 371.13 226.56V226.524C370.954 226.94 370.666 227.268 370.266 227.508C369.874 227.748 369.422 227.868 368.91 227.868C368.398 227.868 367.942 227.756 367.542 227.532C367.142 227.3 366.83 226.98 366.606 226.572C366.382 226.156 366.27 225.68 366.27 225.144C366.27 224.608 366.39 224.132 366.63 223.716C366.87 223.292 367.202 222.96 367.626 222.72C368.058 222.48 368.542 222.36 369.078 222.36ZM369.138 226.86C369.65 226.86 370.066 226.7 370.386 226.38C370.706 226.052 370.866 225.632 370.866 225.12C370.866 224.6 370.706 224.18 370.386 223.86C370.066 223.532 369.65 223.368 369.138 223.368C368.634 223.368 368.23 223.528 367.926 223.848C367.622 224.168 367.47 224.592 367.47 225.12C367.47 225.64 367.622 226.06 367.926 226.38C368.238 226.7 368.642 226.86 369.138 226.86Z" fill="#32353E"/>
<path d="M218.764 270H217.72L216.664 267.156C216.536 266.804 216.356 266.568 216.124 266.448C215.9 266.328 215.58 266.268 215.164 266.268H213.028V270H212.056V261.456H215.452C216.372 261.456 217.076 261.66 217.564 262.068C218.06 262.476 218.308 263.064 218.308 263.832C218.308 264.392 218.16 264.864 217.864 265.248C217.576 265.624 217.156 265.892 216.604 266.052C216.852 266.092 217.064 266.2 217.24 266.376C217.416 266.544 217.564 266.788 217.684 267.108L218.764 270ZM215.368 265.452C216.68 265.452 217.336 264.916 217.336 263.844C217.336 263.316 217.176 262.924 216.856 262.668C216.536 262.404 216.04 262.272 215.368 262.272H213.028V265.452H215.368ZM225.308 266.952H220.88C220.888 267.72 221.064 268.3 221.408 268.692C221.76 269.084 222.268 269.28 222.932 269.28C223.636 269.28 224.284 269.044 224.876 268.572L225.2 269.28C224.936 269.528 224.596 269.724 224.18 269.868C223.772 270.012 223.352 270.084 222.92 270.084C221.976 270.084 221.236 269.808 220.7 269.256C220.164 268.696 219.896 267.932 219.896 266.964C219.896 266.348 220.016 265.804 220.256 265.332C220.496 264.852 220.832 264.48 221.264 264.216C221.696 263.952 222.188 263.82 222.74 263.82C223.54 263.82 224.168 264.084 224.624 264.612C225.08 265.132 225.308 265.852 225.308 266.772V266.952ZM222.752 264.576C222.248 264.576 221.836 264.728 221.516 265.032C221.204 265.336 221.004 265.764 220.916 266.316H224.432C224.384 265.748 224.216 265.316 223.928 265.02C223.648 264.724 223.256 264.576 222.752 264.576ZM229.316 270.084C228.732 270.084 228.22 269.956 227.78 269.7C227.348 269.444 227.012 269.084 226.772 268.62C226.54 268.148 226.424 267.6 226.424 266.976C226.424 266.352 226.544 265.804 226.784 265.332C227.024 264.852 227.364 264.48 227.804 264.216C228.252 263.952 228.772 263.82 229.364 263.82C229.772 263.82 230.164 263.892 230.54 264.036C230.924 264.172 231.24 264.364 231.488 264.612L231.164 265.332C230.86 265.092 230.564 264.916 230.276 264.804C229.996 264.692 229.708 264.636 229.412 264.636C228.796 264.636 228.312 264.844 227.96 265.26C227.608 265.668 227.432 266.24 227.432 266.976C227.432 267.704 227.604 268.272 227.948 268.68C228.3 269.08 228.788 269.28 229.412 269.28C229.708 269.28 229.996 269.224 230.276 269.112C230.564 269 230.86 268.824 231.164 268.584L231.488 269.304C231.232 269.544 230.908 269.736 230.516 269.88C230.132 270.016 229.732 270.084 229.316 270.084ZM237.777 266.952H233.349C233.357 267.72 233.533 268.3 233.877 268.692C234.229 269.084 234.737 269.28 235.401 269.28C236.105 269.28 236.753 269.044 237.345 268.572L237.669 269.28C237.405 269.528 237.065 269.724 236.649 269.868C236.241 270.012 235.821 270.084 235.389 270.084C234.445 270.084 233.705 269.808 233.169 269.256C232.633 268.696 232.365 267.932 232.365 266.964C232.365 266.348 232.485 265.804 232.725 265.332C232.965 264.852 233.301 264.48 233.733 264.216C234.165 263.952 234.657 263.82 235.209 263.82C236.009 263.82 236.637 264.084 237.093 264.612C237.549 265.132 237.777 265.852 237.777 266.772V266.952ZM235.221 264.576C234.717 264.576 234.305 264.728 233.985 265.032C233.673 265.336 233.473 265.764 233.385 266.316H236.901C236.853 265.748 236.685 265.316 236.397 265.02C236.117 264.724 235.725 264.576 235.221 264.576ZM239.252 263.964H240.224V270H239.252V263.964ZM240.344 261.408V262.512H239.156V261.408H240.344ZM245.124 263.82C245.652 263.82 246.12 263.952 246.528 264.216C246.936 264.48 247.252 264.852 247.476 265.332C247.7 265.804 247.812 266.352 247.812 266.976C247.812 267.6 247.7 268.148 247.476 268.62C247.252 269.084 246.936 269.444 246.528 269.7C246.128 269.956 245.66 270.084 245.124 270.084C244.652 270.084 244.24 269.98 243.888 269.772C243.536 269.564 243.268 269.268 243.084 268.884V272.592H242.112V265.656C242.112 265.032 242.08 264.468 242.016 263.964H242.94L243.036 265.128C243.204 264.712 243.468 264.392 243.828 264.168C244.196 263.936 244.628 263.82 245.124 263.82ZM244.944 269.28C245.536 269.28 245.992 269.08 246.312 268.68C246.64 268.28 246.804 267.712 246.804 266.976C246.804 266.24 246.64 265.668 246.312 265.26C245.984 264.844 245.528 264.636 244.944 264.636C244.344 264.636 243.884 264.836 243.564 265.236C243.244 265.636 243.084 266.208 243.084 266.952C243.084 267.696 243.244 268.272 243.564 268.68C243.884 269.08 244.344 269.28 244.944 269.28ZM250.591 264.732V268.032C250.591 268.48 250.683 268.796 250.867 268.98C251.051 269.156 251.311 269.244 251.647 269.244C251.871 269.244 252.087 269.208 252.295 269.136V269.964C252.047 270.044 251.767 270.084 251.455 270.084C250.879 270.084 250.427 269.924 250.099 269.604C249.779 269.276 249.619 268.796 249.619 268.164V264.732H248.443V263.964H249.619V262.416L250.591 262.068V263.964H252.319V264.732H250.591Z" fill="#98A0AC"/>
<path d="M214.792 292.096C214.128 292.096 213.52 292.008 212.968 291.832C212.424 291.656 211.952 291.392 211.552 291.04L211.996 290.128C212.412 290.464 212.844 290.708 213.292 290.86C213.74 291.012 214.244 291.088 214.804 291.088C215.444 291.088 215.94 290.968 216.292 290.728C216.644 290.488 216.82 290.148 216.82 289.708C216.82 289.34 216.656 289.064 216.328 288.88C216 288.688 215.48 288.512 214.768 288.352C214.088 288.208 213.532 288.044 213.1 287.86C212.668 287.668 212.328 287.416 212.08 287.104C211.832 286.784 211.708 286.376 211.708 285.88C211.708 285.384 211.84 284.948 212.104 284.572C212.368 284.188 212.74 283.892 213.22 283.684C213.708 283.468 214.268 283.36 214.9 283.36C215.5 283.36 216.06 283.452 216.58 283.636C217.108 283.82 217.548 284.08 217.9 284.416L217.456 285.328C217.064 285 216.66 284.76 216.244 284.608C215.828 284.448 215.384 284.368 214.912 284.368C214.296 284.368 213.812 284.5 213.46 284.764C213.108 285.02 212.932 285.372 212.932 285.82C212.932 286.204 213.084 286.496 213.388 286.696C213.7 286.896 214.196 287.076 214.876 287.236C215.588 287.396 216.164 287.564 216.604 287.74C217.044 287.916 217.396 288.156 217.66 288.46C217.924 288.764 218.056 289.156 218.056 289.636C218.056 290.132 217.924 290.564 217.66 290.932C217.396 291.3 217.016 291.588 216.52 291.796C216.032 291.996 215.456 292.096 214.792 292.096ZM222.686 285.808C223.206 285.808 223.67 285.94 224.078 286.204C224.486 286.468 224.802 286.84 225.026 287.32C225.258 287.8 225.374 288.352 225.374 288.976C225.374 289.6 225.262 290.148 225.038 290.62C224.814 291.084 224.498 291.444 224.09 291.7C223.682 291.956 223.214 292.084 222.686 292.084C222.222 292.084 221.814 291.988 221.462 291.796C221.118 291.596 220.858 291.312 220.682 290.944V294.592H219.482V287.656C219.482 287.024 219.45 286.456 219.386 285.952H220.514L220.634 287.068C220.794 286.668 221.054 286.36 221.414 286.144C221.774 285.92 222.198 285.808 222.686 285.808ZM222.41 291.124C222.954 291.124 223.378 290.936 223.682 290.56C223.986 290.184 224.138 289.656 224.138 288.976C224.138 288.288 223.986 287.752 223.682 287.368C223.378 286.976 222.954 286.78 222.41 286.78C221.85 286.78 221.422 286.968 221.126 287.344C220.83 287.72 220.682 288.256 220.682 288.952C220.682 289.648 220.83 290.184 221.126 290.56C221.43 290.936 221.858 291.124 222.41 291.124ZM229.398 292.084C228.806 292.084 228.286 291.956 227.838 291.7C227.39 291.444 227.042 291.08 226.794 290.608C226.554 290.136 226.434 289.584 226.434 288.952C226.434 288.32 226.554 287.768 226.794 287.296C227.042 286.816 227.39 286.448 227.838 286.192C228.286 285.936 228.806 285.808 229.398 285.808C229.982 285.808 230.498 285.936 230.946 286.192C231.394 286.448 231.738 286.816 231.978 287.296C232.226 287.768 232.35 288.32 232.35 288.952C232.35 289.584 232.226 290.136 231.978 290.608C231.738 291.08 231.394 291.444 230.946 291.7C230.498 291.956 229.982 292.084 229.398 292.084ZM229.386 291.124C229.946 291.124 230.374 290.94 230.67 290.572C230.966 290.204 231.114 289.664 231.114 288.952C231.114 288.256 230.962 287.72 230.658 287.344C230.362 286.968 229.942 286.78 229.398 286.78C228.846 286.78 228.418 286.968 228.114 287.344C227.81 287.72 227.658 288.256 227.658 288.952C227.658 289.664 227.806 290.204 228.102 290.572C228.406 290.94 228.834 291.124 229.386 291.124ZM236.779 285.808C236.963 285.808 237.155 285.836 237.355 285.892L237.331 286.996C237.115 286.916 236.879 286.876 236.623 286.876C236.071 286.876 235.655 287.044 235.375 287.38C235.103 287.708 234.967 288.124 234.967 288.628V292H233.767V287.656C233.767 287.024 233.735 286.456 233.671 285.952H234.799L234.907 287.044C235.067 286.644 235.315 286.34 235.651 286.132C235.987 285.916 236.363 285.808 236.779 285.808ZM240.355 286.888V289.924C240.355 290.34 240.443 290.636 240.619 290.812C240.803 290.98 241.055 291.064 241.375 291.064C241.583 291.064 241.795 291.032 242.011 290.968V291.952C241.747 292.04 241.447 292.084 241.111 292.084C240.487 292.084 240.003 291.908 239.659 291.556C239.315 291.204 239.143 290.692 239.143 290.02V286.888H237.967V285.952H239.143V284.44L240.355 284.02V285.952H242.023V286.888H240.355ZM243.142 283.168H244.342V292H243.142V283.168ZM251.65 285.952V292H250.45V290.968C250.274 291.328 250.01 291.604 249.658 291.796C249.314 291.988 248.91 292.084 248.446 292.084C247.91 292.084 247.438 291.956 247.03 291.7C246.63 291.444 246.318 291.084 246.094 290.62C245.87 290.148 245.758 289.6 245.758 288.976C245.758 288.352 245.87 287.8 246.094 287.32C246.326 286.84 246.646 286.468 247.054 286.204C247.462 285.94 247.926 285.808 248.446 285.808C248.91 285.808 249.314 285.908 249.658 286.108C250.002 286.3 250.266 286.576 250.45 286.936V285.952H251.65ZM248.734 291.124C249.278 291.124 249.698 290.936 249.994 290.56C250.298 290.176 250.45 289.64 250.45 288.952C250.45 288.256 250.298 287.72 249.994 287.344C249.698 286.968 249.274 286.78 248.722 286.78C248.178 286.78 247.75 286.976 247.438 287.368C247.134 287.752 246.982 288.288 246.982 288.976C246.982 289.656 247.134 290.184 247.438 290.56C247.75 290.936 248.182 291.124 248.734 291.124ZM256.647 285.808C258.095 285.808 258.819 286.616 258.819 288.232V292H257.607V288.304C257.607 287.776 257.503 287.392 257.295 287.152C257.095 286.912 256.771 286.792 256.323 286.792C255.811 286.792 255.399 286.952 255.087 287.272C254.783 287.592 254.631 288.02 254.631 288.556V292H253.431V287.656C253.431 287.024 253.399 286.456 253.335 285.952H254.463L254.571 286.996C254.763 286.612 255.039 286.32 255.399 286.12C255.767 285.912 256.183 285.808 256.647 285.808ZM266.076 283.168V292H264.876V290.968C264.7 291.328 264.436 291.604 264.084 291.796C263.74 291.988 263.336 292.084 262.872 292.084C262.352 292.084 261.888 291.952 261.48 291.688C261.072 291.424 260.752 291.056 260.52 290.584C260.296 290.104 260.184 289.552 260.184 288.928C260.184 288.304 260.296 287.756 260.52 287.284C260.744 286.812 261.056 286.448 261.456 286.192C261.864 285.936 262.336 285.808 262.872 285.808C263.328 285.808 263.728 285.904 264.072 286.096C264.424 286.288 264.688 286.56 264.864 286.912V283.168H266.076ZM263.148 291.124C263.7 291.124 264.124 290.936 264.42 290.56C264.724 290.176 264.876 289.64 264.876 288.952C264.876 288.264 264.724 287.732 264.42 287.356C264.124 286.972 263.704 286.78 263.16 286.78C262.608 286.78 262.176 286.968 261.864 287.344C261.56 287.72 261.408 288.248 261.408 288.928C261.408 289.616 261.56 290.156 261.864 290.548C262.176 290.932 262.604 291.124 263.148 291.124Z" fill="#32353E"/>
<path d="M384.592 288.888H380.272L379.36 291H378.1L381.904 282.456H382.948L386.764 291H385.504L384.592 288.888ZM384.172 287.904L382.432 283.836L380.692 287.904H384.172ZM387.871 282.456H393.415V283.464H389.095V286.152H393.175V287.16H389.095V289.992H393.415V291H387.871V282.456ZM394.961 282.456H397.949C399.333 282.456 400.405 282.828 401.165 283.572C401.925 284.316 402.305 285.364 402.305 286.716C402.305 288.076 401.925 289.132 401.165 289.884C400.405 290.628 399.333 291 397.949 291H394.961V282.456ZM397.877 289.968C399.981 289.968 401.033 288.884 401.033 286.716C401.033 284.564 399.981 283.488 397.877 283.488H396.197V289.968H397.877Z" fill="black" fill-opacity="0.23"/>
<path d="M330.852 289.224H329.592V291H328.368V289.224H324.54V288.3L328.596 282.456H329.592V288.228H330.852V289.224ZM328.368 288.228V284.46L325.752 288.228H328.368ZM333.355 289.56V290.544C333.355 290.92 333.291 291.26 333.163 291.564C333.035 291.876 332.819 292.184 332.515 292.488L331.999 292.068C332.335 291.7 332.527 291.344 332.575 291H331.915V289.56H333.355ZM338.086 285.588C338.622 285.588 339.09 285.704 339.49 285.936C339.898 286.16 340.21 286.48 340.426 286.896C340.65 287.304 340.762 287.776 340.762 288.312C340.762 288.864 340.638 289.348 340.39 289.764C340.15 290.18 339.802 290.504 339.346 290.736C338.89 290.968 338.358 291.084 337.75 291.084C337.222 291.084 336.702 290.992 336.19 290.808C335.678 290.624 335.254 290.372 334.918 290.052L335.35 289.14C336.142 289.764 336.946 290.076 337.762 290.076C338.33 290.076 338.77 289.924 339.082 289.62C339.402 289.308 339.562 288.88 339.562 288.336C339.562 287.816 339.402 287.396 339.082 287.076C338.77 286.756 338.35 286.596 337.822 286.596C337.054 286.596 336.438 286.888 335.974 287.472H335.17V282.456H340.402V283.452H336.394V286.164C336.85 285.78 337.414 285.588 338.086 285.588ZM346.133 286.608C346.629 286.752 347.009 287 347.273 287.352C347.537 287.704 347.669 288.148 347.669 288.684C347.669 289.428 347.405 290.016 346.877 290.448C346.357 290.872 345.649 291.084 344.753 291.084C344.185 291.084 343.641 290.996 343.121 290.82C342.609 290.636 342.181 290.38 341.837 290.052L342.281 289.14C343.049 289.764 343.861 290.076 344.717 290.076C345.885 290.076 346.469 289.584 346.469 288.6C346.469 288.12 346.317 287.764 346.013 287.532C345.709 287.292 345.249 287.172 344.633 287.172H343.589V286.164H344.441C345.033 286.164 345.485 286.04 345.797 285.792C346.109 285.544 346.265 285.184 346.265 284.712C346.265 284.28 346.133 283.948 345.869 283.716C345.613 283.484 345.249 283.368 344.777 283.368C343.977 283.368 343.185 283.68 342.401 284.304L341.957 283.392C342.293 283.072 342.717 282.82 343.229 282.636C343.749 282.452 344.285 282.36 344.837 282.36C345.637 282.36 346.273 282.56 346.745 282.96C347.225 283.352 347.465 283.884 347.465 284.556C347.465 285.044 347.349 285.468 347.117 285.828C346.885 286.188 346.557 286.448 346.133 286.608ZM352.513 285.588C353.025 285.588 353.477 285.704 353.869 285.936C354.269 286.16 354.581 286.48 354.805 286.896C355.029 287.304 355.141 287.776 355.141 288.312C355.141 288.848 355.021 289.328 354.781 289.752C354.541 290.168 354.209 290.496 353.785 290.736C353.361 290.976 352.881 291.096 352.345 291.096C351.289 291.096 350.473 290.736 349.897 290.016C349.329 289.296 349.045 288.264 349.045 286.92C349.045 285.968 349.177 285.152 349.441 284.472C349.713 283.784 350.101 283.26 350.605 282.9C351.117 282.54 351.725 282.36 352.429 282.36C352.933 282.36 353.421 282.448 353.893 282.624C354.373 282.8 354.789 283.056 355.141 283.392L354.697 284.304C353.945 283.68 353.201 283.368 352.465 283.368C351.769 283.368 351.233 283.676 350.857 284.292C350.481 284.9 350.293 285.768 350.293 286.896V286.908C350.477 286.492 350.765 286.168 351.157 285.936C351.557 285.704 352.009 285.588 352.513 285.588ZM352.285 290.088C352.781 290.088 353.181 289.928 353.485 289.608C353.789 289.288 353.941 288.864 353.941 288.336C353.941 287.816 353.789 287.396 353.485 287.076C353.181 286.756 352.777 286.596 352.273 286.596C351.769 286.596 351.353 286.76 351.025 287.088C350.705 287.408 350.545 287.824 350.545 288.336C350.545 288.856 350.705 289.28 351.025 289.608C351.345 289.928 351.765 290.088 352.285 290.088ZM357.824 289.56V291H356.384V289.56H357.824ZM365.087 289.98V291H359.483V290.076L362.423 286.848C362.799 286.432 363.071 286.056 363.239 285.72C363.415 285.376 363.503 285.036 363.503 284.7C363.503 284.268 363.379 283.94 363.131 283.716C362.883 283.484 362.523 283.368 362.051 283.368C361.259 283.368 360.467 283.68 359.675 284.304L359.231 283.392C359.567 283.08 359.995 282.832 360.515 282.648C361.035 282.456 361.559 282.36 362.087 282.36C362.903 282.36 363.547 282.564 364.019 282.972C364.499 283.38 364.739 283.932 364.739 284.628C364.739 285.124 364.631 285.596 364.415 286.044C364.199 286.484 363.839 286.976 363.335 287.52L361.055 289.98H365.087ZM369.786 285.588C370.298 285.588 370.75 285.704 371.142 285.936C371.542 286.16 371.854 286.48 372.078 286.896C372.302 287.304 372.414 287.776 372.414 288.312C372.414 288.848 372.294 289.328 372.054 289.752C371.814 290.168 371.482 290.496 371.058 290.736C370.634 290.976 370.154 291.096 369.618 291.096C368.562 291.096 367.746 290.736 367.17 290.016C366.602 289.296 366.318 288.264 366.318 286.92C366.318 285.968 366.45 285.152 366.714 284.472C366.986 283.784 367.374 283.26 367.878 282.9C368.39 282.54 368.998 282.36 369.702 282.36C370.206 282.36 370.694 282.448 371.166 282.624C371.646 282.8 372.062 283.056 372.414 283.392L371.97 284.304C371.218 283.68 370.474 283.368 369.738 283.368C369.042 283.368 368.506 283.676 368.13 284.292C367.754 284.9 367.566 285.768 367.566 286.896V286.908C367.75 286.492 368.038 286.168 368.43 285.936C368.83 285.704 369.282 285.588 369.786 285.588ZM369.558 290.088C370.054 290.088 370.454 289.928 370.758 289.608C371.062 289.288 371.214 288.864 371.214 288.336C371.214 287.816 371.062 287.396 370.758 287.076C370.454 286.756 370.05 286.596 369.546 286.596C369.042 286.596 368.626 286.76 368.298 287.088C367.978 287.408 367.818 287.824 367.818 288.336C367.818 288.856 367.978 289.28 368.298 289.608C368.618 289.928 369.038 290.088 369.558 290.088Z" fill="#32353E"/>
<g filter="url(#filter1_d)">
<rect x="31" y="24" width="371" height="74" rx="20" fill="#C4C4C4"/>
</g>
<path d="M31 32C31 18.7452 41.7452 8 55 8L378 8C391.255 8 402 18.7452 402 32V78C402 91.2548 391.255 102 378 102L55 102C41.7452 102 31 91.2548 31 78L31 32Z" fill="white"/>
<path d="M118.906 49.168C118.141 49.168 117.441 48.986 116.806 48.622C116.181 48.2487 115.705 47.7213 115.378 47.04L116.414 46.186C116.974 47.2873 117.8 47.838 118.892 47.838C119.471 47.838 119.933 47.6887 120.278 47.39C120.623 47.0913 120.796 46.718 120.796 46.27C120.796 45.7193 120.437 45.2387 119.718 44.828C119.587 44.7627 119.233 44.5947 118.654 44.324C118.178 44.1093 117.791 43.9133 117.492 43.736C116.456 43.0827 115.938 42.2613 115.938 41.272C115.938 40.4787 116.223 39.816 116.792 39.284C117.361 38.7427 118.117 38.472 119.06 38.472C120.348 38.472 121.361 38.9807 122.098 39.998L121.16 40.894C120.6 40.1567 119.905 39.788 119.074 39.788C118.598 39.788 118.206 39.9187 117.898 40.18C117.59 40.432 117.436 40.768 117.436 41.188C117.436 41.7293 117.73 42.1727 118.318 42.518C118.561 42.6673 118.962 42.8727 119.522 43.134C120.11 43.414 120.544 43.6333 120.824 43.792C121.823 44.3987 122.322 45.2013 122.322 46.2C122.322 47.0867 121.995 47.8007 121.342 48.342C120.689 48.8927 119.877 49.168 118.906 49.168ZM131.924 49H130.398L129.348 46.312H125.414L124.364 49H122.838L127.024 38.654H127.78L131.924 49ZM128.872 44.996L127.388 41.09L125.89 44.996H128.872ZM138.936 43.344C139.552 43.512 140.028 43.8433 140.364 44.338C140.709 44.8233 140.882 45.388 140.882 46.032C140.882 46.844 140.597 47.5393 140.028 48.118C139.468 48.706 138.684 49 137.676 49H133.406V38.654H137.494C138.39 38.654 139.085 38.9153 139.58 39.438C140.084 39.9513 140.336 40.5533 140.336 41.244C140.336 41.72 140.21 42.1493 139.958 42.532C139.706 42.9147 139.365 43.1853 138.936 43.344ZM137.312 39.956H134.792V42.84H137.27C137.764 42.84 138.161 42.6953 138.46 42.406C138.758 42.1073 138.908 41.748 138.908 41.328C138.908 40.9453 138.758 40.6233 138.46 40.362C138.17 40.0913 137.788 39.956 137.312 39.956ZM134.792 47.684H137.452C138.068 47.684 138.548 47.5113 138.894 47.166C139.258 46.8207 139.44 46.41 139.44 45.934C139.44 45.4207 139.253 44.9913 138.88 44.646C138.516 44.2913 138.021 44.114 137.396 44.114H134.792V47.684ZM148.342 43.344C148.958 43.512 149.434 43.8433 149.77 44.338C150.115 44.8233 150.288 45.388 150.288 46.032C150.288 46.844 150.003 47.5393 149.434 48.118C148.874 48.706 148.09 49 147.082 49H142.812V38.654H146.9C147.796 38.654 148.491 38.9153 148.986 39.438C149.49 39.9513 149.742 40.5533 149.742 41.244C149.742 41.72 149.616 42.1493 149.364 42.532C149.112 42.9147 148.771 43.1853 148.342 43.344ZM146.718 39.956H144.198V42.84H146.676C147.17 42.84 147.567 42.6953 147.866 42.406C148.164 42.1073 148.314 41.748 148.314 41.328C148.314 40.9453 148.164 40.6233 147.866 40.362C147.576 40.0913 147.194 39.956 146.718 39.956ZM144.198 47.684H146.858C147.474 47.684 147.954 47.5113 148.3 47.166C148.664 46.8207 148.846 46.41 148.846 45.934C148.846 45.4207 148.659 44.9913 148.286 44.646C147.922 44.2913 147.427 44.114 146.802 44.114H144.198V47.684Z" fill="#868B93"/>
<path d="M120.964 76.154C119.471 76.154 118.211 75.6593 117.184 74.67C116.157 73.6713 115.644 72.402 115.644 70.862C115.644 69.294 116.167 68.006 117.212 66.998C118.257 65.9807 119.522 65.472 121.006 65.472C121.949 65.472 122.817 65.682 123.61 66.102C124.403 66.5033 125.024 67.0493 125.472 67.74L124.436 68.608C123.559 67.4227 122.425 66.83 121.034 66.83C119.933 66.83 118.999 67.2127 118.234 67.978C117.469 68.7433 117.086 69.7093 117.086 70.876C117.086 72.0147 117.459 72.9573 118.206 73.704C118.953 74.4413 119.891 74.81 121.02 74.81C121.711 74.81 122.355 74.656 122.952 74.348C123.549 74.04 124.063 73.6107 124.492 73.06L125.5 73.914C125.005 74.6047 124.357 75.1507 123.554 75.552C122.761 75.9533 121.897 76.154 120.964 76.154ZM130.027 76.182C129.047 76.182 128.263 75.8927 127.675 75.314C127.096 74.7353 126.807 73.956 126.807 72.976V68.496H128.151V72.934C128.151 73.55 128.314 74.04 128.641 74.404C128.977 74.7587 129.439 74.936 130.027 74.936C130.615 74.936 131.077 74.7587 131.413 74.404C131.749 74.04 131.917 73.55 131.917 72.934V68.496H133.247V72.976C133.247 73.9747 132.958 74.7587 132.379 75.328C131.81 75.8973 131.026 76.182 130.027 76.182ZM136.575 76H135.231V68.496H136.505V69.602C136.944 68.734 137.663 68.3 138.661 68.3C138.932 68.3 139.226 68.3373 139.543 68.412L139.417 69.714C139.147 69.63 138.885 69.588 138.633 69.588C138.017 69.588 137.518 69.798 137.135 70.218C136.762 70.638 136.575 71.24 136.575 72.024V76ZM142.017 76H140.673V68.496H141.947V69.602C142.385 68.734 143.104 68.3 144.103 68.3C144.373 68.3 144.667 68.3373 144.985 68.412L144.859 69.714C144.588 69.63 144.327 69.588 144.075 69.588C143.459 69.588 142.959 69.798 142.577 70.218C142.203 70.638 142.017 71.24 142.017 72.024V76ZM152.731 72.108C152.731 72.2013 152.717 72.43 152.689 72.794H146.711C146.832 73.4567 147.112 73.9793 147.551 74.362C147.989 74.7447 148.587 74.936 149.343 74.936C149.791 74.936 150.253 74.8613 150.729 74.712C151.205 74.5533 151.615 74.348 151.961 74.096L152.535 75.118C152.143 75.4167 151.657 75.6687 151.079 75.874C150.5 76.07 149.912 76.168 149.315 76.168C148.633 76.168 148.027 76.056 147.495 75.832C146.972 75.608 146.557 75.3047 146.249 74.922C145.941 74.5393 145.707 74.1193 145.549 73.662C145.39 73.2047 145.311 72.724 145.311 72.22C145.311 71.1 145.661 70.1667 146.361 69.42C147.07 68.6827 147.985 68.314 149.105 68.314C150.169 68.314 151.037 68.6547 151.709 69.336C152.39 70.0173 152.731 70.9413 152.731 72.108ZM146.711 71.632H151.345C151.307 70.988 151.079 70.4747 150.659 70.092C150.248 69.7 149.73 69.504 149.105 69.504C148.498 69.504 147.975 69.7047 147.537 70.106C147.098 70.498 146.823 71.0067 146.711 71.632ZM155.661 76H154.317V68.496H155.633V69.56C156.109 68.72 156.903 68.3 158.013 68.3C158.853 68.3 159.558 68.5707 160.127 69.112C160.697 69.6533 160.981 70.4327 160.981 71.45V76H159.651V71.828C159.651 71.1093 159.474 70.5493 159.119 70.148C158.774 69.7467 158.312 69.546 157.733 69.546C157.127 69.546 156.627 69.7607 156.235 70.19C155.853 70.6287 155.661 71.1793 155.661 71.842V76ZM167.286 74.516L167.79 75.552C167.248 75.972 166.581 76.182 165.788 76.182C165.004 76.182 164.406 75.9393 163.996 75.454C163.594 74.9687 163.394 74.2733 163.394 73.368V69.644H162.064V68.496H163.408V65.836H164.724V68.496H167.384V69.644H164.724V73.466C164.724 74.4553 165.13 74.95 165.942 74.95C166.38 74.95 166.828 74.8053 167.286 74.516Z" fill="#565D67"/>
<path d="M281.912 77H279.592L278.616 74.312H274.424L273.448 77H271.128L275.704 65.176H277.384L281.912 77ZM277.992 72.344L276.536 68.296L275.064 72.344H277.992ZM291.279 77H283.423V65.176H291.279V67.224H285.615V70.008H290.847V72.04H285.615V74.952H291.279V77ZM297.965 77H293.501V65.176H298.061C299.81 65.176 301.186 65.7093 302.189 66.776C303.191 67.8213 303.693 69.2667 303.693 71.112C303.693 72.9253 303.181 74.36 302.157 75.416C301.154 76.472 299.757 77 297.965 77ZM295.677 67.272V74.904H298.045C299.101 74.904 299.927 74.5413 300.525 73.816C301.122 73.0907 301.421 72.1733 301.421 71.064C301.421 69.976 301.127 69.0747 300.541 68.36C299.943 67.6347 299.117 67.272 298.061 67.272H295.677ZM316.215 72.36H317.495V74.2H316.215V77H314.167V74.2H308.887L308.455 72.808L314.695 65.176H316.215V72.36ZM314.167 68.456L310.999 72.36H314.167V68.456ZM320.173 74.824C320.557 74.824 320.877 74.9627 321.133 75.24C321.389 75.5067 321.517 75.848 321.517 76.264C321.517 77.3947 320.733 78.4613 319.165 79.464L318.541 78.616L319.181 78.104C319.565 77.816 319.847 77.5067 320.029 77.176H319.981C319.682 77.176 319.426 77.0693 319.213 76.856C318.999 76.632 318.893 76.3653 318.893 76.056C318.893 75.704 319.015 75.4107 319.261 75.176C319.517 74.9413 319.821 74.824 320.173 74.824ZM327.488 77.192C326.432 77.192 325.536 76.8987 324.8 76.312C324.064 75.7147 323.536 74.968 323.216 74.072C322.896 73.176 322.736 72.1787 322.736 71.08C322.736 69.9813 322.896 68.984 323.216 68.088C323.536 67.192 324.064 66.4507 324.8 65.864C325.536 65.2667 326.432 64.968 327.488 64.968C328.128 64.968 328.715 65.08 329.248 65.304C329.781 65.528 330.229 65.832 330.592 66.216C330.955 66.5893 331.259 67.0373 331.504 67.56C331.76 68.0827 331.947 68.6373 332.064 69.224C332.181 69.8107 332.24 70.4293 332.24 71.08C332.24 71.7307 332.181 72.3493 332.064 72.936C331.947 73.5227 331.76 74.0773 331.504 74.6C331.259 75.1227 330.955 75.576 330.592 75.96C330.229 76.3333 329.781 76.632 329.248 76.856C328.715 77.08 328.128 77.192 327.488 77.192ZM327.488 75.144C328.352 75.144 328.992 74.7707 329.408 74.024C329.835 73.2773 330.048 72.296 330.048 71.08C330.048 69.8747 329.835 68.8987 329.408 68.152C328.971 67.3947 328.331 67.016 327.488 67.016C326.645 67.016 326.005 67.3947 325.568 68.152C325.141 68.8987 324.928 69.8747 324.928 71.08C324.928 72.296 325.141 73.2773 325.568 74.024C325.995 74.7707 326.635 75.144 327.488 75.144ZM332.953 68.072L336.537 65.176H338.169V77H336.025V68.088L334.089 69.608L332.953 68.072ZM343.563 77.192C342.241 77.192 340.977 76.8027 339.771 76.024L340.699 74.264C341.67 74.872 342.593 75.176 343.467 75.176C344.097 75.176 344.593 75.032 344.955 74.744C345.329 74.4453 345.515 74.056 345.515 73.576C345.515 73.096 345.334 72.7067 344.971 72.408C344.609 72.1093 344.134 71.96 343.547 71.96H342.043V70.008H343.371C343.947 70.008 344.406 69.8693 344.747 69.592C345.089 69.304 345.259 68.936 345.259 68.488C345.259 68.04 345.094 67.6827 344.763 67.416C344.443 67.1493 344.027 67.016 343.515 67.016C342.79 67.016 341.985 67.3307 341.099 67.96L340.043 66.392C340.502 65.9547 341.057 65.608 341.707 65.352C342.369 65.096 343.051 64.968 343.755 64.968C344.811 64.968 345.697 65.2667 346.411 65.864C347.126 66.4507 347.483 67.1813 347.483 68.056C347.483 68.6747 347.297 69.224 346.923 69.704C346.55 70.184 346.065 70.5253 345.467 70.728V70.792C346.182 70.952 346.747 71.2987 347.163 71.832C347.579 72.3547 347.787 72.9787 347.787 73.704C347.787 74.7173 347.393 75.5547 346.603 76.216C345.825 76.8667 344.811 77.192 343.563 77.192ZM350.484 77.256C350.132 77.256 349.833 77.1387 349.588 76.904C349.342 76.6587 349.22 76.36 349.22 76.008C349.22 75.6667 349.342 75.3787 349.588 75.144C349.833 74.9093 350.132 74.792 350.484 74.792C350.825 74.792 351.113 74.9093 351.348 75.144C351.582 75.3787 351.7 75.6667 351.7 76.008C351.7 76.36 351.582 76.6587 351.348 76.904C351.113 77.1387 350.825 77.256 350.484 77.256ZM352.477 67.176V65.176H360.125V66.648L355.805 77H353.501L357.677 67.176H352.477ZM367.559 72.36H368.839V74.2H367.559V77H365.511V74.2H360.231L359.799 72.808L366.039 65.176H367.559V72.36ZM365.511 68.456L362.343 72.36H365.511V68.456Z" fill="black"/>
<path d="M330.206 41.916L328.89 43.568L328.078 42.91L329.408 41.37L327.532 40.53L327.994 39.592L329.716 40.46L329.674 38.416H330.71L330.682 40.46L332.418 39.592L332.838 40.53L330.99 41.37L332.306 42.91L331.494 43.568L330.206 41.916ZM336.618 41.916L335.302 43.568L334.49 42.91L335.82 41.37L333.944 40.53L334.406 39.592L336.128 40.46L336.086 38.416H337.122L337.094 40.46L338.83 39.592L339.25 40.53L337.402 41.37L338.718 42.91L337.906 43.568L336.618 41.916ZM345.885 45.178H347.047V46.396H345.885V49H344.541V46.396H339.725L339.431 45.556L345.087 38.654H345.885V45.178ZM344.541 41.188L341.279 45.178H344.541V41.188ZM347.523 41.118L350.449 38.654H351.555V49H350.169V40.516L348.293 42.084L347.523 41.118ZM356.857 42.252C357.856 42.252 358.682 42.5787 359.335 43.232C359.998 43.876 360.329 44.6927 360.329 45.682C360.329 46.69 359.984 47.5253 359.293 48.188C358.612 48.8413 357.735 49.168 356.661 49.168C355.448 49.168 354.342 48.7527 353.343 47.922L354.001 46.83C354.841 47.53 355.709 47.88 356.605 47.88C357.277 47.88 357.833 47.6747 358.271 47.264C358.701 46.844 358.915 46.3213 358.915 45.696C358.915 45.08 358.705 44.5667 358.285 44.156C357.865 43.736 357.333 43.526 356.689 43.526C355.943 43.526 355.308 43.8013 354.785 44.352L353.861 43.82L354.449 38.654H359.629V39.9H355.527L355.177 42.658C355.7 42.3873 356.26 42.252 356.857 42.252ZM365.359 49.126C364.146 49.126 363.217 48.6593 362.573 47.726C361.929 46.7833 361.607 45.5887 361.607 44.142C361.607 43.1433 361.756 42.2287 362.055 41.398C362.354 40.558 362.834 39.8627 363.497 39.312C364.16 38.752 364.958 38.472 365.891 38.472C366.936 38.472 367.818 38.7613 368.537 39.34L367.949 40.39C367.342 39.9233 366.684 39.69 365.975 39.69C365.312 39.69 364.743 39.9233 364.267 40.39C363.791 40.8473 363.45 41.384 363.245 42C363.049 42.6067 362.956 43.218 362.965 43.834V43.89C363.189 43.414 363.539 43.036 364.015 42.756C364.491 42.4667 365.032 42.322 365.639 42.322C366.572 42.322 367.347 42.6393 367.963 43.274C368.579 43.8993 368.887 44.6973 368.887 45.668C368.887 46.6573 368.556 47.4833 367.893 48.146C367.24 48.7993 366.395 49.126 365.359 49.126ZM365.373 47.88C365.98 47.88 366.488 47.67 366.899 47.25C367.319 46.8113 367.529 46.284 367.529 45.668C367.529 45.0613 367.324 44.5527 366.913 44.142C366.512 43.7407 366.008 43.54 365.401 43.54C364.785 43.54 364.272 43.7453 363.861 44.156C363.45 44.5667 363.245 45.0753 363.245 45.682C363.245 46.2887 363.45 46.8113 363.861 47.25C364.262 47.67 364.766 47.88 365.373 47.88Z" fill="#868B93"/>
<path fill-rule="evenodd" clip-rule="evenodd" d="M62.8083 45V56.9752V68.9998L51.499 56.9752L62.8083 45Z" fill="#EE353D"/>
<path fill-rule="evenodd" clip-rule="evenodd" d="M62.811 45H73.9812H85.2441L73.9812 57.0741L62.7646 45.0495L62.811 45Z" fill="#EE353D"/>
<path fill-rule="evenodd" clip-rule="evenodd" d="M85.1855 68.9998V56.9752V45L96.4948 56.9752L85.1855 68.9998Z" fill="#EE353D"/>
<path fill-rule="evenodd" clip-rule="evenodd" d="M85.1978 68.9999H74.0276H62.7646L74.0276 56.9258L85.2441 68.9504L85.1978 68.9999Z" fill="#EE353D"/>
<rect y="134" width="97" height="97" rx="24" fill="#32353E"/>
<path d="M60.75 188.75L65.4982 185.9C66.2361 185.458 67.117 185.32 67.9545 185.516C68.792 185.712 69.5204 186.226 69.9855 186.95C70.4327 187.647 70.6026 188.485 70.4618 189.301C70.321 190.117 69.8798 190.85 69.225 191.356L60.75 197.922C60.2573 198.303 59.6909 198.578 59.0865 198.729L43.8952 202.526C43.2971 202.676 42.6747 202.701 42.0665 202.6C41.4583 202.499 40.8774 202.274 40.3597 201.939L29.25 194.75H25.5V182.75L32.9685 181.505C33.9607 181.34 34.9797 181.512 35.8627 181.993L42.75 185.75L53.9332 186.339C54.7611 186.382 55.5407 186.742 56.1113 187.343C56.6819 187.944 57 188.742 57 189.571C57.001 190.374 56.7033 191.149 56.1646 191.745C55.6259 192.341 54.8849 192.715 54.0855 192.796L42 194" stroke="white" stroke-miterlimit="10" stroke-linecap="square"/>
<path d="M53.25 179C58.2206 179 62.25 174.971 62.25 170C62.25 165.029 58.2206 161 53.25 161C48.2794 161 44.25 165.029 44.25 170C44.25 174.971 48.2794 179 53.25 179Z" stroke="white" stroke-miterlimit="10" stroke-linecap="square"/>
<defs>
<filter id="filter0_d" x="88" y="24" width="387" height="357" filterUnits="userSpaceOnUse" color-interpolation-filters="sRGB">
<feFlood flood-opacity="0" result="BackgroundImageFix"/>
<feColorMatrix in="SourceAlpha" type="matrix" values="0 0 0 0 0 0 0 0 0 0 0 0 0 0 0 0 0 0 127 0"/>
<feOffset/>
<feGaussianBlur stdDeviation="20.5"/>
<feColorMatrix type="matrix" values="0 0 0 0 0 0 0 0 0 0 0 0 0 0 0 0 0 0 0.06 0"/>
<feBlend mode="normal" in2="BackgroundImageFix" result="effect1_dropShadow"/>
<feBlend mode="normal" in="SourceGraphic" in2="effect1_dropShadow" result="shape"/>
</filter>
<filter id="filter1_d" x="1" y="0" width="431" height="134" filterUnits="userSpaceOnUse" color-interpolation-filters="sRGB">
<feFlood flood-opacity="0" result="BackgroundImageFix"/>
<feColorMatrix in="SourceAlpha" type="matrix" values="0 0 0 0 0 0 0 0 0 0 0 0 0 0 0 0 0 0 127 0"/>
<feOffset dy="6"/>
<feGaussianBlur stdDeviation="15"/>
<feColorMatrix type="matrix" values="0 0 0 0 0 0 0 0 0 0.0846354 0 0 0 0 0.270833 0 0 0 0.06 0"/>
<feBlend mode="normal" in2="BackgroundImageFix" result="effect1_dropShadow"/>
<feBlend mode="normal" in="SourceGraphic" in2="effect1_dropShadow" result="shape"/>
</filter>
</defs>
</svg>
