<svg width="609" height="280" viewBox="0 0 609 280" fill="none" xmlns="http://www.w3.org/2000/svg">
<g filter="url(#filter0_d)">
<rect x="194" y="24" width="385" height="74" rx="20" fill="#C4C4C4"/>
</g>
<path d="M194 32C194 18.7452 204.745 8 218 8L555 8C568.255 8 579 18.7452 579 32V78C579 91.2548 568.255 102 555 102L218 102C204.745 102 194 91.2548 194 78V32Z" fill="white"/>
<g filter="url(#filter1_d)">
<rect x="30" y="167" width="385" height="77" rx="20" fill="#C4C4C4"/>
</g>
<path d="M30 174C30 160.745 40.7452 150 54 150L391 150C404.255 150 415 160.745 415 174V224C415 237.255 404.255 248 391 248L54 248C40.7452 248 30 237.255 30 224L30 174Z" fill="white"/>
<path d="M297.232 46.032V38.654H298.618V49H297.89L291.688 41.664V49H290.302V38.654H290.932L297.232 46.032ZM304.377 49.182C303.229 49.182 302.282 48.804 301.535 48.048C300.798 47.2827 300.429 46.3447 300.429 45.234C300.429 44.1233 300.798 43.1947 301.535 42.448C302.273 41.6827 303.22 41.3 304.377 41.3C305.516 41.3 306.454 41.6827 307.191 42.448C307.938 43.2227 308.311 44.1513 308.311 45.234C308.311 46.3353 307.938 47.2733 307.191 48.048C306.445 48.804 305.507 49.182 304.377 49.182ZM306.967 45.234C306.967 44.4967 306.715 43.8667 306.211 43.344C305.707 42.812 305.096 42.546 304.377 42.546C303.659 42.546 303.047 42.812 302.543 43.344C302.039 43.8667 301.787 44.4967 301.787 45.234C301.787 45.9807 302.039 46.62 302.543 47.152C303.047 47.684 303.659 47.95 304.377 47.95C305.096 47.95 305.707 47.684 306.211 47.152C306.715 46.62 306.967 45.9807 306.967 45.234ZM313.401 49.182C312.253 49.182 311.306 48.804 310.559 48.048C309.822 47.2827 309.453 46.3447 309.453 45.234C309.453 44.1233 309.822 43.1947 310.559 42.448C311.296 41.6827 312.244 41.3 313.401 41.3C314.54 41.3 315.478 41.6827 316.215 42.448C316.962 43.2227 317.335 44.1513 317.335 45.234C317.335 46.3353 316.962 47.2733 316.215 48.048C315.468 48.804 314.53 49.182 313.401 49.182ZM315.991 45.234C315.991 44.4967 315.739 43.8667 315.235 43.344C314.731 42.812 314.12 42.546 313.401 42.546C312.682 42.546 312.071 42.812 311.567 43.344C311.063 43.8667 310.811 44.4967 310.811 45.234C310.811 45.9807 311.063 46.62 311.567 47.152C312.071 47.684 312.682 47.95 313.401 47.95C314.12 47.95 314.731 47.684 315.235 47.152C315.739 46.62 315.991 45.9807 315.991 45.234ZM320.282 49H318.938V41.496H320.212V42.602C320.651 41.734 321.37 41.3 322.368 41.3C322.639 41.3 322.933 41.3373 323.25 41.412L323.124 42.714C322.854 42.63 322.592 42.588 322.34 42.588C321.724 42.588 321.225 42.798 320.842 43.218C320.469 43.638 320.282 44.24 320.282 45.024V49ZM333.225 43.344C333.841 43.512 334.317 43.8433 334.653 44.338C334.998 44.8233 335.171 45.388 335.171 46.032C335.171 46.844 334.886 47.5393 334.317 48.118C333.757 48.706 332.973 49 331.965 49H327.695V38.654H331.783C332.679 38.654 333.374 38.9153 333.869 39.438C334.373 39.9513 334.625 40.5533 334.625 41.244C334.625 41.72 334.499 42.1493 334.247 42.532C333.995 42.9147 333.654 43.1853 333.225 43.344ZM331.601 39.956H329.081V42.84H331.559C332.053 42.84 332.45 42.6953 332.749 42.406C333.047 42.1073 333.197 41.748 333.197 41.328C333.197 40.9453 333.047 40.6233 332.749 40.362C332.459 40.0913 332.077 39.956 331.601 39.956ZM329.081 47.684H331.741C332.357 47.684 332.837 47.5113 333.183 47.166C333.547 46.8207 333.729 46.41 333.729 45.934C333.729 45.4207 333.542 44.9913 333.169 44.646C332.805 44.2913 332.31 44.114 331.685 44.114H329.081V47.684ZM342.771 42.588V41.496H344.059V49H342.771V47.936C342.099 48.7667 341.217 49.182 340.125 49.182C339.042 49.182 338.146 48.7993 337.437 48.034C336.727 47.2687 336.373 46.3213 336.373 45.192C336.373 44.0627 336.727 43.1387 337.437 42.42C338.146 41.6827 339.042 41.314 340.125 41.314C341.189 41.314 342.071 41.7387 342.771 42.588ZM342.855 45.234C342.855 44.478 342.617 43.8433 342.141 43.33C341.665 42.8073 341.044 42.546 340.279 42.546C339.513 42.546 338.897 42.8073 338.431 43.33C337.964 43.8527 337.731 44.492 337.731 45.248C337.731 46.004 337.964 46.6433 338.431 47.166C338.897 47.6887 339.513 47.95 340.279 47.95C341.044 47.95 341.665 47.6887 342.141 47.166C342.617 46.6527 342.855 46.0087 342.855 45.234ZM347.489 49H346.145V41.496H347.461V42.56C347.937 41.72 348.731 41.3 349.841 41.3C350.681 41.3 351.386 41.5707 351.955 42.112C352.525 42.6533 352.809 43.4327 352.809 44.45V49H351.479V44.828C351.479 44.1093 351.302 43.5493 350.947 43.148C350.602 42.7467 350.14 42.546 349.561 42.546C348.955 42.546 348.455 42.7607 348.063 43.19C347.681 43.6287 347.489 44.1793 347.489 44.842V49ZM361.45 49H359.686L356.858 45.5L356.144 46.144V49H354.8V38.402H356.144V44.534L359.504 41.496H361.324L357.81 44.646L361.45 49Z" fill="#868B93"/>
<path d="M294.964 76.154C293.471 76.154 292.211 75.6593 291.184 74.67C290.157 73.6713 289.644 72.402 289.644 70.862C289.644 69.294 290.167 68.006 291.212 66.998C292.257 65.9807 293.522 65.472 295.006 65.472C295.949 65.472 296.817 65.682 297.61 66.102C298.403 66.5033 299.024 67.0493 299.472 67.74L298.436 68.608C297.559 67.4227 296.425 66.83 295.034 66.83C293.933 66.83 292.999 67.2127 292.234 67.978C291.469 68.7433 291.086 69.7093 291.086 70.876C291.086 72.0147 291.459 72.9573 292.206 73.704C292.953 74.4413 293.891 74.81 295.02 74.81C295.711 74.81 296.355 74.656 296.952 74.348C297.549 74.04 298.063 73.6107 298.492 73.06L299.5 73.914C299.005 74.6047 298.357 75.1507 297.554 75.552C296.761 75.9533 295.897 76.154 294.964 76.154ZM304.027 76.182C303.047 76.182 302.263 75.8927 301.675 75.314C301.096 74.7353 300.807 73.956 300.807 72.976V68.496H302.151V72.934C302.151 73.55 302.314 74.04 302.641 74.404C302.977 74.7587 303.439 74.936 304.027 74.936C304.615 74.936 305.077 74.7587 305.413 74.404C305.749 74.04 305.917 73.55 305.917 72.934V68.496H307.247V72.976C307.247 73.9747 306.958 74.7587 306.379 75.328C305.81 75.8973 305.026 76.182 304.027 76.182ZM310.575 76H309.231V68.496H310.505V69.602C310.944 68.734 311.663 68.3 312.661 68.3C312.932 68.3 313.226 68.3373 313.543 68.412L313.417 69.714C313.147 69.63 312.885 69.588 312.633 69.588C312.017 69.588 311.518 69.798 311.135 70.218C310.762 70.638 310.575 71.24 310.575 72.024V76ZM316.017 76H314.673V68.496H315.947V69.602C316.385 68.734 317.104 68.3 318.103 68.3C318.373 68.3 318.667 68.3373 318.985 68.412L318.859 69.714C318.588 69.63 318.327 69.588 318.075 69.588C317.459 69.588 316.959 69.798 316.577 70.218C316.203 70.638 316.017 71.24 316.017 72.024V76ZM326.731 72.108C326.731 72.2013 326.717 72.43 326.689 72.794H320.711C320.832 73.4567 321.112 73.9793 321.551 74.362C321.989 74.7447 322.587 74.936 323.343 74.936C323.791 74.936 324.253 74.8613 324.729 74.712C325.205 74.5533 325.615 74.348 325.961 74.096L326.535 75.118C326.143 75.4167 325.657 75.6687 325.079 75.874C324.5 76.07 323.912 76.168 323.315 76.168C322.633 76.168 322.027 76.056 321.495 75.832C320.972 75.608 320.557 75.3047 320.249 74.922C319.941 74.5393 319.707 74.1193 319.549 73.662C319.39 73.2047 319.311 72.724 319.311 72.22C319.311 71.1 319.661 70.1667 320.361 69.42C321.07 68.6827 321.985 68.314 323.105 68.314C324.169 68.314 325.037 68.6547 325.709 69.336C326.39 70.0173 326.731 70.9413 326.731 72.108ZM320.711 71.632H325.345C325.307 70.988 325.079 70.4747 324.659 70.092C324.248 69.7 323.73 69.504 323.105 69.504C322.498 69.504 321.975 69.7047 321.537 70.106C321.098 70.498 320.823 71.0067 320.711 71.632ZM329.661 76H328.317V68.496H329.633V69.56C330.109 68.72 330.903 68.3 332.013 68.3C332.853 68.3 333.558 68.5707 334.127 69.112C334.697 69.6533 334.981 70.4327 334.981 71.45V76H333.651V71.828C333.651 71.1093 333.474 70.5493 333.119 70.148C332.774 69.7467 332.312 69.546 331.733 69.546C331.127 69.546 330.627 69.7607 330.235 70.19C329.853 70.6287 329.661 71.1793 329.661 71.842V76ZM341.286 74.516L341.79 75.552C341.248 75.972 340.581 76.182 339.788 76.182C339.004 76.182 338.406 75.9393 337.996 75.454C337.594 74.9687 337.394 74.2733 337.394 73.368V69.644H336.064V68.496H337.408V65.836H338.724V68.496H341.384V69.644H338.724V73.466C338.724 74.4553 339.13 74.95 339.942 74.95C340.38 74.95 340.828 74.8053 341.286 74.516Z" fill="#565D67"/>
<path d="M455.912 77H453.592L452.616 74.312H448.424L447.448 77H445.128L449.704 65.176H451.384L455.912 77ZM451.992 72.344L450.536 68.296L449.064 72.344H451.992ZM465.279 77H457.423V65.176H465.279V67.224H459.615V70.008H464.847V72.04H459.615V74.952H465.279V77ZM471.965 77H467.501V65.176H472.061C473.81 65.176 475.186 65.7093 476.189 66.776C477.191 67.8213 477.693 69.2667 477.693 71.112C477.693 72.9253 477.181 74.36 476.157 75.416C475.154 76.472 473.757 77 471.965 77ZM469.677 67.272V74.904H472.045C473.101 74.904 473.927 74.5413 474.525 73.816C475.122 73.0907 475.421 72.1733 475.421 71.064C475.421 69.976 475.127 69.0747 474.541 68.36C473.943 67.6347 473.117 67.272 472.061 67.272H469.677ZM490.215 72.36H491.495V74.2H490.215V77H488.167V74.2H482.887L482.455 72.808L488.695 65.176H490.215V72.36ZM488.167 68.456L484.999 72.36H488.167V68.456ZM494.173 74.824C494.557 74.824 494.877 74.9627 495.133 75.24C495.389 75.5067 495.517 75.848 495.517 76.264C495.517 77.3947 494.733 78.4613 493.165 79.464L492.541 78.616L493.181 78.104C493.565 77.816 493.847 77.5067 494.029 77.176H493.981C493.682 77.176 493.426 77.0693 493.213 76.856C492.999 76.632 492.893 76.3653 492.893 76.056C492.893 75.704 493.015 75.4107 493.261 75.176C493.517 74.9413 493.821 74.824 494.173 74.824ZM501.488 77.192C500.432 77.192 499.536 76.8987 498.8 76.312C498.064 75.7147 497.536 74.968 497.216 74.072C496.896 73.176 496.736 72.1787 496.736 71.08C496.736 69.9813 496.896 68.984 497.216 68.088C497.536 67.192 498.064 66.4507 498.8 65.864C499.536 65.2667 500.432 64.968 501.488 64.968C502.128 64.968 502.715 65.08 503.248 65.304C503.781 65.528 504.229 65.832 504.592 66.216C504.955 66.5893 505.259 67.0373 505.504 67.56C505.76 68.0827 505.947 68.6373 506.064 69.224C506.181 69.8107 506.24 70.4293 506.24 71.08C506.24 71.7307 506.181 72.3493 506.064 72.936C505.947 73.5227 505.76 74.0773 505.504 74.6C505.259 75.1227 504.955 75.576 504.592 75.96C504.229 76.3333 503.781 76.632 503.248 76.856C502.715 77.08 502.128 77.192 501.488 77.192ZM501.488 75.144C502.352 75.144 502.992 74.7707 503.408 74.024C503.835 73.2773 504.048 72.296 504.048 71.08C504.048 69.8747 503.835 68.8987 503.408 68.152C502.971 67.3947 502.331 67.016 501.488 67.016C500.645 67.016 500.005 67.3947 499.568 68.152C499.141 68.8987 498.928 69.8747 498.928 71.08C498.928 72.296 499.141 73.2773 499.568 74.024C499.995 74.7707 500.635 75.144 501.488 75.144ZM506.953 68.072L510.537 65.176H512.169V77H510.025V68.088L508.089 69.608L506.953 68.072ZM517.563 77.192C516.241 77.192 514.977 76.8027 513.771 76.024L514.699 74.264C515.67 74.872 516.593 75.176 517.467 75.176C518.097 75.176 518.593 75.032 518.955 74.744C519.329 74.4453 519.515 74.056 519.515 73.576C519.515 73.096 519.334 72.7067 518.971 72.408C518.609 72.1093 518.134 71.96 517.547 71.96H516.043V70.008H517.371C517.947 70.008 518.406 69.8693 518.747 69.592C519.089 69.304 519.259 68.936 519.259 68.488C519.259 68.04 519.094 67.6827 518.763 67.416C518.443 67.1493 518.027 67.016 517.515 67.016C516.79 67.016 515.985 67.3307 515.099 67.96L514.043 66.392C514.502 65.9547 515.057 65.608 515.707 65.352C516.369 65.096 517.051 64.968 517.755 64.968C518.811 64.968 519.697 65.2667 520.411 65.864C521.126 66.4507 521.483 67.1813 521.483 68.056C521.483 68.6747 521.297 69.224 520.923 69.704C520.55 70.184 520.065 70.5253 519.467 70.728V70.792C520.182 70.952 520.747 71.2987 521.163 71.832C521.579 72.3547 521.787 72.9787 521.787 73.704C521.787 74.7173 521.393 75.5547 520.603 76.216C519.825 76.8667 518.811 77.192 517.563 77.192ZM524.484 77.256C524.132 77.256 523.833 77.1387 523.588 76.904C523.342 76.6587 523.22 76.36 523.22 76.008C523.22 75.6667 523.342 75.3787 523.588 75.144C523.833 74.9093 524.132 74.792 524.484 74.792C524.825 74.792 525.113 74.9093 525.348 75.144C525.582 75.3787 525.7 75.6667 525.7 76.008C525.7 76.36 525.582 76.6587 525.348 76.904C525.113 77.1387 524.825 77.256 524.484 77.256ZM526.477 67.176V65.176H534.125V66.648L529.805 77H527.501L531.677 67.176H526.477ZM541.559 72.36H542.839V74.2H541.559V77H539.511V74.2H534.231L533.799 72.808L540.039 65.176H541.559V72.36ZM539.511 68.456L536.343 72.36H539.511V68.456Z" fill="black"/>
<path d="M504.206 41.916L502.89 43.568L502.078 42.91L503.408 41.37L501.532 40.53L501.994 39.592L503.716 40.46L503.674 38.416H504.71L504.682 40.46L506.418 39.592L506.838 40.53L504.99 41.37L506.306 42.91L505.494 43.568L504.206 41.916ZM510.618 41.916L509.302 43.568L508.49 42.91L509.82 41.37L507.944 40.53L508.406 39.592L510.128 40.46L510.086 38.416H511.122L511.094 40.46L512.83 39.592L513.25 40.53L511.402 41.37L512.718 42.91L511.906 43.568L510.618 41.916ZM519.885 45.178H521.047V46.396H519.885V49H518.541V46.396H513.725L513.431 45.556L519.087 38.654H519.885V45.178ZM518.541 41.188L515.279 45.178H518.541V41.188ZM521.523 41.118L524.449 38.654H525.555V49H524.169V40.516L522.293 42.084L521.523 41.118ZM530.857 42.252C531.856 42.252 532.682 42.5787 533.335 43.232C533.998 43.876 534.329 44.6927 534.329 45.682C534.329 46.69 533.984 47.5253 533.293 48.188C532.612 48.8413 531.735 49.168 530.661 49.168C529.448 49.168 528.342 48.7527 527.343 47.922L528.001 46.83C528.841 47.53 529.709 47.88 530.605 47.88C531.277 47.88 531.833 47.6747 532.271 47.264C532.701 46.844 532.915 46.3213 532.915 45.696C532.915 45.08 532.705 44.5667 532.285 44.156C531.865 43.736 531.333 43.526 530.689 43.526C529.943 43.526 529.308 43.8013 528.785 44.352L527.861 43.82L528.449 38.654H533.629V39.9H529.527L529.177 42.658C529.7 42.3873 530.26 42.252 530.857 42.252ZM539.359 49.126C538.146 49.126 537.217 48.6593 536.573 47.726C535.929 46.7833 535.607 45.5887 535.607 44.142C535.607 43.1433 535.756 42.2287 536.055 41.398C536.354 40.558 536.834 39.8627 537.497 39.312C538.16 38.752 538.958 38.472 539.891 38.472C540.936 38.472 541.818 38.7613 542.537 39.34L541.949 40.39C541.342 39.9233 540.684 39.69 539.975 39.69C539.312 39.69 538.743 39.9233 538.267 40.39C537.791 40.8473 537.45 41.384 537.245 42C537.049 42.6067 536.956 43.218 536.965 43.834V43.89C537.189 43.414 537.539 43.036 538.015 42.756C538.491 42.4667 539.032 42.322 539.639 42.322C540.572 42.322 541.347 42.6393 541.963 43.274C542.579 43.8993 542.887 44.6973 542.887 45.668C542.887 46.6573 542.556 47.4833 541.893 48.146C541.24 48.7993 540.395 49.126 539.359 49.126ZM539.373 47.88C539.98 47.88 540.488 47.67 540.899 47.25C541.319 46.8113 541.529 46.284 541.529 45.668C541.529 45.0613 541.324 44.5527 540.913 44.142C540.512 43.7407 540.008 43.54 539.401 43.54C538.785 43.54 538.272 43.7453 537.861 44.156C537.45 44.5667 537.245 45.0753 537.245 45.682C537.245 46.2887 537.45 46.8113 537.861 47.25C538.262 47.67 538.766 47.88 539.373 47.88Z" fill="#868B93"/>
<path d="M242.041 62.6317C242.99 64.5644 243.91 66.4082 244.831 68.29C242.976 69.5997 240.894 70.3881 238.601 70.7314C235.797 71.151 233.008 71.1128 230.261 70.3753C226.268 69.3073 223.365 67.0439 221.779 63.6108C219.4 58.4865 219.372 53.2733 221.906 48.1871C223.96 44.0547 227.726 41.8041 232.682 41.2064C235.939 40.8123 239.139 41.0284 242.155 42.2999C246.459 44.1182 248.824 47.3098 249.716 51.3914C250.084 53.0825 250.084 54.8372 250.169 56.5665C250.268 58.3339 250.551 60.0505 251.429 61.6654C252.265 63.2293 253.582 64.2593 255.408 64.7806C257.49 65.3655 259.585 65.4164 261.681 64.9205C263.989 64.3737 265.589 63.0386 266.453 61.0932C267.897 57.838 267.925 54.5194 266.623 51.2261C265.461 48.3143 262.983 46.9665 259.642 46.7885C258.594 46.7376 257.518 46.8012 256.47 46.9665C254.672 47.2335 253.143 47.9837 251.967 49.3697C251.033 47.4624 250.112 45.6186 249.178 43.7368C250.523 42.745 252.052 42.0584 253.723 41.6388C257.362 40.7487 261.001 40.7487 264.569 41.8931C268.577 43.1773 271.253 45.7458 272.655 49.3061C274.453 53.8836 274.495 58.512 272.499 63.0386C270.276 68.0739 265.915 70.5915 259.967 70.9348C257.136 71.1001 254.36 70.8077 251.769 69.6887C247.535 67.8577 245.171 64.6916 244.293 60.6736C243.84 58.5883 243.939 56.4139 243.656 54.3032C243.486 53.0825 243.174 51.8491 242.707 50.6793C241.956 48.7975 240.371 47.6658 238.218 47.1318C236.307 46.6613 234.395 46.6359 232.484 47.0428C229.85 47.6149 228.179 49.1789 227.315 51.4168C226.112 54.5575 226.112 57.749 227.4 60.8643C228.547 63.6489 230.954 65.0095 234.169 65.2002C235.287 65.2638 236.434 65.2129 237.539 65.0349C239.337 64.7679 240.866 64.0431 242.041 62.6317Z" fill="#293A91"/>
<path d="M291.912 216H289.592L288.616 213.312H284.424L283.448 216H281.128L285.704 204.176H287.384L291.912 216ZM287.992 211.344L286.536 207.296L285.064 211.344H287.992ZM301.279 216H293.423V204.176H301.279V206.224H295.615V209.008H300.847V211.04H295.615V213.952H301.279V216ZM307.965 216H303.501V204.176H308.061C309.81 204.176 311.186 204.709 312.189 205.776C313.191 206.821 313.693 208.267 313.693 210.112C313.693 211.925 313.181 213.36 312.157 214.416C311.154 215.472 309.757 216 307.965 216ZM305.677 206.272V213.904H308.045C309.101 213.904 309.927 213.541 310.525 212.816C311.122 212.091 311.421 211.173 311.421 210.064C311.421 208.976 311.127 208.075 310.541 207.36C309.943 206.635 309.117 206.272 308.061 206.272H305.677ZM324.599 211.44L322.199 214H326.791V216H319.159V214.192L322.855 210.272C323.037 210.091 323.303 209.808 323.655 209.424C324.189 208.784 324.455 208.192 324.455 207.648C324.455 207.168 324.29 206.779 323.959 206.48C323.629 206.171 323.207 206.016 322.695 206.016C321.831 206.016 320.93 206.453 319.991 207.328L318.807 205.76C320.002 204.565 321.351 203.968 322.855 203.968C323.954 203.968 324.866 204.304 325.591 204.976C326.306 205.648 326.663 206.512 326.663 207.568C326.663 208.677 325.975 209.968 324.599 211.44ZM329.595 213.824C329.979 213.824 330.299 213.963 330.555 214.24C330.811 214.507 330.939 214.848 330.939 215.264C330.939 216.395 330.155 217.461 328.587 218.464L327.963 217.616L328.603 217.104C328.987 216.816 329.269 216.507 329.451 216.176H329.403C329.104 216.176 328.848 216.069 328.635 215.856C328.421 215.632 328.315 215.365 328.315 215.056C328.315 214.704 328.437 214.411 328.683 214.176C328.939 213.941 329.243 213.824 329.595 213.824ZM339.653 211.36H340.933V213.2H339.653V216H337.605V213.2H332.325L331.893 211.808L338.133 204.176H339.653V211.36ZM337.605 207.456L334.437 211.36H337.605V207.456ZM349.434 211.36H350.714V213.2H349.434V216H347.386V213.2H342.106L341.674 211.808L347.914 204.176H349.434V211.36ZM347.386 207.456L344.218 211.36H347.386V207.456ZM355.329 216.192C354.006 216.192 352.742 215.803 351.537 215.024L352.465 213.264C353.436 213.872 354.358 214.176 355.233 214.176C355.862 214.176 356.358 214.032 356.721 213.744C357.094 213.445 357.281 213.056 357.281 212.576C357.281 212.096 357.1 211.707 356.737 211.408C356.374 211.109 355.9 210.96 355.313 210.96H353.809V209.008H355.137C355.713 209.008 356.172 208.869 356.513 208.592C356.854 208.304 357.025 207.936 357.025 207.488C357.025 207.04 356.86 206.683 356.529 206.416C356.209 206.149 355.793 206.016 355.281 206.016C354.556 206.016 353.75 206.331 352.865 206.96L351.809 205.392C352.268 204.955 352.822 204.608 353.473 204.352C354.134 204.096 354.817 203.968 355.521 203.968C356.577 203.968 357.462 204.267 358.177 204.864C358.892 205.451 359.249 206.181 359.249 207.056C359.249 207.675 359.062 208.224 358.689 208.704C358.316 209.184 357.83 209.525 357.233 209.728V209.792C357.948 209.952 358.513 210.299 358.929 210.832C359.345 211.355 359.553 211.979 359.553 212.704C359.553 213.717 359.158 214.555 358.369 215.216C357.59 215.867 356.577 216.192 355.329 216.192ZM362.249 216.256C361.897 216.256 361.599 216.139 361.353 215.904C361.108 215.659 360.985 215.36 360.985 215.008C360.985 214.667 361.108 214.379 361.353 214.144C361.599 213.909 361.897 213.792 362.249 213.792C362.591 213.792 362.879 213.909 363.113 214.144C363.348 214.379 363.465 214.667 363.465 215.008C363.465 215.36 363.348 215.659 363.113 215.904C362.879 216.139 362.591 216.256 362.249 216.256ZM368.956 208.352C370.097 208.352 371.041 208.709 371.788 209.424C372.556 210.139 372.94 211.061 372.94 212.192C372.94 213.344 372.54 214.299 371.74 215.056C370.929 215.813 369.878 216.192 368.588 216.192C367.18 216.192 365.873 215.749 364.668 214.864L365.548 213.12C366.54 213.824 367.521 214.176 368.492 214.176C369.164 214.176 369.708 213.989 370.124 213.616C370.54 213.243 370.748 212.768 370.748 212.192C370.748 211.637 370.545 211.179 370.14 210.816C369.745 210.443 369.238 210.256 368.62 210.256C367.83 210.256 367.158 210.533 366.604 211.088L365.308 210.096L365.964 204.176H372.14V206.176H367.596L367.292 208.688C367.804 208.464 368.358 208.352 368.956 208.352ZM373.328 207.072L376.912 204.176H378.544V216H376.4V207.088L374.464 208.608L373.328 207.072Z" fill="black"/>
<path d="M130.964 190.154C129.471 190.154 128.211 189.659 127.184 188.67C126.157 187.671 125.644 186.402 125.644 184.862C125.644 183.294 126.167 182.006 127.212 180.998C128.257 179.981 129.522 179.472 131.006 179.472C131.949 179.472 132.817 179.682 133.61 180.102C134.403 180.503 135.024 181.049 135.472 181.74L134.436 182.608C133.559 181.423 132.425 180.83 131.034 180.83C129.933 180.83 128.999 181.213 128.234 181.978C127.469 182.743 127.086 183.709 127.086 184.876C127.086 186.015 127.459 186.957 128.206 187.704C128.953 188.441 129.891 188.81 131.02 188.81C131.711 188.81 132.355 188.656 132.952 188.348C133.549 188.04 134.063 187.611 134.492 187.06L135.5 187.914C135.005 188.605 134.357 189.151 133.554 189.552C132.761 189.953 131.897 190.154 130.964 190.154ZM137.605 181.432C137.325 181.432 137.092 181.343 136.905 181.166C136.718 180.979 136.625 180.746 136.625 180.466C136.625 180.195 136.718 179.971 136.905 179.794C137.092 179.617 137.325 179.528 137.605 179.528C137.866 179.528 138.09 179.621 138.277 179.808C138.464 179.985 138.557 180.205 138.557 180.466C138.557 180.746 138.464 180.979 138.277 181.166C138.09 181.343 137.866 181.432 137.605 181.432ZM138.249 182.496V190H136.905V182.496H138.249ZM144.733 188.516L145.237 189.552C144.695 189.972 144.028 190.182 143.235 190.182C142.451 190.182 141.853 189.939 141.443 189.454C141.041 188.969 140.841 188.273 140.841 187.368V183.644H139.511V182.496H140.855V179.836H142.171V182.496H144.831V183.644H142.171V187.466C142.171 188.455 142.577 188.95 143.389 188.95C143.827 188.95 144.275 188.805 144.733 188.516ZM147.011 181.432C146.731 181.432 146.498 181.343 146.311 181.166C146.125 180.979 146.031 180.746 146.031 180.466C146.031 180.195 146.125 179.971 146.311 179.794C146.498 179.617 146.731 179.528 147.011 179.528C147.273 179.528 147.497 179.621 147.683 179.808C147.87 179.985 147.963 180.205 147.963 180.466C147.963 180.746 147.87 180.979 147.683 181.166C147.497 181.343 147.273 181.432 147.011 181.432ZM147.655 182.496V190H146.311V182.496H147.655ZM158.998 184.344C159.614 184.512 160.09 184.843 160.426 185.338C160.771 185.823 160.944 186.388 160.944 187.032C160.944 187.844 160.659 188.539 160.09 189.118C159.53 189.706 158.746 190 157.738 190H153.468V179.654H157.556C158.452 179.654 159.147 179.915 159.642 180.438C160.146 180.951 160.398 181.553 160.398 182.244C160.398 182.72 160.272 183.149 160.02 183.532C159.768 183.915 159.427 184.185 158.998 184.344ZM157.374 180.956H154.854V183.84H157.332C157.827 183.84 158.223 183.695 158.522 183.406C158.821 183.107 158.97 182.748 158.97 182.328C158.97 181.945 158.821 181.623 158.522 181.362C158.233 181.091 157.85 180.956 157.374 180.956ZM154.854 188.684H157.514C158.13 188.684 158.611 188.511 158.956 188.166C159.32 187.821 159.502 187.41 159.502 186.934C159.502 186.421 159.315 185.991 158.942 185.646C158.578 185.291 158.083 185.114 157.458 185.114H154.854V188.684ZM168.544 183.588V182.496H169.832V190H168.544V188.936C167.872 189.767 166.99 190.182 165.898 190.182C164.816 190.182 163.92 189.799 163.21 189.034C162.501 188.269 162.146 187.321 162.146 186.192C162.146 185.063 162.501 184.139 163.21 183.42C163.92 182.683 164.816 182.314 165.898 182.314C166.962 182.314 167.844 182.739 168.544 183.588ZM168.628 186.234C168.628 185.478 168.39 184.843 167.914 184.33C167.438 183.807 166.818 183.546 166.052 183.546C165.287 183.546 164.671 183.807 164.204 184.33C163.738 184.853 163.504 185.492 163.504 186.248C163.504 187.004 163.738 187.643 164.204 188.166C164.671 188.689 165.287 188.95 166.052 188.95C166.818 188.95 167.438 188.689 167.914 188.166C168.39 187.653 168.628 187.009 168.628 186.234ZM173.263 190H171.919V182.496H173.235V183.56C173.711 182.72 174.504 182.3 175.615 182.3C176.455 182.3 177.159 182.571 177.729 183.112C178.298 183.653 178.583 184.433 178.583 185.45V190H177.253V185.828C177.253 185.109 177.075 184.549 176.721 184.148C176.375 183.747 175.913 183.546 175.335 183.546C174.728 183.546 174.229 183.761 173.837 184.19C173.454 184.629 173.263 185.179 173.263 185.842V190ZM187.223 190H185.459L182.631 186.5L181.917 187.144V190H180.573V179.402H181.917V185.534L185.277 182.496H187.097L183.583 185.646L187.223 190Z" fill="#868B93"/>
<path d="M127.906 216.168C127.141 216.168 126.441 215.986 125.806 215.622C125.181 215.249 124.705 214.721 124.378 214.04L125.414 213.186C125.974 214.287 126.8 214.838 127.892 214.838C128.471 214.838 128.933 214.689 129.278 214.39C129.623 214.091 129.796 213.718 129.796 213.27C129.796 212.719 129.437 212.239 128.718 211.828C128.587 211.763 128.233 211.595 127.654 211.324C127.178 211.109 126.791 210.913 126.492 210.736C125.456 210.083 124.938 209.261 124.938 208.272C124.938 207.479 125.223 206.816 125.792 206.284C126.361 205.743 127.117 205.472 128.06 205.472C129.348 205.472 130.361 205.981 131.098 206.998L130.16 207.894C129.6 207.157 128.905 206.788 128.074 206.788C127.598 206.788 127.206 206.919 126.898 207.18C126.59 207.432 126.436 207.768 126.436 208.188C126.436 208.729 126.73 209.173 127.318 209.518C127.561 209.667 127.962 209.873 128.522 210.134C129.11 210.414 129.544 210.633 129.824 210.792C130.823 211.399 131.322 212.201 131.322 213.2C131.322 214.087 130.995 214.801 130.342 215.342C129.689 215.893 128.877 216.168 127.906 216.168ZM138.874 209.588V208.496H140.162V216H138.874V214.936C138.202 215.767 137.32 216.182 136.228 216.182C135.146 216.182 134.25 215.799 133.54 215.034C132.831 214.269 132.476 213.321 132.476 212.192C132.476 211.063 132.831 210.139 133.54 209.42C134.25 208.683 135.146 208.314 136.228 208.314C137.292 208.314 138.174 208.739 138.874 209.588ZM138.958 212.234C138.958 211.478 138.72 210.843 138.244 210.33C137.768 209.807 137.148 209.546 136.382 209.546C135.617 209.546 135.001 209.807 134.534 210.33C134.068 210.853 133.834 211.492 133.834 212.248C133.834 213.004 134.068 213.643 134.534 214.166C135.001 214.689 135.617 214.95 136.382 214.95C137.148 214.95 137.768 214.689 138.244 214.166C138.72 213.653 138.958 213.009 138.958 212.234ZM145.175 214.11L147.443 208.496H148.927L145.623 215.986H144.685L141.381 208.496H142.879L145.175 214.11ZM150.838 207.432C150.558 207.432 150.324 207.343 150.138 207.166C149.951 206.979 149.858 206.746 149.858 206.466C149.858 206.195 149.951 205.971 150.138 205.794C150.324 205.617 150.558 205.528 150.838 205.528C151.099 205.528 151.323 205.621 151.51 205.808C151.696 205.985 151.79 206.205 151.79 206.466C151.79 206.746 151.696 206.979 151.51 207.166C151.323 207.343 151.099 207.432 150.838 207.432ZM151.482 208.496V216H150.138V208.496H151.482ZM154.913 216H153.569V208.496H154.885V209.56C155.361 208.72 156.155 208.3 157.265 208.3C158.105 208.3 158.81 208.571 159.379 209.112C159.949 209.653 160.233 210.433 160.233 211.45V216H158.903V211.828C158.903 211.109 158.726 210.549 158.371 210.148C158.026 209.747 157.564 209.546 156.985 209.546C156.379 209.546 155.879 209.761 155.487 210.19C155.105 210.629 154.913 211.179 154.913 211.842V216ZM168.16 209.476V208.496H169.49V215.23C169.49 216.434 169.126 217.395 168.398 218.114C167.66 218.833 166.685 219.192 165.472 219.192C164.249 219.192 163.143 218.837 162.154 218.128L162.784 217.064C163.605 217.671 164.496 217.974 165.458 217.974C166.288 217.974 166.946 217.736 167.432 217.26C167.917 216.803 168.16 216.201 168.16 215.454V214.838C167.488 215.622 166.61 216.014 165.528 216.014C164.445 216.014 163.549 215.645 162.84 214.908C162.121 214.161 161.762 213.242 161.762 212.15C161.762 211.058 162.13 210.148 162.868 209.42C163.605 208.683 164.515 208.314 165.598 208.314C166.634 208.314 167.488 208.701 168.16 209.476ZM163.848 214.054C164.342 214.558 164.954 214.81 165.682 214.81C166.419 214.81 167.03 214.558 167.516 214.054C168.001 213.559 168.244 212.929 168.244 212.164C168.244 211.399 168.001 210.773 167.516 210.288C167.021 209.784 166.41 209.532 165.682 209.532C164.944 209.532 164.333 209.784 163.848 210.288C163.362 210.773 163.12 211.399 163.12 212.164C163.12 212.929 163.362 213.559 163.848 214.054Z" fill="#565D67"/>
<path d="M342.206 183.916L340.89 185.568L340.078 184.91L341.408 183.37L339.532 182.53L339.994 181.592L341.716 182.46L341.674 180.416H342.71L342.682 182.46L344.418 181.592L344.838 182.53L342.99 183.37L344.306 184.91L343.494 185.568L342.206 183.916ZM348.618 183.916L347.302 185.568L346.49 184.91L347.82 183.37L345.944 182.53L346.406 181.592L348.128 182.46L348.086 180.416H349.122L349.094 182.46L350.83 181.592L351.25 182.53L349.402 183.37L350.718 184.91L349.906 185.568L348.618 183.916ZM357.369 186.534L354.485 189.712H358.937V191H352.483V189.838L355.801 186.282C356.398 185.657 356.823 185.148 357.075 184.756C357.327 184.355 357.453 183.939 357.453 183.51C357.453 183.006 357.271 182.591 356.907 182.264C356.552 181.928 356.109 181.76 355.577 181.76C354.718 181.76 353.883 182.152 353.071 182.936L352.301 181.942C353.299 180.962 354.401 180.472 355.605 180.472C356.547 180.472 357.317 180.757 357.915 181.326C358.512 181.895 358.811 182.647 358.811 183.58C358.811 184.495 358.33 185.479 357.369 186.534ZM359.687 183.118L362.613 180.654H363.719V191H362.333V182.516L360.457 184.084L359.687 183.118ZM372.073 190.328C371.392 190.888 370.505 191.168 369.413 191.168C368.321 191.168 367.43 190.888 366.739 190.328C366.049 189.768 365.703 189.063 365.703 188.214C365.703 187.635 365.885 187.103 366.249 186.618C366.623 186.123 367.117 185.759 367.733 185.526V185.498C367.229 185.265 366.837 184.943 366.557 184.532C366.277 184.121 366.137 183.673 366.137 183.188C366.137 182.413 366.441 181.765 367.047 181.242C367.645 180.729 368.433 180.472 369.413 180.472C370.384 180.472 371.168 180.729 371.765 181.242C372.372 181.765 372.675 182.413 372.675 183.188C372.675 183.683 372.531 184.135 372.241 184.546C371.961 184.947 371.569 185.265 371.065 185.498V185.54C371.681 185.764 372.176 186.119 372.549 186.604C372.923 187.089 373.109 187.626 373.109 188.214C373.109 189.063 372.764 189.768 372.073 190.328ZM371.331 183.314C371.331 182.829 371.149 182.432 370.785 182.124C370.431 181.807 369.973 181.648 369.413 181.648C368.825 181.648 368.349 181.807 367.985 182.124C367.631 182.432 367.453 182.829 367.453 183.314C367.453 183.79 367.631 184.187 367.985 184.504C368.349 184.812 368.821 184.966 369.399 184.966C369.978 184.966 370.445 184.812 370.799 184.504C371.154 184.187 371.331 183.79 371.331 183.314ZM369.413 189.95C370.095 189.95 370.65 189.773 371.079 189.418C371.509 189.054 371.723 188.592 371.723 188.032C371.723 187.491 371.509 187.047 371.079 186.702C370.659 186.347 370.104 186.17 369.413 186.17C368.713 186.17 368.149 186.347 367.719 186.702C367.29 187.047 367.075 187.491 367.075 188.032C367.075 188.592 367.29 189.054 367.719 189.418C368.158 189.773 368.723 189.95 369.413 189.95ZM373.837 183.118L376.763 180.654H377.869V191H376.483V182.516L374.607 184.084L373.837 183.118Z" fill="#868B93"/>
<path fill-rule="evenodd" clip-rule="evenodd" d="M79.3709 208.984L79.3072 209.116C78.0338 210.437 76.5694 211.164 75.0413 211.164C71.8577 211.164 69.6292 208.719 69.6292 205.35C69.6292 201.981 71.9214 199.537 75.0413 199.537C76.5694 199.537 78.0338 200.263 79.3072 201.585L79.3709 201.651L81.4083 199.074L81.3447 199.008C79.6892 196.96 77.6518 195.903 75.1686 195.903C72.6854 195.903 70.3933 196.762 68.7378 198.348C66.9551 200.065 66 202.444 66 205.284C66 208.125 66.9551 210.503 68.7378 212.221C70.3933 213.806 72.6854 214.665 75.1686 214.665C77.6518 214.665 79.6892 213.674 81.3447 211.56L81.4083 211.494L79.3709 208.984Z" fill="#092769"/>
<path fill-rule="evenodd" clip-rule="evenodd" d="M83.4453 214.336H87.0109V196.169H83.4453V214.336Z" fill="#092769"/>
<path fill-rule="evenodd" clip-rule="evenodd" d="M101.08 210.372C100.125 210.966 99.2336 211.296 98.4059 211.296C97.2598 211.296 96.7505 210.636 96.7505 209.248V199.603H100.38V196.168H96.7505V190.553L93.2486 192.535V196.234H90.1924V199.669H93.2486V209.909C93.2486 212.684 94.8404 214.6 97.1962 214.666C98.7879 214.666 99.8067 214.203 100.38 213.807H100.443L101.335 210.305L101.08 210.372Z" fill="#092769"/>
<path fill-rule="evenodd" clip-rule="evenodd" d="M104.073 214.336H107.639V196.169H104.073V214.336Z" fill="#092769"/>
<path fill-rule="evenodd" clip-rule="evenodd" d="M109.745 192.997C106.434 188.175 101.022 185.334 95.4824 185.334C89.943 185.334 84.531 188.175 81.2201 192.997L81.0928 193.262H85.2314L85.295 193.195C88.0966 190.223 91.7895 188.571 95.546 188.571C99.3026 188.571 102.996 190.157 105.797 193.195L105.861 193.262H109.999L109.745 192.997Z" fill="#FE000C"/>
<rect x="170" y="90" width="97" height="97" rx="24" fill="#32353E"/>
<path d="M241 144H197L213 160" stroke="white" stroke-linecap="round" stroke-linejoin="round"/>
<path d="M197 132H241L225 116" stroke="white" stroke-linecap="round" stroke-linejoin="round"/>
<defs>
<filter id="filter0_d" x="164" y="0" width="445" height="134" filterUnits="userSpaceOnUse" color-interpolation-filters="sRGB">
<feFlood flood-opacity="0" result="BackgroundImageFix"/>
<feColorMatrix in="SourceAlpha" type="matrix" values="0 0 0 0 0 0 0 0 0 0 0 0 0 0 0 0 0 0 127 0"/>
<feOffset dy="6"/>
<feGaussianBlur stdDeviation="15"/>
<feColorMatrix type="matrix" values="0 0 0 0 0 0 0 0 0 0.0846354 0 0 0 0 0.270833 0 0 0 0.06 0"/>
<feBlend mode="normal" in2="BackgroundImageFix" result="effect1_dropShadow"/>
<feBlend mode="normal" in="SourceGraphic" in2="effect1_dropShadow" result="shape"/>
</filter>
<filter id="filter1_d" x="0" y="143" width="445" height="137" filterUnits="userSpaceOnUse" color-interpolation-filters="sRGB">
<feFlood flood-opacity="0" result="BackgroundImageFix"/>
<feColorMatrix in="SourceAlpha" type="matrix" values="0 0 0 0 0 0 0 0 0 0 0 0 0 0 0 0 0 0 127 0"/>
<feOffset dy="6"/>
<feGaussianBlur stdDeviation="15"/>
<feColorMatrix type="matrix" values="0 0 0 0 0 0 0 0 0 0.0846354 0 0 0 0 0.270833 0 0 0 0.06 0"/>
<feBlend mode="normal" in2="BackgroundImageFix" result="effect1_dropShadow"/>
<feBlend mode="normal" in="SourceGraphic" in2="effect1_dropShadow" result="shape"/>
</filter>
</defs>
</svg>
