<svg width="48" height="48" viewBox="0 0 48 48" fill="none" xmlns="http://www.w3.org/2000/svg">
<path d="M15.6857 15.3049C14.7552 16.2354 13.2012 16.2271 12.2146 15.2405C11.2279 14.2538 11.2196 12.6999 12.1502 11.7693C13.0807 10.8388 14.6346 10.8471 15.6213 11.8338C16.6079 12.8204 16.6162 14.3743 15.6857 15.3049Z" stroke="#EEBFCF"/>
<path d="M32.9246 25.688C33.6527 26.4161 34.0134 27.2779 34.0068 28.2733C33.9911 29.2597 33.6241 30.22 32.9057 31.1541L34.4023 32.6507L33.2947 33.7583L31.8251 32.2887C30.5135 33.4384 29.1205 34.0495 27.6458 34.1219L27.0955 32.5958C27.8502 32.5243 28.5195 32.3673 29.1034 32.125C29.6873 31.8826 30.239 31.5377 30.7584 31.0902L27.6169 27.9486C26.8486 28.3934 26.1724 28.728 25.5882 28.9526C25.0129 29.1684 24.4137 29.2372 23.7907 29.1592C23.1674 29.0633 22.5681 28.7278 21.9929 28.1525C21.5075 27.6671 21.1857 27.108 21.0275 26.4752C20.8692 25.8246 20.8795 25.158 21.0586 24.4756C21.2286 23.7843 21.5591 23.1302 22.0499 22.5135L20.5668 21.0304L21.6744 19.9228L23.1575 21.4059C23.739 20.9502 24.3528 20.5971 24.9989 20.3466C25.6537 20.0872 26.2922 19.9521 26.9142 19.9413L27.4646 21.4674C26.2208 21.5246 25.1496 21.9037 24.2508 22.6047L27.5676 25.9215C28.2916 25.4852 28.9324 25.1679 29.4902 24.9697C30.0477 24.7538 30.6203 24.6846 31.2078 24.7623C31.804 24.8311 32.3763 25.1397 32.9246 25.688ZM23.2967 26.7138C23.6922 27.1093 24.1342 27.2876 24.6226 27.2486C25.1108 27.1918 25.673 26.9892 26.309 26.6408L23.2484 23.5801C22.8369 24.1355 22.6342 24.6888 22.6403 25.2399C22.6465 25.7911 22.8653 26.2824 23.2967 26.7138ZM31.7069 30.0608C32.0831 29.5228 32.2639 29.0004 32.2493 28.4936C32.2258 27.9779 32.0073 27.5132 31.5938 27.0997C31.2612 26.7672 30.873 26.6251 30.4291 26.6734C29.9941 26.713 29.4717 26.8938 28.862 27.2159L31.7069 30.0608Z" fill="#353FFB"/>
<path fill-rule="evenodd" clip-rule="evenodd" d="M44.6747 26.1766L21.6489 3.1508C20.9238 2.42567 19.8439 2.1921 18.8953 2.55525L7.37169 6.96715L2.95979 18.4908C2.59664 19.4393 2.83021 20.5193 3.55533 21.2444L26.5811 44.2702C27.5919 45.281 29.2215 45.2904 30.2207 44.2911L44.6956 29.8162C45.6949 28.8169 45.6855 27.1874 44.6747 26.1766ZM1.35652 17.8613C0.751265 19.4422 1.14055 21.2421 2.34909 22.4507L25.3748 45.4764C27.0596 47.1612 29.7755 47.1768 31.441 45.5113L45.9158 31.0364C47.5813 29.3709 47.5657 26.6551 45.8809 24.9703L22.8552 1.94456C21.6466 0.736011 19.8467 0.34673 18.2658 0.951982L6.74219 5.36388C6.2936 5.53563 5.94016 5.88906 5.76842 6.33766L1.35652 17.8613Z" fill="#353FFB"/>
</svg>
