<svg width="24" height="24" viewBox="0 0 24 24" fill="none" xmlns="http://www.w3.org/2000/svg">
<path d="M17.6294 21.8514C15.145 22.7998 7.56361 24.3527 3.45023 19.6217C-0.531519 15.0373 1.19761 8.09978 4.17998 4.63215C6.87511 1.49978 12.4465 0.0489026 17.329 2.03078C22.2115 4.01265 23.0252 8.59665 22.8546 11.2385C22.684 13.8804 21.8695 16.7312 19.2141 16.9385C16.5587 17.1459 16.1301 14.6675 15.9587 13.4698C15.7874 12.272 16.4301 7.15215 16.4301 7.15215C10.6049 5.37503 8.55023 8.47253 7.90636 10.3723C7.26248 12.272 7.05023 15.2447 9.45023 16.5249C11.8502 17.8052 15.0182 16.1533 15.9606 13.4694" stroke="#C4CAD4" stroke-width="2" stroke-miterlimit="10"/>
</svg>
