<svg width="48" height="48" viewBox="0 0 48 48" fill="none" xmlns="http://www.w3.org/2000/svg">
<path d="M39 5.25L33 11.25" stroke="#EEBFCF" stroke-width="2" stroke-miterlimit="10" stroke-linecap="square"/>
<path d="M24.75 27H27.375C28.2701 27 29.1285 27.3556 29.7615 27.9885C30.3944 28.6215 30.75 29.4799 30.75 30.375C30.75 31.2701 30.3944 32.1285 29.7615 32.7615C29.1285 33.3944 28.2701 33.75 27.375 33.75H24.75" stroke="#353FFB" stroke-width="2" stroke-miterlimit="10" stroke-linecap="square"/>
<path d="M25.875 33.75C26.7701 33.75 27.6285 34.1056 28.2615 34.7385C28.8944 35.3715 29.25 36.2299 29.25 37.125C29.25 38.0201 28.8944 38.8785 28.2615 39.5115C27.6285 40.1444 26.7701 40.5 25.875 40.5H24" stroke="#353FFB" stroke-width="2" stroke-miterlimit="10" stroke-linecap="square"/>
<path d="M24 40.5C24 40.5 27 40.5937 27 43.5C27.0332 43.9024 26.9783 44.3071 26.8393 44.6861C26.7002 45.0652 26.4803 45.4094 26.1949 45.6948C25.9094 45.9803 25.5652 46.2002 25.1861 46.3393C24.8071 46.4783 24.4024 46.5331 24 46.5C12.1875 46.5 1.5 42 1.5 42V15.75L20.4945 6.25274C20.7476 6.12626 21.0245 6.0544 21.3071 6.0418C21.5898 6.0292 21.8719 6.07615 22.1353 6.17961C22.3986 6.28307 22.6373 6.44072 22.8358 6.64234C23.0343 6.84397 23.1882 7.08506 23.2875 7.34999V7.34999C23.7035 8.45957 23.7319 9.67724 23.368 10.805C23.0042 11.9327 22.2695 12.9042 21.2835 13.5615L17.433 16.125C17.0299 16.3924 16.7237 16.7825 16.5598 17.2376C16.3959 17.6928 16.3831 18.1886 16.5231 18.6516C16.6632 19.1145 16.9488 19.5201 17.3375 19.808C17.7261 20.0959 18.1973 20.2509 18.681 20.25H43.125C44.0201 20.25 44.8785 20.6056 45.5115 21.2385C46.1444 21.8714 46.5 22.7299 46.5 23.625V23.625C46.5 24.5201 46.1444 25.3785 45.5115 26.0115C44.8785 26.6444 44.0201 27 43.125 27H25.5" stroke="#353FFB" stroke-width="2" stroke-miterlimit="10" stroke-linecap="square"/>
<path d="M29.25 5.25L28.5 10.5" stroke="#EEBFCF" stroke-width="2" stroke-miterlimit="10" stroke-linecap="square"/>
<path d="M39 15L33.75 15.75" stroke="#EEBFCF" stroke-width="2" stroke-miterlimit="10" stroke-linecap="square"/>
</svg>
