<svg width="48" height="48" viewBox="0 0 48 48" fill="none" xmlns="http://www.w3.org/2000/svg">
<path d="M36.75 30.75L41.4982 27.9C42.2361 27.458 43.117 27.3204 43.9545 27.5163C44.792 27.7123 45.5204 28.2265 45.9855 28.95C46.4327 29.6466 46.6026 30.4854 46.4618 31.301C46.321 32.1166 45.8798 32.8499 45.225 33.3563L36.75 39.9218C36.2573 40.303 35.6909 40.5778 35.0865 40.7288L19.8952 44.526C19.2971 44.6756 18.6747 44.7006 18.0665 44.5996C17.4583 44.4985 16.8774 44.2736 16.3597 43.9388L5.25 36.75H1.5V24.75L8.9685 23.505C9.9607 23.3397 10.9797 23.5116 11.8627 23.9933L18.75 27.75L29.9332 28.3388C30.7611 28.3822 31.5407 28.7416 32.1113 29.3429C32.6819 29.9442 33 30.7416 33 31.5705C33.001 32.3739 32.7033 33.149 32.1646 33.745C31.6259 34.3411 30.8849 34.7155 30.0855 34.7955L18 36" stroke="#353FFB" stroke-width="2" stroke-miterlimit="10" stroke-linecap="square"/>
<path d="M29.25 21C34.2206 21 38.25 16.9706 38.25 12C38.25 7.02944 34.2206 3 29.25 3C24.2794 3 20.25 7.02944 20.25 12C20.25 16.9706 24.2794 21 29.25 21Z" stroke="#353FFB" stroke-width="2" stroke-miterlimit="10" stroke-linecap="square"/>
<path d="M29.2495 8.24979L25.4995 11.9998L29.2495 15.7497L32.9995 11.9998L29.2495 8.24979Z" stroke="#DAD9FE" stroke-width="2" stroke-miterlimit="10" stroke-linecap="square"/>
</svg>
