<svg width="95" height="95" viewBox="0 0 95 95" fill="none" xmlns="http://www.w3.org/2000/svg">
<rect x="1" y="1" width="93" height="93" rx="11" fill="white" stroke="#EDF0F5" stroke-width="2"/>
<path fill-rule="evenodd" clip-rule="evenodd" d="M25.8419 43.8431C23.7728 47.4116 26.0992 51.8588 30.0373 52.2737C28.8519 55.5475 30.9498 59.1818 34.3763 59.7284C33.0575 63.2887 35.6382 67.2924 39.5971 67.2924H55.8537C57.8273 67.2924 59.6529 66.235 60.6508 64.514L69.1598 49.839C71.1768 46.3604 69.0169 42.0468 65.2589 41.4473C66.5096 38.0707 64.2531 34.2954 60.6397 33.9146C61.9253 30.3642 59.3491 26.3896 55.4046 26.3896H39.148C37.1745 26.3896 35.3488 27.447 34.351 29.168L25.8419 43.8431ZM55.4046 29.512H39.148C38.2709 29.512 37.4595 29.9819 37.016 30.7468L28.5069 45.4219C27.5414 47.0871 28.7294 49.1828 30.6389 49.1828H31.7243L38.9844 36.6616C39.9823 34.9406 41.808 33.8833 43.7815 33.8833H57.1827L57.5366 33.2729C58.5022 31.6077 57.3141 29.512 55.4046 29.512ZM61.8162 41.377L62.1701 40.7665C63.1357 39.1013 61.9476 37.0056 60.0381 37.0056H58.9528L56.4181 41.377H61.8162ZM54.6077 44.4993H60.0057L53.6611 55.4415C53.2176 56.2064 52.4062 56.6764 51.5291 56.6764H39.6295L42.1641 52.3051H46.8956C48.8691 52.3051 50.6947 51.2477 51.6926 49.5267L54.6077 44.4993ZM52.8376 41.377L55.3723 37.0056H43.7815C42.9044 37.0056 42.093 37.4756 41.6495 38.2404L35.3048 49.1828H40.3941L43.3091 44.1554C44.307 42.4344 46.1327 41.377 48.1062 41.377H52.8376ZM43.9745 49.1828L45.9741 45.7342C46.4177 44.9693 47.229 44.4993 48.1062 44.4993H51.0272L49.0276 47.9479C48.5841 48.7128 47.7727 49.1828 46.8956 49.1828H43.9745ZM38.5836 52.3051H33.4943L33.1404 52.9155C32.1749 54.5807 33.3629 56.6764 35.2724 56.6764H36.049L38.5836 52.3051ZM37.8191 59.7987H51.5291C53.5026 59.7987 55.3282 58.7413 56.3261 57.0203L63.5862 44.4993H64.3628C66.2723 44.4993 67.4603 46.595 66.4948 48.2602L57.9858 62.9352C57.5423 63.7001 56.7309 64.1701 55.8537 64.1701H39.5971C37.6876 64.1701 36.4996 62.0744 37.4651 60.4092L37.8191 59.7987Z" fill="#101010"/>
</svg>
