<svg width="144" height="147" viewBox="0 0 144 147" fill="none" xmlns="http://www.w3.org/2000/svg">
<g filter="url(#filter0_d)">
<rect x="24" y="25" width="90" height="90" rx="20" fill="white"/>
<path d="M69 49L47 61V67H91V61L69 49Z" stroke="#32353E" stroke-width="2" stroke-miterlimit="10" stroke-linecap="round" stroke-linejoin="round"/>
<path d="M75 86V72" stroke="#32353E" stroke-width="2" stroke-miterlimit="10" stroke-linecap="round" stroke-linejoin="round"/>
<path d="M51 86V72" stroke="#32353E" stroke-width="2" stroke-miterlimit="10" stroke-linecap="round" stroke-linejoin="round"/>
<path d="M63 72V86" stroke="#32353E" stroke-width="2" stroke-miterlimit="10" stroke-linecap="round" stroke-linejoin="round"/>
<path d="M87 86V72" stroke="#32353E" stroke-width="2" stroke-miterlimit="10" stroke-linecap="round" stroke-linejoin="round"/>
<path d="M69 62C70.6569 62 72 60.6569 72 59C72 57.3431 70.6569 56 69 56C67.3431 56 66 57.3431 66 59C66 60.6569 67.3431 62 69 62Z" stroke="#32353E" stroke-width="2" stroke-miterlimit="10" stroke-linecap="round" stroke-linejoin="round"/>
<path d="M91 86H47V92H91V86Z" stroke="#32353E" stroke-width="2" stroke-miterlimit="10" stroke-linecap="round" stroke-linejoin="round"/>
</g>
<rect x="94" width="50" height="50" rx="8" fill="#353FFB"/>
<path d="M126.154 17.1549L115.666 27.6432L111.844 23.8215C111.53 23.5179 111.109 23.3499 110.672 23.3537C110.235 23.3575 109.817 23.5328 109.508 23.8418C109.199 24.1508 109.023 24.5689 109.02 25.0059C109.016 25.4429 109.184 25.8639 109.487 26.1782L114.487 31.1782C114.8 31.4907 115.224 31.6662 115.666 31.6662C116.108 31.6662 116.532 31.4907 116.844 31.1782L128.511 19.5115C128.814 19.1972 128.982 18.7762 128.979 18.3392C128.975 17.9022 128.799 17.4842 128.49 17.1752C128.181 16.8662 127.763 16.6909 127.326 16.6871C126.889 16.6833 126.468 16.8513 126.154 17.1549Z" fill="white"/>
<defs>
<filter id="filter0_d" x="0" y="9" width="138" height="138" filterUnits="userSpaceOnUse" color-interpolation-filters="sRGB">
<feFlood flood-opacity="0" result="BackgroundImageFix"/>
<feColorMatrix in="SourceAlpha" type="matrix" values="0 0 0 0 0 0 0 0 0 0 0 0 0 0 0 0 0 0 127 0"/>
<feOffset dy="8"/>
<feGaussianBlur stdDeviation="12"/>
<feColorMatrix type="matrix" values="0 0 0 0 0.2175 0 0 0 0 0.2208 0 0 0 0 0.3 0 0 0 0.1 0"/>
<feBlend mode="normal" in2="BackgroundImageFix" result="effect1_dropShadow"/>
<feBlend mode="normal" in="SourceGraphic" in2="effect1_dropShadow" result="shape"/>
</filter>
</defs>
</svg>
