<svg width="400" height="400" viewBox="0 0 400 400" fill="none" xmlns="http://www.w3.org/2000/svg">
<g filter="url(#filter0_d)">
<rect x="64" y="52" width="272" height="272" rx="62" fill="white"/>
</g>
<path d="M222 185.25H178V212.75H222V185.25Z" stroke="#463FFB" stroke-width="4" stroke-miterlimit="10" stroke-linecap="round" stroke-linejoin="round"/>
<path d="M189 185.25V168.75C189.009 165.835 190.17 163.042 192.231 160.981C194.292 158.92 197.085 157.759 200 157.75V157.75C202.915 157.759 205.708 158.92 207.769 160.981C209.83 163.042 210.991 165.835 211 168.75V185.25" stroke="#463FFB" stroke-width="4" stroke-miterlimit="10" stroke-linecap="round" stroke-linejoin="round"/>
<path d="M249.5 196.25C249.5 209.378 244.285 221.969 235.002 231.252C225.719 240.535 213.128 245.75 200 245.75C186.872 245.75 174.281 240.535 164.998 231.252C155.715 221.969 150.5 209.378 150.5 196.25V141.25L200 130.25L249.5 141.25V196.25Z" stroke="#463FFB" stroke-width="4" stroke-miterlimit="10" stroke-linecap="round" stroke-linejoin="round"/>
<defs>
<filter id="filter0_d" x="0" y="0" width="400" height="400" filterUnits="userSpaceOnUse" color-interpolation-filters="sRGB">
<feFlood flood-opacity="0" result="BackgroundImageFix"/>
<feColorMatrix in="SourceAlpha" type="matrix" values="0 0 0 0 0 0 0 0 0 0 0 0 0 0 0 0 0 0 127 0"/>
<feOffset dy="12"/>
<feGaussianBlur stdDeviation="32"/>
<feColorMatrix type="matrix" values="0 0 0 0 0.2175 0 0 0 0 0.2208 0 0 0 0 0.3 0 0 0 0.1 0"/>
<feBlend mode="normal" in2="BackgroundImageFix" result="effect1_dropShadow"/>
<feBlend mode="normal" in="SourceGraphic" in2="effect1_dropShadow" result="shape"/>
</filter>
</defs>
</svg>
