<svg width="248" height="248" viewBox="0 0 248 248" fill="none" xmlns="http://www.w3.org/2000/svg">
<g filter="url(#filter0_d)">
<rect x="64" y="52" width="120" height="120" rx="32" fill="white"/>
</g>
<path d="M132 111H116V121H132V111Z" stroke="#463FFB" stroke-width="2" stroke-miterlimit="10" stroke-linecap="round" stroke-linejoin="round"/>
<path d="M120 111V105C120.003 103.94 120.426 102.925 121.175 102.175C121.925 101.426 122.94 101.003 124 101V101C125.06 101.003 126.075 101.426 126.825 102.175C127.574 102.925 127.997 103.94 128 105V111" stroke="#463FFB" stroke-width="2" stroke-miterlimit="10" stroke-linecap="round" stroke-linejoin="round"/>
<path d="M142 115C142 119.774 140.104 124.352 136.728 127.728C133.352 131.104 128.774 133 124 133C119.226 133 114.648 131.104 111.272 127.728C107.896 124.352 106 119.774 106 115V95L124 91L142 95V115Z" stroke="#463FFB" stroke-width="2" stroke-miterlimit="10" stroke-linecap="round" stroke-linejoin="round"/>
<defs>
<filter id="filter0_d" x="0" y="0" width="248" height="248" filterUnits="userSpaceOnUse" color-interpolation-filters="sRGB">
<feFlood flood-opacity="0" result="BackgroundImageFix"/>
<feColorMatrix in="SourceAlpha" type="matrix" values="0 0 0 0 0 0 0 0 0 0 0 0 0 0 0 0 0 0 127 0"/>
<feOffset dy="12"/>
<feGaussianBlur stdDeviation="32"/>
<feColorMatrix type="matrix" values="0 0 0 0 0.2175 0 0 0 0 0.2208 0 0 0 0 0.3 0 0 0 0.1 0"/>
<feBlend mode="normal" in2="BackgroundImageFix" result="effect1_dropShadow"/>
<feBlend mode="normal" in="SourceGraphic" in2="effect1_dropShadow" result="shape"/>
</filter>
</defs>
</svg>
