<svg width="32" height="32" viewBox="0 0 32 32" fill="none" xmlns="http://www.w3.org/2000/svg" data-v-336da7a8=""><path d="M19.9999 18.0002V28.0002C19.9999 29.4668 18.7999 30.6668 17.3333 30.6668H3.99992C2.53325 30.6668 1.33325 29.4668 1.33325 28.0002V6.00016C1.33325 4.5335 2.53325 3.3335 3.99992 3.3335H11.9999" stroke="#463FFB" stroke-miterlimit="10" stroke-linecap="round" stroke-linejoin="round" data-v-336da7a8=""></path> <path d="M1.33325 8H11.9999" stroke="#463FFB" stroke-miterlimit="10" stroke-linecap="round" stroke-linejoin="round" data-v-336da7a8=""></path> <path d="M19.9999 24H1.33325" stroke="#463FFB" stroke-miterlimit="10" stroke-linecap="round" stroke-linejoin="round" data-v-336da7a8=""></path> <path d="M28.6667 1.3335H14C12.8954 1.3335 12 2.22893 12 3.3335V12.0002C12 13.1047 12.8954 14.0002 14 14.0002H28.6667C29.7712 14.0002 30.6667 13.1047 30.6667 12.0002V3.3335C30.6667 2.22893 29.7712 1.3335 28.6667 1.3335Z" stroke="#463FFB" stroke-miterlimit="10" stroke-linecap="round" stroke-linejoin="round" data-v-336da7a8=""></path> <path d="M20 10H16" stroke="#DAD9FE" stroke-miterlimit="10" stroke-linecap="round" stroke-linejoin="round" data-v-336da7a8=""></path> <path d="M30.6667 5.3335H12" stroke="#463FFB" stroke-width="2" stroke-miterlimit="10" stroke-linejoin="round" data-v-336da7a8=""></path></svg>