<svg width="32" height="32" viewBox="0 0 32 32" fill="none" xmlns="http://www.w3.org/2000/svg" data-v-336da7a8=""><path d="M15.0001 28.3332C7.63608 28.3332 1.66675 22.3638 1.66675 14.9998C1.66675 7.63584 7.63608 1.6665 15.0001 1.6665C20.4681 1.6665 25.1667 4.95784 27.2241 9.66717" stroke="#353FFB" stroke-miterlimit="10" stroke-linecap="square" data-v-336da7a8=""></path> <path d="M15.0002 8.33301V14.9997H8.3335" stroke="#DAD9FE" stroke-miterlimit="10" stroke-linecap="square" data-v-336da7a8=""></path> <path d="M25 18.9998C28.3137 18.9998 31 17.8059 31 16.3332C31 14.8604 28.3137 13.6665 25 13.6665C21.6863 13.6665 19 14.8604 19 16.3332C19 17.8059 21.6863 18.9998 25 18.9998Z" stroke="#353FFB" stroke-miterlimit="10" stroke-linecap="square" data-v-336da7a8=""></path> <path d="M19 16.333V20.333C19 21.8057 21.686 22.9997 25 22.9997C28.314 22.9997 31 21.8057 31 20.333V16.333" stroke="#353FFB" stroke-miterlimit="10" data-v-336da7a8=""></path> <path d="M19 20.333V24.333C19 25.8057 21.686 26.9997 25 26.9997C28.314 26.9997 31 25.8057 31 24.333V20.333" stroke="#353FFB" stroke-miterlimit="10" data-v-336da7a8=""></path> <path d="M19 24.333V28.333C19 29.8057 21.686 30.9997 25 30.9997C28.314 30.9997 31 29.8057 31 28.333V24.333" stroke="#353FFB" stroke-miterlimit="10" data-v-336da7a8=""></path></svg>