<svg width="24" height="24" viewBox="0 0 24 24" fill="none" xmlns="http://www.w3.org/2000/svg">
<rect x="3" y="9" width="18" height="12" rx="1" stroke="#C4CAD4" stroke-width="2"/>
<path d="M18 9C18 5.77834 16.8 2 12 2C7.2 2 6 5.77834 6 9" stroke="#C4CAD4" stroke-width="2"/>
<mask id="path-3-inside-1" fill="white">
<path fill-rule="evenodd" clip-rule="evenodd" d="M13 15.7324C13.5978 15.3866 14 14.7403 14 14C14 12.8954 13.1046 12 12 12C10.8954 12 10 12.8954 10 14C10 14.7403 10.4022 15.3866 11 15.7324V18H13V15.7324Z"/>
</mask>
<path fill-rule="evenodd" clip-rule="evenodd" d="M13 15.7324C13.5978 15.3866 14 14.7403 14 14C14 12.8954 13.1046 12 12 12C10.8954 12 10 12.8954 10 14C10 14.7403 10.4022 15.3866 11 15.7324V18H13V15.7324Z" fill="black"/>
<path d="M13 15.7324L11.9985 14.0012L11 14.5789V15.7324H13ZM11 15.7324H13V14.5789L12.0015 14.0012L11 15.7324ZM11 18H9V20H11V18ZM13 18V20H15V18H13ZM12 14C12 14.0032 11.9997 14.0031 12.0002 14.0012C12.0006 13.9997 12.0011 13.9987 12.0012 13.9985C12.0012 13.9985 12.0008 13.9992 12 14C11.9991 14.0009 11.9985 14.0013 11.9985 14.0012L14.0015 17.4636C15.1918 16.775 16 15.4831 16 14H12ZM12 14H16C16 11.7909 14.2091 10 12 10V14ZM12 14V10C9.79086 10 8 11.7909 8 14H12ZM12.0015 14.0012C12.0015 14.0013 12.0009 14.0009 12 14C11.9992 13.9992 11.9988 13.9985 11.9988 13.9985C11.9989 13.9987 11.9994 13.9997 11.9998 14.0012C12.0003 14.0031 12 14.0032 12 14H8C8 15.4831 8.80816 16.775 9.99855 17.4636L12.0015 14.0012ZM13 18V15.7324H9V18H13ZM13 16H11V20H13V16ZM11 15.7324V18H15V15.7324H11Z" fill="#C4CAD4" mask="url(#path-3-inside-1)"/>
</svg>
