<svg width="154" height="140" viewBox="0 0 154 140" fill="none" xmlns="http://www.w3.org/2000/svg">
<rect x="24" y="12" width="90.9922" height="45" rx="12" fill="#F5F7FA"/>
<path d="M47.63 38.81V40H41.092V38.922L44.522 35.156C44.9607 34.6707 45.278 34.232 45.474 33.84C45.6793 33.4387 45.782 33.042 45.782 32.65C45.782 32.146 45.6373 31.7633 45.348 31.502C45.0587 31.2313 44.6387 31.096 44.088 31.096C43.164 31.096 42.24 31.46 41.316 32.188L40.798 31.124C41.19 30.76 41.6893 30.4707 42.296 30.256C42.9027 30.032 43.514 29.92 44.13 29.92C45.082 29.92 45.8333 30.158 46.384 30.634C46.944 31.11 47.224 31.754 47.224 32.566C47.224 33.1447 47.098 33.6953 46.846 34.218C46.594 34.7313 46.174 35.3053 45.586 35.94L42.926 38.81H47.63ZM53.0705 33.686C53.6959 33.686 54.2419 33.8213 54.7085 34.092C55.1845 34.3533 55.5485 34.7267 55.8005 35.212C56.0619 35.688 56.1925 36.2387 56.1925 36.864C56.1925 37.508 56.0479 38.0727 55.7585 38.558C55.4785 39.0433 55.0725 39.4213 54.5405 39.692C54.0085 39.9627 53.3879 40.098 52.6785 40.098C52.0625 40.098 51.4559 39.9907 50.8585 39.776C50.2612 39.5613 49.7665 39.2673 49.3745 38.894L49.8785 37.83C50.8025 38.558 51.7405 38.922 52.6925 38.922C53.3552 38.922 53.8685 38.7447 54.2325 38.39C54.6059 38.026 54.7925 37.5267 54.7925 36.892C54.7925 36.2853 54.6059 35.7953 54.2325 35.422C53.8685 35.0487 53.3785 34.862 52.7625 34.862C51.8665 34.862 51.1479 35.2027 50.6065 35.884H49.6685V30.032H55.7725V31.194H51.0965V34.358C51.6285 33.91 52.2865 33.686 53.0705 33.686ZM60.9891 40.112C59.8317 40.112 58.9497 39.678 58.3431 38.81C57.7364 37.942 57.4331 36.6773 57.4331 35.016C57.4331 33.3547 57.7364 32.09 58.3431 31.222C58.9497 30.354 59.8317 29.92 60.9891 29.92C62.1464 29.92 63.0284 30.354 63.6351 31.222C64.2417 32.0807 64.5451 33.3407 64.5451 35.002C64.5451 36.6727 64.2417 37.942 63.6351 38.81C63.0284 39.678 62.1464 40.112 60.9891 40.112ZM60.9891 38.95C61.7077 38.95 62.2351 38.6327 62.5711 37.998C62.9164 37.354 63.0891 36.3553 63.0891 35.002C63.0891 33.6487 62.9211 32.6593 62.5851 32.034C62.2491 31.4087 61.7171 31.096 60.9891 31.096C60.2704 31.096 59.7384 31.4133 59.3931 32.048C59.0571 32.6733 58.8891 33.658 58.8891 35.002C58.8891 36.3553 59.0571 37.354 59.3931 37.998C59.7384 38.6327 60.2704 38.95 60.9891 38.95ZM76.63 37.536H71.59L70.526 40H69.056L73.494 30.032H74.712L79.164 40H77.694L76.63 37.536ZM76.14 36.388L74.11 31.642L72.08 36.388H76.14ZM80.455 30.032H86.923V31.208H81.883V34.344H86.643V35.52H81.883V38.824H86.923V40H80.455V30.032ZM88.7265 30.032H92.2125C93.8271 30.032 95.0778 30.466 95.9645 31.334C96.8511 32.202 97.2945 33.4247 97.2945 35.002C97.2945 36.5887 96.8511 37.8207 95.9645 38.698C95.0778 39.566 93.8271 40 92.2125 40H88.7265V30.032ZM92.1285 38.796C94.5831 38.796 95.8105 37.5313 95.8105 35.002C95.8105 32.4913 94.5831 31.236 92.1285 31.236H90.1685V38.796H92.1285Z" fill="#32353E"/>
<g filter="url(#filter0_d)">
<rect x="24" y="63" width="90.9922" height="45" rx="12" fill="white"/>
<path d="M44.676 84.686C45.3013 84.686 45.8473 84.8213 46.314 85.092C46.79 85.3533 47.154 85.7267 47.406 86.212C47.6673 86.688 47.798 87.2387 47.798 87.864C47.798 88.508 47.6533 89.0727 47.364 89.558C47.084 90.0433 46.678 90.4213 46.146 90.692C45.614 90.9627 44.9933 91.098 44.284 91.098C43.668 91.098 43.0613 90.9907 42.464 90.776C41.8667 90.5613 41.372 90.2673 40.98 89.894L41.484 88.83C42.408 89.558 43.346 89.922 44.298 89.922C44.9607 89.922 45.474 89.7447 45.838 89.39C46.2113 89.026 46.398 88.5267 46.398 87.892C46.398 87.2853 46.2113 86.7953 45.838 86.422C45.474 86.0487 44.984 85.862 44.368 85.862C43.472 85.862 42.7533 86.2027 42.212 86.884H41.274V81.032H47.378V82.194H42.702V85.358C43.234 84.91 43.892 84.686 44.676 84.686ZM52.5945 91.112C51.4372 91.112 50.5552 90.678 49.9485 89.81C49.3419 88.942 49.0385 87.6773 49.0385 86.016C49.0385 84.3547 49.3419 83.09 49.9485 82.222C50.5552 81.354 51.4372 80.92 52.5945 80.92C53.7519 80.92 54.6339 81.354 55.2405 82.222C55.8472 83.0807 56.1505 84.3407 56.1505 86.002C56.1505 87.6727 55.8472 88.942 55.2405 89.81C54.6339 90.678 53.7519 91.112 52.5945 91.112ZM52.5945 89.95C53.3132 89.95 53.8405 89.6327 54.1765 88.998C54.5219 88.354 54.6945 87.3553 54.6945 86.002C54.6945 84.6487 54.5265 83.6593 54.1905 83.034C53.8545 82.4087 53.3225 82.096 52.5945 82.096C51.8759 82.096 51.3439 82.4133 50.9985 83.048C50.6625 83.6733 50.4945 84.658 50.4945 86.002C50.4945 87.3553 50.6625 88.354 50.9985 88.998C51.3439 89.6327 51.8759 89.95 52.5945 89.95ZM60.9891 91.112C59.8317 91.112 58.9497 90.678 58.3431 89.81C57.7364 88.942 57.4331 87.6773 57.4331 86.016C57.4331 84.3547 57.7364 83.09 58.3431 82.222C58.9497 81.354 59.8317 80.92 60.9891 80.92C62.1464 80.92 63.0284 81.354 63.6351 82.222C64.2417 83.0807 64.5451 84.3407 64.5451 86.002C64.5451 87.6727 64.2417 88.942 63.6351 89.81C63.0284 90.678 62.1464 91.112 60.9891 91.112ZM60.9891 89.95C61.7077 89.95 62.2351 89.6327 62.5711 88.998C62.9164 88.354 63.0891 87.3553 63.0891 86.002C63.0891 84.6487 62.9211 83.6593 62.5851 83.034C62.2491 82.4087 61.7171 82.096 60.9891 82.096C60.2704 82.096 59.7384 82.4133 59.3931 83.048C59.0571 83.6733 58.8891 84.658 58.8891 86.002C58.8891 87.3553 59.0571 88.354 59.3931 88.998C59.7384 89.6327 60.2704 89.95 60.9891 89.95ZM77.694 91L76.63 88.536H71.59L70.526 91H69.056L73.494 81.032H74.712L79.164 91H77.694ZM72.08 87.388H76.14L74.11 82.642L72.08 87.388ZM80.455 91V81.032H86.923V82.208H81.883V85.344H86.643V86.52H81.883V89.824H86.923V91H80.455ZM88.7265 81.032H92.2125C93.8271 81.032 95.0778 81.466 95.9645 82.334C96.8511 83.202 97.2945 84.4247 97.2945 86.002C97.2945 87.5887 96.8511 88.8207 95.9645 89.698C95.0778 90.566 93.8271 91 92.2125 91H88.7265V81.032ZM92.1285 89.796C94.5831 89.796 95.8105 88.5313 95.8105 86.002C95.8105 83.4913 94.5831 82.236 92.1285 82.236H90.1685V89.796H92.1285Z" fill="#727986"/>
</g>
<rect x="104" width="50" height="50" rx="8" fill="#353FFB"/>
<g clip-path="url(#clip0)">
<path d="M136.919 16.6667L123.586 26.2501V32.9167L126.503 30.8334" stroke="white" stroke-width="2" stroke-miterlimit="10"/>
<path d="M119.418 23.3334L136.918 16.6667L133.585 33.3334L119.418 23.3334Z" stroke="white" stroke-width="2" stroke-miterlimit="10" stroke-linecap="square"/>
</g>
<defs>
<filter id="filter0_d" x="0" y="47" width="138.992" height="93" filterUnits="userSpaceOnUse" color-interpolation-filters="sRGB">
<feFlood flood-opacity="0" result="BackgroundImageFix"/>
<feColorMatrix in="SourceAlpha" type="matrix" values="0 0 0 0 0 0 0 0 0 0 0 0 0 0 0 0 0 0 127 0"/>
<feOffset dy="8"/>
<feGaussianBlur stdDeviation="12"/>
<feColorMatrix type="matrix" values="0 0 0 0 0.2175 0 0 0 0 0.2208 0 0 0 0 0.3 0 0 0 0.1 0"/>
<feBlend mode="normal" in2="BackgroundImageFix" result="effect1_dropShadow"/>
<feBlend mode="normal" in="SourceGraphic" in2="effect1_dropShadow" result="shape"/>
</filter>
<clipPath id="clip0">
<rect x="119" y="15" width="20" height="20" fill="white"/>
</clipPath>
</defs>
</svg>
