<svg width="48" height="48" viewBox="0 0 48 48" fill="none" xmlns="http://www.w3.org/2000/svg">
<path d="M28.0808 24.0001C30.2659 25.933 33.0826 27 36 27C38.9174 27 41.7341 25.933 43.9193 24.0001C42.1885 22.4727 40.0536 21.4774 37.771 21.134C35.4884 20.7905 33.1551 21.1133 31.0515 22.0638C28.948 23.0142 27.1635 24.5518 25.9127 26.4918C24.6618 28.4319 23.9976 30.6918 24 33.0001" stroke="#353FFB" stroke-width="2" stroke-miterlimit="10"/>
<path d="M24 19.5C28.9706 19.5 33 15.4706 33 10.5C33 5.52944 28.9706 1.5 24 1.5C19.0294 1.5 15 5.52944 15 10.5C15 15.4706 19.0294 19.5 24 19.5Z" stroke="#353FFB" stroke-width="2" stroke-miterlimit="10" stroke-linecap="square"/>
<path d="M15 34.5H33L31.5 46.5H16.5L15 34.5Z" stroke="#353FFB" stroke-width="2" stroke-miterlimit="10" stroke-linecap="square"/>
<path d="M24.0001 34.5001V33.0001C24.0024 30.6918 23.3383 28.4319 22.0874 26.4918C20.8365 24.5518 19.0521 23.0142 16.9485 22.0638C14.8449 21.1133 12.5117 20.7905 10.2291 21.134C7.94643 21.4774 5.81152 22.4727 4.08081 24.0001C6.266 25.933 9.08267 27 12.0001 27C14.9175 27 17.7341 25.933 19.9193 24.0001" stroke="#353FFB" stroke-width="2" stroke-miterlimit="10"/>
<path d="M23.9995 6.75004L20.2495 10.5L23.9995 14.25L27.7494 10.5L23.9995 6.75004Z" stroke="#DAD9FE" stroke-width="2" stroke-miterlimit="10" stroke-linecap="square"/>
<rect x="16" y="38" width="16" height="5" fill="#463FFB"/>
</svg>
