<svg width="24" height="24" viewBox="0 0 24 24" fill="none" xmlns="http://www.w3.org/2000/svg">
<path fill-rule="evenodd" clip-rule="evenodd" d="M15 7C15 8.65685 13.6569 10 12 10C10.3431 10 9 8.65685 9 7C9 5.34315 10.3431 4 12 4C13.6569 4 15 5.34315 15 7ZM14.9593 11.0306C16.1969 10.1204 17 8.654 17 7C17 4.23858 14.7614 2 12 2C9.23858 2 7 4.23858 7 7C7 8.654 7.80312 10.1204 9.04067 11.0306C7.43217 11.618 6.01491 12.6491 4.89187 13.9002C3.12463 15.869 2 18.4745 2 21C2 21.5523 2.44772 22 3 22C3.55228 22 4 21.5523 4 21C4 19.0408 4.89009 16.8963 6.38021 15.2362C7.86573 13.5813 9.86155 12.5 12 12.5C14.1384 12.5 16.1343 13.5813 17.6198 15.2362C19.1099 16.8963 20 19.0408 20 21C20 21.5523 20.4477 22 21 22C21.5523 22 22 21.5523 22 21C22 18.4745 20.8754 15.869 19.1081 13.9002C17.9851 12.6491 16.5678 11.618 14.9593 11.0306Z" fill="#C4CAD4"/>
</svg>
