<svg width="48" height="48" viewBox="0 0 48 48" fill="none" xmlns="http://www.w3.org/2000/svg">
<path d="M17.5 2.5V11.5C17.5 13.3565 18.2375 15.137 19.5503 16.4497C20.863 17.7625 22.6435 18.5 24.5 18.5C26.3565 18.5 28.137 17.7625 29.4497 16.4497C30.7625 15.137 31.5 13.3565 31.5 11.5V2.5H17.5Z" stroke="#DAD9FE" stroke-width="2" stroke-miterlimit="10" stroke-linecap="square"/>
<path d="M24.5 25.5V18.5" stroke="#DAD9FE" stroke-width="2" stroke-miterlimit="10"/>
<path d="M19.5 25.5H29.5" stroke="#DAD9FE" stroke-width="2" stroke-miterlimit="10" stroke-linecap="square"/>
<path d="M38.5 46.5V42.5L45.623 33.6C46.1908 32.8905 46.5001 32.0088 46.5 31.1V19.5C46.5 18.7044 46.1839 17.9413 45.6213 17.3787C45.0587 16.8161 44.2956 16.5 43.5 16.5V16.5C42.7044 16.5 41.9413 16.8161 41.3787 17.3787C40.8161 17.9413 40.5 18.7044 40.5 19.5V26.5" stroke="#353FFB" stroke-width="2" stroke-miterlimit="10"/>
<path d="M28.5 46.5V36.157C28.5 35.6316 28.6035 35.1113 28.8046 34.6259C29.0057 34.1405 29.3004 33.6995 29.672 33.328L36.5 26.5C36.7626 26.2373 37.0744 26.0289 37.4176 25.8867C37.7607 25.7446 38.1285 25.6714 38.5 25.6714C38.8715 25.6714 39.2393 25.7446 39.5824 25.8867C39.9256 26.0289 40.2374 26.2373 40.5 26.5C40.7627 26.7626 40.9711 27.0744 41.1133 27.4176C41.2554 27.7607 41.3286 28.1285 41.3286 28.5C41.3286 28.8714 41.2554 29.2393 41.1133 29.5824C40.9711 29.9256 40.7627 30.2374 40.5 30.5L34.5 36.5" stroke="#353FFB" stroke-width="2" stroke-miterlimit="10"/>
<path d="M10.5 46.5V42.5L3.377 33.6C2.80917 32.8905 2.49986 32.0088 2.5 31.1V19.5C2.5 18.7044 2.81607 17.9413 3.37868 17.3787C3.94129 16.8161 4.70435 16.5 5.5 16.5V16.5C6.29565 16.5 7.05871 16.8161 7.62132 17.3787C8.18393 17.9413 8.5 18.7044 8.5 19.5V26.5" stroke="#353FFB" stroke-width="2" stroke-miterlimit="10"/>
<path d="M20.5 46.5V36.157C20.5 35.6316 20.3965 35.1113 20.1954 34.6259C19.9943 34.1405 19.6996 33.6995 19.328 33.328L12.5 26.5C12.2374 26.2373 11.9256 26.0289 11.5824 25.8867C11.2393 25.7446 10.8714 25.6714 10.5 25.6714C10.1285 25.6714 9.76073 25.7446 9.41756 25.8867C9.0744 26.0289 8.76261 26.2373 8.49999 26.5V26.5C8.2373 26.7626 8.02891 27.0744 7.88674 27.4176C7.74456 27.7607 7.67139 28.1285 7.67139 28.5C7.67139 28.8714 7.74456 29.2393 7.88674 29.5824C8.02891 29.9256 8.2373 30.2374 8.49999 30.5L14.5 36.5" stroke="#353FFB" stroke-width="2" stroke-miterlimit="10"/>
<path d="M17.5 2.5H12.5V5.5C12.5 9.5 14.662 12.024 17.5 12.5" stroke="#DAD9FE" stroke-width="2" stroke-miterlimit="10"/>
<path d="M31.5 2.5H36.5V5.5C36.5 9.5 34.338 12.024 31.5 12.5" stroke="#DAD9FE" stroke-width="2" stroke-miterlimit="10"/>
</svg>
