<svg width="152" height="147" viewBox="0 0 152 147" fill="none" xmlns="http://www.w3.org/2000/svg">
<g filter="url(#filter0_d)">
<rect x="24" y="25" width="90" height="90" rx="20" fill="white"/>
</g>
<path d="M75.0077 44.8636C75.1459 44.5383 74.9947 44.1612 74.6641 44.0361C71.6498 42.8951 68.3557 42.6894 65.2146 43.4542C61.8658 44.2697 58.8699 46.1447 56.6727 48.8001C54.4755 51.4556 53.1945 54.7496 53.0204 58.1918C52.8463 61.6341 53.7884 65.0405 55.7065 67.9041C57.6246 70.7677 60.4161 72.9354 63.6655 74.0845C66.9149 75.2337 70.4485 75.3028 73.7404 74.2816C77.0323 73.2605 79.9064 71.2037 81.935 68.4173C83.8379 65.8036 84.9014 62.6792 84.9935 59.4575C85.0036 59.1042 84.7124 58.8208 84.359 58.8248C84.0056 58.8289 83.7238 59.1188 83.7124 59.4721C83.618 62.4179 82.6408 65.2732 80.9002 67.6639C79.0339 70.2274 76.3897 72.1197 73.3612 73.0591C70.3326 73.9986 67.0817 73.935 64.0922 72.8778C61.1028 71.8206 58.5346 69.8263 56.77 67.1918C55.0054 64.5572 54.1386 61.4233 54.2988 58.2565C54.459 55.0896 55.6374 52.0592 57.6589 49.6161C59.6803 47.1731 62.4365 45.4481 65.5174 44.6979C68.3906 43.9983 71.4029 44.1813 74.163 45.2152C74.494 45.3391 74.8694 45.1889 75.0077 44.8636Z" fill="#32353E"/>
<path d="M54.4021 96.08C53.8421 96.08 53.3454 96.0067 52.9121 95.86C52.4854 95.7067 52.1054 95.47 51.7721 95.15L52.0321 94.66C52.3854 94.9733 52.7421 95.1967 53.1021 95.33C53.4687 95.4633 53.9021 95.53 54.4021 95.53C55.0021 95.53 55.4687 95.4067 55.8021 95.16C56.1354 94.9133 56.3021 94.5667 56.3021 94.12C56.3021 93.86 56.2187 93.65 56.0521 93.49C55.8921 93.3233 55.6854 93.1933 55.4321 93.1C55.1854 93.0067 54.8554 92.9133 54.4421 92.82C53.8954 92.7 53.4487 92.5767 53.1021 92.45C52.7621 92.3167 52.4754 92.12 52.2421 91.86C52.0087 91.6 51.8921 91.2533 51.8921 90.82C51.8921 90.42 51.9954 90.0667 52.2021 89.76C52.4087 89.4533 52.7021 89.2167 53.0821 89.05C53.4687 88.8833 53.9154 88.8 54.4221 88.8C54.9087 88.8 55.3587 88.88 55.7721 89.04C56.1854 89.1933 56.5421 89.4233 56.8421 89.73L56.5821 90.22C56.2487 89.92 55.9087 89.7 55.5621 89.56C55.2154 89.42 54.8354 89.35 54.4221 89.35C53.8221 89.35 53.3521 89.48 53.0121 89.74C52.6787 90 52.5121 90.3567 52.5121 90.81C52.5121 91.2033 52.6587 91.4967 52.9521 91.69C53.2454 91.8833 53.6754 92.0467 54.2421 92.18L54.5321 92.25C55.0654 92.3767 55.4887 92.5 55.8021 92.62C56.1154 92.74 56.3821 92.92 56.6021 93.16C56.8221 93.4 56.9321 93.72 56.9321 94.12C56.9321 94.5067 56.8287 94.85 56.6221 95.15C56.4154 95.4433 56.1187 95.6733 55.7321 95.84C55.3521 96 54.9087 96.08 54.4021 96.08ZM58.7549 93.42V93.45C58.7549 94.1233 58.9082 94.64 59.2149 95C59.5282 95.3533 59.9815 95.53 60.5749 95.53C61.1749 95.53 61.7249 95.3233 62.2249 94.91L62.4649 95.39C62.2449 95.5967 61.9649 95.7633 61.6249 95.89C61.2849 96.01 60.9349 96.07 60.5749 96.07C59.8149 96.07 59.2149 95.84 58.7749 95.38C58.3349 94.92 58.1149 94.2867 58.1149 93.48C58.1149 92.9667 58.2115 92.5133 58.4049 92.12C58.6049 91.72 58.8815 91.4133 59.2349 91.2C59.5882 90.98 59.9949 90.87 60.4549 90.87C61.1149 90.87 61.6282 91.0833 61.9949 91.51C62.3682 91.9367 62.5549 92.53 62.5549 93.29V93.42H58.7549ZM60.4549 91.37C59.9949 91.37 59.6215 91.51 59.3349 91.79C59.0482 92.0633 58.8682 92.45 58.7949 92.95H61.9749C61.9349 92.4367 61.7849 92.0467 61.5249 91.78C61.2649 91.5067 60.9082 91.37 60.4549 91.37ZM66.3946 90.87C67.6012 90.87 68.2046 91.5167 68.2046 92.81V96H67.5946V92.85C67.5946 92.35 67.4912 91.9833 67.2846 91.75C67.0846 91.5167 66.7679 91.4 66.3346 91.4C65.8346 91.4 65.4312 91.5533 65.1246 91.86C64.8179 92.1667 64.6646 92.58 64.6646 93.1V96H64.0646V92.38C64.0646 91.86 64.0379 91.3967 63.9846 90.99H64.5646L64.6446 91.91C64.7979 91.57 65.0279 91.3133 65.3346 91.14C65.6412 90.96 65.9946 90.87 66.3946 90.87ZM74.2958 88.64V96H73.6858V95.04C73.5392 95.3733 73.3158 95.63 73.0158 95.81C72.7225 95.9833 72.3692 96.07 71.9558 96.07C71.5158 96.07 71.1258 95.9633 70.7858 95.75C70.4525 95.53 70.1925 95.2233 70.0058 94.83C69.8192 94.43 69.7258 93.97 69.7258 93.45C69.7258 92.93 69.8158 92.4767 69.9958 92.09C70.1825 91.6967 70.4425 91.3967 70.7758 91.19C71.1158 90.9767 71.5092 90.87 71.9558 90.87C72.3625 90.87 72.7125 90.9567 73.0058 91.13C73.3058 91.3033 73.5325 91.5567 73.6858 91.89V88.64H74.2958ZM72.0358 95.53C72.5625 95.53 72.9692 95.35 73.2558 94.99C73.5425 94.63 73.6858 94.1233 73.6858 93.47C73.6858 92.8167 73.5425 92.31 73.2558 91.95C72.9692 91.5833 72.5658 91.4 72.0458 91.4C71.5125 91.4 71.0992 91.58 70.8058 91.94C70.5125 92.3 70.3658 92.8033 70.3658 93.45C70.3658 94.1033 70.5125 94.6133 70.8058 94.98C71.0992 95.3467 71.5092 95.53 72.0358 95.53ZM76.154 90.99H76.754V96H76.154V90.99ZM76.874 88.92V89.7H76.064V88.92H76.874ZM80.9594 90.87C82.1661 90.87 82.7694 91.5167 82.7694 92.81V96H82.1594V92.85C82.1594 92.35 82.0561 91.9833 81.8494 91.75C81.6494 91.5167 81.3327 91.4 80.8994 91.4C80.3994 91.4 79.9961 91.5533 79.6894 91.86C79.3827 92.1667 79.2294 92.58 79.2294 93.1V96H78.6294V92.38C78.6294 91.86 78.6027 91.3967 78.5494 90.99H79.1294L79.2094 91.91C79.3627 91.57 79.5927 91.3133 79.8994 91.14C80.2061 90.96 80.5594 90.87 80.9594 90.87ZM88.9007 90.99V96.02C88.9007 96.7467 88.7207 97.2967 88.3607 97.67C88.0007 98.0433 87.4707 98.23 86.7707 98.23C86.024 98.23 85.374 98.05 84.8207 97.69L84.9407 97.16C85.2673 97.3533 85.5673 97.49 85.8407 97.57C86.114 97.65 86.4273 97.69 86.7807 97.69C87.2807 97.69 87.6573 97.5533 87.9107 97.28C88.1707 97.0067 88.3007 96.6067 88.3007 96.08V94.79C88.1473 95.13 87.9207 95.3933 87.6207 95.58C87.3207 95.76 86.9607 95.85 86.5407 95.85C86.1007 95.85 85.7107 95.7467 85.3707 95.54C85.0307 95.3267 84.764 95.0333 84.5707 94.66C84.384 94.28 84.2907 93.8467 84.2907 93.36C84.2907 92.8667 84.384 92.4333 84.5707 92.06C84.764 91.68 85.0307 91.3867 85.3707 91.18C85.7107 90.9733 86.1007 90.87 86.5407 90.87C86.9607 90.87 87.3173 90.9567 87.6107 91.13C87.9107 91.3033 88.1373 91.5567 88.2907 91.89V90.99H88.9007ZM86.6207 95.3C87.1407 95.3 87.5473 95.1267 87.8407 94.78C88.1407 94.4333 88.2907 93.96 88.2907 93.36C88.2907 92.7533 88.1407 92.2767 87.8407 91.93C87.5473 91.5767 87.1407 91.4 86.6207 91.4C86.094 91.4 85.6807 91.5767 85.3807 91.93C85.0807 92.2767 84.9307 92.7533 84.9307 93.36C84.9307 93.9667 85.0807 94.4433 85.3807 94.79C85.6807 95.13 86.094 95.3 86.6207 95.3Z" fill="#101010"/>
<rect x="102" width="50" height="50" rx="8" fill="#353FFB"/>
<circle cx="126.5" cy="24.5" r="7.5" stroke="white" stroke-width="2"/>
<path d="M134.293 33.7071C134.683 34.0976 135.317 34.0976 135.707 33.7071C136.098 33.3166 136.098 32.6834 135.707 32.2929L134.293 33.7071ZM135.707 32.2929L132.707 29.2929L131.293 30.7071L134.293 33.7071L135.707 32.2929Z" fill="white"/>
<defs>
<filter id="filter0_d" x="0" y="9" width="138" height="138" filterUnits="userSpaceOnUse" color-interpolation-filters="sRGB">
<feFlood flood-opacity="0" result="BackgroundImageFix"/>
<feColorMatrix in="SourceAlpha" type="matrix" values="0 0 0 0 0 0 0 0 0 0 0 0 0 0 0 0 0 0 127 0"/>
<feOffset dy="8"/>
<feGaussianBlur stdDeviation="12"/>
<feColorMatrix type="matrix" values="0 0 0 0 0.2175 0 0 0 0 0.2208 0 0 0 0 0.3 0 0 0 0.1 0"/>
<feBlend mode="normal" in2="BackgroundImageFix" result="effect1_dropShadow"/>
<feBlend mode="normal" in="SourceGraphic" in2="effect1_dropShadow" result="shape"/>
</filter>
</defs>
</svg>
