<svg width="92" height="92" viewBox="0 0 92 92" fill="none" xmlns="http://www.w3.org/2000/svg">
<path d="M67.5792 83.7637C58.0558 87.3991 28.9938 93.3518 13.2259 75.2163C-2.03749 57.6429 4.59082 31.0491 16.0233 17.7566C26.3546 5.74915 47.7115 0.18746 66.4278 7.78465C85.144 15.3818 88.2634 32.9538 87.6093 43.081C86.9553 53.2082 83.833 64.1361 73.6541 64.931C63.4751 65.726 61.8321 56.2255 61.1751 51.6341C60.5182 47.0428 62.9821 27.4166 62.9821 27.4166C40.6519 20.6043 32.7759 32.478 30.3077 39.7604C27.8395 47.0428 27.0259 58.4378 36.2259 63.3455C45.4259 68.2531 57.5699 61.9209 61.1823 51.6327" stroke="#353FFB" stroke-width="5" stroke-miterlimit="10" stroke-linecap="round"/>
</svg>
