<svg width="160" height="160" viewBox="0 0 160 160" fill="none" xmlns="http://www.w3.org/2000/svg">
<g filter="url(#filter0_d)">
<rect x="40" y="36" width="80" height="80" rx="20" fill="white"/>
</g>
<path d="M85.2667 87.2H89.5333" stroke="#DAD9FE" stroke-width="2" stroke-miterlimit="10" stroke-linecap="round"/>
<path d="M76.2 76.8629V80.8L68.0944 83.1157C66.2629 83.6389 65 85.3136 65 87.2181V90C65 91.1046 65.8954 92 67 92H92.8667C93.9712 92 94.8667 91.1046 94.8667 90V87.2181C94.8667 85.313 93.6037 83.6389 91.7723 83.1157L83.6667 80.8V76.8629" stroke="#353FFB" stroke-width="2" stroke-miterlimit="10"/>
<path d="M79.9333 78.1333C75.8096 78.1333 72.4667 73.7237 72.4667 69.6V67.4667C72.4667 63.3429 75.8096 60 79.9333 60C84.0571 60 87.4 63.3429 87.4 67.4667V69.6C87.4 73.7237 84.0571 78.1333 79.9333 78.1333Z" stroke="#353FFB" stroke-width="2" stroke-miterlimit="10" stroke-linecap="square"/>
<path d="M72.4766 67.2624C73.5891 67.7317 74.8547 68 76.1998 68C78.8211 68 81.1406 66.9866 82.5998 65.4282C83.7528 66.6597 85.4478 67.5413 87.3998 67.8613" stroke="#353FFB" stroke-width="2" stroke-miterlimit="10"/>
<defs>
<filter id="filter0_d" x="0" y="0" width="160" height="160" filterUnits="userSpaceOnUse" color-interpolation-filters="sRGB">
<feFlood flood-opacity="0" result="BackgroundImageFix"/>
<feColorMatrix in="SourceAlpha" type="matrix" values="0 0 0 0 0 0 0 0 0 0 0 0 0 0 0 0 0 0 127 0"/>
<feOffset dy="4"/>
<feGaussianBlur stdDeviation="20"/>
<feColorMatrix type="matrix" values="0 0 0 0 0 0 0 0 0 0 0 0 0 0 0 0 0 0 0.06 0"/>
<feBlend mode="normal" in2="BackgroundImageFix" result="effect1_dropShadow"/>
<feBlend mode="normal" in="SourceGraphic" in2="effect1_dropShadow" result="shape"/>
</filter>
</defs>
</svg>
