<svg width="95" height="95" viewBox="0 0 95 95" fill="none" xmlns="http://www.w3.org/2000/svg">
<rect x="1" y="1" width="93" height="93" rx="11" fill="white" stroke="#EDF0F5" stroke-width="2"/>
<path d="M51.0195 59.8154H56.2973" stroke="#353FFB" stroke-width="2" stroke-miterlimit="10" stroke-linecap="square"/>
<path d="M37.8203 38.5779C38.663 38.7732 39.533 38.8902 40.4328 38.8902C43.881 38.8902 46.994 37.4696 49.2291 35.186C51.2734 37.2734 54.0715 38.6342 57.1713 38.8532" stroke="#353FFB" stroke-width="2" stroke-miterlimit="10"/>
<path d="M37.8203 38.7045C37.8203 33.4267 41.6669 28.1489 47.4962 28.1489C53.3255 28.1489 57.1722 33.4267 57.1722 38.7045C57.1722 46.6211 51.8944 51.0193 47.4962 51.0193C43.0981 51.0193 37.8203 46.6211 37.8203 38.7045Z" stroke="#353FFB" stroke-width="2" stroke-miterlimit="10" stroke-linecap="square"/>
<path d="M43.5229 49.8862L31.6145 57.0315C30.5545 57.6674 29.9062 58.8127 29.9062 60.0486V66.8525H65.0914V60.0486C65.0914 58.8127 64.4432 57.6674 63.3832 57.0315L51.4748 49.8862" stroke="#353FFB" stroke-width="2" stroke-miterlimit="10"/>
</svg>
