<svg width="48" height="48" viewBox="0 0 48 48" fill="none" xmlns="http://www.w3.org/2000/svg">
<path d="M5 11V32.4C5 35.7603 5 37.4405 5.65396 38.7239C6.2292 39.8529 7.14708 40.7708 8.27606 41.346C9.55953 42 11.2397 42 14.6 42H35.6C37.8402 42 38.9603 42 39.816 41.564C40.5686 41.1805 41.1805 40.5686 41.564 39.816C42 38.9603 42 37.8402 42 35.6V32M11.5 14H35.6C37.8402 14 38.9603 14 39.816 14.436C40.5686 14.8195 41.1805 15.4314 41.564 16.184C42 17.0397 42 18.1598 42 20.4V25" stroke="#353FFB" stroke-width="2"/>
<path d="M5 11C5 9.34315 6.34315 8 8 8H12V14H8C6.34315 14 5 12.6569 5 11Z" stroke="#353FFB" stroke-width="2"/>
<path d="M33 28C33 25.7909 34.7909 24 37 24H44C44.5523 24 45 24.4477 45 25V31C45 31.5523 44.5523 32 44 32H37C34.7909 32 33 30.2091 33 28Z" stroke="#353FFB" stroke-width="2"/>
<path d="M39 28H37" stroke="#DAD9FE" stroke-width="2" stroke-miterlimit="10" stroke-linecap="round" stroke-linejoin="round"/>
<path d="M12 11.4C12 10.2634 12.0008 9.47108 12.0512 8.85424C12.1006 8.24907 12.1928 7.90138 12.327 7.63803C12.6146 7.07354 13.0735 6.6146 13.638 6.32698C13.9014 6.19279 14.2491 6.10062 14.8542 6.05118C15.4711 6.00078 16.2634 6 17.4 6H30.6C31.7366 6 32.5289 6.00078 33.1458 6.05118C33.7509 6.10062 34.0986 6.19279 34.362 6.32698C34.9265 6.6146 35.3854 7.07354 35.673 7.63803C35.8072 7.90138 35.8994 8.24907 35.9488 8.85424C35.9992 9.47108 36 10.2634 36 11.4V14H12V11.4Z" stroke="#353FFB" stroke-width="2"/>
</svg>
