<svg width="164" height="174" viewBox="0 0 164 174" fill="none" xmlns="http://www.w3.org/2000/svg" data-v-16f54cb9=""><path d="M1.50029 173.017C1.5094 173.292 1.74053 173.509 2.01652 173.5L6.51407 173.351C6.79006 173.342 7.0064 173.111 6.99729 172.835C6.98816 172.559 6.75704 172.343 6.48105 172.352L2.48323 172.484L2.35117 168.486C2.34205 168.21 2.11092 167.994 1.83494 168.003C1.55894 168.012 1.3426 168.243 1.35172 168.519L1.50029 173.017ZM162.635 0.658312L160.958 2.44998L161.688 3.13335L163.365 1.34169L162.635 0.658312ZM157.604 6.03331L154.25 9.61665L154.98 10.3L158.334 6.71669L157.604 6.03331ZM150.895 13.2L147.541 16.7833L148.271 17.4667L151.625 13.8834L150.895 13.2ZM144.187 20.3666L140.833 23.95L141.563 24.6334L144.917 21.05L144.187 20.3666ZM137.479 27.5333L134.125 31.1167L134.855 31.8L138.209 28.2167L137.479 27.5333ZM130.77 34.7L127.416 38.2833L128.146 38.9667L131.5 35.3834L130.77 34.7ZM124.062 41.8667L120.708 45.45L121.438 46.1334L124.792 42.55L124.062 41.8667ZM117.354 49.0333L114 52.6167L114.73 53.3L118.084 49.7167L117.354 49.0333ZM110.645 56.2L107.291 59.7833L108.021 60.4667L111.375 56.8834L110.645 56.2ZM103.937 63.3666L100.583 66.95L101.313 67.6334L104.667 64.05L103.937 63.3666ZM97.2287 70.5333L93.8746 74.1166L94.6046 74.8L97.9588 71.2167L97.2287 70.5333ZM90.5204 77.7L87.1662 81.2833L87.8963 81.9667L91.2505 78.3833L90.5204 77.7ZM83.8121 84.8666L80.4579 88.45L81.188 89.1333L84.5421 85.55L83.8121 84.8666ZM77.1037 92.0333L73.7496 95.6166L74.4796 96.3L77.8338 92.7167L77.1037 92.0333ZM70.3954 99.2L67.0412 102.783L67.7713 103.467L71.1255 99.8833L70.3954 99.2ZM63.6871 106.367L60.3329 109.95L61.063 110.633L64.4171 107.05L63.6871 106.367ZM56.9787 113.533L53.6246 117.117L54.3546 117.8L57.7088 114.217L56.9787 113.533ZM50.2704 120.7L46.9162 124.283L47.6463 124.967L51.0005 121.383L50.2704 120.7ZM43.562 127.867L40.2079 131.45L40.9379 132.133L44.2921 128.55L43.562 127.867ZM36.8537 135.033L33.4995 138.617L34.2296 139.3L37.5838 135.717L36.8537 135.033ZM30.1454 142.2L26.7912 145.783L27.5213 146.467L30.8754 142.883L30.1454 142.2ZM23.437 149.367L20.0829 152.95L20.8129 153.633L24.1671 150.05L23.437 149.367ZM16.7287 156.533L13.3745 160.117L14.1046 160.8L17.4588 157.217L16.7287 156.533ZM10.0203 163.7L6.66618 167.283L7.39625 167.967L10.7504 164.383L10.0203 163.7ZM3.31201 170.867L1.63498 172.658L2.36504 173.342L4.04208 171.55L3.31201 170.867ZM1.00055 173.033C1.01879 173.585 1.48104 174.018 2.03302 173.999L11.0281 173.702C11.5801 173.684 12.0128 173.222 11.9946 172.67C11.9763 172.118 11.5141 171.685 10.9621 171.703L2.96645 171.968L2.70233 163.972C2.6841 163.42 2.22184 162.987 1.66986 163.005C1.11787 163.024 0.685185 163.486 0.703423 164.038L1.00055 173.033ZM162.27 0.316624L160.593 2.10829L162.053 3.47504L163.73 1.68338L162.27 0.316624ZM157.239 5.69162L153.885 9.27496L155.345 10.6417L158.699 7.05838L157.239 5.69162ZM150.53 12.8583L147.176 16.4416L148.636 17.8084L151.99 14.225L150.53 12.8583ZM143.822 20.025L140.468 23.6083L141.928 24.975L145.282 21.3917L143.822 20.025ZM137.114 27.1916L133.76 30.775L135.22 32.1417L138.574 28.5584L137.114 27.1916ZM130.405 34.3583L127.051 37.9416L128.511 39.3084L131.865 35.725L130.405 34.3583ZM123.697 41.525L120.343 45.1083L121.803 46.4751L125.157 42.8917L123.697 41.525ZM116.989 48.6916L113.635 52.275L115.095 53.6417L118.449 50.0584L116.989 48.6916ZM110.28 55.8583L106.926 59.4416L108.386 60.8084L111.74 57.225L110.28 55.8583ZM103.572 63.025L100.218 66.6083L101.678 67.975L105.032 64.3917L103.572 63.025ZM96.8637 70.1916L93.5095 73.775L94.9697 75.1417L98.3238 71.5584L96.8637 70.1916ZM90.1554 77.3583L86.8012 80.9416L88.2613 82.3084L91.6155 78.725L90.1554 77.3583ZM83.447 84.5249L80.0929 88.1083L81.553 89.475L84.9072 85.8917L83.447 84.5249ZM76.7387 91.6916L73.3845 95.2749L74.8447 96.6417L78.1988 93.0584L76.7387 91.6916ZM70.0304 98.8583L66.6762 102.442L68.1363 103.808L71.4905 100.225L70.0304 98.8583ZM63.322 106.025L59.9679 109.608L61.428 110.975L64.7822 107.392L63.322 106.025ZM56.6137 113.192L53.2595 116.775L54.7197 118.142L58.0738 114.558L56.6137 113.192ZM49.9054 120.358L46.5512 123.942L48.0113 125.308L51.3655 121.725L49.9054 120.358ZM43.197 127.525L39.8428 131.108L41.303 132.475L44.6571 128.892L43.197 127.525ZM36.4887 134.692L33.1345 138.275L34.5946 139.642L37.9488 136.058L36.4887 134.692ZM29.7803 141.858L26.4262 145.442L27.8863 146.808L31.2405 143.225L29.7803 141.858ZM23.072 149.025L19.7178 152.608L21.178 153.975L24.5321 150.392L23.072 149.025ZM16.3637 156.192L13.0095 159.775L14.4696 161.142L17.8238 157.558L16.3637 156.192ZM9.65532 163.358L6.30115 166.942L7.76128 168.308L11.1154 164.725L9.65532 163.358ZM2.94698 170.525L1.26994 172.317L2.73008 173.683L4.40711 171.892L2.94698 170.525Z" fill="#C4CAD4" data-v-16f54cb9=""></path></svg>