<svg width="160" height="174" viewBox="0 0 160 174" fill="none" xmlns="http://www.w3.org/2000/svg" data-v-16f54cb9=""><path d="M157.977 173.499C158.253 173.512 158.487 173.299 158.499 173.023L158.704 168.527C158.717 168.252 158.504 168.018 158.228 168.005C157.952 167.993 157.718 168.206 157.705 168.482L157.523 172.478L153.527 172.296C153.252 172.283 153.018 172.496 153.005 172.772C152.993 173.048 153.206 173.282 153.482 173.295L157.977 173.499ZM0.630711 1.33708L2.33723 3.20665L3.07581 2.53248L1.36929 0.662916L0.630711 1.33708ZM5.75028 6.94578L9.16332 10.6849L9.9019 10.0107L6.48885 6.27161L5.75028 6.94578ZM12.5764 14.424L15.9894 18.1632L16.728 17.489L13.3149 13.7499L12.5764 14.424ZM19.4025 21.9023L22.8155 25.6414L23.5541 24.9673L20.141 21.2281L19.4025 21.9023ZM26.2285 29.3806L29.6416 33.1197L30.3802 32.4455L26.9671 28.7064L26.2285 29.3806ZM33.0546 36.8588L36.4677 40.598L37.2063 39.9238L33.7932 36.1847L33.0546 36.8588ZM39.8807 44.3371L43.2938 48.0762L44.0323 47.4021L40.6193 43.6629L39.8807 44.3371ZM46.7068 51.8154L50.1199 55.5545L50.8584 54.8803L47.4454 51.1412L46.7068 51.8154ZM53.5329 59.2936L56.9459 63.0328L57.6845 62.3586L54.2715 58.6195L53.5329 59.2936ZM60.359 66.7719L63.772 70.511L64.5106 69.8369L61.0976 66.0977L60.359 66.7719ZM67.1851 74.2502L70.5981 77.9893L71.3367 77.3151L67.9237 73.576L67.1851 74.2502ZM74.0112 81.7284L77.4242 85.4675L78.1628 84.7934L74.7497 81.0542L74.0112 81.7284ZM80.8373 89.2067L84.2503 92.9458L84.9889 92.2717L81.5758 88.5325L80.8373 89.2067ZM87.6633 96.6849L91.0764 100.424L91.815 99.7499L88.4019 96.0108L87.6633 96.6849ZM94.4894 104.163L97.9025 107.902L98.6411 107.228L95.228 103.489L94.4894 104.163ZM101.316 111.641L104.729 115.381L105.467 114.706L102.054 110.967L101.316 111.641ZM108.142 119.12L111.555 122.859L112.293 122.185L108.88 118.446L108.142 119.12ZM114.968 126.598L118.381 130.337L119.119 129.663L115.706 125.924L114.968 126.598ZM121.794 134.076L125.207 137.815L125.945 137.141L122.532 133.402L121.794 134.076ZM128.62 141.555L132.033 145.294L132.772 144.619L129.358 140.88L128.62 141.555ZM135.446 149.033L138.859 152.772L139.598 152.098L136.185 148.359L135.446 149.033ZM142.272 156.511L145.685 160.25L146.424 159.576L143.011 155.837L142.272 156.511ZM149.098 163.989L152.511 167.728L153.25 167.054L149.837 163.315L149.098 163.989ZM155.924 171.468L157.631 173.337L158.369 172.663L156.663 170.793L155.924 171.468ZM157.954 173.999C158.506 174.024 158.974 173.597 158.999 173.046L159.409 164.055C159.434 163.503 159.007 163.036 158.455 163.01C157.904 162.985 157.436 163.412 157.411 163.964L157.047 171.956L149.055 171.591C148.503 171.566 148.036 171.993 148.01 172.545C147.985 173.096 148.412 173.564 148.964 173.589L157.954 173.999ZM0.261422 1.67417L1.96794 3.54373L3.4451 2.1954L1.73858 0.325832L0.261422 1.67417ZM5.38099 7.28286L8.79403 11.022L10.2712 9.67366L6.85814 5.93453L5.38099 7.28286ZM12.2071 14.7611L15.6201 18.5003L17.0973 17.1519L13.6842 13.4128L12.2071 14.7611ZM19.0332 22.2394L22.4462 25.9785L23.9234 24.6302L20.5103 20.8911L19.0332 22.2394ZM25.8592 29.7176L29.2723 33.4568L30.7495 32.1084L27.3364 28.3693L25.8592 29.7176ZM32.6853 37.1959L36.0984 40.935L37.5755 39.5867L34.1625 35.8476L32.6853 37.1959ZM39.5114 44.6742L42.9245 48.4133L44.4016 47.065L40.9886 43.3258L39.5114 44.6742ZM46.3375 52.1524L49.7506 55.8916L51.2277 54.5432L47.8147 50.8041L46.3375 52.1524ZM53.1636 59.6307L56.5767 63.3698L58.0538 62.0215L54.6408 58.2824L53.1636 59.6307ZM59.9897 67.109L63.4027 70.8481L64.8799 69.4998L61.4669 65.7606L59.9897 67.109ZM66.8158 74.5872L70.2288 78.3264L71.706 76.978L68.2929 73.2389L66.8158 74.5872ZM73.6419 82.0655L77.0549 85.8046L78.5321 84.4563L75.119 80.7172L73.6419 82.0655ZM80.468 89.5438L83.881 93.2829L85.3582 91.9346L81.9451 88.1954L80.468 89.5438ZM87.2941 97.022L90.7071 100.761L92.1843 99.4128L88.7712 95.6737L87.2941 97.022ZM94.1201 104.5L97.5332 108.239L99.0103 106.891L95.5973 103.152L94.1201 104.5ZM100.946 111.979L104.359 115.718L105.836 114.369L102.423 110.63L100.946 111.979ZM107.772 119.457L111.185 123.196L112.663 121.848L109.249 118.108L107.772 119.457ZM114.598 126.935L118.011 130.674L119.489 129.326L116.076 125.587L114.598 126.935ZM121.425 134.413L124.838 138.152L126.315 136.804L122.902 133.065L121.425 134.413ZM128.251 141.892L131.664 145.631L133.141 144.282L129.728 140.543L128.251 141.892ZM135.077 149.37L138.49 153.109L139.967 151.761L136.554 148.022L135.077 149.37ZM141.903 156.848L145.316 160.587L146.793 159.239L143.38 155.5L141.903 156.848ZM148.729 164.326L152.142 168.066L153.619 166.717L150.206 162.978L148.729 164.326ZM155.555 171.805L157.261 173.674L158.739 172.326L157.032 170.456L155.555 171.805Z" fill="#C4CAD4" data-v-16f54cb9=""></path></svg>