<svg width="16" height="81" viewBox="0 0 16 81" fill="none" xmlns="http://www.w3.org/2000/svg" data-v-16f54cb9=""><path d="M7.64644 80.3536C7.84171 80.5488 8.15829 80.5488 8.35355 80.3536L11.5355 77.1716C11.7308 76.9763 11.7308 76.6597 11.5355 76.4645C11.3403 76.2692 11.0237 76.2692 10.8284 76.4645L8 79.2929L5.17157 76.4645C4.97631 76.2692 4.65972 76.2692 4.46446 76.4645C4.2692 76.6597 4.2692 76.9763 4.46446 77.1716L7.64644 80.3536ZM7.5 -2.18557e-08L7.5 2.5L8.5 2.5L8.5 2.18557e-08L7.5 -2.18557e-08ZM7.5 7.5L7.5 12.5L8.5 12.5L8.5 7.5L7.5 7.5ZM7.5 17.5L7.5 22.5L8.5 22.5L8.5 17.5L7.5 17.5ZM7.5 27.5L7.5 32.5L8.5 32.5L8.5 27.5L7.5 27.5ZM7.5 37.5L7.5 42.5L8.5 42.5L8.5 37.5L7.5 37.5ZM7.5 47.5L7.5 52.5L8.5 52.5L8.5 47.5L7.5 47.5ZM7.5 57.5L7.5 62.5L8.5 62.5L8.5 57.5L7.5 57.5ZM7.5 67.5L7.5 72.5L8.5 72.5L8.5 67.5L7.5 67.5ZM7.5 77.5L7.5 80L8.5 80L8.5 77.5L7.5 77.5ZM7.29289 80.7071C7.68341 81.0976 8.31658 81.0976 8.7071 80.7071L15.0711 74.3431C15.4616 73.9526 15.4616 73.3195 15.0711 72.9289C14.6805 72.5384 14.0474 72.5384 13.6569 72.9289L8 78.5858L2.34314 72.9289C1.95262 72.5384 1.31945 72.5384 0.928929 72.9289C0.538405 73.3195 0.538405 73.9526 0.928929 74.3431L7.29289 80.7071ZM7 -4.37114e-08L7 2.5L9 2.5L9 4.37114e-08L7 -4.37114e-08ZM7 7.5L7 12.5L9 12.5L9 7.5L7 7.5ZM7 17.5L7 22.5L9 22.5L9 17.5L7 17.5ZM7 27.5L7 32.5L9 32.5L9 27.5L7 27.5ZM7 37.5L7 42.5L9 42.5L9 37.5L7 37.5ZM7 47.5L7 52.5L9 52.5L9 47.5L7 47.5ZM7 57.5L7 62.5L9 62.5L9 57.5L7 57.5ZM7 67.5L7 72.5L9 72.5L9 67.5L7 67.5ZM7 77.5L7 80L9 80L9 77.5L7 77.5Z" fill="#C4CAD4" data-v-16f54cb9=""></path></svg>