<svg width="188" height="176" viewBox="0 0 188 176" fill="none" xmlns="http://www.w3.org/2000/svg">
<path fill-rule="evenodd" clip-rule="evenodd" d="M3.23353 75.1C-5.43762 90.4549 4.31191 109.591 20.8153 111.376C15.8477 125.463 24.6394 141.101 38.9987 143.453C33.4722 158.772 44.2868 176 60.8776 176H129.005C137.275 176 144.926 171.45 149.108 164.045L184.766 100.9C193.219 85.9319 184.168 67.3709 168.419 64.7914C173.66 50.2624 164.204 34.0174 149.061 32.3792C154.449 17.1019 143.653 0 127.122 0H58.9955C50.7251 0 43.0744 4.54981 38.8925 11.9551L3.23353 75.1ZM127.122 13.4351H58.9955C55.3198 13.4351 51.9195 15.4572 50.0608 18.7485L14.4019 81.8934C10.3556 89.0586 15.3343 98.0762 23.3365 98.0762H27.8849L58.3101 44.1993C62.492 36.794 70.1427 32.2442 78.4131 32.2442H134.574L136.057 29.6179C140.103 22.4527 135.125 13.4351 127.122 13.4351ZM153.991 64.4887L155.475 61.862C159.521 54.6968 154.542 45.6792 146.54 45.6792H141.992L131.37 64.4887H153.991ZM123.783 77.9238H146.404L119.816 125.007C117.957 128.298 114.557 130.32 110.881 130.32H61.0134L71.6351 111.511H91.4634C99.7338 111.511 107.384 106.961 111.566 99.5562L123.783 77.9238ZM116.365 64.4887L126.987 45.6792H78.4131C74.7374 45.6792 71.3371 47.7014 69.4784 50.9926L42.8896 98.0762H64.2175L76.4336 76.4438C80.6155 69.0386 88.2662 64.4887 96.5366 64.4887H116.365ZM79.2222 98.0762L87.602 83.2372C89.4606 79.946 92.8609 77.9238 96.5366 77.9238H108.778L100.398 92.7628C98.5394 96.054 95.1391 98.0762 91.4634 98.0762H79.2222ZM56.6305 111.511H35.3026L33.8195 114.138C29.7732 121.303 34.7519 130.32 42.7541 130.32H46.0087L56.6305 111.511ZM53.4263 143.755H110.881C119.151 143.755 126.802 139.206 130.984 131.8L161.409 77.9238H164.663C172.666 77.9238 177.644 86.9414 173.598 94.1066L137.939 157.252C136.081 160.543 132.68 162.565 129.005 162.565H60.8776C52.8754 162.565 47.8967 153.547 51.943 146.382L53.4263 143.755Z" fill="#32353E"/>
</svg>
